<svg width="24" height="24" viewBox="0 0 24 24" fill="none" xmlns="http://www.w3.org/2000/svg">
<path fill-rule="evenodd" clip-rule="evenodd" d="M11.6208 8.36751C9.61461 8.36751 7.98828 9.99384 7.98828 12C7.98828 14.0062 9.61461 15.6325 11.6208 15.6325C14.58 15.6325 15.3063 11.999 17.002 11.0306C15.7378 9.33294 13.7373 8.34295 11.6208 8.36751V8.36751Z" stroke="white" stroke-width="1.5" stroke-linecap="round" stroke-linejoin="round"/>
<path d="M20.1634 19.238V16.5018H17.4282" stroke="white" stroke-width="1.5" stroke-linecap="round" stroke-linejoin="round"/>
<path d="M4.20166 16.5018C5.80613 19.289 8.7767 21.0073 11.9927 21.0085C15.2086 21.0098 18.1805 19.2937 19.7872 16.5078" stroke="white" stroke-width="1.5" stroke-linecap="round" stroke-linejoin="round"/>
<path d="M3.07051 13.1265C2.73948 10.5616 3.53026 7.97844 5.2404 6.03839C6.95055 4.09834 9.41404 2.98969 12.0002 2.99624H12.0062C14.591 2.99042 17.053 4.09867 18.7623 6.03753C20.4717 7.9764 21.2627 10.5578 20.9329 13.1215" stroke="white" stroke-width="1.5" stroke-linecap="round" stroke-linejoin="round"/>
<path d="M12.0593 11.6049C10.0279 11.9447 8.23761 13.1342 7.13721 14.8752" stroke="white" stroke-width="1.5" stroke-linecap="round" stroke-linejoin="round"/>
</svg>
