<svg width="120" height="40" viewBox="0 0 120 40" fill="none" xmlns="http://www.w3.org/2000/svg">
<g clip-path="url(#clip0_8139_50288)">
<rect width="120" height="40" rx="12" fill="#FCF4EC"/>
<path d="M29.128 25.7951C28.141 25.8341 27.235 26.3411 26.5285 27.0476C26.497 26.9981 26.4685 26.9471 26.437 26.8991C25.591 25.6031 24.424 24.4721 22.981 23.9156C21.538 23.3591 19.801 23.4461 18.5545 24.3626C18.4465 24.4421 18.343 24.5276 18.244 24.6161C17.7475 23.5706 17.05 22.6301 16.12 21.9536C14.7385 20.9486 12.7945 20.6276 11.287 21.4316C9.9085 22.1666 9.103 23.6996 8.857 25.2431C8.0575 24.7196 7.1785 24.3311 6.2395 24.1661C5.4985 24.0356 4.7365 24.0551 4 24.2051V28.4951H33.097C32.9245 28.1831 32.734 27.8831 32.515 27.5996C31.7035 26.5466 30.4555 25.7441 29.128 25.7981V25.7951Z" fill="white"/>
<path d="M87.369 11.3217C87.1155 10.6797 86.7555 10.0812 86.3025 9.56067C85.4385 8.56917 84.243 7.87017 82.953 7.60317C81.828 7.37067 80.5905 7.48167 79.641 8.12967C79.5825 8.17017 79.527 8.21367 79.4715 8.25567C79.2015 7.78167 78.867 7.34667 78.4575 6.98367C77.5575 6.18567 76.263 5.77767 75.1095 6.12417C73.9485 6.47367 73.1085 7.51617 72.6945 8.66217C71.9055 8.24667 70.9875 8.07867 70.107 8.21967C69.054 8.38767 68.0985 8.96817 67.329 9.70767C66.825 10.1922 66.3945 10.7442 66 11.3217H87.3675H87.369Z" fill="white"/>
<path d="M116.5 22.4907C116.26 22.5522 116.029 22.6407 115.81 22.7562C115.506 21.9147 114.889 21.1482 114.036 20.8917C113.188 20.6367 112.237 20.9367 111.576 21.5232C111.276 21.7902 111.03 22.1082 110.83 22.4577C110.79 22.4262 110.749 22.3947 110.706 22.3647C110.008 21.8892 109.098 21.8067 108.271 21.9777C107.325 22.1742 106.446 22.6872 105.81 23.4162C105.477 23.7987 105.213 24.2382 105.025 24.7107H116.499V22.4922L116.5 22.4907Z" fill="white"/>
<path d="M13.4065 9.31603C13.531 9.00103 13.708 8.70703 13.93 8.45053C14.3545 7.96303 14.941 7.61953 15.574 7.48903C16.126 7.37503 16.735 7.42903 17.2 7.74703C17.2285 7.76653 17.2555 7.78753 17.284 7.80853C17.416 7.57603 17.581 7.36303 17.782 7.18453C18.2245 6.79303 18.8605 6.59203 19.426 6.76303C19.996 6.93403 20.4085 7.44703 20.6125 8.00953C20.9995 7.80553 21.451 7.72303 21.883 7.79203C22.4005 7.87453 22.87 8.15953 23.2465 8.52253C23.494 8.76103 23.7055 9.03103 23.899 9.31453H13.4065V9.31603Z" fill="white"/>
<g clip-path="url(#clip1_8139_50288)">
<path d="M48.0374 21.3213H38.0764V21.8734H48.0374V21.3213Z" fill="#B6C2EC"/>
<path d="M73.0119 21.3213H63.0508V21.8734H73.0119V21.3213Z" fill="#B6C2EC"/>
<path d="M83.9908 26.269H7V27.0069H83.9908V26.269Z" fill="#E74C3C"/>
<path d="M39.8372 24.9429H31.0457V26.2694H39.8372V24.9429Z" fill="#CC4335"/>
<path d="M51.2661 24.9429H42.4746V26.2694H51.2661V24.9429Z" fill="#CC4335"/>
<path d="M62.695 24.9429H53.9036V26.2694H62.695V24.9429Z" fill="#CC4335"/>
<path d="M74.1264 24.9429H65.335V26.2694H74.1264V24.9429Z" fill="#CC4335"/>
<path d="M85.5554 24.9429H76.7639V26.2694H85.5554V24.9429Z" fill="#CC4335"/>
<path d="M24.3894 8.35156H23.7954V13.4407H24.3894V8.35156Z" fill="#B6C2EC"/>
<path d="M87.2038 23.1792L81.6882 27.0072H7L10.1163 33.0304H106.822L113 23.1792H87.2038Z" fill="#333333"/>
<path d="M106.822 33.0304H10.1161L13.7217 39.2813H32.7673C32.7673 40.0479 33.3874 40.668 34.154 40.668H51.4177C52.1844 40.668 52.8045 40.0479 52.8045 39.2813H105.035C105.035 39.2813 109.266 38.7554 109.672 36.3586C110.077 33.9619 106.825 33.0278 106.825 33.0278L106.822 33.0304Z" fill="#E74C3C"/>
<path d="M11.8928 36.1123L13.7218 39.2835H32.7673C32.7673 40.0502 33.3874 40.6703 34.1541 40.6703H51.4178C52.1844 40.6703 52.8046 40.0502 52.8046 39.2835H105.035C105.035 39.2835 109.266 38.7576 109.672 36.3609L11.8954 36.1123H11.8928Z" fill="#CC4335"/>
<path d="M109.706 28.4355H101.846L99.7579 30.5235H8.81854L10.1163 33.0301H106.822L109.706 28.4355Z" fill="#1A1A1A"/>
<path d="M25.7735 13.8096H12.1755V27.0072H25.7735V13.8096Z" fill="#E0E6F5"/>
<path d="M14.3943 13.8096H12.1755V27.0072H14.3943V13.8096Z" fill="#B6C2EC"/>
<path d="M26.6973 13.0742H11.0532V13.8121H26.6973V13.0742Z" fill="#2C3E50"/>
<path d="M20.3599 6.81299H13.4942V13.0743H20.3599V6.81299Z" fill="#E0E6F5"/>
<path d="M15.6057 6.81299H13.4942V13.0743H15.6057V6.81299Z" fill="#B6C2EC"/>
<path d="M8.34738 20.8608H7.62V27.007H8.34738V20.8608Z" fill="#B6C2EC"/>
<path d="M10.6239 20.8608H9.89648V27.007H10.6239V20.8608Z" fill="#B6C2EC"/>
<path d="M22.406 4.18066H21.812V13.4405H22.406V4.18066Z" fill="#2C3E50"/>
<path d="M28.1023 20.4082H19.4913V21.1251H28.1023V20.4082Z" fill="#2C3E50"/>
<path d="M27.4845 21.125H20.106V27.0069H27.4845V21.125Z" fill="#B6C2EC"/>
<path d="M17.3954 16.2637H16.0793V17.5798H17.3954V16.2637Z" fill="#2C3E50"/>
<path d="M19.7267 16.2637H18.4106V17.5798H19.7267V16.2637Z" fill="#2C3E50"/>
<path d="M22.0581 16.2637H20.742V17.5798H22.0581V16.2637Z" fill="#2C3E50"/>
<path d="M24.3894 16.2637H23.0733V17.5798H24.3894V16.2637Z" fill="#2C3E50"/>
<path d="M38.3825 21.8735H36.9146V27.0071H38.3825V21.8735Z" fill="#2C3E50"/>
<path d="M38.0762 16.7373H37.2232V21.8709H38.0762V16.7373Z" fill="#E0E6F5"/>
<path d="M49.1965 21.8735H47.7286V27.0071H49.1965V21.8735Z" fill="#2C3E50"/>
<path d="M48.8902 16.7373H48.0372V21.8709H48.8902V16.7373Z" fill="#E0E6F5"/>
<path d="M63.2864 21.8735H61.8185V27.0071H63.2864V21.8735Z" fill="#2C3E50"/>
<path d="M62.9776 16.7373H62.1246V21.8709H62.9776V16.7373Z" fill="#E0E6F5"/>
<path d="M74.1004 21.8735H72.6326V27.0071H74.1004V21.8735Z" fill="#2C3E50"/>
<path d="M73.7916 16.7373H72.9386V21.8709H73.7916V16.7373Z" fill="#E0E6F5"/>
<path d="M101.545 14.3433H100.778V23.1792H101.545V14.3433Z" fill="#B6C2EC"/>
<path d="M101.972 15.5205H100.352V18.4274H101.972V15.5205Z" fill="#2C3E50"/>
<path d="M87.9469 20.4082H87.264V23.1791H87.9469V20.4082Z" fill="#B6C2EC"/>
<path d="M27.4845 22.0986H20.106V22.8339H27.4845V22.0986Z" fill="#2C3E50"/>
<path d="M20.3599 8.35156H13.4942V9.23333H20.3599V8.35156Z" fill="#2C3E50"/>
</g>
<path d="M83.0275 38.9541C80.1175 38.2872 77.1744 36.6173 74.2093 35.9063C65.2698 33.7624 56.3909 40.5028 47.2089 39.9848C40.8707 39.6265 34.4389 39.3565 28.426 37.3338C11.5776 31.6736 2.18063 41.1752 -11.3278 39.2407C-16.3763 38.5187 -21.2208 38.4636 -26.1039 37.0086C-30.9871 35.5536 -35.06 35.9725 -37 38.403V43.3467H83.0275V38.9541Z" fill="#9FCFF1"/>
<path d="M4.40186 36.2756C5.06874 36.0717 5.84584 36.0386 6.66153 36.1874C7.61501 36.3583 8.5299 36.7441 9.41724 37.1079C9.6377 37.2015 9.86366 37.2952 10.0896 37.3834C13.2863 38.6676 16.7309 39.3179 20.1755 39.3179C22.3525 39.3179 24.5295 39.0589 26.6459 38.5353C27.1034 38.4196 27.5663 38.2928 28.0127 38.1716C29.3079 37.8133 30.6417 37.444 31.9975 37.3779C34.1139 37.2677 36.2248 37.896 37.9388 39.1416L37.9664 39.103C36.2413 37.8519 34.1194 37.2236 31.992 37.3338C30.6307 37.4055 29.2914 37.7747 27.9962 38.1275C27.5498 38.2487 27.0868 38.381 26.6294 38.4912C21.1841 39.8415 15.3145 39.4337 10.1062 37.3448C9.8802 37.2567 9.65423 37.163 9.43929 37.0693C8.55195 36.7 7.63154 36.3142 6.67256 36.1434C5.85687 35.9945 5.07425 36.0276 4.40186 36.2315V36.2866V36.2756Z" fill="#7FC0E5"/>
<path d="M11.9744 39.6099C7.85187 41.1311 3.61359 42.3822 -0.734913 42.1837C-5.46921 41.9688 -10.0272 40.0288 -14.293 38.0557C-14.5961 37.9179 -14.8992 37.7746 -15.2079 37.6313C-19.1981 35.7795 -23.3207 33.867 -27.7133 33.2167C-31.0918 32.7151 -34.327 33.0954 -37 34.2418V34.4182C-34.3435 33.2663 -31.1193 32.875 -27.7408 33.3765C-23.3703 34.0213 -19.2533 35.9338 -15.2795 37.7801C-14.9764 37.9234 -14.6678 38.0612 -14.3646 38.2045C-10.0878 40.1831 -5.5078 42.1341 -0.745937 42.3491C-0.437298 42.3656 -0.134167 42.3711 0.174473 42.3711C4.37417 42.3711 8.45261 41.098 12.4319 39.6154H11.9689L11.9744 39.6099Z" fill="#7FC0E5"/>
<path d="M69.1777 38.2873C67.3534 38.4802 65.4961 38.7392 63.6993 38.9928C58.9761 39.6596 54.1095 40.3486 49.3366 39.814C49.1713 39.8525 49.0059 39.8856 48.8406 39.9132C53.7843 40.5525 58.8328 39.8415 63.7214 39.1526C65.5181 38.8991 67.3755 38.6345 69.1942 38.4471C74.6285 37.8795 79.2525 38.2101 83.0279 39.4337V39.2628C79.236 38.0448 74.6064 37.7141 69.1777 38.2873Z" fill="#7FC0E5"/>
<path d="M183.028 38.9541C180.118 38.2872 177.174 36.6173 174.209 35.9063C165.27 33.7624 156.391 40.5028 147.209 39.9848C140.871 39.6265 134.439 39.3565 128.426 37.3338C111.578 31.6736 102.181 41.1752 88.6722 39.2407C83.6237 38.5187 78.7792 38.4636 73.8961 37.0086C69.0129 35.5536 64.94 35.9725 63 38.403V43.3467H183.028V38.9541Z" fill="#9FCFF1"/>
<path d="M104.402 36.2756C105.069 36.0717 105.846 36.0386 106.662 36.1874C107.615 36.3583 108.53 36.7441 109.417 37.1079C109.638 37.2015 109.864 37.2952 110.09 37.3834C113.286 38.6676 116.731 39.3179 120.176 39.3179C122.353 39.3179 124.53 39.0589 126.646 38.5353C127.103 38.4196 127.566 38.2928 128.013 38.1716C129.308 37.8133 130.642 37.444 131.997 37.3779C134.114 37.2677 136.225 37.896 137.939 39.1416L137.966 39.103C136.241 37.8519 134.119 37.2236 131.992 37.3338C130.631 37.4055 129.291 37.7747 127.996 38.1275C127.55 38.2487 127.087 38.381 126.629 38.4912C121.184 39.8415 115.314 39.4337 110.106 37.3448C109.88 37.2567 109.654 37.163 109.439 37.0693C108.552 36.7 107.632 36.3142 106.673 36.1434C105.857 35.9945 105.074 36.0276 104.402 36.2315V36.2866V36.2756Z" fill="#7FC0E5"/>
<path d="M111.974 39.6099C107.852 41.1311 103.614 42.3822 99.2651 42.1837C94.5308 41.9688 89.9728 40.0288 85.707 38.0557C85.4039 37.9179 85.1008 37.7746 84.7921 37.6313C80.8019 35.7795 76.6793 33.867 72.2867 33.2167C68.9082 32.7151 65.673 33.0954 63 34.2418V34.4182C65.6565 33.2663 68.8807 32.875 72.2592 33.3765C76.6297 34.0213 80.7467 35.9338 84.7205 37.7801C85.0236 37.9234 85.3322 38.0612 85.6354 38.2045C89.9122 40.1831 94.4922 42.1341 99.2541 42.3491C99.5627 42.3656 99.8658 42.3711 100.174 42.3711C104.374 42.3711 108.453 41.098 112.432 39.6154H111.969L111.974 39.6099Z" fill="#7FC0E5"/>
</g>
<defs>
<clipPath id="clip0_8139_50288">
<rect width="120" height="40" rx="12" fill="white"/>
</clipPath>
<clipPath id="clip1_8139_50288">
<rect width="106" height="36.4898" fill="white" transform="translate(7 4.18066)"/>
</clipPath>
</defs>
</svg>
