<svg width="120" height="40" viewBox="0 0 120 40" fill="none" xmlns="http://www.w3.org/2000/svg">
<g clip-path="url(#clip0_8139_5113)">
<rect width="120" height="40" rx="12" fill="#FCF4EC"/>
<path d="M29.128 25.7951C28.141 25.8341 27.235 26.3411 26.5285 27.0476C26.497 26.9981 26.4685 26.9471 26.437 26.8991C25.591 25.6031 24.424 24.4721 22.981 23.9156C21.538 23.3591 19.801 23.4461 18.5545 24.3626C18.4465 24.4421 18.343 24.5276 18.244 24.6161C17.7475 23.5706 17.05 22.6301 16.12 21.9536C14.7385 20.9486 12.7945 20.6276 11.287 21.4316C9.9085 22.1666 9.103 23.6996 8.857 25.2431C8.0575 24.7196 7.1785 24.3311 6.2395 24.1661C5.4985 24.0356 4.7365 24.0551 4 24.2051V28.4951H33.097C32.9245 28.1831 32.734 27.8831 32.515 27.5996C31.7035 26.5466 30.4555 25.7441 29.128 25.7981V25.7951Z" fill="white"/>
<path d="M109.405 8.32167C109.151 7.67967 108.791 7.08117 108.338 6.56067C107.474 5.56917 106.279 4.87017 104.989 4.60317C103.864 4.37067 102.626 4.48167 101.677 5.12967C101.618 5.17017 101.563 5.21367 101.507 5.25567C101.237 4.78167 100.903 4.34667 100.493 3.98367C99.5934 3.18567 98.2989 2.77767 97.1454 3.12417C95.9844 3.47367 95.1445 4.51617 94.7305 5.66217C93.9415 5.24667 93.0235 5.07867 92.143 5.21967C91.09 5.38767 90.1344 5.96817 89.3649 6.70767C88.8609 7.19217 88.4304 7.74417 88.0359 8.32167H109.403H109.405Z" fill="white"/>
<path d="M116.5 22.4907C116.26 22.5522 116.029 22.6407 115.81 22.7562C115.506 21.9147 114.889 21.1482 114.036 20.8917C113.188 20.6367 112.237 20.9367 111.576 21.5232C111.276 21.7902 111.03 22.1082 110.83 22.4577C110.79 22.4262 110.749 22.3947 110.706 22.3647C110.008 21.8892 109.098 21.8067 108.271 21.9777C107.325 22.1742 106.446 22.6872 105.81 23.4162C105.477 23.7987 105.213 24.2382 105.025 24.7107H116.499V22.4922L116.5 22.4907Z" fill="white"/>
<path d="M13.4065 9.31603C13.531 9.00103 13.708 8.70703 13.93 8.45053C14.3545 7.96303 14.941 7.61953 15.574 7.48903C16.126 7.37503 16.735 7.42903 17.2 7.74703C17.2285 7.76653 17.2555 7.78753 17.284 7.80853C17.416 7.57603 17.581 7.36303 17.782 7.18453C18.2245 6.79303 18.8605 6.59203 19.426 6.76303C19.996 6.93403 20.4085 7.44703 20.6125 8.00953C20.9995 7.80553 21.451 7.72303 21.883 7.79203C22.4005 7.87453 22.87 8.15953 23.2465 8.52253C23.494 8.76103 23.7055 9.03103 23.899 9.31453H13.4065V9.31603Z" fill="white"/>
<g clip-path="url(#clip1_8139_5113)">
<path d="M28.3081 9.77344H26.1912V11.4995H28.3081V9.77344Z" fill="#B6C2EC"/>
<path d="M29.2972 5.14844H27.7185V9.80033H29.2972V5.14844Z" fill="#B6C2EC"/>
<path d="M28.7019 2.18058V6.13484C28.7019 6.3754 29.0778 6.37841 29.0778 6.13484V2.18058C29.0778 1.94001 28.7019 1.937 28.7019 2.18058Z" fill="#221F4A"/>
<path d="M29.4387 3.10977V6.43857C29.4387 6.67913 29.8145 6.68214 29.8145 6.43857V3.10977C29.8145 2.86921 29.4387 2.8662 29.4387 3.10977Z" fill="#221F4A"/>
<path d="M32.5329 9.77344H27.421V11.8483H32.5329V9.77344Z" fill="#E0E6F5"/>
<path d="M30.9632 5.14844H28.5786V11.6707H30.9632V5.14844Z" fill="#E0E6F5"/>
<path d="M36.493 12.8438H22.1885V25.0133H36.493V12.8438Z" fill="#E0E6F5"/>
<path d="M25.2109 15.2222H22.1557V25.0131H25.2109V15.2222Z" fill="#B6C2EC"/>
<path d="M22.1555 15.2219L20.8865 14.0371H23.6831L25.2077 15.2219H22.1555Z" fill="#B6C2EC"/>
<path d="M23.6831 12.8438H20.8865V14.0375H23.6831V12.8438Z" fill="#B6C2EC"/>
<path d="M38.096 12.8438H35.2994V14.0375H38.096V12.8438Z" fill="#E0E6F5"/>
<path d="M25.8003 11.4634H23.6833V12.8406H25.8003V11.4634Z" fill="#B6C2EC"/>
<path d="M35.2995 11.4634H25.4515V12.8406H35.2995V11.4634Z" fill="#E0E6F5"/>
<path d="M38.096 14.0375L36.4933 15.2222V13.7007L38.096 14.0375Z" fill="#E0E6F5"/>
<path d="M25.8482 13.4297H24.7386V13.8507H25.8482V13.4297Z" fill="#221F4A"/>
<path d="M27.451 13.4297H26.3414V13.8507H27.451V13.4297Z" fill="#221F4A"/>
<path d="M29.0508 13.4297H27.9412V13.8507H29.0508V13.4297Z" fill="#221F4A"/>
<path d="M30.6535 13.4297H29.5439V13.8507H30.6535V13.4297Z" fill="#221F4A"/>
<path d="M32.2533 13.4297H31.1437V13.8507H32.2533V13.4297Z" fill="#221F4A"/>
<path d="M33.8531 13.4297H32.7435V13.8507H33.8531V13.4297Z" fill="#221F4A"/>
<path d="M35.4557 13.4297H34.3461V13.8507H35.4557V13.4297Z" fill="#221F4A"/>
<path d="M37.0555 13.4297H35.9459V13.8507H37.0555V13.4297Z" fill="#221F4A"/>
<path d="M26.9458 15.4268H26.3414V16.0312H26.9458V15.4268Z" fill="#221F4A"/>
<path d="M29.7813 15.4268H29.1769V16.0312H29.7813V15.4268Z" fill="#221F4A"/>
<path d="M32.0787 10.2065H28.1636V11.0275H32.0787V10.2065Z" fill="#B6C2EC"/>
<path d="M32.617 15.4268H32.0126V16.0312H32.617V15.4268Z" fill="#221F4A"/>
<path d="M35.4559 15.4268H34.8514V16.0312H35.4559V15.4268Z" fill="#221F4A"/>
<path d="M26.9458 17.4531H26.3414V18.0575H26.9458V17.4531Z" fill="#221F4A"/>
<path d="M29.7813 17.4531H29.1769V18.0575H29.7813V17.4531Z" fill="#221F4A"/>
<path d="M32.617 17.4531H32.0126V18.0575H32.617V17.4531Z" fill="#221F4A"/>
<path d="M35.4559 17.4531H34.8514V18.0575H35.4559V17.4531Z" fill="#221F4A"/>
<path d="M26.9458 19.4829H26.3414V20.0873H26.9458V19.4829Z" fill="#221F4A"/>
<path d="M29.7813 19.4829H29.1769V20.0873H29.7813V19.4829Z" fill="#221F4A"/>
<path d="M32.617 19.4829H32.0126V20.0873H32.617V19.4829Z" fill="#221F4A"/>
<path d="M35.4559 19.4829H34.8514V20.0873H35.4559V19.4829Z" fill="#221F4A"/>
<path d="M26.9458 21.5127H26.3414V22.1171H26.9458V21.5127Z" fill="#221F4A"/>
<path d="M29.7813 21.5127H29.1769V22.1171H29.7813V21.5127Z" fill="#221F4A"/>
<path d="M32.617 21.5127H32.0126V22.1171H32.617V21.5127Z" fill="#221F4A"/>
<path d="M35.4559 21.5127H34.8514V22.1171H35.4559V21.5127Z" fill="#221F4A"/>
<path d="M26.9458 23.5425H26.3414V24.1469H26.9458V23.5425Z" fill="#221F4A"/>
<path d="M29.7813 23.5425H29.1769V24.1469H29.7813V23.5425Z" fill="#221F4A"/>
<path d="M32.617 23.5425H32.0126V24.1469H32.617V23.5425Z" fill="#221F4A"/>
<path d="M35.4559 23.5425H34.8514V24.1469H35.4559V23.5425Z" fill="#221F4A"/>
<path d="M20.9047 13.0302H37.9246C38.1651 13.0302 38.1681 12.6543 37.9246 12.6543H20.9047C20.6641 12.6543 20.6611 13.0302 20.9047 13.0302Z" fill="#221F4A"/>
<path d="M26.1639 9.91445H32.6561C32.8966 9.91445 32.8996 9.53857 32.6561 9.53857H26.1639C25.9233 9.53857 25.9203 9.91445 26.1639 9.91445Z" fill="#221F4A"/>
<path d="M23.6983 11.6615H35.1792C35.4198 11.6615 35.4228 11.2856 35.1792 11.2856H23.6983C23.4578 11.2856 23.4548 11.6615 23.6983 11.6615Z" fill="#221F4A"/>
<path d="M63.6136 16.3555C63.6948 16.3555 63.776 16.3254 63.8392 16.2623L63.9294 16.169C63.9474 16.151 63.9474 16.1179 63.9294 16.0999C63.9113 16.0818 63.8783 16.0818 63.8602 16.0999L63.77 16.1901C63.6918 16.2683 63.5685 16.2743 63.4843 16.2081C63.4092 16.151 63.3821 16.0548 63.4092 15.9646L63.4904 15.724C63.4994 15.6969 63.4843 15.6699 63.4603 15.6608C63.4332 15.6518 63.4062 15.6669 63.3971 15.6909L63.3159 15.9315C63.2738 16.0608 63.3159 16.2021 63.4242 16.2833C63.4813 16.3284 63.5505 16.3495 63.6167 16.3495L63.6136 16.3555Z" fill="#2C5B7F"/>
<path d="M63.4785 15.7389C63.5176 15.7389 63.5477 15.7088 63.5477 15.6697V13.9046C63.5477 13.8655 63.5176 13.8354 63.4785 13.8354C63.4394 13.8354 63.4094 13.8655 63.4094 13.9046V15.6697C63.4094 15.7088 63.4394 15.7389 63.4785 15.7389Z" fill="#224965"/>
<path d="M63.364 15.7871H63.5955C63.6304 15.7871 63.6587 15.7588 63.6587 15.724V15.2819C63.6587 15.2471 63.6304 15.2188 63.5955 15.2188H63.364C63.3291 15.2188 63.3009 15.2471 63.3009 15.2819V15.724C63.3009 15.7588 63.3291 15.7871 63.364 15.7871Z" fill="#E1654C"/>
<path d="M63.3671 15.5375C63.3671 15.5977 63.4182 15.6488 63.4783 15.6488C63.5385 15.6488 63.5896 15.5977 63.5896 15.5375C63.5896 15.4774 63.5385 15.4263 63.4783 15.4263C63.4182 15.4263 63.3671 15.4774 63.3671 15.5375Z" fill="#F7DA88"/>
<path d="M63.7822 13.2253C63.8213 13.2253 63.8543 13.2013 63.8664 13.1622C63.8814 13.1141 63.8573 13.063 63.8092 13.0479L44.9009 6.85943C44.8528 6.8444 44.8017 6.86845 44.7867 6.91656C44.7716 6.96468 44.7957 7.0158 44.8438 7.03083L63.7521 13.2193C63.7521 13.2193 63.7701 13.2223 63.7792 13.2223L63.7822 13.2253Z" fill="#224965"/>
<path d="M45.1474 11.0571H44.6001V6.77811C44.6001 6.67887 44.6813 6.59768 44.7805 6.59768H44.967C45.0662 6.59768 45.1474 6.67887 45.1474 6.77811V11.0571Z" fill="#2C5B7F"/>
<path d="M45.4782 25.1782H44.2694V10.8888C44.2694 10.7414 44.3897 10.6211 44.537 10.6211H45.2106C45.3579 10.6211 45.4782 10.7414 45.4782 10.8888V25.1782Z" fill="#F7DC8B"/>
<path d="M45.4782 12.8701V13.7782H64.9458C65.036 13.7782 65.1142 13.7422 65.1743 13.685C65.2194 13.6399 65.2495 13.5828 65.2615 13.5196C65.2646 13.4986 65.2676 13.4775 65.2676 13.4565C65.2676 13.1347 65.0059 12.8731 64.6842 12.8731H45.4782V12.8701Z" fill="#F7DA88"/>
<path d="M45.4782 13.5171V13.7757H64.9458C65.036 13.7757 65.1142 13.7396 65.1743 13.6825C65.2194 13.6374 65.2495 13.5802 65.2615 13.5171H45.4782Z" fill="#EB9E70"/>
<path d="M44.3715 13.9048H45.5893C45.7205 13.9048 45.8269 13.7984 45.8269 13.6672V12.9816C45.8269 12.8504 45.7205 12.7441 45.5893 12.7441H44.3715C44.2403 12.7441 44.1339 12.8504 44.1339 12.9816V13.6672C44.1339 13.7984 44.2403 13.9048 44.3715 13.9048Z" fill="#2C5B7F"/>
<path d="M62.062 14.1543H64.2932C64.3647 14.1543 64.4225 14.0964 64.4225 14.025V13.5288C64.4225 13.4574 64.3647 13.3995 64.2932 13.3995H62.062C61.9906 13.3995 61.9327 13.4574 61.9327 13.5288V14.025C61.9327 14.0964 61.9906 14.1543 62.062 14.1543Z" fill="#2C5B7F"/>
<path d="M45.4781 13.9048V14.5573C45.0932 14.5573 44.7834 14.867 44.7834 15.2519V21.4013H44.2692V13.9048H45.4781Z" fill="#EB9E70"/>
<path d="M44.2694 14.1753H45.4782V13.9047H44.2694V14.1753Z" fill="#E88F62"/>
<path d="M76.1259 18.8124C76.2071 18.8124 76.2883 18.7824 76.3514 18.7192L76.4416 18.629C76.4597 18.611 76.4597 18.5779 76.4416 18.5598C76.4236 18.5418 76.3905 18.5418 76.3725 18.5598L76.2823 18.65C76.2041 18.7282 76.0808 18.7342 75.9966 18.6681C75.9214 18.611 75.8944 18.5147 75.9214 18.4245L76.0026 18.184C76.0116 18.1569 75.9966 18.1298 75.9726 18.1208C75.9455 18.1118 75.9184 18.1268 75.9094 18.1509L75.8282 18.3914C75.7861 18.5207 75.8282 18.6621 75.9365 18.7433C75.9936 18.7884 76.0628 18.8094 76.1289 18.8094L76.1259 18.8124Z" fill="#2C5B7F"/>
<path d="M75.9906 18.1961C76.0297 18.1961 76.0598 18.166 76.0598 18.1269V11.7249C76.0598 11.6858 76.0297 11.6558 75.9906 11.6558C75.9515 11.6558 75.9214 11.6858 75.9214 11.7249V18.1269C75.9214 18.166 75.9515 18.1961 75.9906 18.1961Z" fill="#224965"/>
<path d="M75.8763 18.2441H76.1079C76.1427 18.2441 76.171 18.2159 76.171 18.181V17.739C76.171 17.7041 76.1427 17.6758 76.1079 17.6758H75.8763C75.8415 17.6758 75.8132 17.7041 75.8132 17.739V18.181C75.8132 18.2159 75.8415 18.2441 75.8763 18.2441Z" fill="#E1654C"/>
<path d="M75.8792 17.9946C75.8792 18.0547 75.9303 18.1058 75.9904 18.1058C76.0506 18.1058 76.1017 18.0547 76.1017 17.9946C76.1017 17.9344 76.0506 17.8833 75.9904 17.8833C75.9303 17.8833 75.8792 17.9344 75.8792 17.9946Z" fill="#F7DA88"/>
<path d="M76.2942 11.0452C76.3333 11.0452 76.3664 11.0211 76.3784 10.982C76.3935 10.9339 76.3694 10.8828 76.3213 10.8677L57.413 4.67926C57.3649 4.66422 57.3138 4.68828 57.2988 4.73639C57.2837 4.7845 57.3078 4.83562 57.3559 4.85066L76.2642 11.0392C76.2642 11.0392 76.2822 11.0422 76.2912 11.0422L76.2942 11.0452Z" fill="#224965"/>
<path d="M57.6568 8.87402H57.1095V4.595C57.1095 4.49577 57.1907 4.41458 57.2899 4.41458H57.4764C57.5756 4.41458 57.6568 4.49577 57.6568 4.595V8.87402Z" fill="#2C5B7F"/>
<path d="M56.989 8.44385H57.7829C57.8972 8.44385 57.9904 8.53707 57.9904 8.65133V21.4012H56.7816V8.65133C56.7816 8.53707 56.8748 8.44385 56.989 8.44385Z" fill="#F7DC8B"/>
<path d="M57.9904 10.6904V11.5986H77.458C77.5482 11.5986 77.6263 11.5625 77.6865 11.5053C77.7316 11.4602 77.7617 11.4031 77.7737 11.34C77.7767 11.3189 77.7797 11.2979 77.7797 11.2768C77.7797 10.955 77.5181 10.6934 77.1963 10.6934H57.9904V10.6904Z" fill="#F7DA88"/>
<path d="M57.9904 11.3369V11.5955H77.458C77.5482 11.5955 77.6263 11.5594 77.6865 11.5023C77.7316 11.4572 77.7617 11.4001 77.7737 11.3369H57.9904Z" fill="#EB9E70"/>
<path d="M56.8807 11.7246H58.0985C58.2297 11.7246 58.3361 11.6183 58.3361 11.4871V10.8014C58.3361 10.6702 58.2297 10.5639 58.0985 10.5639H56.8807C56.7495 10.5639 56.6431 10.6702 56.6431 10.8014V11.4871C56.6431 11.6183 56.7495 11.7246 56.8807 11.7246Z" fill="#2C5B7F"/>
<path d="M74.5712 11.9712H76.8025C76.8739 11.9712 76.9318 11.9133 76.9318 11.8419V11.3457C76.9318 11.2743 76.8739 11.2164 76.8025 11.2164H74.5712C74.4998 11.2164 74.4419 11.2743 74.4419 11.3457V11.8419C74.4419 11.9133 74.4998 11.9712 74.5712 11.9712Z" fill="#2C5B7F"/>
<path d="M57.9904 11.7217V12.3742C57.6055 12.3742 57.2958 12.6839 57.2958 13.0688V21.3983H56.7816V11.7217H57.9904Z" fill="#EB9E70"/>
<path d="M56.7815 11.9951H57.9904V11.7245H56.7815V11.9951Z" fill="#E88F62"/>
<path d="M76.3183 24.7124H80.5944V19.5343H76.3183V24.7124Z" fill="#9EA4AB"/>
<path d="M65.923 24.7124H76.3184V19.5343H65.923V24.7124Z" fill="#868D97"/>
<path d="M75.5423 24.7124H75.6656V19.5343H75.5423V24.7124Z" fill="#717880"/>
<path d="M73.6753 24.7124H73.7986V19.5343H73.6753V24.7124Z" fill="#717880"/>
<path d="M71.8046 24.7124H71.9279V19.5343H71.8046V24.7124Z" fill="#717880"/>
<path d="M69.9374 24.7124H70.0607V19.5343H69.9374V24.7124Z" fill="#717880"/>
<path d="M68.067 24.7124H68.1903V19.5343H68.067V24.7124Z" fill="#717880"/>
<path d="M66.2778 24.7124H66.4011V19.5343H66.2778V24.7124Z" fill="#717880"/>
<path d="M80.5944 20.6108H76.3184V20.9115H80.5944V20.6108Z" fill="#868D97"/>
<path d="M80.5944 21.9761H76.3184V22.2768H80.5944V21.9761Z" fill="#868D97"/>
<path d="M80.5944 23.3413H76.3184V23.642H80.5944V23.3413Z" fill="#868D97"/>
<path d="M79.9178 24.7124H80.0742V19.5343H79.9178V24.7124Z" fill="#C5C8CC"/>
<path d="M78.3782 24.7124H78.5346V19.5343H78.3782V24.7124Z" fill="#C5C8CC"/>
<path d="M76.8386 24.7124H76.995V19.5343H76.8386V24.7124Z" fill="#C5C8CC"/>
<path opacity="0.5" d="M76.3186 23.341L67.2493 23.6387L66.6118 19.5371H65.9232V24.7152H76.3186V23.341Z" fill="#717880"/>
<path d="M53.9764 24.7002H55.0048V20.8361H53.9764V24.7002Z" fill="#E1654C"/>
<path d="M49.5317 24.6914L68.5182 24.6914V23.675L49.5317 23.675V24.6914Z" fill="#E5816E"/>
<path d="M49.4055 23.9815H68.6415C68.7257 23.9815 68.7949 23.9124 68.7949 23.8282C68.7949 23.744 68.7257 23.6748 68.6415 23.6748H49.4055C49.3213 23.6748 49.2521 23.744 49.2521 23.8282C49.2521 23.9124 49.3213 23.9815 49.4055 23.9815Z" fill="#EEB48E"/>
<path d="M58.4383 24.7124H62.7144V19.5343H58.4383V24.7124Z" fill="#E5816E"/>
<path d="M48.0401 24.7124H58.4354V19.5343H48.0401V24.7124Z" fill="#E1654C"/>
<path d="M57.6625 24.7124H57.7858V19.5343H57.6625V24.7124Z" fill="#A94C39"/>
<path d="M55.7924 24.7124H55.9156V19.5343H55.7924V24.7124Z" fill="#A94C39"/>
<path d="M53.9249 24.7124H54.0482V19.5343H53.9249V24.7124Z" fill="#A94C39"/>
<path d="M52.0547 24.7124H52.178V19.5343H52.0547V24.7124Z" fill="#A94C39"/>
<path d="M50.1841 24.7124H50.3074V19.5343H50.1841V24.7124Z" fill="#A94C39"/>
<path d="M48.3949 24.7124H48.5182V19.5343H48.3949V24.7124Z" fill="#A94C39"/>
<path d="M62.7114 20.6108H58.4354V20.9115H62.7114V20.6108Z" fill="#E1654C"/>
<path d="M62.7114 21.9761H58.4354V22.2768H62.7114V21.9761Z" fill="#E1654C"/>
<path d="M62.7114 23.3413H58.4354V23.642H62.7114V23.3413Z" fill="#E1654C"/>
<path d="M62.038 24.7124H62.1943V19.5343H62.038V24.7124Z" fill="#EEB2A6"/>
<path d="M60.4984 24.7124H60.6548V19.5343H60.4984V24.7124Z" fill="#EEB2A6"/>
<path d="M58.9556 24.7124H59.112V19.5343H58.9556V24.7124Z" fill="#EEB2A6"/>
<path opacity="0.25" d="M58.4354 23.341L49.3661 23.6387L48.7316 19.5371H48.043V24.7152H58.4354V23.341Z" fill="#A94C39"/>
<path d="M93.9457 24.7124H98.2217V19.5343H93.9457V24.7124Z" fill="#E5816E"/>
<path d="M83.5502 24.7124H93.9456V19.5343H83.5502V24.7124Z" fill="#E1654C"/>
<path d="M93.1729 24.7124H93.2961V19.5343H93.1729V24.7124Z" fill="#A94C39"/>
<path d="M91.3022 24.7124H91.4255V19.5343H91.3022V24.7124Z" fill="#A94C39"/>
<path d="M89.4352 24.7124H89.5585V19.5343H89.4352V24.7124Z" fill="#A94C39"/>
<path d="M87.5646 24.7124H87.6879V19.5343H87.5646V24.7124Z" fill="#A94C39"/>
<path d="M85.6974 24.7124H85.8207V19.5343H85.6974V24.7124Z" fill="#A94C39"/>
<path d="M83.905 24.7124H84.0283V19.5343H83.905V24.7124Z" fill="#A94C39"/>
<path d="M98.2245 20.6108H93.9485V20.9115H98.2245V20.6108Z" fill="#E1654C"/>
<path d="M98.2246 21.9761H93.9485V22.2768H98.2246V21.9761Z" fill="#E1654C"/>
<path d="M98.2246 23.3413H93.9485V23.642H98.2246V23.3413Z" fill="#E1654C"/>
<path d="M97.5481 24.7124H97.7045V19.5343H97.5481V24.7124Z" fill="#EEB2A6"/>
<path d="M96.0085 24.7124H96.1649V19.5343H96.0085V24.7124Z" fill="#EEB2A6"/>
<path d="M94.4658 24.7124H94.6221V19.5343H94.4658V24.7124Z" fill="#EEB2A6"/>
<path opacity="0.25" d="M93.9487 23.341L84.8764 23.6387L84.242 19.5371H83.5533V24.7152H93.9487V23.341Z" fill="#A94C39"/>
<path d="M16.2499 26.264C16.3762 27.8848 16.5747 29.7401 16.8964 31.5383C17.0919 32.6419 17.3355 33.7245 17.6331 34.7168C18.0451 36.094 18.5683 37.2968 19.2239 38.1508H92.4003C94.2736 38.1508 97.3468 35.1227 100.327 31.5383C101.758 29.8183 103.168 27.969 104.413 26.264C106.043 24.0358 107.39 22.0601 108.136 20.9445C108.41 20.5356 108.118 19.9883 107.625 19.9883H91.9642C91.0802 19.9883 90.2201 20.283 89.5255 20.8272C87.9198 22.0812 86.1276 23.0495 84.2271 23.705C82.3267 24.3605 80.318 24.7003 78.2792 24.7003H42.3661C41.6474 24.7003 40.9678 24.3876 40.4987 23.8463L38.8749 21.9669C38.5952 21.6422 38.1893 21.4587 37.7623 21.4587H16.0424C16.0424 21.4587 16.0394 23.5276 16.2499 26.267V26.264Z" fill="#0C2A49"/>
<path d="M16.0001 38.1507C16.0001 38.6619 16.2076 39.125 16.5414 39.4587C16.8752 39.7925 17.3383 40 17.8495 40H92.9022C93.9246 40 94.7546 39.1701 94.7546 38.1477C94.7546 37.8379 94.6794 37.5433 94.5411 37.2877C94.4539 37.1223 94.3426 36.9719 94.2103 36.8396C93.8765 36.5058 93.4134 36.2983 92.9022 36.2983H17.8525C16.8301 36.2983 16.0001 37.1253 16.0001 38.1477V38.1507Z" fill="#E2614A"/>
<path d="M16.2499 26.264H104.416C106.046 24.0358 107.393 22.0601 108.139 20.9445C108.413 20.5356 108.121 19.9883 107.628 19.9883H91.9672C91.0832 19.9883 90.2232 20.283 89.5285 20.8272C87.9228 22.0812 86.1306 23.0495 84.2301 23.705C82.3297 24.3605 80.321 24.7003 78.2822 24.7003H42.3691C41.8549 24.7003 41.3557 24.5379 40.9437 24.2463C40.9317 24.2372 40.9197 24.2282 40.9077 24.2192C40.8505 24.1771 40.7964 24.135 40.7423 24.0869C40.6912 24.0448 40.643 23.9967 40.5979 23.9486C40.5649 23.9125 40.5318 23.8794 40.4987 23.8403L40.1108 23.3923L39.9965 23.2599L39.3981 22.5683L39.2839 22.436L38.8749 21.9609C38.5952 21.6361 38.1893 21.4527 37.7623 21.4527H16.0424C16.0424 21.4527 16.0394 23.5216 16.2499 26.261V26.264Z" fill="#67DAD2"/>
<path d="M94.3484 23.1633V23.431C94.3484 23.7948 94.6431 24.0895 95.0069 24.0895H97.9478C98.017 24.0895 98.0831 24.0775 98.1463 24.0594C98.4139 23.9753 98.6064 23.7257 98.6064 23.434V23.1664C98.6064 22.8025 98.3117 22.5078 97.9478 22.5078H95.0069C94.7543 22.5078 94.5378 22.6491 94.4266 22.8566C94.3785 22.9498 94.3484 23.0521 94.3484 23.1664V23.1633Z" fill="#2C5B7F"/>
<path opacity="0.25" d="M94.3487 23.1634V23.4311C94.3487 23.7949 94.6434 24.0896 95.0072 24.0896H97.9481C98.0173 24.0896 98.0835 24.0776 98.1466 24.0595C98.1947 23.9663 98.2218 23.8641 98.2218 23.7528V23.4852C98.2218 23.1213 97.9271 22.8267 97.5632 22.8267H94.6223C94.5532 22.8267 94.487 22.8387 94.4239 22.8567C94.3758 22.9499 94.3457 23.0522 94.3457 23.1665L94.3487 23.1634Z" fill="#162F41"/>
<path opacity="0.25" d="M16.8964 31.5352C17.2031 33.2612 17.6241 34.9361 18.1954 36.2983H92.9054C93.4166 36.2983 93.8797 36.5058 94.2134 36.8396C94.3458 36.9719 94.457 37.1222 94.5442 37.2876C96.2462 36.1389 98.309 33.9648 100.33 31.5352H16.8964Z" fill="#162F41"/>
<path d="M16.0001 38.1506H94.7546C94.7546 37.8409 94.6794 37.5462 94.5411 37.2906C94.4539 37.1252 94.3426 36.9748 94.2103 36.8425C93.8765 36.5088 93.4134 36.3013 92.9022 36.3013H17.8525C16.8301 36.3013 16.0001 37.1282 16.0001 38.1506Z" fill="#E67F6C"/>
<path opacity="0.25" d="M16.2499 26.2638C16.3762 27.8845 16.5747 29.7399 16.8964 31.5381C17.2031 33.2641 17.6241 34.9391 18.1955 36.3013H32.2594C28.5728 30.8405 27.9353 24.7211 27.8962 21.4585H16.0424C16.0424 21.4585 16.0394 23.5273 16.2499 26.2668V26.2638Z" fill="#162F41"/>
<path opacity="0.25" d="M16.0001 38.1507C16.0001 38.6619 16.2076 39.125 16.5414 39.4587C16.8752 39.7925 17.3383 40 17.8495 40H32.59C31.2128 38.0605 32.2562 36.2983 32.2562 36.2983H17.8525C16.8301 36.2983 16.0001 37.1253 16.0001 38.1477V38.1507Z" fill="#A94938"/>
<path opacity="0.15" d="M17.633 34.7168C17.8013 35.2761 17.9878 35.8083 18.1923 36.3015H92.9022C93.4134 36.3015 93.8765 36.509 94.2103 36.8428C94.3426 36.9751 94.4539 37.1254 94.5411 37.2908C96.2431 36.1421 98.3059 33.968 100.327 31.5383C101.758 29.8183 103.168 27.969 104.413 26.264C106.043 24.0358 107.39 22.0601 108.136 20.9445C108.41 20.5356 108.118 19.9883 107.625 19.9883H102.486C101.686 22.0541 100.077 25.0732 96.9437 27.7976C93.3773 30.8948 88.8578 32.675 84.1397 32.9095C53.7987 34.4161 25.8452 34.6747 17.6299 34.7198L17.633 34.7168Z" fill="white"/>
<path d="M39.2926 22.4419L39.4069 22.5712H78.8262V22.4419H39.2926Z" fill="#2C5B7F"/>
<path d="M40.0024 23.2656L40.1167 23.3949H78.8264V23.2656H40.0024Z" fill="#2C5B7F"/>
<path d="M40.7453 24.0898C40.7994 24.138 40.8536 24.1801 40.9107 24.2222H78.8265V24.0898H40.7453Z" fill="#2C5B7F"/>
<path d="M78.4836 24.6909H78.8264V21.8372H78.4836V24.6909Z" fill="#2C5B7F"/>
<path d="M70.909 24.6909H71.2518V21.8372H70.909V24.6909Z" fill="#2C5B7F"/>
<path d="M63.3312 24.6909H63.674V21.8372H63.3312V24.6909Z" fill="#2C5B7F"/>
<path d="M55.7564 24.6909H56.0992V21.8372H55.7564V24.6909Z" fill="#2C5B7F"/>
<path d="M48.1788 24.6909H48.5216V21.8372H48.1788V24.6909Z" fill="#2C5B7F"/>
<path d="M40.6007 21.8374V23.9514C40.6458 23.9995 40.6939 24.0446 40.745 24.0897C40.7992 24.1378 40.8533 24.1799 40.9104 24.222C40.9225 24.231 40.9345 24.24 40.9465 24.249V21.8404H40.6037L40.6007 21.8374Z" fill="#2C5B7F"/>
</g>
<path d="M83.0275 38.9541C80.1175 38.2872 77.1744 36.6173 74.2093 35.9063C65.2698 33.7624 56.3909 40.5028 47.2089 39.9848C40.8707 39.6265 34.4389 39.3565 28.426 37.3338C11.5776 31.6736 2.18063 41.1752 -11.3278 39.2407C-16.3763 38.5187 -21.2208 38.4636 -26.1039 37.0086C-30.9871 35.5536 -35.06 35.9725 -37 38.403V43.3467H83.0275V38.9541Z" fill="#9FCFF1"/>
<path d="M4.40186 36.2756C5.06874 36.0717 5.84584 36.0386 6.66153 36.1874C7.61501 36.3583 8.5299 36.7441 9.41724 37.1079C9.6377 37.2015 9.86366 37.2952 10.0896 37.3834C13.2863 38.6676 16.7309 39.3179 20.1755 39.3179C22.3525 39.3179 24.5295 39.0589 26.6459 38.5353C27.1034 38.4196 27.5663 38.2928 28.0127 38.1716C29.3079 37.8133 30.6417 37.444 31.9975 37.3779C34.1139 37.2677 36.2248 37.896 37.9388 39.1416L37.9664 39.103C36.2413 37.8519 34.1194 37.2236 31.992 37.3338C30.6307 37.4055 29.2914 37.7747 27.9962 38.1275C27.5498 38.2487 27.0868 38.381 26.6294 38.4912C21.1841 39.8415 15.3145 39.4337 10.1062 37.3448C9.8802 37.2567 9.65423 37.163 9.43929 37.0693C8.55195 36.7 7.63154 36.3142 6.67256 36.1434C5.85687 35.9945 5.07425 36.0276 4.40186 36.2315V36.2866V36.2756Z" fill="#7FC0E5"/>
<path d="M11.9744 39.6099C7.85187 41.1311 3.61359 42.3822 -0.734913 42.1837C-5.46921 41.9688 -10.0272 40.0288 -14.293 38.0557C-14.5961 37.9179 -14.8992 37.7746 -15.2079 37.6313C-19.1981 35.7795 -23.3207 33.867 -27.7133 33.2167C-31.0918 32.7151 -34.327 33.0954 -37 34.2418V34.4182C-34.3435 33.2663 -31.1193 32.875 -27.7408 33.3765C-23.3703 34.0213 -19.2533 35.9338 -15.2795 37.7801C-14.9764 37.9234 -14.6678 38.0612 -14.3646 38.2045C-10.0878 40.1831 -5.5078 42.1341 -0.745937 42.3491C-0.437298 42.3656 -0.134167 42.3711 0.174473 42.3711C4.37417 42.3711 8.45261 41.098 12.4319 39.6154H11.9689L11.9744 39.6099Z" fill="#7FC0E5"/>
<path d="M69.1777 38.2873C67.3534 38.4802 65.4961 38.7392 63.6993 38.9928C58.9761 39.6596 54.1095 40.3486 49.3366 39.814C49.1713 39.8525 49.0059 39.8856 48.8406 39.9132C53.7843 40.5525 58.8328 39.8415 63.7214 39.1526C65.5181 38.8991 67.3755 38.6345 69.1942 38.4471C74.6285 37.8795 79.2525 38.2101 83.0279 39.4337V39.2628C79.236 38.0448 74.6064 37.7141 69.1777 38.2873Z" fill="#7FC0E5"/>
<path d="M183.028 38.9541C180.118 38.2872 177.174 36.6173 174.209 35.9063C165.27 33.7624 156.391 40.5028 147.209 39.9848C140.871 39.6265 134.439 39.3565 128.426 37.3338C111.578 31.6736 102.181 41.1752 88.6722 39.2407C83.6237 38.5187 78.7792 38.4636 73.8961 37.0086C69.0129 35.5536 64.94 35.9725 63 38.403V43.3467H183.028V38.9541Z" fill="#9FCFF1"/>
<path d="M104.402 36.2756C105.069 36.0717 105.846 36.0386 106.662 36.1874C107.615 36.3583 108.53 36.7441 109.417 37.1079C109.638 37.2015 109.864 37.2952 110.09 37.3834C113.286 38.6676 116.731 39.3179 120.176 39.3179C122.353 39.3179 124.53 39.0589 126.646 38.5353C127.103 38.4196 127.566 38.2928 128.013 38.1716C129.308 37.8133 130.642 37.444 131.997 37.3779C134.114 37.2677 136.225 37.896 137.939 39.1416L137.966 39.103C136.241 37.8519 134.119 37.2236 131.992 37.3338C130.631 37.4055 129.291 37.7747 127.996 38.1275C127.55 38.2487 127.087 38.381 126.629 38.4912C121.184 39.8415 115.314 39.4337 110.106 37.3448C109.88 37.2567 109.654 37.163 109.439 37.0693C108.552 36.7 107.632 36.3142 106.673 36.1434C105.857 35.9945 105.074 36.0276 104.402 36.2315V36.2866V36.2756Z" fill="#7FC0E5"/>
<path d="M111.974 39.6099C107.852 41.1311 103.614 42.3822 99.2651 42.1837C94.5308 41.9688 89.9728 40.0288 85.707 38.0557C85.4039 37.9179 85.1008 37.7746 84.7921 37.6313C80.8019 35.7795 76.6793 33.867 72.2867 33.2167C68.9082 32.7151 65.673 33.0954 63 34.2418V34.4182C65.6565 33.2663 68.8807 32.875 72.2592 33.3765C76.6297 34.0213 80.7467 35.9338 84.7205 37.7801C85.0236 37.9234 85.3322 38.0612 85.6354 38.2045C89.9122 40.1831 94.4922 42.1341 99.2541 42.3491C99.5627 42.3656 99.8658 42.3711 100.174 42.3711C104.374 42.3711 108.453 41.098 112.432 39.6154H111.969L111.974 39.6099Z" fill="#7FC0E5"/>
</g>
<defs>
<clipPath id="clip0_8139_5113">
<rect width="120" height="40" rx="12" fill="white"/>
</clipPath>
<clipPath id="clip1_8139_5113">
<rect width="92.244" height="38" fill="white" transform="translate(16 2)"/>
</clipPath>
</defs>
</svg>
