<svg width="120" height="40" viewBox="0 0 120 40" fill="none" xmlns="http://www.w3.org/2000/svg">
<g clip-path="url(#clip0_8139_2680)">
<rect width="120" height="40" rx="12" fill="#FCF4EC"/>
<path d="M29.128 23.7951C28.141 23.8341 27.235 24.3411 26.5285 25.0476C26.497 24.9981 26.4685 24.9471 26.437 24.8991C25.591 23.6031 24.424 22.4721 22.981 21.9156C21.538 21.3591 19.801 21.4461 18.5545 22.3626C18.4465 22.4421 18.343 22.5276 18.244 22.6161C17.7475 21.5706 17.05 20.6301 16.12 19.9536C14.7385 18.9486 12.7945 18.6276 11.287 19.4316C9.9085 20.1666 9.103 21.6996 8.857 23.2431C8.0575 22.7196 7.1785 22.3311 6.2395 22.1661C5.4985 22.0356 4.7365 22.0551 4 22.2051V26.4951H33.097C32.9245 26.1831 32.734 25.8831 32.515 25.5996C31.7035 24.5466 30.4555 23.7441 29.128 23.7981V23.7951Z" fill="white"/>
<path d="M87.369 9.32167C87.1155 8.67967 86.7555 8.08117 86.3025 7.56067C85.4385 6.56917 84.243 5.87017 82.953 5.60317C81.828 5.37067 80.5905 5.48167 79.641 6.12967C79.5825 6.17017 79.527 6.21367 79.4715 6.25567C79.2015 5.78167 78.867 5.34667 78.4575 4.98367C77.5575 4.18567 76.263 3.77767 75.1095 4.12417C73.9485 4.47367 73.1085 5.51617 72.6945 6.66217C71.9055 6.24667 70.9875 6.07867 70.107 6.21967C69.054 6.38767 68.0985 6.96817 67.329 7.70767C66.825 8.19217 66.3945 8.74417 66 9.32167H87.3675H87.369Z" fill="white"/>
<path d="M13.4065 7.31603C13.531 7.00103 13.708 6.70703 13.93 6.45053C14.3545 5.96303 14.941 5.61953 15.574 5.48903C16.126 5.37503 16.735 5.42903 17.2 5.74703C17.2285 5.76653 17.2555 5.78753 17.284 5.80853C17.416 5.57603 17.581 5.36303 17.782 5.18453C18.2245 4.79303 18.8605 4.59203 19.426 4.76303C19.996 4.93403 20.4085 5.44703 20.6125 6.00953C20.9995 5.80553 21.451 5.72303 21.883 5.79203C22.4005 5.87453 22.87 6.15953 23.2465 6.52253C23.494 6.76103 23.7055 7.03103 23.899 7.31453H13.4065V7.31603Z" fill="white"/>
<g clip-path="url(#clip1_8139_2680)">
<path d="M50.7034 12.1242H85.1124C85.2377 12.1242 85.3389 12.023 85.3389 11.8954C85.3389 11.7677 85.2377 11.6689 85.1124 11.6689H50.7034C50.5782 11.6689 50.4746 11.7701 50.4746 11.8954C50.4746 12.0206 50.5758 12.1242 50.7034 12.1242Z" fill="#A8BAD4"/>
<path d="M23.5322 17.3918H91.5337V14.8435L93.6894 13.3188H29.874L28.0025 15.3493L27.9953 15.3565H25.1796L23.5322 17.3918Z" fill="#FCFCFF"/>
<path d="M23.5322 17.3916H77.8722V15.3491H28.0025L27.9953 15.3563H25.1796L23.5322 17.3916Z" fill="#E0E6F5"/>
<path d="M24.8617 15.7514H27.6003L27.6051 15.7441H77.4772V17.3916H77.8722V15.3491H28.0025L27.9953 15.3539H25.182L24.8617 15.7514Z" fill="#B6C2EC"/>
<path d="M11.9999 24.4731C11.9999 25.5569 12.0337 26.5445 12.0915 27.4477C12.366 31.6121 13.2042 33.9436 13.9678 35.2322C14.7192 36.4991 15.396 36.7544 15.396 36.7544C31.483 36.7544 88.8482 36.7617 91.5338 36.7617C93.0175 36.7617 94.2675 36.8098 95.3249 36.9038C95.6356 36.9303 95.9294 36.9616 96.2064 36.9977C96.6905 33.999 103.042 30.0947 107.539 27.4453C109.545 26.2627 111.183 25.3329 111.763 24.844C112.052 24.6031 112.079 24.4683 111.763 24.4683H11.9999V24.4731Z" fill="#103E5F"/>
<path d="M12.0914 27.4477C12.3227 30.9498 12.9513 33.156 13.5992 34.5337C13.6016 34.5385 13.604 34.5434 13.6064 34.5482C13.6257 34.5867 13.6426 34.6253 13.6618 34.6614C13.6787 34.6975 13.698 34.7336 13.7148 34.7698C13.7389 34.8179 13.763 34.8637 13.7871 34.9095C13.7991 34.9336 13.8112 34.9552 13.8232 34.9769C13.8352 34.9986 13.8473 35.0203 13.8593 35.0419C13.8714 35.0636 13.8834 35.0853 13.8955 35.107C13.9195 35.1503 13.9436 35.1913 13.9677 35.2322C14.7192 36.4967 15.396 36.7544 15.396 36.7544C31.4829 36.7544 88.8482 36.7617 91.5337 36.7617C93.0174 36.7617 94.2675 36.8098 95.3249 36.9038C95.6356 36.9303 95.9294 36.9616 96.2064 36.9977C96.6905 33.999 103.042 30.0923 107.539 27.4453C109.545 26.2627 111.183 25.3329 111.763 24.844C112.052 24.6031 112.079 24.4683 111.763 24.4683H106.604C106.2 24.7067 105.768 24.9572 105.318 25.2246C100.821 27.8716 94.3421 34.8228 91.0689 34.789C88.0437 34.7577 19.5123 34.5361 18.0141 34.5361C16.516 34.5361 14.8324 31.918 14.6084 27.4453H12.0914V27.4477Z" fill="#456491"/>
<path d="M15.7115 24.4728H102.712L100.925 22.676H99.3977L94.1687 17.3916H21.3934C21.3934 17.3916 21.2561 17.5506 20.8322 18.0732C20.5672 18.396 20.1915 18.8608 19.6664 19.5136C19.2666 20.0121 18.7776 20.6191 18.1875 21.3585C17.8407 21.7921 17.4601 22.269 17.0411 22.7989C16.634 23.3095 16.1932 23.8683 15.7091 24.4752L15.7115 24.4728Z" fill="#FCFCFF"/>
<path d="M11.9999 24.4731C11.9999 25.557 12.0337 26.5445 12.0915 27.4477H107.544C109.55 26.2651 111.188 25.3354 111.768 24.8464V24.4707H11.9999V24.4731Z" fill="#FE7368"/>
<path opacity="0.15" d="M102.033 27.4477H107.544C109.55 26.2651 111.188 25.3354 111.768 24.8464C112.057 24.6056 112.084 24.4707 111.768 24.4707H106.257V24.8464C105.677 25.333 104.039 26.2651 102.033 27.4477Z" fill="#2A4657"/>
<path d="M84.5609 10.4741V13.3187H93.6894L93.9327 12.6178L94.4337 11.1774L94.677 10.4741H84.5609Z" fill="#FCFCFF"/>
<path d="M14.1147 30.1935C14.2761 30.1935 14.4086 30.061 14.4086 29.8997V28.9218C14.4086 28.7604 14.2761 28.6279 14.1147 28.6279C13.9533 28.6279 13.8209 28.7604 13.8209 28.9218V29.8997C13.8209 30.061 13.9509 30.1935 14.1147 30.1935Z" fill="#A8BAD4"/>
<path d="M15.7115 30.1935C15.8729 30.1935 16.0054 30.061 16.0054 29.8997V28.9218C16.0054 28.7604 15.8729 28.6279 15.7115 28.6279C15.5501 28.6279 15.4177 28.7604 15.4177 28.9218V29.8997C15.4177 30.061 15.5501 30.1935 15.7115 30.1935Z" fill="#A8BAD4"/>
<path d="M17.3061 30.1935C17.4674 30.1935 17.5999 30.061 17.5999 29.8997V28.9218C17.5999 28.7604 17.4674 28.6279 17.3061 28.6279C17.1447 28.6279 17.0122 28.7604 17.0122 28.9218V29.8997C17.0122 30.061 17.1447 30.1935 17.3061 30.1935Z" fill="#A8BAD4"/>
<path d="M18.9029 30.1935C19.0642 30.1935 19.1967 30.061 19.1967 29.8997V28.9218C19.1967 28.7604 19.0666 28.6279 18.9029 28.6279C18.7391 28.6279 18.609 28.7604 18.609 28.9218V29.8997C18.609 30.061 18.7415 30.1935 18.9029 30.1935Z" fill="#A8BAD4"/>
<path d="M20.4974 30.1935C20.6588 30.1935 20.7912 30.061 20.7912 29.8997V28.9218C20.7912 28.7604 20.6588 28.6279 20.4974 28.6279C20.336 28.6279 20.2036 28.7604 20.2036 28.9218V29.8997C20.2036 30.061 20.336 30.1935 20.4974 30.1935Z" fill="#A8BAD4"/>
<path d="M22.0942 30.1935C22.2556 30.1935 22.388 30.061 22.388 29.8997V28.9218C22.388 28.7604 22.2556 28.6279 22.0942 28.6279C21.9328 28.6279 21.8004 28.7604 21.8004 28.9218V29.8997C21.8004 30.061 21.9328 30.1935 22.0942 30.1935Z" fill="#A8BAD4"/>
<path d="M23.6912 30.1935C23.8526 30.1935 23.985 30.061 23.985 29.8997V28.9218C23.985 28.7604 23.855 28.6279 23.6912 28.6279C23.5274 28.6279 23.3973 28.7604 23.3973 28.9218V29.8997C23.3973 30.061 23.5274 30.1935 23.6912 30.1935Z" fill="#A8BAD4"/>
<path d="M25.2857 30.1935C25.447 30.1935 25.5795 30.061 25.5795 29.8997V28.9218C25.5795 28.7604 25.447 28.6279 25.2857 28.6279C25.1243 28.6279 24.9918 28.7604 24.9918 28.9218V29.8997C24.9918 30.061 25.1219 30.1935 25.2857 30.1935Z" fill="#A8BAD4"/>
<path d="M26.8825 30.1935C27.0439 30.1935 27.1764 30.061 27.1764 29.8997V28.9218C27.1764 28.7604 27.0439 28.6279 26.8825 28.6279C26.7212 28.6279 26.5887 28.7604 26.5887 28.9218V29.8997C26.5887 30.061 26.7212 30.1935 26.8825 30.1935Z" fill="#A8BAD4"/>
<path d="M28.4794 30.1935C28.6408 30.1935 28.7732 30.061 28.7732 29.8997V28.9218C28.7732 28.7604 28.6408 28.6279 28.4794 28.6279C28.318 28.6279 28.1855 28.7604 28.1855 28.9218V29.8997C28.1855 30.061 28.318 30.1935 28.4794 30.1935Z" fill="#A8BAD4"/>
<path d="M30.074 30.1935C30.2354 30.1935 30.3678 30.061 30.3678 29.8997V28.9218C30.3678 28.7604 30.2354 28.6279 30.074 28.6279C29.9126 28.6279 29.7802 28.7604 29.7802 28.9218V29.8997C29.7802 30.061 29.9126 30.1935 30.074 30.1935Z" fill="#A8BAD4"/>
<path d="M31.6709 30.1935C31.8322 30.1935 31.9647 30.061 31.9647 29.8997V28.9218C31.9647 28.7604 31.8346 28.6279 31.6709 28.6279C31.5071 28.6279 31.377 28.7604 31.377 28.9218V29.8997C31.377 30.061 31.5095 30.1935 31.6709 30.1935Z" fill="#A8BAD4"/>
<path d="M33.2677 30.1935C33.429 30.1935 33.5615 30.061 33.5615 29.8997V28.9218C33.5615 28.7604 33.429 28.6279 33.2677 28.6279C33.1063 28.6279 32.9738 28.7604 32.9738 28.9218V29.8997C32.9738 30.061 33.1039 30.1935 33.2677 30.1935Z" fill="#A8BAD4"/>
<path d="M34.8622 30.1935C35.0236 30.1935 35.1561 30.061 35.1561 29.8997V28.9218C35.1561 28.7604 35.026 28.6279 34.8622 28.6279C34.6984 28.6279 34.5684 28.7604 34.5684 28.9218V29.8997C34.5684 30.061 34.7008 30.1935 34.8622 30.1935Z" fill="#A8BAD4"/>
<path d="M36.4591 30.1935C36.6205 30.1935 36.753 30.061 36.753 29.8997V28.9218C36.753 28.7604 36.6205 28.6279 36.4591 28.6279C36.2978 28.6279 36.1653 28.7604 36.1653 28.9218V29.8997C36.1653 30.061 36.2978 30.1935 36.4591 30.1935Z" fill="#A8BAD4"/>
<path d="M38.056 30.1935C38.2174 30.1935 38.3498 30.061 38.3498 29.8997V28.9218C38.3498 28.7604 38.2198 28.6279 38.056 28.6279C37.8922 28.6279 37.7621 28.7604 37.7621 28.9218V29.8997C37.7621 30.061 37.8946 30.1935 38.056 30.1935Z" fill="#A8BAD4"/>
<path d="M39.6505 30.1935C39.8119 30.1935 39.9443 30.061 39.9443 29.8997V28.9218C39.9443 28.7604 39.8143 28.6279 39.6505 28.6279C39.4867 28.6279 39.3566 28.7604 39.3566 28.9218V29.8997C39.3566 30.061 39.4891 30.1935 39.6505 30.1935Z" fill="#A8BAD4"/>
<path d="M41.2473 30.1935C41.4087 30.1935 41.5412 30.061 41.5412 29.8997V28.9218C41.5412 28.7604 41.4087 28.6279 41.2473 28.6279C41.086 28.6279 40.9535 28.7604 40.9535 28.9218V29.8997C40.9535 30.061 41.086 30.1935 41.2473 30.1935Z" fill="#A8BAD4"/>
<path d="M42.8443 30.1935C43.0056 30.1935 43.1381 30.061 43.1381 29.8997V28.9218C43.1381 28.7604 43.008 28.6279 42.8443 28.6279C42.6805 28.6279 42.5504 28.7604 42.5504 28.9218V29.8997C42.5504 30.061 42.6805 30.1935 42.8443 30.1935Z" fill="#A8BAD4"/>
<path d="M44.4387 30.1935C44.6001 30.1935 44.7325 30.061 44.7325 29.8997V28.9218C44.7325 28.7604 44.6025 28.6279 44.4387 28.6279C44.2749 28.6279 44.1448 28.7604 44.1448 28.9218V29.8997C44.1448 30.061 44.2773 30.1935 44.4387 30.1935Z" fill="#A8BAD4"/>
<path d="M46.0357 30.1935C46.197 30.1935 46.3295 30.061 46.3295 29.8997V28.9218C46.3295 28.7604 46.197 28.6279 46.0357 28.6279C45.8743 28.6279 45.7418 28.7604 45.7418 28.9218V29.8997C45.7418 30.061 45.8719 30.1935 46.0357 30.1935Z" fill="#A8BAD4"/>
<path d="M47.6325 30.1935C47.7938 30.1935 47.9263 30.061 47.9263 29.8997V28.9218C47.9263 28.7604 47.7963 28.6279 47.6325 28.6279C47.4687 28.6279 47.3386 28.7604 47.3386 28.9218V29.8997C47.3386 30.061 47.4711 30.1935 47.6325 30.1935Z" fill="#A8BAD4"/>
<path d="M50.9876 30.1935C51.1489 30.1935 51.2814 30.061 51.2814 29.8997V28.9218C51.2814 28.7604 51.1489 28.6279 50.9876 28.6279C50.8262 28.6279 50.6937 28.7604 50.6937 28.9218V29.8997C50.6937 30.061 50.8238 30.1935 50.9876 30.1935Z" fill="#A8BAD4"/>
<path d="M52.5846 30.1935C52.7459 30.1935 52.8784 30.061 52.8784 29.8997V28.9218C52.8784 28.7604 52.7459 28.6279 52.5846 28.6279C52.4232 28.6279 52.2907 28.7604 52.2907 28.9218V29.8997C52.2907 30.061 52.4232 30.1935 52.5846 30.1935Z" fill="#A8BAD4"/>
<path d="M50.9876 30.1935C51.1489 30.1935 51.2814 30.061 51.2814 29.8997V28.9218C51.2814 28.7604 51.1489 28.6279 50.9876 28.6279C50.8262 28.6279 50.6937 28.7604 50.6937 28.9218V29.8997C50.6937 30.061 50.8238 30.1935 50.9876 30.1935Z" fill="#A8BAD4"/>
<path d="M52.5846 30.1935C52.7459 30.1935 52.8784 30.061 52.8784 29.8997V28.9218C52.8784 28.7604 52.7459 28.6279 52.5846 28.6279C52.4232 28.6279 52.2907 28.7604 52.2907 28.9218V29.8997C52.2907 30.061 52.4232 30.1935 52.5846 30.1935Z" fill="#A8BAD4"/>
<path d="M54.1814 30.1935C54.3428 30.1935 54.4753 30.061 54.4753 29.8997V28.9218C54.4753 28.7604 54.3428 28.6279 54.1814 28.6279C54.02 28.6279 53.8876 28.7604 53.8876 28.9218V29.8997C53.8876 30.061 54.02 30.1935 54.1814 30.1935Z" fill="#A8BAD4"/>
<path d="M55.7759 30.1935C55.9373 30.1935 56.0698 30.061 56.0698 29.8997V28.9218C56.0698 28.7604 55.9373 28.6279 55.7759 28.6279C55.6145 28.6279 55.4821 28.7604 55.4821 28.9218V29.8997C55.4821 30.061 55.6145 30.1935 55.7759 30.1935Z" fill="#A8BAD4"/>
<path d="M57.3728 30.1935C57.5341 30.1935 57.6666 30.061 57.6666 29.8997V28.9218C57.6666 28.7604 57.5365 28.6279 57.3728 28.6279C57.209 28.6279 57.0789 28.7604 57.0789 28.9218V29.8997C57.0789 30.061 57.2114 30.1935 57.3728 30.1935Z" fill="#A8BAD4"/>
<path d="M58.9697 30.1935C59.1311 30.1935 59.2635 30.061 59.2635 29.8997V28.9218C59.2635 28.7604 59.1311 28.6279 58.9697 28.6279C58.8083 28.6279 58.6758 28.7604 58.6758 28.9218V29.8997C58.6758 30.061 58.8059 30.1935 58.9697 30.1935Z" fill="#A8BAD4"/>
<path d="M60.5642 30.1935C60.7256 30.1935 60.8581 30.061 60.8581 29.8997V28.9218C60.8581 28.7604 60.728 28.6279 60.5642 28.6279C60.4004 28.6279 60.2704 28.7604 60.2704 28.9218V29.8997C60.2704 30.061 60.4004 30.1935 60.5642 30.1935Z" fill="#A8BAD4"/>
<path d="M62.161 30.1935C62.3224 30.1935 62.4549 30.061 62.4549 29.8997V28.9218C62.4549 28.7604 62.3224 28.6279 62.161 28.6279C61.9997 28.6279 61.8672 28.7604 61.8672 28.9218V29.8997C61.8672 30.061 61.9973 30.1935 62.161 30.1935Z" fill="#A8BAD4"/>
<path d="M63.7579 30.1935C63.9193 30.1935 64.0517 30.061 64.0517 29.8997V28.9218C64.0517 28.7604 63.9193 28.6279 63.7579 28.6279C63.5965 28.6279 63.4641 28.7604 63.4641 28.9218V29.8997C63.4641 30.061 63.5965 30.1935 63.7579 30.1935Z" fill="#A8BAD4"/>
<path d="M65.3524 30.1935C65.5138 30.1935 65.6463 30.061 65.6463 29.8997V28.9218C65.6463 28.7604 65.5138 28.6279 65.3524 28.6279C65.1911 28.6279 65.0586 28.7604 65.0586 28.9218V29.8997C65.0586 30.061 65.1887 30.1935 65.3524 30.1935Z" fill="#A8BAD4"/>
<path d="M70.1407 30.1935C70.3021 30.1935 70.4346 30.061 70.4346 29.8997V28.9218C70.4346 28.7604 70.3021 28.6279 70.1407 28.6279C69.9793 28.6279 69.8469 28.7604 69.8469 28.9218V29.8997C69.8469 30.061 69.9769 30.1935 70.1407 30.1935Z" fill="#A8BAD4"/>
<path d="M71.7376 30.1935C71.899 30.1935 72.0315 30.061 72.0315 29.8997V28.9218C72.0315 28.7604 71.899 28.6279 71.7376 28.6279C71.5763 28.6279 71.4438 28.7604 71.4438 28.9218V29.8997C71.4438 30.061 71.5739 30.1935 71.7376 30.1935Z" fill="#A8BAD4"/>
<path d="M73.3345 30.1935C73.4959 30.1935 73.6283 30.061 73.6283 29.8997V28.9218C73.6283 28.7604 73.4959 28.6279 73.3345 28.6279C73.1731 28.6279 73.0406 28.7604 73.0406 28.9218V29.8997C73.0406 30.061 73.1707 30.1935 73.3345 30.1935Z" fill="#A8BAD4"/>
<path d="M74.929 30.1935C75.0904 30.1935 75.2229 30.061 75.2229 29.8997V28.9218C75.2229 28.7604 75.0928 28.6279 74.929 28.6279C74.7653 28.6279 74.6352 28.7604 74.6352 28.9218V29.8997C74.6352 30.061 74.7677 30.1935 74.929 30.1935Z" fill="#A8BAD4"/>
<path d="M76.5258 30.1935C76.6872 30.1935 76.8197 30.061 76.8197 29.8997V28.9218C76.8197 28.7604 76.6872 28.6279 76.5258 28.6279C76.3645 28.6279 76.232 28.7604 76.232 28.9218V29.8997C76.232 30.061 76.3645 30.1935 76.5258 30.1935Z" fill="#A8BAD4"/>
<path d="M78.1228 30.1935C78.2842 30.1935 78.4167 30.061 78.4167 29.8997V28.9218C78.4167 28.7604 78.2842 28.6279 78.1228 28.6279C77.9615 28.6279 77.829 28.7604 77.829 28.9218V29.8997C77.829 30.061 77.959 30.1935 78.1228 30.1935Z" fill="#A8BAD4"/>
<path d="M79.7172 30.1935C79.8786 30.1935 80.011 30.061 80.011 29.8997V28.9218C80.011 28.7604 79.8786 28.6279 79.7172 28.6279C79.5558 28.6279 79.4233 28.7604 79.4233 28.9218V29.8997C79.4233 30.061 79.5558 30.1935 79.7172 30.1935Z" fill="#A8BAD4"/>
<path d="M81.3142 30.1935C81.4755 30.1935 81.608 30.061 81.608 29.8997V28.9218C81.608 28.7604 81.4755 28.6279 81.3142 28.6279C81.1528 28.6279 81.0203 28.7604 81.0203 28.9218V29.8997C81.0203 30.061 81.1528 30.1935 81.3142 30.1935Z" fill="#A8BAD4"/>
<path d="M82.9086 30.1935C83.07 30.1935 83.2024 30.061 83.2024 29.8997V28.9218C83.2024 28.7604 83.0724 28.6279 82.9086 28.6279C82.7448 28.6279 82.6147 28.7604 82.6147 28.9218V29.8997C82.6147 30.061 82.7472 30.1935 82.9086 30.1935Z" fill="#A8BAD4"/>
<path d="M79.7172 32.8185C79.8786 32.8185 80.011 32.686 80.011 32.5247V31.5468C80.011 31.3854 79.8786 31.2529 79.7172 31.2529C79.5558 31.2529 79.4233 31.3854 79.4233 31.5468V32.5247C79.4233 32.686 79.5558 32.8185 79.7172 32.8185Z" fill="#A8BAD4"/>
<path d="M78.1228 32.8185C78.2842 32.8185 78.4167 32.686 78.4167 32.5247V31.5468C78.4167 31.3854 78.2842 31.2529 78.1228 31.2529C77.9615 31.2529 77.829 31.3854 77.829 31.5468V32.5247C77.829 32.686 77.959 32.8185 78.1228 32.8185Z" fill="#A8BAD4"/>
<path d="M76.5258 32.8185C76.6872 32.8185 76.8197 32.686 76.8197 32.5247V31.5468C76.8197 31.3854 76.6872 31.2529 76.5258 31.2529C76.3645 31.2529 76.232 31.3854 76.232 31.5468V32.5247C76.232 32.686 76.3645 32.8185 76.5258 32.8185Z" fill="#A8BAD4"/>
<path d="M74.929 32.8185C75.0904 32.8185 75.2229 32.686 75.2229 32.5247V31.5468C75.2229 31.3854 75.0928 31.2529 74.929 31.2529C74.7653 31.2529 74.6352 31.3854 74.6352 31.5468V32.5247C74.6352 32.686 74.7677 32.8185 74.929 32.8185Z" fill="#A8BAD4"/>
<path d="M73.3345 32.8185C73.4959 32.8185 73.6283 32.686 73.6283 32.5247V31.5468C73.6283 31.3854 73.4959 31.2529 73.3345 31.2529C73.1731 31.2529 73.0406 31.3854 73.0406 31.5468V32.5247C73.0406 32.686 73.1707 32.8185 73.3345 32.8185Z" fill="#A8BAD4"/>
<path d="M71.7376 32.8185C71.899 32.8185 72.0315 32.686 72.0315 32.5247V31.5468C72.0315 31.3854 71.899 31.2529 71.7376 31.2529C71.5763 31.2529 71.4438 31.3854 71.4438 31.5468V32.5247C71.4438 32.686 71.5739 32.8185 71.7376 32.8185Z" fill="#A8BAD4"/>
<path d="M63.7579 32.8185C63.9193 32.8185 64.0517 32.686 64.0517 32.5247V31.5468C64.0517 31.3854 63.9193 31.2529 63.7579 31.2529C63.5965 31.2529 63.4641 31.3854 63.4641 31.5468V32.5247C63.4641 32.686 63.5965 32.8185 63.7579 32.8185Z" fill="#A8BAD4"/>
<path d="M62.161 32.8185C62.3224 32.8185 62.4549 32.686 62.4549 32.5247V31.5468C62.4549 31.3854 62.3224 31.2529 62.161 31.2529C61.9997 31.2529 61.8672 31.3854 61.8672 31.5468V32.5247C61.8672 32.686 61.9973 32.8185 62.161 32.8185Z" fill="#A8BAD4"/>
<path d="M60.5642 32.8185C60.7256 32.8185 60.8581 32.686 60.8581 32.5247V31.5468C60.8581 31.3854 60.728 31.2529 60.5642 31.2529C60.4004 31.2529 60.2704 31.3854 60.2704 31.5468V32.5247C60.2704 32.686 60.4004 32.8185 60.5642 32.8185Z" fill="#A8BAD4"/>
<path d="M58.9697 32.8185C59.1311 32.8185 59.2635 32.686 59.2635 32.5247V31.5468C59.2635 31.3854 59.1311 31.2529 58.9697 31.2529C58.8083 31.2529 58.6758 31.3854 58.6758 31.5468V32.5247C58.6758 32.686 58.8059 32.8185 58.9697 32.8185Z" fill="#A8BAD4"/>
<path d="M57.3728 32.8185C57.5341 32.8185 57.6666 32.686 57.6666 32.5247V31.5468C57.6666 31.3854 57.5365 31.2529 57.3728 31.2529C57.209 31.2529 57.0789 31.3854 57.0789 31.5468V32.5247C57.0789 32.686 57.2114 32.8185 57.3728 32.8185Z" fill="#A8BAD4"/>
<path d="M55.7759 32.8185C55.9373 32.8185 56.0698 32.686 56.0698 32.5247V31.5468C56.0698 31.3854 55.9373 31.2529 55.7759 31.2529C55.6145 31.2529 55.4821 31.3854 55.4821 31.5468V32.5247C55.4821 32.686 55.6145 32.8185 55.7759 32.8185Z" fill="#A8BAD4"/>
<path d="M42.8443 32.8185C43.0056 32.8185 43.1381 32.686 43.1381 32.5247V31.5468C43.1381 31.3854 43.008 31.2529 42.8443 31.2529C42.6805 31.2529 42.5504 31.3854 42.5504 31.5468V32.5247C42.5504 32.686 42.6805 32.8185 42.8443 32.8185Z" fill="#A8BAD4"/>
<path d="M41.2473 32.8185C41.4087 32.8185 41.5412 32.686 41.5412 32.5247V31.5468C41.5412 31.3854 41.4087 31.2529 41.2473 31.2529C41.086 31.2529 40.9535 31.3854 40.9535 31.5468V32.5247C40.9535 32.686 41.086 32.8185 41.2473 32.8185Z" fill="#A8BAD4"/>
<path d="M39.6505 32.8185C39.8119 32.8185 39.9443 32.686 39.9443 32.5247V31.5468C39.9443 31.3854 39.8143 31.2529 39.6505 31.2529C39.4867 31.2529 39.3566 31.3854 39.3566 31.5468V32.5247C39.3566 32.686 39.4891 32.8185 39.6505 32.8185Z" fill="#A8BAD4"/>
<path d="M38.056 32.8185C38.2174 32.8185 38.3498 32.686 38.3498 32.5247V31.5468C38.3498 31.3854 38.2198 31.2529 38.056 31.2529C37.8922 31.2529 37.7621 31.3854 37.7621 31.5468V32.5247C37.7621 32.686 37.8946 32.8185 38.056 32.8185Z" fill="#A8BAD4"/>
<path d="M36.4591 32.8185C36.6205 32.8185 36.753 32.686 36.753 32.5247V31.5468C36.753 31.3854 36.6205 31.2529 36.4591 31.2529C36.2978 31.2529 36.1653 31.3854 36.1653 31.5468V32.5247C36.1653 32.686 36.2978 32.8185 36.4591 32.8185Z" fill="#A8BAD4"/>
<path d="M34.8622 32.8185C35.0236 32.8185 35.1561 32.686 35.1561 32.5247V31.5468C35.1561 31.3854 35.026 31.2529 34.8622 31.2529C34.6984 31.2529 34.5684 31.3854 34.5684 31.5468V32.5247C34.5684 32.686 34.7008 32.8185 34.8622 32.8185Z" fill="#A8BAD4"/>
<path d="M33.2677 32.8185C33.429 32.8185 33.5615 32.686 33.5615 32.5247V31.5468C33.5615 31.3854 33.429 31.2529 33.2677 31.2529C33.1063 31.2529 32.9738 31.3854 32.9738 31.5468V32.5247C32.9738 32.686 33.1039 32.8185 33.2677 32.8185Z" fill="#A8BAD4"/>
<path d="M31.6709 32.8185C31.8322 32.8185 31.9647 32.686 31.9647 32.5247V31.5468C31.9647 31.3854 31.8346 31.2529 31.6709 31.2529C31.5071 31.2529 31.377 31.3854 31.377 31.5468V32.5247C31.377 32.686 31.5095 32.8185 31.6709 32.8185Z" fill="#A8BAD4"/>
<path d="M30.074 32.8185C30.2354 32.8185 30.3678 32.686 30.3678 32.5247V31.5468C30.3678 31.3854 30.2354 31.2529 30.074 31.2529C29.9126 31.2529 29.7802 31.3854 29.7802 31.5468V32.5247C29.7802 32.686 29.9126 32.8185 30.074 32.8185Z" fill="#A8BAD4"/>
<path d="M25.2857 32.8185C25.447 32.8185 25.5795 32.686 25.5795 32.5247V31.5468C25.5795 31.3854 25.447 31.2529 25.2857 31.2529C25.1243 31.2529 24.9918 31.3854 24.9918 31.5468V32.5247C24.9918 32.686 25.1219 32.8185 25.2857 32.8185Z" fill="#A8BAD4"/>
<path d="M23.6912 32.8185C23.8526 32.8185 23.985 32.686 23.985 32.5247V31.5468C23.985 31.3854 23.855 31.2529 23.6912 31.2529C23.5274 31.2529 23.3973 31.3854 23.3973 31.5468V32.5247C23.3973 32.686 23.5274 32.8185 23.6912 32.8185Z" fill="#A8BAD4"/>
<path d="M22.0942 32.8185C22.2556 32.8185 22.388 32.686 22.388 32.5247V31.5468C22.388 31.3854 22.2556 31.2529 22.0942 31.2529C21.9328 31.2529 21.8004 31.3854 21.8004 31.5468V32.5247C21.8004 32.686 21.9328 32.8185 22.0942 32.8185Z" fill="#A8BAD4"/>
<path d="M16.569 23.3915H25.8565L27.003 21.9512H17.7155C17.3686 22.3847 16.9881 22.8616 16.569 23.3915Z" fill="#A8BAD4"/>
<path d="M19.1942 20.1063H28.6118L29.7583 18.666H20.3576C20.0926 18.9888 19.7169 19.4536 19.1918 20.1063H19.1942Z" fill="#A8BAD4"/>
<path d="M26.0901 22.3895L25.2929 23.3915H25.8565L27.003 21.9512H17.7155C17.6023 22.0933 17.4866 22.2378 17.3662 22.3895H26.0901Z" fill="#8E9EB5"/>
<path d="M28.8455 19.1044L28.0483 20.1063H28.6119L29.7584 18.666H20.3577C20.2565 18.7913 20.1385 18.9358 20.0012 19.1044H28.8455Z" fill="#8E9EB5"/>
<path d="M88.0485 13.3189H93.6894L93.9326 12.6156L94.4312 11.1753H88.4146C88.1496 11.657 88.0485 12.1339 88.0485 13.3165V13.3189Z" fill="#A8BAD4"/>
<path d="M88.0485 13.319H88.4218C88.4435 12.3989 88.5494 11.975 88.7855 11.5487H94.3036L94.4312 11.1777H88.4146C88.1496 11.6595 88.0485 12.1364 88.0485 13.319Z" fill="#B6C2EC"/>
<path d="M41.823 24.473C41.823 24.473 41.6038 21.8838 44.6531 21.8838H84.8451C84.8451 21.8838 87.8631 21.8838 87.8631 24.473H41.823Z" fill="#E0E6F5"/>
<path d="M42.3047 22.8424C42.7238 22.5245 43.3404 22.3005 44.2388 22.3005H84.4308C84.4308 22.3005 87.1164 22.3005 87.4199 24.4755H87.8655C87.8655 21.8862 84.8475 21.8862 84.8475 21.8862H44.6555C43.3982 21.8862 42.6973 22.327 42.3047 22.8448V22.8424Z" fill="#B6C2EC"/>
<g opacity="0.6">
<path d="M84.7536 24.085C84.9149 24.085 85.0474 23.9526 85.0474 23.7912V23.059C85.0474 22.8976 84.9173 22.7651 84.7536 22.7651C84.5898 22.7651 84.4597 22.8976 84.4597 23.059V23.7912C84.4597 23.9526 84.5922 24.085 84.7536 24.085Z" fill="#B6C2EC"/>
<path d="M83.4434 24.085C83.6048 24.085 83.7372 23.9526 83.7372 23.7912V23.059C83.7372 22.8976 83.6048 22.7651 83.4434 22.7651C83.282 22.7651 83.1495 22.8976 83.1495 23.059V23.7912C83.1495 23.9526 83.282 24.085 83.4434 24.085Z" fill="#B6C2EC"/>
<path d="M82.1355 24.085C82.2969 24.085 82.4294 23.9526 82.4294 23.7912V23.059C82.4294 22.8976 82.2969 22.7651 82.1355 22.7651C81.9741 22.7651 81.8417 22.8976 81.8417 23.059V23.7912C81.8417 23.9526 81.9741 24.085 82.1355 24.085Z" fill="#B6C2EC"/>
<path d="M80.8253 24.085C80.9867 24.085 81.1191 23.9526 81.1191 23.7912V23.059C81.1191 22.8976 80.9867 22.7651 80.8253 22.7651C80.6639 22.7651 80.5314 22.8976 80.5314 23.059V23.7912C80.5314 23.9526 80.6639 24.085 80.8253 24.085Z" fill="#B6C2EC"/>
<path d="M79.515 24.085C79.6764 24.085 79.8088 23.9526 79.8088 23.7912V23.059C79.8088 22.8976 79.6764 22.7651 79.515 22.7651C79.3536 22.7651 79.2211 22.8976 79.2211 23.059V23.7912C79.2211 23.9526 79.3536 24.085 79.515 24.085Z" fill="#B6C2EC"/>
<path d="M75.9527 24.085C76.114 24.085 76.2465 23.9526 76.2465 23.7912V23.059C76.2465 22.8976 76.114 22.7651 75.9527 22.7651C75.7913 22.7651 75.6588 22.8976 75.6588 23.059V23.7912C75.6588 23.9526 75.7889 24.085 75.9527 24.085Z" fill="#B6C2EC"/>
<path d="M74.6424 24.085C74.8037 24.085 74.9362 23.9526 74.9362 23.7912V23.059C74.9362 22.8976 74.8037 22.7651 74.6424 22.7651C74.481 22.7651 74.3485 22.8976 74.3485 23.059V23.7912C74.3485 23.9526 74.4786 24.085 74.6424 24.085Z" fill="#B6C2EC"/>
<path d="M73.3346 24.085C73.4959 24.085 73.6284 23.9526 73.6284 23.7912V23.059C73.6284 22.8976 73.4959 22.7651 73.3346 22.7651C73.1732 22.7651 73.0407 22.8976 73.0407 23.059V23.7912C73.0407 23.9526 73.1708 24.085 73.3346 24.085Z" fill="#B6C2EC"/>
<path d="M72.0243 24.085C72.1856 24.085 72.3181 23.9526 72.3181 23.7912V23.059C72.3181 22.8976 72.1856 22.7651 72.0243 22.7651C71.8629 22.7651 71.7304 22.8976 71.7304 23.059V23.7912C71.7304 23.9526 71.8629 24.085 72.0243 24.085Z" fill="#B6C2EC"/>
<path d="M70.7141 24.085C70.8754 24.085 71.0079 23.9526 71.0079 23.7912V23.059C71.0079 22.8976 70.8754 22.7651 70.7141 22.7651C70.5527 22.7651 70.4202 22.8976 70.4202 23.059V23.7912C70.4202 23.9526 70.5527 24.085 70.7141 24.085Z" fill="#B6C2EC"/>
<path d="M67.1518 24.085C67.3131 24.085 67.4456 23.9526 67.4456 23.7912V23.059C67.4456 22.8976 67.3131 22.7651 67.1518 22.7651C66.9904 22.7651 66.8579 22.8976 66.8579 23.059V23.7912C66.8579 23.9526 66.9904 24.085 67.1518 24.085Z" fill="#B6C2EC"/>
<path d="M65.8414 24.085C66.0028 24.085 66.1352 23.9526 66.1352 23.7912V23.059C66.1352 22.8976 66.0028 22.7651 65.8414 22.7651C65.68 22.7651 65.5475 22.8976 65.5475 23.059V23.7912C65.5475 23.9526 65.68 24.085 65.8414 24.085Z" fill="#B6C2EC"/>
<path d="M64.5311 24.085C64.6925 24.085 64.8249 23.9526 64.8249 23.7912V23.059C64.8249 22.8976 64.6925 22.7651 64.5311 22.7651C64.3697 22.7651 64.2372 22.8976 64.2372 23.059V23.7912C64.2372 23.9526 64.3697 24.085 64.5311 24.085Z" fill="#B6C2EC"/>
<path d="M63.2234 24.085C63.3847 24.085 63.5172 23.9526 63.5172 23.7912V23.059C63.5172 22.8976 63.3847 22.7651 63.2234 22.7651C63.062 22.7651 62.9295 22.8976 62.9295 23.059V23.7912C62.9295 23.9526 63.0596 24.085 63.2234 24.085Z" fill="#B6C2EC"/>
<path d="M61.913 24.085C62.0744 24.085 62.2069 23.9526 62.2069 23.7912V23.059C62.2069 22.8976 62.0744 22.7651 61.913 22.7651C61.7517 22.7651 61.6192 22.8976 61.6192 23.059V23.7912C61.6192 23.9526 61.7517 24.085 61.913 24.085Z" fill="#B6C2EC"/>
<path d="M58.3507 24.085C58.5121 24.085 58.6446 23.9526 58.6446 23.7912V23.059C58.6446 22.8976 58.5121 22.7651 58.3507 22.7651C58.1894 22.7651 58.0569 22.8976 58.0569 23.059V23.7912C58.0569 23.9526 58.1894 24.085 58.3507 24.085Z" fill="#B6C2EC"/>
<path d="M57.0405 24.085C57.2019 24.085 57.3343 23.9526 57.3343 23.7912V23.059C57.3343 22.8976 57.2019 22.7651 57.0405 22.7651C56.8791 22.7651 56.7466 22.8976 56.7466 23.059V23.7912C56.7466 23.9526 56.8791 24.085 57.0405 24.085Z" fill="#B6C2EC"/>
<path d="M55.7302 24.085C55.8916 24.085 56.024 23.9526 56.024 23.7912V23.059C56.024 22.8976 55.8916 22.7651 55.7302 22.7651C55.5688 22.7651 55.4363 22.8976 55.4363 23.059V23.7912C55.4363 23.9526 55.5664 24.085 55.7302 24.085Z" fill="#B6C2EC"/>
<path d="M54.4223 24.085C54.5837 24.085 54.7162 23.9526 54.7162 23.7912V23.059C54.7162 22.8976 54.5837 22.7651 54.4223 22.7651C54.261 22.7651 54.1285 22.8976 54.1285 23.059V23.7912C54.1285 23.9526 54.261 24.085 54.4223 24.085Z" fill="#B6C2EC"/>
<path d="M53.1121 24.085C53.2735 24.085 53.4059 23.9526 53.4059 23.7912V23.059C53.4059 22.8976 53.2735 22.7651 53.1121 22.7651C52.9507 22.7651 52.8182 22.8976 52.8182 23.059V23.7912C52.8182 23.9526 52.9483 24.085 53.1121 24.085Z" fill="#B6C2EC"/>
<path d="M49.5498 24.085C49.7111 24.085 49.8436 23.9526 49.8436 23.7912V23.059C49.8436 22.8976 49.7111 22.7651 49.5498 22.7651C49.3884 22.7651 49.2559 22.8976 49.2559 23.059V23.7912C49.2559 23.9526 49.3884 24.085 49.5498 24.085Z" fill="#B6C2EC"/>
<path d="M48.2395 24.085C48.4008 24.085 48.5333 23.9526 48.5333 23.7912V23.059C48.5333 22.8976 48.4008 22.7651 48.2395 22.7651C48.0781 22.7651 47.9456 22.8976 47.9456 23.059V23.7912C47.9456 23.9526 48.0781 24.085 48.2395 24.085Z" fill="#B6C2EC"/>
<path d="M46.9293 24.085C47.0907 24.085 47.2231 23.9526 47.2231 23.7912V23.059C47.2231 22.8976 47.0907 22.7651 46.9293 22.7651C46.7679 22.7651 46.6354 22.8976 46.6354 23.059V23.7912C46.6354 23.9526 46.7655 24.085 46.9293 24.085Z" fill="#B6C2EC"/>
<path d="M45.6214 24.085C45.7828 24.085 45.9153 23.9526 45.9153 23.7912V23.059C45.9153 22.8976 45.7828 22.7651 45.6214 22.7651C45.46 22.7651 45.3276 22.8976 45.3276 23.059V23.7912C45.3276 23.9526 45.4576 24.085 45.6214 24.085Z" fill="#B6C2EC"/>
<path d="M44.311 24.085C44.4724 24.085 44.6048 23.9526 44.6048 23.7912V23.059C44.6048 22.8976 44.4724 22.7651 44.311 22.7651C44.1496 22.7651 44.0172 22.8976 44.0172 23.059V23.7912C44.0172 23.9526 44.1472 24.085 44.311 24.085Z" fill="#B6C2EC"/>
</g>
<path d="M92.5695 19.104H86.7407V20.5443H92.5695V19.104Z" fill="#E0E6F5"/>
<path d="M86.7407 19.104V19.3882H92.2853V20.5443H92.5695V19.104H86.7407Z" fill="#B6C2EC"/>
<path d="M91.2785 20.7492C91.3917 20.7492 91.4832 20.6577 91.4832 20.5445V19.1041C91.4832 18.9909 91.3917 18.8994 91.2785 18.8994C91.1653 18.8994 91.0737 18.9909 91.0737 19.1041V20.5445C91.0737 20.6577 91.1653 20.7492 91.2785 20.7492Z" fill="#FCFCFF"/>
<path d="M89.7683 20.7492C89.8815 20.7492 89.973 20.6577 89.973 20.5445V19.1041C89.973 18.9909 89.8815 18.8994 89.7683 18.8994C89.6551 18.8994 89.5635 18.9909 89.5635 19.1041V20.5445C89.5635 20.6577 89.6551 20.7492 89.7683 20.7492Z" fill="#FCFCFF"/>
<path d="M88.2581 20.7492C88.3713 20.7492 88.4629 20.6577 88.4629 20.5445V19.1041C88.4629 18.9909 88.3713 18.8994 88.2581 18.8994C88.1449 18.8994 88.0534 18.9909 88.0534 19.1041V20.5445C88.0534 20.6577 88.1449 20.7492 88.2581 20.7492Z" fill="#FCFCFF"/>
<path d="M94.9539 21.9536H89.1251V23.3939H94.9539V21.9536Z" fill="#A8BAD4"/>
<path d="M89.1251 21.9536V22.2378H94.6697V23.3915H94.9563V21.9536H89.1251Z" fill="#8E9EB5"/>
<path d="M93.6653 23.5964C93.7785 23.5964 93.87 23.5048 93.87 23.3916V21.9513C93.87 21.8381 93.7785 21.7466 93.6653 21.7466C93.5521 21.7466 93.4606 21.8381 93.4606 21.9513V23.3916C93.4606 23.5048 93.5521 23.5964 93.6653 23.5964Z" fill="#FCFCFF"/>
<path d="M92.1551 23.5964C92.2683 23.5964 92.3598 23.5048 92.3598 23.3916V21.9513C92.3598 21.8381 92.2683 21.7466 92.1551 21.7466C92.0419 21.7466 91.9504 21.8381 91.9504 21.9513V23.3916C91.9504 23.5048 92.0419 23.5964 92.1551 23.5964Z" fill="#FCFCFF"/>
<path d="M90.6448 23.5964C90.7581 23.5964 90.8496 23.5048 90.8496 23.3916V21.9513C90.8496 21.8381 90.7581 21.7466 90.6448 21.7466C90.5316 21.7466 90.4401 21.8381 90.4401 21.9513V23.3916C90.4401 23.5048 90.5316 23.5964 90.6448 23.5964Z" fill="#FCFCFF"/>
<path d="M83.0772 19.104H77.2484V20.5443H83.0772V19.104Z" fill="#E0E6F5"/>
<path d="M77.2484 19.104V19.3882H82.793V20.5443H83.0772V19.104H77.2484Z" fill="#B6C2EC"/>
<path d="M81.7861 20.7492C81.8993 20.7492 81.9909 20.6577 81.9909 20.5445V19.1041C81.9909 18.9909 81.8993 18.8994 81.7861 18.8994C81.6729 18.8994 81.5814 18.9909 81.5814 19.1041V20.5445C81.5814 20.6577 81.6729 20.7492 81.7861 20.7492Z" fill="#FCFCFF"/>
<path d="M80.276 20.7492C80.3892 20.7492 80.4807 20.6577 80.4807 20.5445V19.1041C80.4807 18.9909 80.3892 18.8994 80.276 18.8994C80.1628 18.8994 80.0712 18.9909 80.0712 19.1041V20.5445C80.0712 20.6577 80.1628 20.7492 80.276 20.7492Z" fill="#FCFCFF"/>
<path d="M78.7658 20.7492C78.879 20.7492 78.9705 20.6577 78.9705 20.5445V19.1041C78.9705 18.9909 78.879 18.8994 78.7658 18.8994C78.6526 18.8994 78.561 18.9909 78.561 19.1041V20.5445C78.561 20.6577 78.6526 20.7492 78.7658 20.7492Z" fill="#FCFCFF"/>
<path d="M73.585 19.104H67.7562V20.5443H73.585V19.104Z" fill="#E0E6F5"/>
<path d="M67.7562 19.104V19.3882H73.3008V20.5443H73.585V19.104H67.7562Z" fill="#B6C2EC"/>
<path d="M72.2941 20.7492C72.4073 20.7492 72.4988 20.6577 72.4988 20.5445V19.1041C72.4988 18.9909 72.4073 18.8994 72.2941 18.8994C72.1809 18.8994 72.0894 18.9909 72.0894 19.1041V20.5445C72.0894 20.6577 72.1809 20.7492 72.2941 20.7492Z" fill="#FCFCFF"/>
<path d="M70.7839 20.7492C70.8971 20.7492 70.9886 20.6577 70.9886 20.5445V19.1041C70.9886 18.9909 70.8971 18.8994 70.7839 18.8994C70.6707 18.8994 70.5792 18.9909 70.5792 19.1041V20.5445C70.5792 20.6577 70.6707 20.7492 70.7839 20.7492Z" fill="#FCFCFF"/>
<path d="M69.2736 20.7492C69.3868 20.7492 69.4784 20.6577 69.4784 20.5445V19.1041C69.4784 18.9909 69.3868 18.8994 69.2736 18.8994C69.1604 18.8994 69.0689 18.9909 69.0689 19.1041V20.5445C69.0689 20.6577 69.1604 20.7492 69.2736 20.7492Z" fill="#FCFCFF"/>
<path d="M64.0928 19.104H58.264V20.5443H64.0928V19.104Z" fill="#E0E6F5"/>
<path d="M58.264 19.104V19.3882H63.8086V20.5443H64.0928V19.104H58.264Z" fill="#B6C2EC"/>
<path d="M62.8018 20.7492C62.915 20.7492 63.0065 20.6577 63.0065 20.5445V19.1041C63.0065 18.9909 62.915 18.8994 62.8018 18.8994C62.6886 18.8994 62.597 18.9909 62.597 19.1041V20.5445C62.597 20.6577 62.6886 20.7492 62.8018 20.7492Z" fill="#FCFCFF"/>
<path d="M61.2916 20.7492C61.4048 20.7492 61.4964 20.6577 61.4964 20.5445V19.1041C61.4964 18.9909 61.4048 18.8994 61.2916 18.8994C61.1784 18.8994 61.0869 18.9909 61.0869 19.1041V20.5445C61.0869 20.6577 61.1784 20.7492 61.2916 20.7492Z" fill="#FCFCFF"/>
<path d="M59.7815 20.7492C59.8947 20.7492 59.9862 20.6577 59.9862 20.5445V19.1041C59.9862 18.9909 59.8947 18.8994 59.7815 18.8994C59.6682 18.8994 59.5767 18.9909 59.5767 19.1041V20.5445C59.5767 20.6577 59.6682 20.7492 59.7815 20.7492Z" fill="#FCFCFF"/>
<path d="M54.6005 19.104H48.7717V20.5443H54.6005V19.104Z" fill="#E0E6F5"/>
<path d="M48.7717 19.104V19.3882H54.3163V20.5443H54.6005V19.104H48.7717Z" fill="#B6C2EC"/>
<path d="M53.3095 20.7492C53.4227 20.7492 53.5142 20.6577 53.5142 20.5445V19.1041C53.5142 18.9909 53.4227 18.8994 53.3095 18.8994C53.1963 18.8994 53.1047 18.9909 53.1047 19.1041V20.5445C53.1047 20.6577 53.1963 20.7492 53.3095 20.7492Z" fill="#FCFCFF"/>
<path d="M51.7993 20.7492C51.9125 20.7492 52.004 20.6577 52.004 20.5445V19.1041C52.004 18.9909 51.9125 18.8994 51.7993 18.8994C51.6861 18.8994 51.5945 18.9909 51.5945 19.1041V20.5445C51.5945 20.6577 51.6861 20.7492 51.7993 20.7492Z" fill="#FCFCFF"/>
<path d="M50.2891 20.7492C50.4023 20.7492 50.4939 20.6577 50.4939 20.5445V19.1041C50.4939 18.9909 50.4023 18.8994 50.2891 18.8994C50.1759 18.8994 50.0844 18.9909 50.0844 19.1041V20.5445C50.0844 20.6577 50.1759 20.7492 50.2891 20.7492Z" fill="#FCFCFF"/>
<path d="M81.7863 20.7492C81.8995 20.7492 81.991 20.6577 81.991 20.5445V19.1041C81.991 18.9909 81.8995 18.8994 81.7863 18.8994C81.6731 18.8994 81.5815 18.9909 81.5815 19.1041V20.5445C81.5815 20.6577 81.6731 20.7492 81.7863 20.7492Z" fill="#FCFCFF"/>
<path d="M80.276 20.7492C80.3892 20.7492 80.4808 20.6577 80.4808 20.5445V19.1041C80.4808 18.9909 80.3892 18.8994 80.276 18.8994C80.1628 18.8994 80.0713 18.9909 80.0713 19.1041V20.5445C80.0713 20.6577 80.1628 20.7492 80.276 20.7492Z" fill="#FCFCFF"/>
<path d="M78.7658 20.7492C78.879 20.7492 78.9706 20.6577 78.9706 20.5445V19.1041C78.9706 18.9909 78.879 18.8994 78.7658 18.8994C78.6526 18.8994 78.5611 18.9909 78.5611 19.1041V20.5445C78.5611 20.6577 78.6526 20.7492 78.7658 20.7492Z" fill="#FCFCFF"/>
<path d="M72.294 20.7492C72.4072 20.7492 72.4988 20.6577 72.4988 20.5445V19.1041C72.4988 18.9909 72.4072 18.8994 72.294 18.8994C72.1808 18.8994 72.0893 18.9909 72.0893 19.1041V20.5445C72.0893 20.6577 72.1808 20.7492 72.294 20.7492Z" fill="#FCFCFF"/>
<path d="M70.7838 20.7492C70.897 20.7492 70.9886 20.6577 70.9886 20.5445V19.1041C70.9886 18.9909 70.897 18.8994 70.7838 18.8994C70.6706 18.8994 70.5791 18.9909 70.5791 19.1041V20.5445C70.5791 20.6577 70.6706 20.7492 70.7838 20.7492Z" fill="#FCFCFF"/>
<path d="M69.2736 20.7492C69.3868 20.7492 69.4783 20.6577 69.4783 20.5445V19.1041C69.4783 18.9909 69.3868 18.8994 69.2736 18.8994C69.1604 18.8994 69.0688 18.9909 69.0688 19.1041V20.5445C69.0688 20.6577 69.1604 20.7492 69.2736 20.7492Z" fill="#FCFCFF"/>
<path d="M62.8017 20.7492C62.9149 20.7492 63.0064 20.6577 63.0064 20.5445V19.1041C63.0064 18.9909 62.9149 18.8994 62.8017 18.8994C62.6885 18.8994 62.597 18.9909 62.597 19.1041V20.5445C62.597 20.6577 62.6885 20.7492 62.8017 20.7492Z" fill="#FCFCFF"/>
<path d="M61.2916 20.7492C61.4048 20.7492 61.4963 20.6577 61.4963 20.5445V19.1041C61.4963 18.9909 61.4048 18.8994 61.2916 18.8994C61.1784 18.8994 61.0869 18.9909 61.0869 19.1041V20.5445C61.0869 20.6577 61.1784 20.7492 61.2916 20.7492Z" fill="#FCFCFF"/>
<path d="M59.7814 20.7492C59.8946 20.7492 59.9861 20.6577 59.9861 20.5445V19.1041C59.9861 18.9909 59.8946 18.8994 59.7814 18.8994C59.6682 18.8994 59.5767 18.9909 59.5767 19.1041V20.5445C59.5767 20.6577 59.6682 20.7492 59.7814 20.7492Z" fill="#FCFCFF"/>
<path d="M53.1579 20.7492C53.2711 20.7492 53.3626 20.6577 53.3626 20.5445V19.1041C53.3626 18.9909 53.2711 18.8994 53.1579 18.8994C53.0447 18.8994 52.9531 18.9909 52.9531 19.1041V20.5445C52.9531 20.6577 53.0447 20.7492 53.1579 20.7492Z" fill="#FCFCFF"/>
<path d="M51.6477 20.7492C51.7609 20.7492 51.8524 20.6577 51.8524 20.5445V19.1041C51.8524 18.9909 51.7609 18.8994 51.6477 18.8994C51.5345 18.8994 51.4429 18.9909 51.4429 19.1041V20.5445C51.4429 20.6577 51.5345 20.7492 51.6477 20.7492Z" fill="#FCFCFF"/>
<path d="M50.1374 20.7492C50.2506 20.7492 50.3421 20.6577 50.3421 20.5445V19.1041C50.3421 18.9909 50.2506 18.8994 50.1374 18.8994C50.0242 18.8994 49.9327 18.9909 49.9327 19.1041V20.5445C49.9327 20.6577 50.0242 20.7492 50.1374 20.7492Z" fill="#FCFCFF"/>
<path d="M89.9104 13.9111C90.0236 13.9111 90.1152 13.7642 90.1152 13.586V11.2978C90.1152 11.1172 90.0236 10.9727 89.9104 10.9727C89.7972 10.9727 89.7057 11.1196 89.7057 11.2978V13.586C89.7057 13.7666 89.7972 13.9111 89.9104 13.9111Z" fill="#FCFCFF"/>
<path d="M92.2274 13.9111C92.3406 13.9111 92.4321 13.7642 92.4321 13.586V11.2978C92.4321 11.1172 92.3406 10.9727 92.2274 10.9727C92.1142 10.9727 92.0226 11.1196 92.0226 11.2978V13.586C92.0226 13.7666 92.1142 13.9111 92.2274 13.9111Z" fill="#FCFCFF"/>
<path d="M41.1293 11.5317H32.3428L31.1674 13.3189H40.7223L41.1293 11.5317Z" fill="#FCFCFF"/>
<path d="M85.9701 7.53105L86.406 8.90153H85.127V9.44828H86.5794L86.9046 10.4743H90.0719L89.277 9.44828H90.3272V8.90153H88.8531L86.6396 6.04736H85.498L85.7822 6.94576H84.561V7.53105H85.9701Z" fill="#FCFCFF"/>
<path d="M85.7822 6.42069C85.8087 6.42069 85.8352 6.41588 85.8617 6.40624C85.9797 6.36289 86.0399 6.23042 85.9941 6.11239L85.2619 4.14699C85.2186 4.02897 85.0861 3.96876 84.9681 4.01211C84.8501 4.05546 84.7899 4.18794 84.8332 4.30596L85.5654 6.27136C85.5991 6.36289 85.6859 6.41828 85.7798 6.41828L85.7822 6.42069Z" fill="#FCFCFF"/>
<path d="M86.8371 9.44824H86.5794L86.9046 10.4743H87.1647L86.8371 9.44824Z" fill="#B6C2EC"/>
<path d="M86.2302 7.53125H85.97L86.4036 8.90173H86.6637L86.2302 7.53125Z" fill="#B6C2EC"/>
<path d="M85.4979 6.04736L85.5702 6.27377C85.5702 6.27377 85.5702 6.27377 85.5702 6.27618L85.7845 6.94576H86.0447L85.8713 6.40383L85.8303 6.27618C85.8303 6.27618 85.8303 6.27618 85.8303 6.27377L85.7581 6.04736H85.4979Z" fill="#B6C2EC"/>
<path d="M85.3871 8.90137H85.127V9.44812H85.3871V8.90137Z" fill="#B6C2EC"/>
<path d="M84.8212 6.9458H84.561V7.53109H84.8212V6.9458Z" fill="#B6C2EC"/>
<path d="M84.8356 4.30842L85.5678 6.27382C85.5678 6.27382 85.5678 6.27382 85.5678 6.27623C85.6039 6.36535 85.6882 6.42074 85.7798 6.42074C85.8063 6.42074 85.8327 6.41593 85.8592 6.40629C85.8617 6.40629 85.8641 6.40629 85.8665 6.40388L85.8255 6.27623C85.8255 6.27623 85.8255 6.27623 85.8255 6.27382L85.7533 6.04741H85.7412L85.0933 4.30842C85.0572 4.20726 85.0933 4.09887 85.1776 4.04106C85.1174 4.00012 85.0403 3.98807 84.9681 4.01457C84.8501 4.05792 84.7898 4.1904 84.8356 4.30842Z" fill="#B6C2EC"/>
<path d="M85.7435 6.04736L85.8278 6.27377L85.7555 6.04736H85.7435Z" fill="#B7B8B9"/>
<path d="M39.9082 21.6475H30.0739V23.1769H39.9082V21.6475Z" fill="#E0E6F5"/>
<path d="M89.5779 15.3491H89.1757C89.0467 15.3491 88.9421 15.4537 88.9421 15.5828V16.1584C88.9421 16.2874 89.0467 16.392 89.1757 16.392H89.5779C89.707 16.392 89.8116 16.2874 89.8116 16.1584V15.5828C89.8116 15.4537 89.707 15.3491 89.5779 15.3491Z" fill="#A8BAD4"/>
<path d="M88.0244 15.3491H87.6222C87.4932 15.3491 87.3885 15.4537 87.3885 15.5828V16.1584C87.3885 16.2874 87.4932 16.392 87.6222 16.392H88.0244C88.1535 16.392 88.258 16.2874 88.258 16.1584V15.5828C88.258 15.4537 88.1535 15.3491 88.0244 15.3491Z" fill="#A8BAD4"/>
<path d="M86.4709 15.3491H86.0687C85.9396 15.3491 85.835 15.4537 85.835 15.5828V16.1584C85.835 16.2874 85.9396 16.392 86.0687 16.392H86.4709C86.5999 16.392 86.7045 16.2874 86.7045 16.1584V15.5828C86.7045 15.4537 86.5999 15.3491 86.4709 15.3491Z" fill="#A8BAD4"/>
<path d="M84.9149 15.3491H84.5127C84.3837 15.3491 84.2791 15.4537 84.2791 15.5828V16.1584C84.2791 16.2874 84.3837 16.392 84.5127 16.392H84.9149C85.044 16.392 85.1486 16.2874 85.1486 16.1584V15.5828C85.1486 15.4537 85.044 15.3491 84.9149 15.3491Z" fill="#A8BAD4"/>
<path d="M83.3614 15.3491H82.9592C82.8302 15.3491 82.7256 15.4537 82.7256 15.5828V16.1584C82.7256 16.2874 82.8302 16.392 82.9592 16.392H83.3614C83.4905 16.392 83.5951 16.2874 83.5951 16.1584V15.5828C83.5951 15.4537 83.4905 15.3491 83.3614 15.3491Z" fill="#A8BAD4"/>
<path d="M81.8079 15.3491H81.4057C81.2767 15.3491 81.1721 15.4537 81.1721 15.5828V16.1584C81.1721 16.2874 81.2767 16.392 81.4057 16.392H81.8079C81.937 16.392 82.0416 16.2874 82.0416 16.1584V15.5828C82.0416 15.4537 81.937 15.3491 81.8079 15.3491Z" fill="#A8BAD4"/>
<path d="M80.252 15.3491H79.8497C79.7207 15.3491 79.6161 15.4537 79.6161 15.5828V16.1584C79.6161 16.2874 79.7207 16.392 79.8497 16.392H80.252C80.381 16.392 80.4856 16.2874 80.4856 16.1584V15.5828C80.4856 15.4537 80.381 15.3491 80.252 15.3491Z" fill="#A8BAD4"/>
<path d="M74.9386 17.5966C75.0518 17.5966 75.1433 17.505 75.1433 17.3918V15.3566C75.1433 15.2434 75.0518 15.1519 74.9386 15.1519C74.8254 15.1519 74.7339 15.2434 74.7339 15.3566V17.3918C74.7339 17.505 74.8254 17.5966 74.9386 17.5966Z" fill="#FCFCFF"/>
<path d="M72.0074 17.5966C72.1206 17.5966 72.2121 17.505 72.2121 17.3918V15.3566C72.2121 15.2434 72.1206 15.1519 72.0074 15.1519C71.8942 15.1519 71.8027 15.2434 71.8027 15.3566V17.3918C71.8027 17.505 71.8942 17.5966 72.0074 17.5966Z" fill="#FCFCFF"/>
<path d="M69.0737 17.5966C69.1869 17.5966 69.2784 17.505 69.2784 17.3918V15.3566C69.2784 15.2434 69.1869 15.1519 69.0737 15.1519C68.9605 15.1519 68.869 15.2434 68.869 15.3566V17.3918C68.869 17.505 68.9605 17.5966 69.0737 17.5966Z" fill="#FCFCFF"/>
<path d="M66.14 17.5966C66.2532 17.5966 66.3448 17.505 66.3448 17.3918V15.3566C66.3448 15.2434 66.2532 15.1519 66.14 15.1519C66.0268 15.1519 65.9353 15.2434 65.9353 15.3566V17.3918C65.9353 17.505 66.0268 17.5966 66.14 17.5966Z" fill="#FCFCFF"/>
<path d="M63.2088 17.5966C63.322 17.5966 63.4136 17.505 63.4136 17.3918V15.3566C63.4136 15.2434 63.322 15.1519 63.2088 15.1519C63.0956 15.1519 63.0041 15.2434 63.0041 15.3566V17.3918C63.0041 17.505 63.0956 17.5966 63.2088 17.5966Z" fill="#FCFCFF"/>
<path d="M60.2751 17.5966C60.3883 17.5966 60.4798 17.505 60.4798 17.3918V15.3566C60.4798 15.2434 60.3883 15.1519 60.2751 15.1519C60.1619 15.1519 60.0704 15.2434 60.0704 15.3566V17.3918C60.0704 17.505 60.1619 17.5966 60.2751 17.5966Z" fill="#FCFCFF"/>
<path d="M57.3439 17.5966C57.4571 17.5966 57.5486 17.505 57.5486 17.3918V15.3566C57.5486 15.2434 57.4571 15.1519 57.3439 15.1519C57.2307 15.1519 57.1392 15.2434 57.1392 15.3566V17.3918C57.1392 17.505 57.2307 17.5966 57.3439 17.5966Z" fill="#FCFCFF"/>
<path d="M54.4102 17.5966C54.5234 17.5966 54.615 17.505 54.615 17.3918V15.3566C54.615 15.2434 54.5234 15.1519 54.4102 15.1519C54.297 15.1519 54.2055 15.2434 54.2055 15.3566V17.3918C54.2055 17.505 54.297 17.5966 54.4102 17.5966Z" fill="#FCFCFF"/>
<path d="M51.4766 17.5966C51.5898 17.5966 51.6814 17.505 51.6814 17.3918V15.3566C51.6814 15.2434 51.5898 15.1519 51.4766 15.1519C51.3634 15.1519 51.2719 15.2434 51.2719 15.3566V17.3918C51.2719 17.505 51.3634 17.5966 51.4766 17.5966Z" fill="#FCFCFF"/>
<path d="M48.5453 17.5966C48.6585 17.5966 48.75 17.505 48.75 17.3918V15.3566C48.75 15.2434 48.6585 15.1519 48.5453 15.1519C48.4321 15.1519 48.3406 15.2434 48.3406 15.3566V17.3918C48.3406 17.505 48.4321 17.5966 48.5453 17.5966Z" fill="#FCFCFF"/>
<path d="M45.6117 17.5966C45.7249 17.5966 45.8164 17.505 45.8164 17.3918V15.3566C45.8164 15.2434 45.7249 15.1519 45.6117 15.1519C45.4984 15.1519 45.4069 15.2434 45.4069 15.3566V17.3918C45.4069 17.505 45.4984 17.5966 45.6117 17.5966Z" fill="#FCFCFF"/>
<path d="M42.6804 17.5966C42.7936 17.5966 42.8852 17.505 42.8852 17.3918V15.3566C42.8852 15.2434 42.7936 15.1519 42.6804 15.1519C42.5672 15.1519 42.4757 15.2434 42.4757 15.3566V17.3918C42.4757 17.505 42.5672 17.5966 42.6804 17.5966Z" fill="#FCFCFF"/>
<path d="M39.7468 17.5966C39.86 17.5966 39.9516 17.505 39.9516 17.3918V15.3566C39.9516 15.2434 39.86 15.1519 39.7468 15.1519C39.6336 15.1519 39.5421 15.2434 39.5421 15.3566V17.3918C39.5421 17.505 39.6336 17.5966 39.7468 17.5966Z" fill="#FCFCFF"/>
<path d="M36.8131 17.5966C36.9263 17.5966 37.0178 17.505 37.0178 17.3918V15.3566C37.0178 15.2434 36.9263 15.1519 36.8131 15.1519C36.6999 15.1519 36.6083 15.2434 36.6083 15.3566V17.3918C36.6083 17.505 36.6999 17.5966 36.8131 17.5966Z" fill="#FCFCFF"/>
<path d="M33.8819 17.5966C33.9951 17.5966 34.0866 17.505 34.0866 17.3918V15.3566C34.0866 15.2434 33.9951 15.1519 33.8819 15.1519C33.7686 15.1519 33.6771 15.2434 33.6771 15.3566V17.3918C33.6771 17.505 33.7686 17.5966 33.8819 17.5966Z" fill="#FCFCFF"/>
<path d="M30.9483 17.5966C31.0615 17.5966 31.153 17.505 31.153 17.3918V15.3566C31.153 15.2434 31.0615 15.1519 30.9483 15.1519C30.8351 15.1519 30.7435 15.2434 30.7435 15.3566V17.3918C30.7435 17.505 30.8351 17.5966 30.9483 17.5966Z" fill="#FCFCFF"/>
<path d="M28.0146 17.5966C28.1278 17.5966 28.2193 17.505 28.2193 17.3918V15.3566C28.2193 15.2434 28.1278 15.1519 28.0146 15.1519C27.9014 15.1519 27.8099 15.2434 27.8099 15.3566V17.3918C27.8099 17.505 27.9014 17.5966 28.0146 17.5966Z" fill="#FCFCFF"/>
<path d="M40.4502 13.3186H52.0018L49.9472 9.86709L49.8196 9.65273L48.4563 7.36217L48.3287 7.1478L47.3845 5.56055H42.2157L41.8544 7.1478L41.8062 7.36217L41.286 9.65273L41.2354 9.86709L40.4502 13.3186Z" fill="#FCFCFF"/>
<path d="M40.4502 13.3186H42.0134L42.8491 9.65273L43.3694 7.36217L43.7813 5.56055H42.2157L41.8062 7.36217L41.2836 9.65273L40.4502 13.3186Z" fill="#B6C2EC"/>
<path d="M45.708 5.56076L45.5515 4.28662H43.0224L42.7166 5.56076H45.708Z" fill="#FCFCFF"/>
<path d="M42.7166 5.56076H43.232L43.5379 4.28662H43.0224L42.7166 5.56076Z" fill="#B6C2EC"/>
<path d="M41.2354 9.86724H49.9472L49.8195 9.65288L48.4563 7.36231L48.3286 7.14795H41.8544L41.8062 7.36231L41.2859 9.65288L41.2354 9.86724Z" fill="#FE7368"/>
<path opacity="0.15" d="M41.2354 9.86724H42.8009L43.4199 7.14795H41.8544L41.2354 9.86724Z" fill="#2A4657"/>
</g>
<g clip-path="url(#clip2_8139_2680)">
<path d="M67.9352 41.8184C67.4061 43.9044 65.0482 45.0918 62.8992 44.9999C60.7569 44.9081 58.7908 43.8454 56.9162 42.7893C55.0482 41.7332 53.1083 40.6377 50.9724 40.4606C49.3003 40.3228 47.6347 40.7558 45.9887 41.1034C44.3428 41.4511 42.6119 41.7004 41.0051 41.2084C39.3983 40.7164 37.9678 39.2732 38.0005 37.5874C45.5446 36.1705 53.1344 35.4358 60.7307 36.5313C62.331 36.7609 63.9639 37.0626 65.3356 37.9285C66.7007 38.7878 68.3401 40.2506 67.9352 41.8184Z" fill="#7FC0E5"/>
</g>
<g clip-path="url(#clip3_8139_2680)">
<path d="M101.935 41.8184C101.406 43.9044 99.0482 45.0918 96.8992 44.9999C94.7569 44.9081 92.7908 43.8454 90.9162 42.7893C89.0482 41.7332 87.1083 40.6377 84.9724 40.4606C83.3003 40.3228 81.6347 40.7558 79.9887 41.1034C78.3428 41.4511 76.6119 41.7004 75.0051 41.2084C73.3983 40.7164 71.9678 39.2732 72.0005 37.5874C79.5446 36.1705 87.1344 35.4358 94.7307 36.5313C96.331 36.7609 97.9639 37.0626 99.3356 37.9285C100.701 38.7878 102.34 40.2506 101.935 41.8184Z" fill="#7FC0E5"/>
</g>
<g clip-path="url(#clip4_8139_2680)">
<path d="M49.9352 41.8184C49.4061 43.9044 47.0482 45.0918 44.8992 44.9999C42.7569 44.9081 40.7908 43.8454 38.9162 42.7893C37.0482 41.7332 35.1083 40.6377 32.9724 40.4606C31.3003 40.3228 29.6347 40.7558 27.9887 41.1034C26.3428 41.4511 24.6119 41.7004 23.0051 41.2084C21.3983 40.7164 19.9678 39.2732 20.0005 37.5874C27.5446 36.1705 35.1344 35.4358 42.7307 36.5313C44.331 36.7609 45.9639 37.0626 47.3356 37.9285C48.7007 38.7878 50.3401 40.2506 49.9352 41.8184Z" fill="#7FC0E5"/>
</g>
<path d="M83.0275 38.9541C80.1175 38.2872 77.1744 36.6173 74.2093 35.9063C65.2698 33.7624 56.3909 40.5028 47.2089 39.9848C40.8707 39.6265 34.4389 39.3565 28.426 37.3338C11.5776 31.6736 2.18063 41.1752 -11.3278 39.2407C-16.3763 38.5187 -21.2208 38.4636 -26.1039 37.0086C-30.9871 35.5536 -35.06 35.9725 -37 38.403V43.3467H83.0275V38.9541Z" fill="#9FCFF1"/>
<path d="M4.40186 36.2756C5.06874 36.0717 5.84584 36.0386 6.66153 36.1874C7.61501 36.3583 8.5299 36.7441 9.41724 37.1079C9.6377 37.2015 9.86366 37.2952 10.0896 37.3834C13.2863 38.6676 16.7309 39.3179 20.1755 39.3179C22.3525 39.3179 24.5295 39.0589 26.6459 38.5353C27.1034 38.4196 27.5663 38.2928 28.0127 38.1716C29.3079 37.8133 30.6417 37.444 31.9975 37.3779C34.1139 37.2677 36.2248 37.896 37.9388 39.1416L37.9664 39.103C36.2413 37.8519 34.1194 37.2236 31.992 37.3338C30.6307 37.4055 29.2914 37.7747 27.9962 38.1275C27.5498 38.2487 27.0868 38.381 26.6294 38.4912C21.1841 39.8415 15.3145 39.4337 10.1062 37.3448C9.8802 37.2567 9.65423 37.163 9.43929 37.0693C8.55195 36.7 7.63154 36.3142 6.67256 36.1434C5.85687 35.9945 5.07425 36.0276 4.40186 36.2315V36.2866V36.2756Z" fill="#7FC0E5"/>
<path d="M11.9744 39.6099C7.85187 41.1311 3.61359 42.3822 -0.734913 42.1837C-5.46921 41.9688 -10.0272 40.0288 -14.293 38.0557C-14.5961 37.9179 -14.8992 37.7746 -15.2079 37.6313C-19.1981 35.7795 -23.3207 33.867 -27.7133 33.2167C-31.0918 32.7151 -34.327 33.0954 -37 34.2418V34.4182C-34.3435 33.2663 -31.1193 32.875 -27.7408 33.3765C-23.3703 34.0213 -19.2533 35.9338 -15.2795 37.7801C-14.9764 37.9234 -14.6678 38.0612 -14.3646 38.2045C-10.0878 40.1831 -5.5078 42.1341 -0.745937 42.3491C-0.437298 42.3656 -0.134167 42.3711 0.174473 42.3711C4.37417 42.3711 8.45261 41.098 12.4319 39.6154H11.9689L11.9744 39.6099Z" fill="#7FC0E5"/>
<path d="M69.1777 38.2873C67.3534 38.4802 65.4961 38.7392 63.6993 38.9928C58.9761 39.6596 54.1095 40.3486 49.3366 39.814C49.1713 39.8525 49.0059 39.8856 48.8406 39.9132C53.7843 40.5525 58.8328 39.8415 63.7214 39.1526C65.5181 38.8991 67.3755 38.6345 69.1942 38.4471C74.6285 37.8795 79.2525 38.2101 83.0279 39.4337V39.2628C79.236 38.0448 74.6064 37.7141 69.1777 38.2873Z" fill="#7FC0E5"/>
<path d="M183.028 38.9541C180.118 38.2872 177.174 36.6173 174.209 35.9063C165.27 33.7624 156.391 40.5028 147.209 39.9848C140.871 39.6265 134.439 39.3565 128.426 37.3338C111.578 31.6736 102.181 41.1752 88.6722 39.2407C83.6237 38.5187 78.7792 38.4636 73.8961 37.0086C69.0129 35.5536 64.94 35.9725 63 38.403V43.3467H183.028V38.9541Z" fill="#9FCFF1"/>
<path d="M104.402 36.2756C105.069 36.0717 105.846 36.0386 106.662 36.1874C107.615 36.3583 108.53 36.7441 109.417 37.1079C109.638 37.2015 109.864 37.2952 110.09 37.3834C113.286 38.6676 116.731 39.3179 120.176 39.3179C122.353 39.3179 124.53 39.0589 126.646 38.5353C127.103 38.4196 127.566 38.2928 128.013 38.1716C129.308 37.8133 130.642 37.444 131.997 37.3779C134.114 37.2677 136.225 37.896 137.939 39.1416L137.966 39.103C136.241 37.8519 134.119 37.2236 131.992 37.3338C130.631 37.4055 129.291 37.7747 127.996 38.1275C127.55 38.2487 127.087 38.381 126.629 38.4912C121.184 39.8415 115.314 39.4337 110.106 37.3448C109.88 37.2567 109.654 37.163 109.439 37.0693C108.552 36.7 107.632 36.3142 106.673 36.1434C105.857 35.9945 105.074 36.0276 104.402 36.2315V36.2866V36.2756Z" fill="#7FC0E5"/>
<path d="M111.974 39.6099C107.852 41.1311 103.614 42.3822 99.2651 42.1837C94.5308 41.9688 89.9728 40.0288 85.707 38.0557C85.4039 37.9179 85.1008 37.7746 84.7921 37.6313C80.8019 35.7795 76.6793 33.867 72.2867 33.2167C68.9082 32.7151 65.673 33.0954 63 34.2418V34.4182C65.6565 33.2663 68.8807 32.875 72.2592 33.3765C76.6297 34.0213 80.7467 35.9338 84.7205 37.7801C85.0236 37.9234 85.3322 38.0612 85.6354 38.2045C89.9122 40.1831 94.4922 42.1341 99.2541 42.3491C99.5627 42.3656 99.8658 42.3711 100.174 42.3711C104.374 42.3711 108.453 41.098 112.432 39.6154H111.969L111.974 39.6099Z" fill="#7FC0E5"/>
</g>
<defs>
<clipPath id="clip0_8139_2680">
<rect width="120" height="40" rx="12" fill="white"/>
</clipPath>
<clipPath id="clip1_8139_2680">
<rect width="99.9948" height="33" fill="white" transform="translate(12 4)"/>
</clipPath>
<clipPath id="clip2_8139_2680">
<rect width="30" height="9" fill="white" transform="matrix(-1 0 0 -1 66 45)"/>
</clipPath>
<clipPath id="clip3_8139_2680">
<rect width="30" height="9" fill="white" transform="matrix(-1 0 0 -1 107 45)"/>
</clipPath>
<clipPath id="clip4_8139_2680">
<rect width="30" height="9" fill="white" transform="matrix(-1 0 0 -1 45 45)"/>
</clipPath>
</defs>
</svg>
