<svg width="120" height="40" viewBox="0 0 120 40" fill="none" xmlns="http://www.w3.org/2000/svg">
<g clip-path="url(#clip0_8139_40329)">
<rect width="120" height="40" rx="12" fill="#FCF4EC"/>
<path d="M29.128 23.7951C28.141 23.8341 27.235 24.3411 26.5285 25.0476C26.497 24.9981 26.4685 24.9471 26.437 24.8991C25.591 23.6031 24.424 22.4721 22.981 21.9156C21.538 21.3591 19.801 21.4461 18.5545 22.3626C18.4465 22.4421 18.343 22.5276 18.244 22.6161C17.7475 21.5706 17.05 20.6301 16.12 19.9536C14.7385 18.9486 12.7945 18.6276 11.287 19.4316C9.9085 20.1666 9.103 21.6996 8.857 23.2431C8.0575 22.7196 7.1785 22.3311 6.2395 22.1661C5.4985 22.0356 4.7365 22.0551 4 22.2051V26.4951H33.097C32.9245 26.1831 32.734 25.8831 32.515 25.5996C31.7035 24.5466 30.4555 23.7441 29.128 23.7981V23.7951Z" fill="white"/>
<path d="M87.369 9.32167C87.1155 8.67967 86.7555 8.08117 86.3025 7.56067C85.4385 6.56917 84.243 5.87017 82.953 5.60317C81.828 5.37067 80.5905 5.48167 79.641 6.12967C79.5825 6.17017 79.527 6.21367 79.4715 6.25567C79.2015 5.78167 78.867 5.34667 78.4575 4.98367C77.5575 4.18567 76.263 3.77767 75.1095 4.12417C73.9485 4.47367 73.1085 5.51617 72.6945 6.66217C71.9055 6.24667 70.9875 6.07867 70.107 6.21967C69.054 6.38767 68.0985 6.96817 67.329 7.70767C66.825 8.19217 66.3945 8.74417 66 9.32167H87.3675H87.369Z" fill="white"/>
<path d="M116.5 20.4907C116.26 20.5522 116.029 20.6407 115.81 20.7562C115.506 19.9147 114.889 19.1482 114.036 18.8917C113.188 18.6367 112.237 18.9367 111.576 19.5232C111.276 19.7902 111.03 20.1082 110.83 20.4577C110.79 20.4262 110.749 20.3947 110.706 20.3647C110.008 19.8892 109.098 19.8067 108.271 19.9777C107.325 20.1742 106.446 20.6872 105.81 21.4162C105.477 21.7987 105.213 22.2382 105.025 22.7107H116.499V20.4922L116.5 20.4907Z" fill="white"/>
<path d="M13.4065 7.31603C13.531 7.00103 13.708 6.70703 13.93 6.45053C14.3545 5.96303 14.941 5.61953 15.574 5.48903C16.126 5.37503 16.735 5.42903 17.2 5.74703C17.2285 5.76653 17.2555 5.78753 17.284 5.80853C17.416 5.57603 17.581 5.36303 17.782 5.18453C18.2245 4.79303 18.8605 4.59203 19.426 4.76303C19.996 4.93403 20.4085 5.44703 20.6125 6.00953C20.9995 5.80553 21.451 5.72303 21.883 5.79203C22.4005 5.87453 22.87 6.15953 23.2465 6.52253C23.494 6.76103 23.7055 7.03103 23.899 7.31453H13.4065V7.31603Z" fill="white"/>
<g clip-path="url(#clip1_8139_40329)">
<path d="M34.5133 21.9656H46.4594C46.4594 21.8928 46.4393 21.8175 46.4017 21.7523L46.0854 21.3181L43.4252 17.6665H37.55L37.2865 18.0254L34.571 21.7498C34.5334 21.815 34.5133 21.8903 34.5133 21.9631V21.9656Z" fill="#FF6854"/>
<path d="M34.5133 21.9658C34.5133 22.0386 34.5334 22.1139 34.571 22.1791L36.5712 25.6099L36.7268 25.8784L36.9502 26.2624H44.0225L44.2458 25.8784L44.4014 25.6099L46.4017 22.1791C46.4393 22.1139 46.4594 22.0386 46.4594 21.9658H34.5133Z" fill="#FF6854"/>
<path d="M34.5133 21.9658C34.5133 22.0385 34.5334 22.1138 34.571 22.1791H46.4017C46.4393 22.1138 46.4594 22.0385 46.4594 21.9658C46.4594 21.893 46.4393 21.8177 46.4017 21.7524H34.571C34.5334 21.8177 34.5133 21.893 34.5133 21.9658Z" fill="#F7DA88"/>
<path d="M42.5369 17.3579H38.431V17.6691H42.5369V17.3579Z" fill="#2C3E50"/>
<path d="M44.8407 25.8809H36.1271V26.2648H44.8407V25.8809Z" fill="#385E75"/>
<path d="M44.6098 25.6123H36.3605V25.8808H44.6098V25.6123Z" fill="#385E75"/>
<path opacity="0.15" d="M34.5687 22.179L36.5689 25.6097H36.3606V25.8783H36.1272V26.2623H39.3722L39.2894 25.8783L39.2317 25.6097L38.4813 22.179L38.4336 21.9657L38.5315 21.7524L40.4137 17.6691L40.5568 17.3579H38.4336V17.6691H37.5502L34.5737 21.7524C34.5361 21.8176 34.516 21.8929 34.516 21.9657C34.516 22.0385 34.5361 22.1138 34.5737 22.179H34.5687Z" fill="#2A4657"/>
<path opacity="0.25" d="M37.2841 18.0278H41.686C42.6046 18.0278 43.478 18.4168 44.0903 19.102L46.0805 21.3205L43.4202 17.6689H37.5451L37.2816 18.0278H37.2841Z" fill="white"/>
<path d="M48.1711 21.9656H60.1172C60.1172 21.8928 60.0971 21.8175 60.0595 21.7523L59.7433 21.3181L57.083 17.6665H51.2079L50.9443 18.0254L48.2289 21.7498C48.1912 21.815 48.1711 21.8903 48.1711 21.9631V21.9656Z" fill="#FF6854"/>
<path d="M48.1711 21.9658C48.1711 22.0386 48.1912 22.1139 48.2289 22.1791L50.2291 25.6099L50.3847 25.8784L50.608 26.2624H57.6803L57.9037 25.8784L58.0593 25.6099L60.0595 22.1791C60.0971 22.1139 60.1172 22.0386 60.1172 21.9658H48.1711Z" fill="#FF6854"/>
<path d="M48.1711 21.9658C48.1711 22.0385 48.1912 22.1138 48.2289 22.1791H60.0595C60.0971 22.1138 60.1172 22.0385 60.1172 21.9658C60.1172 21.893 60.0971 21.8177 60.0595 21.7524H48.2289C48.1912 21.8177 48.1711 21.893 48.1711 21.9658Z" fill="#F7DA88"/>
<path d="M56.1971 17.3579H52.0913V17.6691H56.1971V17.3579Z" fill="#2C3E50"/>
<path d="M58.4984 25.8809H49.7848V26.2648H58.4984V25.8809Z" fill="#385E75"/>
<path d="M58.2676 25.6123H50.0183V25.8808H58.2676V25.6123Z" fill="#385E75"/>
<path opacity="0.15" d="M48.2289 22.179L50.2291 25.6097H50.0208V25.8783H49.7874V26.2623H53.0324L52.9496 25.8783L52.8919 25.6097L52.1415 22.179L52.0938 21.9657L52.1917 21.7524L54.074 17.6691L54.217 17.3579H52.0938V17.6691H51.2104L48.2339 21.7524C48.1963 21.8176 48.1762 21.8929 48.1762 21.9657C48.1762 22.0385 48.1963 22.1138 48.2339 22.179H48.2289Z" fill="#2A4657"/>
<path opacity="0.25" d="M50.9419 18.0278H55.3439C56.2624 18.0278 57.1358 18.4168 57.7482 19.102L59.7383 21.3205L57.0781 17.6689H51.2029L50.9394 18.0278H50.9419Z" fill="white"/>
<path d="M61.8286 21.9656H73.7747C73.7747 21.8928 73.7546 21.8175 73.717 21.7523L73.4007 21.3181L70.7405 17.6665H64.8653L64.6018 18.0254L61.8863 21.7498C61.8487 21.815 61.8286 21.8903 61.8286 21.9631V21.9656Z" fill="#FF6854"/>
<path d="M61.8286 21.9658C61.8286 22.0386 61.8487 22.1139 61.8863 22.1791L63.8866 25.6099L64.0422 25.8784L64.2655 26.2624H71.3378L71.5612 25.8784L71.7168 25.6099L73.717 22.1791C73.7546 22.1139 73.7747 22.0386 73.7747 21.9658H61.8286Z" fill="#FF6854"/>
<path d="M61.8286 21.9658C61.8286 22.0385 61.8487 22.1138 61.8863 22.1791H73.717C73.7546 22.1138 73.7747 22.0385 73.7747 21.9658C73.7747 21.893 73.7546 21.8177 73.717 21.7524H61.8863C61.8487 21.8177 61.8286 21.893 61.8286 21.9658Z" fill="#F7DA88"/>
<path d="M69.8546 17.3579H65.7488V17.6691H69.8546V17.3579Z" fill="#2C3E50"/>
<path d="M72.1561 25.8809H63.4424V26.2648H72.1561V25.8809Z" fill="#385E75"/>
<path d="M71.9252 25.6123H63.6758V25.8808H71.9252V25.6123Z" fill="#385E75"/>
<path opacity="0.15" d="M61.8864 22.179L63.8867 25.6097H63.6784V25.8783H63.445V26.2623H66.69L66.6071 25.8783L66.5494 25.6097L65.799 22.179L65.7514 21.9657L65.8492 21.7524L67.7315 17.6691L67.8745 17.3579H65.7514V17.6691H64.8679L61.8915 21.7524C61.8538 21.8176 61.8337 21.8929 61.8337 21.9657C61.8337 22.0385 61.8538 22.1138 61.8915 22.179H61.8864Z" fill="#2A4657"/>
<path opacity="0.25" d="M64.6019 18.0278H69.0039C69.9225 18.0278 70.7958 18.4168 71.4082 19.102L73.3984 21.3205L70.7381 17.6689H64.8629L64.5994 18.0278H64.6019Z" fill="white"/>
<path d="M75.4865 21.9656H87.4325C87.4325 21.8928 87.4124 21.8175 87.3748 21.7523L87.0586 21.3181L84.3983 17.6665H78.5232L78.2596 18.0254L75.5442 21.7498C75.5065 21.815 75.4865 21.8903 75.4865 21.9631V21.9656Z" fill="#FF6854"/>
<path d="M75.4865 21.9658C75.4865 22.0386 75.5065 22.1139 75.5442 22.1791L77.5444 25.6099L77.7 25.8784L77.9233 26.2624H84.9956L85.219 25.8784L85.3746 25.6099L87.3748 22.1791C87.4124 22.1139 87.4325 22.0386 87.4325 21.9658H75.4865Z" fill="#FF6854"/>
<path d="M75.4865 21.9658C75.4865 22.0385 75.5065 22.1138 75.5442 22.1791H87.3748C87.4124 22.1138 87.4325 22.0385 87.4325 21.9658C87.4325 21.893 87.4124 21.8177 87.3748 21.7524H75.5442C75.5065 21.8177 75.4865 21.893 75.4865 21.9658Z" fill="#F7DA88"/>
<path d="M83.5124 17.3579H79.4066V17.6691H83.5124V17.3579Z" fill="#2C3E50"/>
<path d="M85.8164 25.8809H77.1028V26.2648H85.8164V25.8809Z" fill="#385E75"/>
<path d="M85.583 25.6123H77.3337V25.8808H85.583V25.6123Z" fill="#385E75"/>
<path opacity="0.15" d="M75.5443 22.179L77.5445 25.6097H77.3362V25.8783H77.1028V26.2623H80.3478L80.265 25.8783L80.2073 25.6097L79.4569 22.179L79.4092 21.9657L79.5071 21.7524L81.3893 17.6691L81.5324 17.3579H79.4092V17.6691H78.5258L75.5493 21.7524C75.5117 21.8176 75.4916 21.8929 75.4916 21.9657C75.4916 22.0385 75.5117 22.1138 75.5493 22.179H75.5443Z" fill="#2A4657"/>
<path opacity="0.25" d="M78.2598 18.0278H82.6618C83.5803 18.0278 84.4537 18.4168 85.066 19.102L87.0562 21.3205L84.3959 17.6689H78.5208L78.2573 18.0278H78.2598Z" fill="white"/>
<path d="M89.144 21.9656H101.09C101.09 21.8928 101.07 21.8175 101.032 21.7523L100.716 21.3181L98.0559 17.6665H92.1808L91.9172 18.0254L89.2018 21.7498C89.1641 21.815 89.144 21.8903 89.144 21.9631V21.9656Z" fill="#FF6854"/>
<path d="M89.144 21.9658C89.144 22.0386 89.1641 22.1139 89.2018 22.1791L91.202 25.6099L91.3576 25.8784L91.5809 26.2624H98.6532L98.8766 25.8784L99.0322 25.6099L101.032 22.1791C101.07 22.1139 101.09 22.0386 101.09 21.9658H89.144Z" fill="#FF6854"/>
<path d="M89.144 21.9658C89.144 22.0385 89.1641 22.1138 89.2018 22.1791H101.032C101.07 22.1138 101.09 22.0385 101.09 21.9658C101.09 21.893 101.07 21.8177 101.032 21.7524H89.2018C89.1641 21.8177 89.144 21.893 89.144 21.9658Z" fill="#F7DA88"/>
<path d="M97.1699 17.3579H93.0641V17.6691H97.1699V17.3579Z" fill="#2C3E50"/>
<path d="M99.4739 25.8809H90.7603V26.2648H99.4739V25.8809Z" fill="#385E75"/>
<path d="M99.243 25.6123H90.9937V25.8808H99.243V25.6123Z" fill="#385E75"/>
<path opacity="0.15" d="M89.2019 22.179L91.2021 25.6097H90.9938V25.8783H90.7604V26.2623H94.0054L93.9226 25.8783L93.8649 25.6097L93.1145 22.179L93.0668 21.9657L93.1647 21.7524L95.0469 17.6691L95.19 17.3579H93.0668V17.6691H92.1834L89.2069 21.7524C89.1693 21.8176 89.1492 21.8929 89.1492 21.9657C89.1492 22.0385 89.1693 22.1138 89.2069 22.179H89.2019Z" fill="#2A4657"/>
<path opacity="0.25" d="M91.9172 18.0278H96.3192C97.2378 18.0278 98.1111 18.4168 98.7235 19.102L100.714 21.3205L98.0534 17.6689H92.1782L91.9147 18.0278H91.9172Z" fill="white"/>
<path d="M82.8473 26.1865H9V26.8943H82.8473V26.1865Z" fill="#E74C3C"/>
<path d="M25.6793 9.00049H25.1096V13.8818H25.6793V9.00049Z" fill="#B6C2EC"/>
<path d="M27.007 14.2358H13.9642V26.8947H27.007V14.2358Z" fill="#E0E6F5"/>
<path d="M16.0924 14.2358H13.9642V26.8947H16.0924V14.2358Z" fill="#B6C2EC"/>
<path d="M27.8929 13.5303H12.8875V14.238H27.8929V13.5303Z" fill="#2C3E50"/>
<path d="M21.8145 7.5249H15.2291V13.5306H21.8145V7.5249Z" fill="#E0E6F5"/>
<path d="M17.2544 7.5249H15.2291V13.5306H17.2544V7.5249Z" fill="#B6C2EC"/>
<path d="M10.2925 20.999H9.59485V26.8943H10.2925V20.999Z" fill="#B6C2EC"/>
<path d="M12.476 20.999H11.7783V26.8943H12.476V20.999Z" fill="#B6C2EC"/>
<path d="M23.777 5H23.2073V13.8818H23.777V5Z" fill="#2C3E50"/>
<path d="M29.2406 20.5649H20.9812V21.2526H29.2406V20.5649Z" fill="#2C3E50"/>
<path d="M28.6484 21.2529H21.5711V26.8947H28.6484V21.2529Z" fill="#B6C2EC"/>
<path d="M18.971 16.5898H17.7086V17.8522H18.971V16.5898Z" fill="#2C3E50"/>
<path d="M21.2071 16.5898H19.9447V17.8522H21.2071V16.5898Z" fill="#2C3E50"/>
<path d="M23.4433 16.5898H22.1809V17.8522H23.4433V16.5898Z" fill="#2C3E50"/>
<path d="M25.6794 16.5898H24.417V17.8522H25.6794V16.5898Z" fill="#2C3E50"/>
<path d="M34.1997 20.8716H33.1958V26.8948H34.1997V20.8716Z" fill="#2C3E50"/>
<path d="M33.9487 17.3579H33.4467V20.8715H33.9487V17.3579Z" fill="#E0E6F5"/>
<path d="M47.8148 20.8716H46.8109V26.8948H47.8148V20.8716Z" fill="#2C3E50"/>
<path d="M47.5638 17.3579H47.0618V20.8715H47.5638V17.3579Z" fill="#E0E6F5"/>
<path d="M61.4625 20.9365H60.4586V26.9598H61.4625V20.9365Z" fill="#2C3E50"/>
<path d="M61.2115 17.4229H60.7096V20.9364H61.2115V17.4229Z" fill="#E0E6F5"/>
<path d="M75.0724 20.8716H74.0685V26.8948H75.0724V20.8716Z" fill="#2C3E50"/>
<path d="M74.8213 17.3579H74.3194V20.8715H74.8213V17.3579Z" fill="#E0E6F5"/>
<path d="M88.7904 20.8716H87.7865V26.8948H88.7904V20.8716Z" fill="#2C3E50"/>
<path d="M88.5394 17.3579H88.0374V20.8715H88.5394V17.3579Z" fill="#E0E6F5"/>
<path d="M102.541 20.8716H101.537V26.8948H102.541V20.8716Z" fill="#2C3E50"/>
<path d="M102.29 17.3579H101.788V20.8715H102.29V17.3579Z" fill="#E0E6F5"/>
<path d="M28.6484 22.186H21.5711V22.8913H28.6484V22.186Z" fill="#2C3E50"/>
<path d="M21.8145 9.00049H15.2291V9.84625H21.8145V9.00049Z" fill="#2C3E50"/>
<path d="M102.353 23.1929H33.0076V23.4438H102.353V23.1929Z" fill="#B6C2EC"/>
<path d="M102.541 24.5103H33.1958V24.7612H102.541V24.5103Z" fill="#B6C2EC"/>
<path d="M85.9292 23.2227L80.6388 26.8943H9L11.989 32.6716H104.747L110.672 23.2227H85.9292Z" fill="#D4D2D4"/>
<path d="M104.747 32.6719H11.9891L15.4474 38.6676H33.7154C33.7154 39.4029 34.3102 39.9977 35.0455 39.9977H51.6044C52.3397 39.9977 52.9345 39.4029 52.9345 38.6676H103.033C103.033 38.6676 107.091 38.1631 107.48 35.8643C107.869 33.5654 104.749 32.6694 104.749 32.6694L104.747 32.6719Z" fill="#333333"/>
<path d="M13.6931 35.6279L15.4474 38.6697H33.7153C33.7153 39.405 34.3101 39.9998 35.0455 39.9998H51.6043C52.3397 39.9998 52.9345 39.405 52.9345 38.6697H103.033C103.033 38.6697 107.091 38.1652 107.48 35.8663L13.6956 35.6279H13.6931Z" fill="#1A1A1A"/>
<path d="M107.512 28.2646H99.9734L97.9706 30.2674H10.7442L11.989 32.6716H104.747L107.512 28.2646Z" fill="#B23A34"/>
</g>
<g clip-path="url(#clip2_8139_40329)">
<path d="M65.9347 41.8184C65.4056 43.9044 63.0477 45.0918 60.8988 44.9999C58.7564 44.9081 56.7903 43.8454 54.9157 42.7893C53.0477 41.7332 51.1078 40.6377 48.9719 40.4606C47.2998 40.3228 45.6342 40.7558 43.9882 41.1034C42.3423 41.4511 40.6114 41.7004 39.0046 41.2084C37.3978 40.7164 35.9673 39.2732 36 37.5874C43.5441 36.1705 51.1339 35.4358 58.7302 36.5313C60.3305 36.7609 61.9634 37.0626 63.3351 37.9285C64.7002 38.7878 66.3396 40.2506 65.9347 41.8184Z" fill="#7FC0E5"/>
</g>
<g clip-path="url(#clip3_8139_40329)">
<path d="M106.935 41.8184C106.406 43.9044 104.048 45.0918 101.899 44.9999C99.7564 44.9081 97.7903 43.8454 95.9157 42.7893C94.0477 41.7332 92.1078 40.6377 89.9719 40.4606C88.2998 40.3228 86.6342 40.7558 84.9882 41.1034C83.3423 41.4511 81.6114 41.7004 80.0046 41.2084C78.3978 40.7164 76.9673 39.2732 77 37.5874C84.5441 36.1705 92.1339 35.4358 99.7302 36.5313C101.331 36.7609 102.963 37.0626 104.335 37.9285C105.7 38.7878 107.34 40.2506 106.935 41.8184Z" fill="#7FC0E5"/>
</g>
<g clip-path="url(#clip4_8139_40329)">
<path d="M44.9347 41.8184C44.4056 43.9044 42.0477 45.0918 39.8988 44.9999C37.7564 44.9081 35.7903 43.8454 33.9157 42.7893C32.0477 41.7332 30.1078 40.6377 27.9719 40.4606C26.2998 40.3228 24.6342 40.7558 22.9882 41.1034C21.3423 41.4511 19.6114 41.7004 18.0046 41.2084C16.3978 40.7164 14.9673 39.2732 15 37.5874C22.5441 36.1705 30.1339 35.4358 37.7302 36.5313C39.3305 36.7609 40.9634 37.0626 42.3351 37.9285C43.7002 38.7878 45.3396 40.2506 44.9347 41.8184Z" fill="#7FC0E5"/>
</g>
<path d="M83.0275 38.9541C80.1175 38.2872 77.1744 36.6173 74.2093 35.9063C65.2698 33.7624 56.3909 40.5028 47.2089 39.9848C40.8707 39.6265 34.4389 39.3565 28.426 37.3338C11.5776 31.6736 2.18063 41.1752 -11.3278 39.2407C-16.3763 38.5187 -21.2208 38.4636 -26.1039 37.0086C-30.9871 35.5536 -35.06 35.9725 -37 38.403V43.3467H83.0275V38.9541Z" fill="#9FCFF1"/>
<path d="M4.40186 36.2756C5.06874 36.0717 5.84584 36.0386 6.66153 36.1874C7.61501 36.3583 8.5299 36.7441 9.41724 37.1079C9.6377 37.2015 9.86366 37.2952 10.0896 37.3834C13.2863 38.6676 16.7309 39.3179 20.1755 39.3179C22.3525 39.3179 24.5295 39.0589 26.6459 38.5353C27.1034 38.4196 27.5663 38.2928 28.0127 38.1716C29.3079 37.8133 30.6417 37.444 31.9975 37.3779C34.1139 37.2677 36.2248 37.896 37.9388 39.1416L37.9664 39.103C36.2413 37.8519 34.1194 37.2236 31.992 37.3338C30.6307 37.4055 29.2914 37.7747 27.9962 38.1275C27.5498 38.2487 27.0868 38.381 26.6294 38.4912C21.1841 39.8415 15.3145 39.4337 10.1062 37.3448C9.8802 37.2567 9.65423 37.163 9.43929 37.0693C8.55195 36.7 7.63154 36.3142 6.67256 36.1434C5.85687 35.9945 5.07425 36.0276 4.40186 36.2315V36.2866V36.2756Z" fill="#7FC0E5"/>
<path d="M11.9744 39.6099C7.85187 41.1311 3.61359 42.3822 -0.734913 42.1837C-5.46921 41.9688 -10.0272 40.0288 -14.293 38.0557C-14.5961 37.9179 -14.8992 37.7746 -15.2079 37.6313C-19.1981 35.7795 -23.3207 33.867 -27.7133 33.2167C-31.0918 32.7151 -34.327 33.0954 -37 34.2418V34.4182C-34.3435 33.2663 -31.1193 32.875 -27.7408 33.3765C-23.3703 34.0213 -19.2533 35.9338 -15.2795 37.7801C-14.9764 37.9234 -14.6678 38.0612 -14.3646 38.2045C-10.0878 40.1831 -5.5078 42.1341 -0.745937 42.3491C-0.437298 42.3656 -0.134167 42.3711 0.174473 42.3711C4.37417 42.3711 8.45261 41.098 12.4319 39.6154H11.9689L11.9744 39.6099Z" fill="#7FC0E5"/>
<path d="M69.1777 38.2873C67.3534 38.4802 65.4961 38.7392 63.6993 38.9928C58.9761 39.6596 54.1095 40.3486 49.3366 39.814C49.1713 39.8525 49.0059 39.8856 48.8406 39.9132C53.7843 40.5525 58.8328 39.8415 63.7214 39.1526C65.5181 38.8991 67.3755 38.6345 69.1942 38.4471C74.6285 37.8795 79.2525 38.2101 83.0279 39.4337V39.2628C79.236 38.0448 74.6064 37.7141 69.1777 38.2873Z" fill="#7FC0E5"/>
<path d="M183.028 38.9541C180.118 38.2872 177.174 36.6173 174.209 35.9063C165.27 33.7624 156.391 40.5028 147.209 39.9848C140.871 39.6265 134.439 39.3565 128.426 37.3338C111.578 31.6736 102.181 41.1752 88.6722 39.2407C83.6237 38.5187 78.7792 38.4636 73.8961 37.0086C69.0129 35.5536 64.94 35.9725 63 38.403V43.3467H183.028V38.9541Z" fill="#9FCFF1"/>
<path d="M104.402 36.2756C105.069 36.0717 105.846 36.0386 106.662 36.1874C107.615 36.3583 108.53 36.7441 109.417 37.1079C109.638 37.2015 109.864 37.2952 110.09 37.3834C113.286 38.6676 116.731 39.3179 120.176 39.3179C122.353 39.3179 124.53 39.0589 126.646 38.5353C127.103 38.4196 127.566 38.2928 128.013 38.1716C129.308 37.8133 130.642 37.444 131.997 37.3779C134.114 37.2677 136.225 37.896 137.939 39.1416L137.966 39.103C136.241 37.8519 134.119 37.2236 131.992 37.3338C130.631 37.4055 129.291 37.7747 127.996 38.1275C127.55 38.2487 127.087 38.381 126.629 38.4912C121.184 39.8415 115.314 39.4337 110.106 37.3448C109.88 37.2567 109.654 37.163 109.439 37.0693C108.552 36.7 107.632 36.3142 106.673 36.1434C105.857 35.9945 105.074 36.0276 104.402 36.2315V36.2866V36.2756Z" fill="#7FC0E5"/>
<path d="M111.974 39.6099C107.852 41.1311 103.614 42.3822 99.2651 42.1837C94.5308 41.9688 89.9728 40.0288 85.707 38.0557C85.4039 37.9179 85.1008 37.7746 84.7921 37.6313C80.8019 35.7795 76.6793 33.867 72.2867 33.2167C68.9082 32.7151 65.673 33.0954 63 34.2418V34.4182C65.6565 33.2663 68.8807 32.875 72.2592 33.3765C76.6297 34.0213 80.7467 35.9338 84.7205 37.7801C85.0236 37.9234 85.3322 38.0612 85.6354 38.2045C89.9122 40.1831 94.4922 42.1341 99.2541 42.3491C99.5627 42.3656 99.8658 42.3711 100.174 42.3711C104.374 42.3711 108.453 41.098 112.432 39.6154H111.969L111.974 39.6099Z" fill="#7FC0E5"/>
</g>
<defs>
<clipPath id="clip0_8139_40329">
<rect width="120" height="40" rx="12" fill="white"/>
</clipPath>
<clipPath id="clip1_8139_40329">
<rect width="101.672" height="35" fill="white" transform="translate(9 5)"/>
</clipPath>
<clipPath id="clip2_8139_40329">
<rect width="30" height="9" fill="white" transform="matrix(-1 0 0 -1 66 45)"/>
</clipPath>
<clipPath id="clip3_8139_40329">
<rect width="30" height="9" fill="white" transform="matrix(-1 0 0 -1 107 45)"/>
</clipPath>
<clipPath id="clip4_8139_40329">
<rect width="30" height="9" fill="white" transform="matrix(-1 0 0 -1 45 45)"/>
</clipPath>
</defs>
</svg>
