<svg width="120" height="40" viewBox="0 0 120 40" fill="none" xmlns="http://www.w3.org/2000/svg">
<g clip-path="url(#clip0_8139_13898)">
<rect width="120" height="40" rx="12" fill="#FCF4EC"/>
<path d="M29.128 23.7951C28.141 23.8341 27.235 24.3411 26.5285 25.0476C26.497 24.9981 26.4685 24.9471 26.437 24.8991C25.591 23.6031 24.424 22.4721 22.981 21.9156C21.538 21.3591 19.801 21.4461 18.5545 22.3626C18.4465 22.4421 18.343 22.5276 18.244 22.6161C17.7475 21.5706 17.05 20.6301 16.12 19.9536C14.7385 18.9486 12.7945 18.6276 11.287 19.4316C9.9085 20.1666 9.103 21.6996 8.857 23.2431C8.0575 22.7196 7.1785 22.3311 6.2395 22.1661C5.4985 22.0356 4.7365 22.0551 4 22.2051V26.4951H33.097C32.9245 26.1831 32.734 25.8831 32.515 25.5996C31.7035 24.5466 30.4555 23.7441 29.128 23.7981V23.7951Z" fill="white"/>
<path d="M87.369 9.32167C87.1155 8.67967 86.7555 8.08117 86.3025 7.56067C85.4385 6.56917 84.243 5.87017 82.953 5.60317C81.828 5.37067 80.5905 5.48167 79.641 6.12967C79.5825 6.17017 79.527 6.21367 79.4715 6.25567C79.2015 5.78167 78.867 5.34667 78.4575 4.98367C77.5575 4.18567 76.263 3.77767 75.1095 4.12417C73.9485 4.47367 73.1085 5.51617 72.6945 6.66217C71.9055 6.24667 70.9875 6.07867 70.107 6.21967C69.054 6.38767 68.0985 6.96817 67.329 7.70767C66.825 8.19217 66.3945 8.74417 66 9.32167H87.3675H87.369Z" fill="white"/>
<path d="M13.4065 7.31603C13.531 7.00103 13.708 6.70703 13.93 6.45053C14.3545 5.96303 14.941 5.61953 15.574 5.48903C16.126 5.37503 16.735 5.42903 17.2 5.74703C17.2285 5.76653 17.2555 5.78753 17.284 5.80853C17.416 5.57603 17.581 5.36303 17.782 5.18453C18.2245 4.79303 18.8605 4.59203 19.426 4.76303C19.996 4.93403 20.4085 5.44703 20.6125 6.00953C20.9995 5.80553 21.451 5.72303 21.883 5.79203C22.4005 5.87453 22.87 6.15953 23.2465 6.52253C23.494 6.76103 23.7055 7.03103 23.899 7.31453H13.4065V7.31603Z" fill="white"/>
<g clip-path="url(#clip1_8139_13898)">
<path d="M21.2195 11.2505V19.337H30.3895L29.0631 11.2505H21.2195Z" fill="#FF6854"/>
<path d="M29.0631 11.2507L28.6495 8.71533H21.2195V11.2507H29.0631Z" fill="#0C2A49"/>
<path d="M26.8373 11.2505L27.4138 18.9313C27.4138 18.9313 28.9244 19.0701 30.3628 19.1769L29.0631 11.2505H26.8373Z" fill="#E74C3C"/>
<path d="M26.6479 8.71533L26.8374 11.2507H29.0632L28.6495 8.71533H26.6479Z" fill="#092238"/>
<path d="M96.6052 9.43835C96.6052 9.23347 96.4391 9.06738 96.2342 9.06738C96.0294 9.06738 95.8633 9.23347 95.8633 9.43835V11.1811C95.8633 11.386 96.0294 11.552 96.2342 11.552C96.4391 11.552 96.6052 11.386 96.6052 11.1811V9.43835Z" fill="#0C2A49"/>
<path d="M108.367 8.8568C108.367 8.65193 108.201 8.48584 107.996 8.48584C107.791 8.48584 107.625 8.65193 107.625 8.8568V10.5995C107.625 10.8044 107.791 10.9705 107.996 10.9705C108.201 10.9705 108.367 10.8044 108.367 10.5995V8.8568Z" fill="#2C3E50"/>
<path d="M109.381 8.08789H107.075C106.895 8.08789 106.749 8.23366 106.749 8.41349C106.749 8.59331 106.895 8.73908 107.075 8.73908H109.381C109.561 8.73908 109.706 8.59331 109.706 8.41349C109.706 8.23366 109.561 8.08789 109.381 8.08789Z" fill="#FF6854"/>
<path d="M106.749 8.48584V8.57391C106.749 8.66465 106.821 8.73671 106.912 8.73671H109.546C109.637 8.73671 109.709 8.66465 109.709 8.57391V8.48584H106.752H106.749Z" fill="#E74C3C"/>
<path d="M103.792 2.84376C103.792 2.78038 103.741 2.729 103.678 2.729C103.614 2.729 103.563 2.78038 103.563 2.84376V7.01778C103.563 7.08116 103.614 7.13254 103.678 7.13254C103.741 7.13254 103.792 7.08116 103.792 7.01778V2.84376Z" fill="#B6C2EC"/>
<path d="M104.969 3.95656C104.969 4.02061 104.919 4.07131 104.854 4.07131H102.498C102.434 4.07131 102.383 4.02061 102.383 3.95656C102.383 3.8925 102.434 3.8418 102.498 3.8418H104.854C104.919 3.8418 104.969 3.8925 104.969 3.95656Z" fill="#B6C2EC"/>
<path d="M104.969 5.31007C104.969 5.37412 104.919 5.42483 104.854 5.42483H102.498C102.434 5.42483 102.383 5.37412 102.383 5.31007C102.383 5.24602 102.434 5.19531 102.498 5.19531H104.854C104.919 5.19531 104.969 5.24602 104.969 5.31007Z" fill="#B6C2EC"/>
<path d="M104.118 7.2316C104.118 6.98692 103.92 6.78857 103.676 6.78857C103.432 6.78857 103.234 6.98692 103.234 7.2316V11.016C103.234 11.2606 103.432 11.459 103.676 11.459C103.92 11.459 104.118 11.2606 104.118 11.016V7.2316Z" fill="#2C3E50"/>
<path d="M99.0579 7.1301C98.9938 7.1301 98.9431 7.07939 98.9431 7.01534V2.84132C98.9431 2.77727 98.9938 2.72656 99.0579 2.72656C99.1219 2.72656 99.1726 2.77727 99.1726 2.84132V7.01534C99.1726 7.07939 99.1219 7.1301 99.0579 7.1301Z" fill="#B6C2EC"/>
<path d="M100.352 3.95656C100.352 4.02061 100.302 4.07131 100.237 4.07131H97.8809C97.8169 4.07131 97.7662 4.02061 97.7662 3.95656C97.7662 3.8925 97.8169 3.8418 97.8809 3.8418H100.237C100.302 3.8418 100.352 3.8925 100.352 3.95656Z" fill="#B6C2EC"/>
<path d="M100.352 5.31007C100.352 5.37412 100.302 5.42483 100.237 5.42483H97.8809C97.8169 5.42483 97.7662 5.37412 97.7662 5.31007C97.7662 5.24602 97.8169 5.19531 97.8809 5.19531H100.237C100.302 5.19531 100.352 5.24602 100.352 5.31007Z" fill="#B6C2EC"/>
<path d="M99.5009 7.2316C99.5009 6.98692 99.3032 6.78857 99.0592 6.78857C98.8153 6.78857 98.6176 6.98692 98.6176 7.2316V11.016C98.6176 11.2606 98.8153 11.459 99.0592 11.459C99.3032 11.459 99.5009 11.2606 99.5009 11.016V7.2316Z" fill="#2C3E50"/>
<path d="M105.821 11.0343C105.751 11.0343 105.695 10.9783 105.695 10.9089V6.31586C105.695 6.24647 105.751 6.19043 105.821 6.19043C105.89 6.19043 105.946 6.24647 105.946 6.31586V10.9089C105.946 10.9783 105.89 11.0343 105.821 11.0343Z" fill="#2C3E50"/>
<path d="M101.241 11.0345C101.172 11.0345 101.115 10.9784 101.115 10.909V-1.87457C101.115 -1.94395 101.172 -2 101.241 -2C101.31 -2 101.366 -1.94395 101.366 -1.87457V10.9064C101.366 10.9758 101.31 11.0318 101.241 11.0318V11.0345Z" fill="#0C2A49"/>
<path d="M108.367 8.73682H107.625V8.92363H108.367V8.73682Z" fill="white"/>
<path d="M48.6441 14.1357H32.8634V18.7234H48.6441V14.1357Z" fill="#0C2A49"/>
<path d="M48.6362 13.9033H32.8688C32.804 13.9033 32.7514 13.9553 32.7514 14.0194C32.7514 14.0835 32.804 14.1355 32.8688 14.1355H48.6362C48.701 14.1355 48.7536 14.0835 48.7536 14.0194C48.7536 13.9553 48.701 13.9033 48.6362 13.9033Z" fill="#FF6854"/>
<path d="M48.6441 14.1357H32.8634V14.2452H48.6441V14.1357Z" fill="#E74C3C"/>
<path d="M46.8107 15.4005C46.8107 15.2413 46.6816 15.1123 46.5224 15.1123C46.3632 15.1123 46.2342 15.2413 46.2342 15.4005V15.7128C46.2342 15.872 46.3632 16.001 46.5224 16.001C46.6816 16.001 46.8107 15.872 46.8107 15.7128V15.4005Z" fill="#FCF4EC"/>
<path d="M45.8339 15.4005C45.8339 15.2413 45.7049 15.1123 45.5457 15.1123C45.3865 15.1123 45.2574 15.2413 45.2574 15.4005V15.7128C45.2574 15.872 45.3865 16.001 45.5457 16.001C45.7049 16.001 45.8339 15.872 45.8339 15.7128V15.4005Z" fill="#FCF4EC"/>
<path d="M39.9678 15.4005C39.9678 15.2413 39.8388 15.1123 39.6796 15.1123C39.5204 15.1123 39.3914 15.2413 39.3914 15.4005V15.7128C39.3914 15.872 39.5204 16.001 39.6796 16.001C39.8388 16.001 39.9678 15.872 39.9678 15.7128V15.4005Z" fill="#FCF4EC"/>
<path d="M38.9883 15.4005C38.9883 15.2413 38.8593 15.1123 38.7001 15.1123C38.5409 15.1123 38.4119 15.2413 38.4119 15.4005V15.7128C38.4119 15.872 38.5409 16.001 38.7001 16.001C38.8593 16.001 38.9883 15.872 38.9883 15.7128V15.4005Z" fill="#FCF4EC"/>
<path d="M35.0785 15.4005C35.0785 15.2413 34.9495 15.1123 34.7903 15.1123C34.6311 15.1123 34.5021 15.2413 34.5021 15.4005V15.7128C34.5021 15.872 34.6311 16.001 34.7903 16.001C34.9495 16.001 35.0785 15.872 35.0785 15.7128V15.4005Z" fill="#FCF4EC"/>
<path d="M110.55 10.8129C110.507 10.8129 110.472 10.7782 110.472 10.7355V9.97755H94.481V10.7355C94.481 10.7782 94.4463 10.8129 94.4036 10.8129C94.3609 10.8129 94.3262 10.7782 94.3262 10.7355V9.90015C94.3262 9.85745 94.3609 9.82275 94.4036 9.82275H110.55C110.593 9.82275 110.627 9.85745 110.627 9.90015V10.7355C110.627 10.7782 110.593 10.8129 110.55 10.8129Z" fill="#F1F1F1"/>
<path d="M95.5699 10.8129C95.5272 10.8129 95.4925 10.7782 95.4925 10.7355V9.90015C95.4925 9.85745 95.5272 9.82275 95.5699 9.82275C95.6126 9.82275 95.6473 9.85745 95.6473 9.90015V10.7355C95.6473 10.7782 95.6126 10.8129 95.5699 10.8129Z" fill="#F1F1F1"/>
<path d="M96.7228 10.8129C96.6801 10.8129 96.6454 10.7782 96.6454 10.7355V9.90015C96.6454 9.85745 96.6801 9.82275 96.7228 9.82275C96.7655 9.82275 96.8002 9.85745 96.8002 9.90015V10.7355C96.8002 10.7782 96.7655 10.8129 96.7228 10.8129Z" fill="#F1F1F1"/>
<path d="M97.8757 10.8129C97.833 10.8129 97.7983 10.7782 97.7983 10.7355V9.90015C97.7983 9.85745 97.833 9.82275 97.8757 9.82275C97.9184 9.82275 97.9531 9.85745 97.9531 9.90015V10.7355C97.9531 10.7782 97.9184 10.8129 97.8757 10.8129Z" fill="#F1F1F1"/>
<path d="M99.0286 10.8129C98.9859 10.8129 98.9512 10.7782 98.9512 10.7355V9.90015C98.9512 9.85745 98.9859 9.82275 99.0286 9.82275C99.0713 9.82275 99.106 9.85745 99.106 9.90015V10.7355C99.106 10.7782 99.0713 10.8129 99.0286 10.8129Z" fill="#F1F1F1"/>
<path d="M100.179 10.8129C100.136 10.8129 100.102 10.7782 100.102 10.7355V9.90015C100.102 9.85745 100.136 9.82275 100.179 9.82275C100.222 9.82275 100.256 9.85745 100.256 9.90015V10.7355C100.256 10.7782 100.222 10.8129 100.179 10.8129Z" fill="#F1F1F1"/>
<path d="M101.332 10.8129C101.289 10.8129 101.254 10.7782 101.254 10.7355V9.90015C101.254 9.85745 101.289 9.82275 101.332 9.82275C101.374 9.82275 101.409 9.85745 101.409 9.90015V10.7355C101.409 10.7782 101.374 10.8129 101.332 10.8129Z" fill="#F1F1F1"/>
<path d="M102.485 10.8129C102.442 10.8129 102.407 10.7782 102.407 10.7355V9.90015C102.407 9.85745 102.442 9.82275 102.485 9.82275C102.527 9.82275 102.562 9.85745 102.562 9.90015V10.7355C102.562 10.7782 102.527 10.8129 102.485 10.8129Z" fill="#F1F1F1"/>
<path d="M103.635 10.8129C103.592 10.8129 103.558 10.7782 103.558 10.7355V9.90015C103.558 9.85745 103.592 9.82275 103.635 9.82275C103.678 9.82275 103.712 9.85745 103.712 9.90015V10.7355C103.712 10.7782 103.678 10.8129 103.635 10.8129Z" fill="#F1F1F1"/>
<path d="M104.788 10.8129C104.745 10.8129 104.711 10.7782 104.711 10.7355V9.90015C104.711 9.85745 104.745 9.82275 104.788 9.82275C104.831 9.82275 104.865 9.85745 104.865 9.90015V10.7355C104.865 10.7782 104.831 10.8129 104.788 10.8129Z" fill="#F1F1F1"/>
<path d="M105.941 10.8129C105.898 10.8129 105.863 10.7782 105.863 10.7355V9.90015C105.863 9.85745 105.898 9.82275 105.941 9.82275C105.984 9.82275 106.018 9.85745 106.018 9.90015V10.7355C106.018 10.7782 105.984 10.8129 105.941 10.8129Z" fill="#F1F1F1"/>
<path d="M107.094 10.8129C107.051 10.8129 107.016 10.7782 107.016 10.7355V9.90015C107.016 9.85745 107.051 9.82275 107.094 9.82275C107.137 9.82275 107.171 9.85745 107.171 9.90015V10.7355C107.171 10.7782 107.137 10.8129 107.094 10.8129Z" fill="#F1F1F1"/>
<path d="M108.244 10.8129C108.201 10.8129 108.167 10.7782 108.167 10.7355V9.90015C108.167 9.85745 108.201 9.82275 108.244 9.82275C108.287 9.82275 108.321 9.85745 108.321 9.90015V10.7355C108.321 10.7782 108.287 10.8129 108.244 10.8129Z" fill="#F1F1F1"/>
<path d="M109.397 10.8129C109.354 10.8129 109.32 10.7782 109.32 10.7355V9.90015C109.32 9.85745 109.354 9.82275 109.397 9.82275C109.44 9.82275 109.474 9.85745 109.474 9.90015V10.7355C109.474 10.7782 109.44 10.8129 109.397 10.8129Z" fill="#F1F1F1"/>
<path d="M110.523 10.2363H94.4036C94.3823 10.2363 94.3636 10.2176 94.3636 10.1963C94.3636 10.1749 94.3823 10.1562 94.4036 10.1562H110.523C110.545 10.1562 110.563 10.1749 110.563 10.1963C110.563 10.2176 110.545 10.2363 110.523 10.2363Z" fill="#F1F1F1"/>
<path d="M110.523 10.562H94.4036C94.3823 10.562 94.3636 10.5433 94.3636 10.522C94.3636 10.5006 94.3823 10.4819 94.4036 10.4819H110.523C110.545 10.4819 110.563 10.5006 110.563 10.522C110.563 10.5433 110.545 10.562 110.523 10.562Z" fill="#F1F1F1"/>
<path d="M108.602 15.147H94.2755V18.8299H108.602V15.147Z" fill="#0C2A49"/>
<path d="M110.649 12.0991H94.2755V15.1469H108.602L110.649 12.0991Z" fill="#E0E6F5"/>
<path d="M110.649 10.7354H94.2755V12.0991H110.649V10.7354Z" fill="#0C2A49"/>
<path d="M56.5493 17.229H55.5111V18.6328H56.5493V17.229Z" fill="#0C2A49"/>
<path d="M56.9415 17.9308H55.1133C55.0279 17.9308 54.9586 17.8614 54.9586 17.776V16.7405C54.9586 16.6685 55.0093 16.6044 55.0813 16.5884L55.9967 16.3829C56.0181 16.3776 56.0421 16.3776 56.0661 16.3829L56.9815 16.5884C57.0536 16.6044 57.1043 16.6685 57.1043 16.7405V17.776C57.1043 17.8614 57.0349 17.9308 56.9495 17.9308H56.9415Z" fill="#195184"/>
<path d="M49.3834 17.229H48.3452V18.6328H49.3834V17.229Z" fill="#0C2A49"/>
<path d="M49.7758 17.9308H47.9476C47.8622 17.9308 47.7928 17.8614 47.7928 17.776V16.7405C47.7928 16.6685 47.8436 16.6044 47.9156 16.5884L48.831 16.3829C48.8524 16.3776 48.8764 16.3776 48.9004 16.3829L49.8158 16.5884C49.8879 16.6044 49.9386 16.6685 49.9386 16.7405V17.776C49.9386 17.8614 49.8692 17.9308 49.7838 17.9308H49.7758Z" fill="#195184"/>
<path d="M42.2178 17.229H41.1796V18.6328H42.2178V17.229Z" fill="#0C2A49"/>
<path d="M42.61 17.9308H40.7819C40.6965 17.9308 40.6271 17.8614 40.6271 17.776V16.7405C40.6271 16.6685 40.6778 16.6044 40.7498 16.5884L41.6652 16.3829C41.6866 16.3776 41.7106 16.3776 41.7346 16.3829L42.65 16.5884C42.7221 16.6044 42.7728 16.6685 42.7728 16.7405V17.776C42.7728 17.8614 42.7034 17.9308 42.618 17.9308H42.61Z" fill="#195184"/>
<path d="M18.492 17.229H17.4539V18.6328H18.492V17.229Z" fill="#0C2A49"/>
<path d="M18.887 17.9308H17.0588C16.9734 17.9308 16.9041 17.8614 16.9041 17.776V16.7405C16.9041 16.6685 16.9548 16.6044 17.0268 16.5884L17.9422 16.3829C17.9636 16.3776 17.9876 16.3776 18.0116 16.3829L18.927 16.5884C18.9991 16.6044 19.0498 16.6685 19.0498 16.7405V17.776C19.0498 17.8614 18.9804 17.9308 18.895 17.9308H18.887Z" fill="#195184"/>
<path d="M10.096 17.229H9.0578V18.6328H10.096V17.229Z" fill="#0C2A49"/>
<path d="M10.4909 17.9308H8.66273C8.57732 17.9308 8.50793 17.8614 8.50793 17.776V16.7405C8.50793 16.6685 8.55864 16.6044 8.6307 16.5884L9.5461 16.3829C9.56745 16.3776 9.59147 16.3776 9.61549 16.3829L10.5309 16.5884C10.603 16.6044 10.6537 16.6685 10.6537 16.7405V17.776C10.6537 17.8614 10.5843 17.9308 10.4989 17.9308H10.4909Z" fill="#195184"/>
<path d="M14.6301 17.229H13.592V18.6328H14.6301V17.229Z" fill="#0C2A49"/>
<path d="M15.0252 17.9308H13.197C13.1116 17.9308 13.0422 17.8614 13.0422 17.776V16.7405C13.0422 16.6685 13.0929 16.6044 13.165 16.5884L14.0804 16.3829C14.1018 16.3776 14.1258 16.3776 14.1498 16.3829L15.0652 16.5884C15.1373 16.6044 15.188 16.6685 15.188 16.7405V17.776C15.188 17.8614 15.1186 17.9308 15.0332 17.9308H15.0252Z" fill="#195184"/>
<path d="M63.0638 17.229H62.0256V18.6328H63.0638V17.229Z" fill="#0C2A49"/>
<path d="M63.4588 17.9308H61.6306C61.5452 17.9308 61.4758 17.8614 61.4758 17.776V16.7405C61.4758 16.6685 61.5265 16.6044 61.5986 16.5884L62.514 16.3829C62.5353 16.3776 62.5594 16.3776 62.5834 16.3829L63.4988 16.5884C63.5708 16.6044 63.6216 16.6685 63.6216 16.7405V17.776C63.6216 17.8614 63.5522 17.9308 63.4668 17.9308H63.4588Z" fill="#195184"/>
<path d="M69.5783 17.229H68.5401V18.6328H69.5783V17.229Z" fill="#0C2A49"/>
<path d="M69.9733 17.9308H68.1452C68.0598 17.9308 67.9904 17.8614 67.9904 17.776V16.7405C67.9904 16.6685 68.0411 16.6044 68.1132 16.5884L69.0286 16.3829C69.0499 16.3776 69.074 16.3776 69.098 16.3829L70.0134 16.5884C70.0854 16.6044 70.1361 16.6685 70.1361 16.7405V17.776C70.1361 17.8614 70.0668 17.9308 69.9814 17.9308H69.9733Z" fill="#195184"/>
<path d="M76.0956 17.229H75.0574V18.6328H76.0956V17.229Z" fill="#0C2A49"/>
<path d="M76.4879 17.9308H74.6597C74.5743 17.9308 74.5049 17.8614 74.5049 17.776V16.7405C74.5049 16.6685 74.5556 16.6044 74.6277 16.5884L75.5431 16.3829C75.5645 16.3776 75.5885 16.3776 75.6125 16.3829L76.5279 16.5884C76.6 16.6044 76.6507 16.6685 76.6507 16.7405V17.776C76.6507 17.8614 76.5813 17.9308 76.4959 17.9308H76.4879Z" fill="#195184"/>
<path d="M32.7167 18.7099C32.674 18.7099 32.6393 18.6752 32.6393 18.6325V17.8745H14.3607V18.6325C14.3607 18.6752 14.326 18.7099 14.2833 18.7099C14.2406 18.7099 14.2059 18.6752 14.2059 18.6325V17.7971C14.2059 17.7544 14.2406 17.7197 14.2833 17.7197H32.7167C32.7594 17.7197 32.7941 17.7544 32.7941 17.7971V18.6325C32.7941 18.6752 32.7594 18.7099 32.7167 18.7099Z" fill="#F1F1F1"/>
<path d="M15.4336 18.7099C15.3909 18.7099 15.3562 18.6752 15.3562 18.6325V17.7971C15.3562 17.7544 15.3909 17.7197 15.4336 17.7197C15.4763 17.7197 15.511 17.7544 15.511 17.7971V18.6325C15.511 18.6752 15.4763 18.7099 15.4336 18.7099Z" fill="#F1F1F1"/>
<path d="M16.5864 18.7099C16.5437 18.7099 16.509 18.6752 16.509 18.6325V17.7971C16.509 17.7544 16.5437 17.7197 16.5864 17.7197C16.6291 17.7197 16.6638 17.7544 16.6638 17.7971V18.6325C16.6638 18.6752 16.6291 18.7099 16.5864 18.7099Z" fill="#F1F1F1"/>
<path d="M17.7394 18.7099C17.6967 18.7099 17.662 18.6752 17.662 18.6325V17.7971C17.662 17.7544 17.6967 17.7197 17.7394 17.7197C17.7821 17.7197 17.8168 17.7544 17.8168 17.7971V18.6325C17.8168 18.6752 17.7821 18.7099 17.7394 18.7099Z" fill="#F1F1F1"/>
<path d="M18.8923 18.7099C18.8496 18.7099 18.8149 18.6752 18.8149 18.6325V17.7971C18.8149 17.7544 18.8496 17.7197 18.8923 17.7197C18.935 17.7197 18.9697 17.7544 18.9697 17.7971V18.6325C18.9697 18.6752 18.935 18.7099 18.8923 18.7099Z" fill="#F1F1F1"/>
<path d="M20.0426 18.7099C19.9999 18.7099 19.9652 18.6752 19.9652 18.6325V17.7971C19.9652 17.7544 19.9999 17.7197 20.0426 17.7197C20.0853 17.7197 20.12 17.7544 20.12 17.7971V18.6325C20.12 18.6752 20.0853 18.7099 20.0426 18.7099Z" fill="#F1F1F1"/>
<path d="M21.1955 18.7099C21.1528 18.7099 21.1181 18.6752 21.1181 18.6325V17.7971C21.1181 17.7544 21.1528 17.7197 21.1955 17.7197C21.2382 17.7197 21.2729 17.7544 21.2729 17.7971V18.6325C21.2729 18.6752 21.2382 18.7099 21.1955 18.7099Z" fill="#F1F1F1"/>
<path d="M22.3485 18.7099C22.3058 18.7099 22.2711 18.6752 22.2711 18.6325V17.7971C22.2711 17.7544 22.3058 17.7197 22.3485 17.7197C22.3912 17.7197 22.4258 17.7544 22.4258 17.7971V18.6325C22.4258 18.6752 22.3912 18.7099 22.3485 18.7099Z" fill="#F1F1F1"/>
<path d="M23.4987 18.7099C23.456 18.7099 23.4213 18.6752 23.4213 18.6325V17.7971C23.4213 17.7544 23.456 17.7197 23.4987 17.7197C23.5414 17.7197 23.5761 17.7544 23.5761 17.7971V18.6325C23.5761 18.6752 23.5414 18.7099 23.4987 18.7099Z" fill="#F1F1F1"/>
<path d="M24.6517 18.7099C24.609 18.7099 24.5743 18.6752 24.5743 18.6325V17.7971C24.5743 17.7544 24.609 17.7197 24.6517 17.7197C24.6944 17.7197 24.7291 17.7544 24.7291 17.7971V18.6325C24.7291 18.6752 24.6944 18.7099 24.6517 18.7099Z" fill="#F1F1F1"/>
<path d="M25.8046 18.7099C25.7619 18.7099 25.7272 18.6752 25.7272 18.6325V17.7971C25.7272 17.7544 25.7619 17.7197 25.8046 17.7197C25.8473 17.7197 25.882 17.7544 25.882 17.7971V18.6325C25.882 18.6752 25.8473 18.7099 25.8046 18.7099Z" fill="#F1F1F1"/>
<path d="M26.9575 18.7099C26.9148 18.7099 26.8801 18.6752 26.8801 18.6325V17.7971C26.8801 17.7544 26.9148 17.7197 26.9575 17.7197C27.0002 17.7197 27.0349 17.7544 27.0349 17.7971V18.6325C27.0349 18.6752 27.0002 18.7099 26.9575 18.7099Z" fill="#F1F1F1"/>
<path d="M28.1077 18.7099C28.065 18.7099 28.0303 18.6752 28.0303 18.6325V17.7971C28.0303 17.7544 28.065 17.7197 28.1077 17.7197C28.1504 17.7197 28.1851 17.7544 28.1851 17.7971V18.6325C28.1851 18.6752 28.1504 18.7099 28.1077 18.7099Z" fill="#F1F1F1"/>
<path d="M29.2607 18.7099C29.218 18.7099 29.1833 18.6752 29.1833 18.6325V17.7971C29.1833 17.7544 29.218 17.7197 29.2607 17.7197C29.3034 17.7197 29.3381 17.7544 29.3381 17.7971V18.6325C29.3381 18.6752 29.3034 18.7099 29.2607 18.7099Z" fill="#F1F1F1"/>
<path d="M30.4136 18.7099C30.3709 18.7099 30.3362 18.6752 30.3362 18.6325V17.7971C30.3362 17.7544 30.3709 17.7197 30.4136 17.7197C30.4563 17.7197 30.491 17.7544 30.491 17.7971V18.6325C30.491 18.6752 30.4563 18.7099 30.4136 18.7099Z" fill="#F1F1F1"/>
<path d="M31.5638 18.7099C31.5211 18.7099 31.4865 18.6752 31.4865 18.6325V17.7971C31.4865 17.7544 31.5211 17.7197 31.5638 17.7197C31.6065 17.7197 31.6412 17.7544 31.6412 17.7971V18.6325C31.6412 18.6752 31.6065 18.7099 31.5638 18.7099Z" fill="#F1F1F1"/>
<path d="M32.69 18.1333H14.2833C14.2619 18.1333 14.2432 18.1146 14.2432 18.0933C14.2432 18.0719 14.2619 18.0532 14.2833 18.0532H32.6927C32.7141 18.0532 32.7327 18.0719 32.7327 18.0933C32.7327 18.1146 32.7141 18.1333 32.6927 18.1333H32.69Z" fill="#F1F1F1"/>
<path d="M32.69 18.459H14.2833C14.2619 18.459 14.2432 18.4403 14.2432 18.4189C14.2432 18.3976 14.2619 18.3789 14.2833 18.3789H32.6927C32.7141 18.3789 32.7327 18.3976 32.7327 18.4189C32.7327 18.4403 32.7141 18.459 32.6927 18.459H32.69Z" fill="#F1F1F1"/>
<path d="M51.3263 18.7099C51.2836 18.7099 51.2489 18.6752 51.2489 18.6325V17.8745H32.9702V18.6325C32.9702 18.6752 32.9355 18.7099 32.8928 18.7099C32.8501 18.7099 32.8154 18.6752 32.8154 18.6325V17.7971C32.8154 17.7544 32.8501 17.7197 32.8928 17.7197H51.3263C51.369 17.7197 51.4037 17.7544 51.4037 17.7971V18.6325C51.4037 18.6752 51.369 18.7099 51.3263 18.7099Z" fill="#F1F1F1"/>
<path d="M34.0432 18.7099C34.0005 18.7099 33.9658 18.6752 33.9658 18.6325V17.7971C33.9658 17.7544 34.0005 17.7197 34.0432 17.7197C34.0859 17.7197 34.1206 17.7544 34.1206 17.7971V18.6325C34.1206 18.6752 34.0859 18.7099 34.0432 18.7099Z" fill="#F1F1F1"/>
<path d="M35.196 18.7099C35.1533 18.7099 35.1186 18.6752 35.1186 18.6325V17.7971C35.1186 17.7544 35.1533 17.7197 35.196 17.7197C35.2387 17.7197 35.2734 17.7544 35.2734 17.7971V18.6325C35.2734 18.6752 35.2387 18.7099 35.196 18.7099Z" fill="#F1F1F1"/>
<path d="M36.3489 18.7099C36.3062 18.7099 36.2715 18.6752 36.2715 18.6325V17.7971C36.2715 17.7544 36.3062 17.7197 36.3489 17.7197C36.3916 17.7197 36.4263 17.7544 36.4263 17.7971V18.6325C36.4263 18.6752 36.3916 18.7099 36.3489 18.7099Z" fill="#F1F1F1"/>
<path d="M37.5019 18.7099C37.4592 18.7099 37.4245 18.6752 37.4245 18.6325V17.7971C37.4245 17.7544 37.4592 17.7197 37.5019 17.7197C37.5446 17.7197 37.5793 17.7544 37.5793 17.7971V18.6325C37.5793 18.6752 37.5446 18.7099 37.5019 18.7099Z" fill="#F1F1F1"/>
<path d="M38.6522 18.7099C38.6095 18.7099 38.5748 18.6752 38.5748 18.6325V17.7971C38.5748 17.7544 38.6095 17.7197 38.6522 17.7197C38.6949 17.7197 38.7296 17.7544 38.7296 17.7971V18.6325C38.7296 18.6752 38.6949 18.7099 38.6522 18.7099Z" fill="#F1F1F1"/>
<path d="M39.8051 18.7099C39.7624 18.7099 39.7277 18.6752 39.7277 18.6325V17.7971C39.7277 17.7544 39.7624 17.7197 39.8051 17.7197C39.8478 17.7197 39.8825 17.7544 39.8825 17.7971V18.6325C39.8825 18.6752 39.8478 18.7099 39.8051 18.7099Z" fill="#F1F1F1"/>
<path d="M40.958 18.7099C40.9153 18.7099 40.8806 18.6752 40.8806 18.6325V17.7971C40.8806 17.7544 40.9153 17.7197 40.958 17.7197C41.0007 17.7197 41.0354 17.7544 41.0354 17.7971V18.6325C41.0354 18.6752 41.0007 18.7099 40.958 18.7099Z" fill="#F1F1F1"/>
<path d="M42.1083 18.7099C42.0656 18.7099 42.0309 18.6752 42.0309 18.6325V17.7971C42.0309 17.7544 42.0656 17.7197 42.1083 17.7197C42.151 17.7197 42.1857 17.7544 42.1857 17.7971V18.6325C42.1857 18.6752 42.151 18.7099 42.1083 18.7099Z" fill="#F1F1F1"/>
<path d="M43.2612 18.7099C43.2185 18.7099 43.1838 18.6752 43.1838 18.6325V17.7971C43.1838 17.7544 43.2185 17.7197 43.2612 17.7197C43.3039 17.7197 43.3386 17.7544 43.3386 17.7971V18.6325C43.3386 18.6752 43.3039 18.7099 43.2612 18.7099Z" fill="#F1F1F1"/>
<path d="M44.4141 18.7099C44.3714 18.7099 44.3367 18.6752 44.3367 18.6325V17.7971C44.3367 17.7544 44.3714 17.7197 44.4141 17.7197C44.4568 17.7197 44.4915 17.7544 44.4915 17.7971V18.6325C44.4915 18.6752 44.4568 18.7099 44.4141 18.7099Z" fill="#F1F1F1"/>
<path d="M45.567 18.7099C45.5243 18.7099 45.4896 18.6752 45.4896 18.6325V17.7971C45.4896 17.7544 45.5243 17.7197 45.567 17.7197C45.6097 17.7197 45.6444 17.7544 45.6444 17.7971V18.6325C45.6444 18.6752 45.6097 18.7099 45.567 18.7099Z" fill="#F1F1F1"/>
<path d="M46.7173 18.7099C46.6746 18.7099 46.6399 18.6752 46.6399 18.6325V17.7971C46.6399 17.7544 46.6746 17.7197 46.7173 17.7197C46.76 17.7197 46.7947 17.7544 46.7947 17.7971V18.6325C46.7947 18.6752 46.76 18.7099 46.7173 18.7099Z" fill="#F1F1F1"/>
<path d="M47.8702 18.7099C47.8275 18.7099 47.7928 18.6752 47.7928 18.6325V17.7971C47.7928 17.7544 47.8275 17.7197 47.8702 17.7197C47.9129 17.7197 47.9476 17.7544 47.9476 17.7971V18.6325C47.9476 18.6752 47.9129 18.7099 47.8702 18.7099Z" fill="#F1F1F1"/>
<path d="M49.0231 18.7099C48.9804 18.7099 48.9457 18.6752 48.9457 18.6325V17.7971C48.9457 17.7544 48.9804 17.7197 49.0231 17.7197C49.0658 17.7197 49.1005 17.7544 49.1005 17.7971V18.6325C49.1005 18.6752 49.0658 18.7099 49.0231 18.7099Z" fill="#F1F1F1"/>
<path d="M50.1734 18.7099C50.1307 18.7099 50.096 18.6752 50.096 18.6325V17.7971C50.096 17.7544 50.1307 17.7197 50.1734 17.7197C50.2161 17.7197 50.2508 17.7544 50.2508 17.7971V18.6325C50.2508 18.6752 50.2161 18.7099 50.1734 18.7099Z" fill="#F1F1F1"/>
<path d="M32.8928 18.1333C32.8715 18.1333 32.8528 18.1146 32.8528 18.0933C32.8528 18.0719 32.8715 18.0532 32.8928 18.0532H51.3023C51.3236 18.0532 51.3423 18.0719 51.3423 18.0933C51.3423 18.1146 51.3236 18.1333 51.3023 18.1333" fill="#F1F1F1"/>
<path d="M51.2996 18.459H32.8901C32.8688 18.459 32.8501 18.4403 32.8501 18.4189C32.8501 18.3976 32.8688 18.3789 32.8901 18.3789H51.2996C51.3209 18.3789 51.3396 18.3976 51.3396 18.4189C51.3396 18.4403 51.3209 18.459 51.2996 18.459Z" fill="#F1F1F1"/>
<path d="M69.9359 18.7099C69.8932 18.7099 69.8585 18.6752 69.8585 18.6325V17.8745H51.5798V18.6325C51.5798 18.6752 51.5451 18.7099 51.5024 18.7099C51.4597 18.7099 51.425 18.6752 51.425 18.6325V17.7971C51.425 17.7544 51.4597 17.7197 51.5024 17.7197H69.9359C69.9786 17.7197 70.0133 17.7544 70.0133 17.7971V18.6325C70.0133 18.6752 69.9786 18.7099 69.9359 18.7099Z" fill="#F1F1F1"/>
<path d="M52.6527 18.7099C52.61 18.7099 52.5753 18.6752 52.5753 18.6325V17.7971C52.5753 17.7544 52.61 17.7197 52.6527 17.7197C52.6954 17.7197 52.7301 17.7544 52.7301 17.7971V18.6325C52.7301 18.6752 52.6954 18.7099 52.6527 18.7099Z" fill="#F1F1F1"/>
<path d="M53.8056 18.7099C53.7629 18.7099 53.7282 18.6752 53.7282 18.6325V17.7971C53.7282 17.7544 53.7629 17.7197 53.8056 17.7197C53.8483 17.7197 53.883 17.7544 53.883 17.7971V18.6325C53.883 18.6752 53.8483 18.7099 53.8056 18.7099Z" fill="#F1F1F1"/>
<path d="M54.9586 18.7099C54.9159 18.7099 54.8812 18.6752 54.8812 18.6325V17.7971C54.8812 17.7544 54.9159 17.7197 54.9586 17.7197C55.0013 17.7197 55.036 17.7544 55.036 17.7971V18.6325C55.036 18.6752 55.0013 18.7099 54.9586 18.7099Z" fill="#F1F1F1"/>
<path d="M56.1115 18.7099C56.0688 18.7099 56.0341 18.6752 56.0341 18.6325V17.7971C56.0341 17.7544 56.0688 17.7197 56.1115 17.7197C56.1542 17.7197 56.1889 17.7544 56.1889 17.7971V18.6325C56.1889 18.6752 56.1542 18.7099 56.1115 18.7099Z" fill="#F1F1F1"/>
<path d="M57.2618 18.7099C57.2191 18.7099 57.1844 18.6752 57.1844 18.6325V17.7971C57.1844 17.7544 57.2191 17.7197 57.2618 17.7197C57.3045 17.7197 57.3392 17.7544 57.3392 17.7971V18.6325C57.3392 18.6752 57.3045 18.7099 57.2618 18.7099Z" fill="#F1F1F1"/>
<path d="M58.4147 18.7099C58.372 18.7099 58.3373 18.6752 58.3373 18.6325V17.7971C58.3373 17.7544 58.372 17.7197 58.4147 17.7197C58.4574 17.7197 58.4921 17.7544 58.4921 17.7971V18.6325C58.4921 18.6752 58.4574 18.7099 58.4147 18.7099Z" fill="#F1F1F1"/>
<path d="M59.5676 18.7099C59.5249 18.7099 59.4902 18.6752 59.4902 18.6325V17.7971C59.4902 17.7544 59.5249 17.7197 59.5676 17.7197C59.6103 17.7197 59.645 17.7544 59.645 17.7971V18.6325C59.645 18.6752 59.6103 18.7099 59.5676 18.7099Z" fill="#F1F1F1"/>
<path d="M60.7179 18.7099C60.6752 18.7099 60.6405 18.6752 60.6405 18.6325V17.7971C60.6405 17.7544 60.6752 17.7197 60.7179 17.7197C60.7606 17.7197 60.7953 17.7544 60.7953 17.7971V18.6325C60.7953 18.6752 60.7606 18.7099 60.7179 18.7099Z" fill="#F1F1F1"/>
<path d="M61.8708 18.7099C61.8281 18.7099 61.7934 18.6752 61.7934 18.6325V17.7971C61.7934 17.7544 61.8281 17.7197 61.8708 17.7197C61.9135 17.7197 61.9482 17.7544 61.9482 17.7971V18.6325C61.9482 18.6752 61.9135 18.7099 61.8708 18.7099Z" fill="#F1F1F1"/>
<path d="M63.0237 18.7099C62.981 18.7099 62.9463 18.6752 62.9463 18.6325V17.7971C62.9463 17.7544 62.981 17.7197 63.0237 17.7197C63.0664 17.7197 63.1011 17.7544 63.1011 17.7971V18.6325C63.1011 18.6752 63.0664 18.7099 63.0237 18.7099Z" fill="#F1F1F1"/>
<path d="M64.1766 18.7099C64.1339 18.7099 64.0992 18.6752 64.0992 18.6325V17.7971C64.0992 17.7544 64.1339 17.7197 64.1766 17.7197C64.2193 17.7197 64.254 17.7544 64.254 17.7971V18.6325C64.254 18.6752 64.2193 18.7099 64.1766 18.7099Z" fill="#F1F1F1"/>
<path d="M65.3269 18.7099C65.2842 18.7099 65.2495 18.6752 65.2495 18.6325V17.7971C65.2495 17.7544 65.2842 17.7197 65.3269 17.7197C65.3696 17.7197 65.4043 17.7544 65.4043 17.7971V18.6325C65.4043 18.6752 65.3696 18.7099 65.3269 18.7099Z" fill="#F1F1F1"/>
<path d="M66.4799 18.7099C66.4372 18.7099 66.4025 18.6752 66.4025 18.6325V17.7971C66.4025 17.7544 66.4372 17.7197 66.4799 17.7197C66.5226 17.7197 66.5573 17.7544 66.5573 17.7971V18.6325C66.5573 18.6752 66.5226 18.7099 66.4799 18.7099Z" fill="#F1F1F1"/>
<path d="M67.6328 18.7099C67.5901 18.7099 67.5554 18.6752 67.5554 18.6325V17.7971C67.5554 17.7544 67.5901 17.7197 67.6328 17.7197C67.6755 17.7197 67.7102 17.7544 67.7102 17.7971V18.6325C67.7102 18.6752 67.6755 18.7099 67.6328 18.7099Z" fill="#F1F1F1"/>
<path d="M68.783 18.7099C68.7403 18.7099 68.7056 18.6752 68.7056 18.6325V17.7971C68.7056 17.7544 68.7403 17.7197 68.783 17.7197C68.8257 17.7197 68.8604 17.7544 68.8604 17.7971V18.6325C68.8604 18.6752 68.8257 18.7099 68.783 18.7099Z" fill="#F1F1F1"/>
<path d="M69.9092 18.1333H51.4998C51.4784 18.1333 51.4597 18.1146 51.4597 18.0933C51.4597 18.0719 51.4784 18.0532 51.4998 18.0532H69.9092C69.9306 18.0532 69.9492 18.0719 69.9492 18.0933C69.9492 18.1146 69.9306 18.1333 69.9092 18.1333Z" fill="#F1F1F1"/>
<path d="M69.9092 18.459H51.4998C51.4784 18.459 51.4597 18.4403 51.4597 18.4189C51.4597 18.3976 51.4784 18.3789 51.4998 18.3789H69.9092C69.9306 18.3789 69.9492 18.3976 69.9492 18.4189C69.9492 18.4403 69.9306 18.459 69.9092 18.459Z" fill="#F1F1F1"/>
<path d="M88.5455 18.7099C88.5028 18.7099 88.4681 18.6752 88.4681 18.6325V17.8745H70.1895V18.6325C70.1895 18.6752 70.1548 18.7099 70.1121 18.7099C70.0694 18.7099 70.0347 18.6752 70.0347 18.6325V17.7971C70.0347 17.7544 70.0694 17.7197 70.1121 17.7197H88.5455C88.5882 17.7197 88.6229 17.7544 88.6229 17.7971V18.6325C88.6229 18.6752 88.5882 18.7099 88.5455 18.7099Z" fill="#F1F1F1"/>
<path d="M71.2623 18.7099C71.2196 18.7099 71.1849 18.6752 71.1849 18.6325V17.7971C71.1849 17.7544 71.2196 17.7197 71.2623 17.7197C71.305 17.7197 71.3397 17.7544 71.3397 17.7971V18.6325C71.3397 18.6752 71.305 18.7099 71.2623 18.7099Z" fill="#F1F1F1"/>
<path d="M72.4152 18.7099C72.3725 18.7099 72.3378 18.6752 72.3378 18.6325V17.7971C72.3378 17.7544 72.3725 17.7197 72.4152 17.7197C72.4579 17.7197 72.4926 17.7544 72.4926 17.7971V18.6325C72.4926 18.6752 72.4579 18.7099 72.4152 18.7099Z" fill="#F1F1F1"/>
<path d="M73.5682 18.7099C73.5255 18.7099 73.4908 18.6752 73.4908 18.6325V17.7971C73.4908 17.7544 73.5255 17.7197 73.5682 17.7197C73.6109 17.7197 73.6456 17.7544 73.6456 17.7971V18.6325C73.6456 18.6752 73.6109 18.7099 73.5682 18.7099Z" fill="#F1F1F1"/>
<path d="M74.7211 18.7099C74.6784 18.7099 74.6437 18.6752 74.6437 18.6325V17.7971C74.6437 17.7544 74.6784 17.7197 74.7211 17.7197C74.7638 17.7197 74.7985 17.7544 74.7985 17.7971V18.6325C74.7985 18.6752 74.7638 18.7099 74.7211 18.7099Z" fill="#F1F1F1"/>
<path d="M75.8714 18.7099C75.8287 18.7099 75.794 18.6752 75.794 18.6325V17.7971C75.794 17.7544 75.8287 17.7197 75.8714 17.7197C75.9141 17.7197 75.9488 17.7544 75.9488 17.7971V18.6325C75.9488 18.6752 75.9141 18.7099 75.8714 18.7099Z" fill="#F1F1F1"/>
<path d="M77.0242 18.7099C76.9815 18.7099 76.9468 18.6752 76.9468 18.6325V17.7971C76.9468 17.7544 76.9815 17.7197 77.0242 17.7197C77.0669 17.7197 77.1016 17.7544 77.1016 17.7971V18.6325C77.1016 18.6752 77.0669 18.7099 77.0242 18.7099Z" fill="#F1F1F1"/>
<path d="M78.1772 18.7099C78.1345 18.7099 78.0998 18.6752 78.0998 18.6325V17.7971C78.0998 17.7544 78.1345 17.7197 78.1772 17.7197C78.2199 17.7197 78.2546 17.7544 78.2546 17.7971V18.6325C78.2546 18.6752 78.2199 18.7099 78.1772 18.7099Z" fill="#F1F1F1"/>
<path d="M79.3275 18.7099C79.2848 18.7099 79.2501 18.6752 79.2501 18.6325V17.7971C79.2501 17.7544 79.2848 17.7197 79.3275 17.7197C79.3702 17.7197 79.4048 17.7544 79.4048 17.7971V18.6325C79.4048 18.6752 79.3702 18.7099 79.3275 18.7099Z" fill="#F1F1F1"/>
<path d="M80.4804 18.7099C80.4377 18.7099 80.403 18.6752 80.403 18.6325V17.7971C80.403 17.7544 80.4377 17.7197 80.4804 17.7197C80.5231 17.7197 80.5578 17.7544 80.5578 17.7971V18.6325C80.5578 18.6752 80.5231 18.7099 80.4804 18.7099Z" fill="#F1F1F1"/>
<path d="M81.6333 18.7099C81.5906 18.7099 81.5559 18.6752 81.5559 18.6325V17.7971C81.5559 17.7544 81.5906 17.7197 81.6333 17.7197C81.676 17.7197 81.7107 17.7544 81.7107 17.7971V18.6325C81.7107 18.6752 81.676 18.7099 81.6333 18.7099Z" fill="#F1F1F1"/>
<path d="M82.7863 18.7099C82.7436 18.7099 82.7089 18.6752 82.7089 18.6325V17.7971C82.7089 17.7544 82.7436 17.7197 82.7863 17.7197C82.829 17.7197 82.8637 17.7544 82.8637 17.7971V18.6325C82.8637 18.6752 82.829 18.7099 82.7863 18.7099Z" fill="#F1F1F1"/>
<path d="M83.9365 18.7099C83.8938 18.7099 83.8591 18.6752 83.8591 18.6325V17.7971C83.8591 17.7544 83.8938 17.7197 83.9365 17.7197C83.9792 17.7197 84.0139 17.7544 84.0139 17.7971V18.6325C84.0139 18.6752 83.9792 18.7099 83.9365 18.7099Z" fill="#F1F1F1"/>
<path d="M85.0895 18.7099C85.0468 18.7099 85.0121 18.6752 85.0121 18.6325V17.7971C85.0121 17.7544 85.0468 17.7197 85.0895 17.7197C85.1322 17.7197 85.1669 17.7544 85.1669 17.7971V18.6325C85.1669 18.6752 85.1322 18.7099 85.0895 18.7099Z" fill="#F1F1F1"/>
<path d="M86.2424 18.7099C86.1997 18.7099 86.165 18.6752 86.165 18.6325V17.7971C86.165 17.7544 86.1997 17.7197 86.2424 17.7197C86.2851 17.7197 86.3198 17.7544 86.3198 17.7971V18.6325C86.3198 18.6752 86.2851 18.7099 86.2424 18.7099Z" fill="#F1F1F1"/>
<path d="M87.3926 18.7099C87.3499 18.7099 87.3152 18.6752 87.3152 18.6325V17.7971C87.3152 17.7544 87.3499 17.7197 87.3926 17.7197C87.4353 17.7197 87.47 17.7544 87.47 17.7971V18.6325C87.47 18.6752 87.4353 18.7099 87.3926 18.7099Z" fill="#F1F1F1"/>
<path d="M88.5188 18.1333H70.1094C70.088 18.1333 70.0693 18.1146 70.0693 18.0933C70.0693 18.0719 70.088 18.0532 70.1094 18.0532H88.5188C88.5402 18.0532 88.5589 18.0719 88.5589 18.0933C88.5589 18.1146 88.5402 18.1333 88.5188 18.1333Z" fill="#F1F1F1"/>
<path d="M88.5188 18.459H70.1094C70.088 18.459 70.0693 18.4403 70.0693 18.4189C70.0693 18.3976 70.088 18.3789 70.1094 18.3789H88.5188C88.5402 18.3789 88.5589 18.3976 88.5589 18.4189C88.5589 18.4403 88.5402 18.459 88.5188 18.459Z" fill="#F1F1F1"/>
<path d="M112.103 28.1551V18.6328H7.00006V33.4687C7.01074 33.6422 7.33633 33.7943 7.5018 33.8504L9.59681 34.5709C9.88238 35.7079 10.9045 36.5058 12.0761 36.5058H12.2843C12.5645 36.5058 12.794 36.7327 12.794 37.0156L11.8146 37.7682V38.0858C12.754 38.9932 14.0084 39.5002 15.3134 39.5002H108.305C109.576 39.5002 110.603 38.4701 110.603 37.2024C110.603 36.2176 109.805 35.4196 108.821 35.4196H108.036C107.497 35.4196 107.187 34.8058 107.507 34.3708L112.106 28.1551H112.103Z" fill="#67DAD2"/>
<path d="M7.00006 18.6326V33.4685C7.01074 33.6419 7.33633 33.7941 7.5018 33.8501L9.59681 34.5707C9.61016 34.6241 9.62617 34.6748 9.64218 34.7255H92.6102C101.044 27.6238 112.103 28.1522 112.103 28.1522V18.6299H7.00006V18.6326Z" fill="#0C2A49"/>
<path d="M37.5152 36.8204L35.0386 35.5393L42.5433 20.9943L46.4691 19.4678L37.5152 36.8204Z" fill="white"/>
<path d="M43.5008 19.4663L42.3339 18.8643L33.3805 36.2185L34.5474 36.8205L43.5008 19.4663Z" fill="#95A4B4"/>
<path d="M9.64215 34.728C9.97575 35.7822 10.9579 36.5081 12.0761 36.5081H12.2843C12.5645 36.5081 12.794 36.735 12.794 37.0179L11.8146 37.7705V38.0881C12.754 38.9955 14.0083 39.5025 15.3134 39.5025H108.305C109.576 39.5025 110.603 38.4724 110.603 37.2047C110.603 36.2199 109.805 35.4219 108.82 35.4219H108.036C107.636 35.4219 107.361 35.083 107.379 34.7307H9.64215V34.728Z" fill="#3BA6A2"/>
<path d="M110.222 36.1025C110.347 36.3481 110.419 36.6256 110.419 36.9192C110.419 38.1895 109.389 39.217 108.121 39.217H15.1319C13.9096 39.217 12.73 38.7713 11.8146 37.9707V38.0855C12.754 38.9929 14.0083 39.4999 15.3134 39.4999H108.305C109.576 39.4999 110.603 38.4698 110.603 37.2021C110.603 36.7858 110.462 36.4041 110.224 36.1025H110.222Z" fill="#8292A0"/>
<path d="M82.1217 16.3613L80.4297 18.6325H7.00006V22.8198H112.103V18.6325V16.3613H82.1217Z" fill="white"/>
<path d="M14.398 18.6328H7.00006V22.8202H14.398V18.6328Z" fill="#B6C2EC"/>
<path d="M20.248 20.3166V20.1538H15.4762V20.3166H15.6844V20.5194H15.4762V20.5701H15.6844V20.7249H15.4762V20.7756H15.6844V20.9545H15.7457V20.7756H16.7546V20.9545H16.8159V20.7756H17.8247V20.9545H17.8861V20.7756H18.8949V20.9545H18.9563V20.7756H19.9651V20.9545H20.0265V20.7756H20.2347V20.7249H20.0265V20.5701H20.2347V20.5194H20.0265V20.3166H20.2347H20.248ZM17.8941 20.3166H18.9029V20.5194H17.8941V20.3166ZM17.8328 20.5194H16.8239V20.3166H17.8328V20.5194ZM15.7511 20.3166H16.7599V20.5194H15.7511V20.3166ZM15.7511 20.7223V20.5675H16.7599V20.7223H15.7511ZM16.8239 20.7223V20.5675H17.8328V20.7223H16.8239ZM17.8968 20.7223V20.5675H18.9056V20.7223H17.8968ZM19.9785 20.7223H18.9697V20.5675H19.9785V20.7223ZM19.9785 20.5168H18.9697V20.3139H19.9785V20.5168Z" fill="white"/>
<path d="M41.9775 19.7666C41.9775 19.5544 41.8054 19.3823 41.5932 19.3823C41.3809 19.3823 41.2089 19.5544 41.2089 19.7666V20.1403C41.2089 20.3525 41.3809 20.5246 41.5932 20.5246C41.8054 20.5246 41.9775 20.3525 41.9775 20.1403V19.7666Z" fill="#383838"/>
<path d="M40.8406 19.7666C40.8406 19.5544 40.6685 19.3823 40.4563 19.3823C40.244 19.3823 40.072 19.5544 40.072 19.7666V20.1403C40.072 20.3525 40.244 20.5246 40.4563 20.5246C40.6685 20.5246 40.8406 20.3525 40.8406 20.1403V19.7666Z" fill="#383838"/>
<path d="M102.92 12.4731C102.736 12.4731 102.565 12.5639 102.463 12.716L101.3 14.4481C101.206 14.5868 101.305 14.7737 101.473 14.7737H108.853C108.965 14.7737 109.066 14.7176 109.127 14.6242L110.27 12.8895C110.352 12.7667 110.395 12.6199 110.395 12.4731H102.92Z" fill="#BFE0EA"/>
<g opacity="0.5">
<path d="M103.565 12.4731H103.154L101.617 14.771H102.028L103.565 12.4731Z" fill="white"/>
<path d="M103.814 12.4731H103.694L102.154 14.771H102.277L103.814 12.4731Z" fill="white"/>
<path d="M102.92 12.4731C102.92 12.4731 102.912 12.4731 102.906 12.4731L101.383 14.7523C101.409 14.7657 101.439 14.7737 101.473 14.7737H101.492L103.029 12.4731H102.92Z" fill="white"/>
<path d="M109.784 12.4731H109.373L107.836 14.771H108.247L109.784 12.4731Z" fill="white"/>
<path d="M106.888 12.4731H106.477L104.94 14.771H105.351L106.888 12.4731Z" fill="white"/>
<path d="M107.136 12.4731H107.016L105.476 14.771H105.599L107.136 12.4731Z" fill="white"/>
</g>
<path d="M108.852 14.8481H101.473C101.369 14.8481 101.273 14.7894 101.222 14.6987C101.172 14.608 101.18 14.4932 101.238 14.4051L102.402 12.6731C102.519 12.4996 102.714 12.3955 102.922 12.3955H110.398C110.44 12.3955 110.472 12.4302 110.472 12.4702C110.472 12.5103 110.438 12.545 110.398 12.545H102.922C102.765 12.545 102.615 12.6224 102.527 12.7558L101.364 14.4852C101.337 14.5279 101.334 14.5786 101.356 14.6213C101.38 14.6667 101.423 14.6907 101.473 14.6907H108.852C108.895 14.6907 108.927 14.7254 108.927 14.7654C108.927 14.8054 108.893 14.8401 108.852 14.8401V14.8481Z" fill="#282828"/>
<path d="M103.091 14.848C103.077 14.848 103.061 14.8427 103.048 14.8347C103.013 14.8107 103.005 14.7653 103.027 14.7306L104.572 12.4301C104.596 12.3954 104.641 12.3874 104.676 12.4088C104.711 12.4328 104.719 12.4781 104.697 12.5128L103.152 14.8133C103.139 14.8347 103.115 14.848 103.088 14.848H103.091Z" fill="#282828"/>
<path d="M105.639 14.848C105.626 14.848 105.61 14.8427 105.597 14.8347C105.562 14.8107 105.554 14.7653 105.575 14.7306L107.12 12.4301C107.145 12.3954 107.19 12.3874 107.225 12.4088C107.259 12.4328 107.267 12.4781 107.246 12.5128L105.701 14.8133C105.687 14.8347 105.663 14.848 105.637 14.848H105.639Z" fill="#282828"/>
<path d="M108.191 14.848C108.177 14.848 108.161 14.8427 108.148 14.8347C108.113 14.8107 108.105 14.7653 108.127 14.7306L109.672 12.4301C109.696 12.3954 109.741 12.3874 109.776 12.4088C109.811 12.4328 109.819 12.4781 109.797 12.5128L108.252 14.8133C108.239 14.8347 108.215 14.848 108.188 14.848H108.191Z" fill="#282828"/>
</g>
<g clip-path="url(#clip2_8139_13898)">
<path d="M65.9347 41.8184C65.4056 43.9044 63.0477 45.0918 60.8988 44.9999C58.7564 44.9081 56.7903 43.8454 54.9157 42.7893C53.0477 41.7332 51.1078 40.6377 48.9719 40.4606C47.2998 40.3228 45.6342 40.7558 43.9882 41.1034C42.3423 41.4511 40.6114 41.7004 39.0046 41.2084C37.3978 40.7164 35.9673 39.2732 36 37.5874C43.5441 36.1705 51.1339 35.4358 58.7302 36.5313C60.3305 36.7609 61.9634 37.0626 63.3351 37.9285C64.7002 38.7878 66.3396 40.2506 65.9347 41.8184Z" fill="#7FC0E5"/>
</g>
<g clip-path="url(#clip3_8139_13898)">
<path d="M106.935 41.8184C106.406 43.9044 104.048 45.0918 101.899 44.9999C99.7564 44.9081 97.7903 43.8454 95.9157 42.7893C94.0477 41.7332 92.1078 40.6377 89.9719 40.4606C88.2998 40.3228 86.6342 40.7558 84.9882 41.1034C83.3423 41.4511 81.6114 41.7004 80.0046 41.2084C78.3978 40.7164 76.9673 39.2732 77 37.5874C84.5441 36.1705 92.1339 35.4358 99.7302 36.5313C101.331 36.7609 102.963 37.0626 104.335 37.9285C105.7 38.7878 107.34 40.2506 106.935 41.8184Z" fill="#7FC0E5"/>
</g>
<g clip-path="url(#clip4_8139_13898)">
<path d="M47.9352 41.8184C47.4061 43.9044 45.0482 45.0918 42.8992 44.9999C40.7569 44.9081 38.7908 43.8454 36.9162 42.7893C35.0482 41.7332 33.1083 40.6377 30.9724 40.4606C29.3003 40.3228 27.6347 40.7558 25.9887 41.1034C24.3428 41.4511 22.6119 41.7004 21.0051 41.2084C19.3983 40.7164 17.9678 39.2732 18.0005 37.5874C25.5446 36.1705 33.1344 35.4358 40.7307 36.5313C42.331 36.7609 43.9639 37.0626 45.3356 37.9285C46.7007 38.7878 48.3401 40.2506 47.9352 41.8184Z" fill="#7FC0E5"/>
</g>
<path d="M83.0275 38.9541C80.1175 38.2872 77.1744 36.6173 74.2093 35.9063C65.2698 33.7624 56.3909 40.5028 47.2089 39.9848C40.8707 39.6265 34.4389 39.3565 28.426 37.3338C11.5776 31.6736 2.18063 41.1752 -11.3278 39.2407C-16.3763 38.5187 -21.2208 38.4636 -26.1039 37.0086C-30.9871 35.5536 -35.06 35.9725 -37 38.403V43.3467H83.0275V38.9541Z" fill="#9FCFF1"/>
<path d="M4.40186 36.2756C5.06874 36.0717 5.84584 36.0386 6.66153 36.1874C7.61501 36.3583 8.5299 36.7441 9.41724 37.1079C9.6377 37.2015 9.86366 37.2952 10.0896 37.3834C13.2863 38.6676 16.7309 39.3179 20.1755 39.3179C22.3525 39.3179 24.5295 39.0589 26.6459 38.5353C27.1034 38.4196 27.5663 38.2928 28.0127 38.1716C29.3079 37.8133 30.6417 37.444 31.9975 37.3779C34.1139 37.2677 36.2248 37.896 37.9388 39.1416L37.9664 39.103C36.2413 37.8519 34.1194 37.2236 31.992 37.3338C30.6307 37.4055 29.2914 37.7747 27.9962 38.1275C27.5498 38.2487 27.0868 38.381 26.6294 38.4912C21.1841 39.8415 15.3145 39.4337 10.1062 37.3448C9.8802 37.2567 9.65423 37.163 9.43929 37.0693C8.55195 36.7 7.63154 36.3142 6.67256 36.1434C5.85687 35.9945 5.07425 36.0276 4.40186 36.2315V36.2866V36.2756Z" fill="#7FC0E5"/>
<path d="M11.9744 39.6099C7.85187 41.1311 3.61359 42.3822 -0.734913 42.1837C-5.46921 41.9688 -10.0272 40.0288 -14.293 38.0557C-14.5961 37.9179 -14.8992 37.7746 -15.2079 37.6313C-19.1981 35.7795 -23.3207 33.867 -27.7133 33.2167C-31.0918 32.7151 -34.327 33.0954 -37 34.2418V34.4182C-34.3435 33.2663 -31.1193 32.875 -27.7408 33.3765C-23.3703 34.0213 -19.2533 35.9338 -15.2795 37.7801C-14.9764 37.9234 -14.6678 38.0612 -14.3646 38.2045C-10.0878 40.1831 -5.5078 42.1341 -0.745937 42.3491C-0.437298 42.3656 -0.134167 42.3711 0.174473 42.3711C4.37417 42.3711 8.45261 41.098 12.4319 39.6154H11.9689L11.9744 39.6099Z" fill="#7FC0E5"/>
<path d="M69.1777 38.2873C67.3534 38.4802 65.4961 38.7392 63.6993 38.9928C58.9761 39.6596 54.1095 40.3486 49.3366 39.814C49.1713 39.8525 49.0059 39.8856 48.8406 39.9132C53.7843 40.5525 58.8328 39.8415 63.7214 39.1526C65.5181 38.8991 67.3755 38.6345 69.1942 38.4471C74.6285 37.8795 79.2525 38.2101 83.0279 39.4337V39.2628C79.236 38.0448 74.6064 37.7141 69.1777 38.2873Z" fill="#7FC0E5"/>
<path d="M183.028 38.9541C180.118 38.2872 177.174 36.6173 174.209 35.9063C165.27 33.7624 156.391 40.5028 147.209 39.9848C140.871 39.6265 134.439 39.3565 128.426 37.3338C111.578 31.6736 102.181 41.1752 88.6722 39.2407C83.6237 38.5187 78.7792 38.4636 73.8961 37.0086C69.0129 35.5536 64.94 35.9725 63 38.403V43.3467H183.028V38.9541Z" fill="#9FCFF1"/>
<path d="M104.402 36.2756C105.069 36.0717 105.846 36.0386 106.662 36.1874C107.615 36.3583 108.53 36.7441 109.417 37.1079C109.638 37.2015 109.864 37.2952 110.09 37.3834C113.286 38.6676 116.731 39.3179 120.176 39.3179C122.353 39.3179 124.53 39.0589 126.646 38.5353C127.103 38.4196 127.566 38.2928 128.013 38.1716C129.308 37.8133 130.642 37.444 131.997 37.3779C134.114 37.2677 136.225 37.896 137.939 39.1416L137.966 39.103C136.241 37.8519 134.119 37.2236 131.992 37.3338C130.631 37.4055 129.291 37.7747 127.996 38.1275C127.55 38.2487 127.087 38.381 126.629 38.4912C121.184 39.8415 115.314 39.4337 110.106 37.3448C109.88 37.2567 109.654 37.163 109.439 37.0693C108.552 36.7 107.632 36.3142 106.673 36.1434C105.857 35.9945 105.074 36.0276 104.402 36.2315V36.2866V36.2756Z" fill="#7FC0E5"/>
<path d="M111.974 39.6099C107.852 41.1311 103.614 42.3822 99.2651 42.1837C94.5308 41.9688 89.9728 40.0288 85.707 38.0557C85.4039 37.9179 85.1008 37.7746 84.7921 37.6313C80.8019 35.7795 76.6793 33.867 72.2867 33.2167C68.9082 32.7151 65.673 33.0954 63 34.2418V34.4182C65.6565 33.2663 68.8807 32.875 72.2592 33.3765C76.6297 34.0213 80.7467 35.9338 84.7205 37.7801C85.0236 37.9234 85.3322 38.0612 85.6354 38.2045C89.9122 40.1831 94.4922 42.1341 99.2541 42.3491C99.5627 42.3656 99.8658 42.3711 100.174 42.3711C104.374 42.3711 108.453 41.098 112.432 39.6154H111.969L111.974 39.6099Z" fill="#7FC0E5"/>
</g>
<defs>
<clipPath id="clip0_8139_13898">
<rect width="120" height="40" rx="12" fill="white"/>
</clipPath>
<clipPath id="clip1_8139_13898">
<rect width="105.103" height="41.5" fill="white" transform="translate(7 -2)"/>
</clipPath>
<clipPath id="clip2_8139_13898">
<rect width="30" height="9" fill="white" transform="matrix(-1 0 0 -1 66 45)"/>
</clipPath>
<clipPath id="clip3_8139_13898">
<rect width="30" height="9" fill="white" transform="matrix(-1 0 0 -1 107 45)"/>
</clipPath>
<clipPath id="clip4_8139_13898">
<rect width="30" height="9" fill="white" transform="matrix(-1 0 0 -1 45 45)"/>
</clipPath>
</defs>
</svg>
