<svg width="120" height="40" viewBox="0 0 120 40" fill="none" xmlns="http://www.w3.org/2000/svg">
<g clip-path="url(#clip0_8139_50381)">
<rect width="120" height="40" rx="12" fill="#FCF4EC"/>
<path d="M29.128 23.7951C28.141 23.8341 27.235 24.3411 26.5285 25.0476C26.497 24.9981 26.4685 24.9471 26.437 24.8991C25.591 23.6031 24.424 22.4721 22.981 21.9156C21.538 21.3591 19.801 21.4461 18.5545 22.3626C18.4465 22.4421 18.343 22.5276 18.244 22.6161C17.7475 21.5706 17.05 20.6301 16.12 19.9536C14.7385 18.9486 12.7945 18.6276 11.287 19.4316C9.9085 20.1666 9.103 21.6996 8.857 23.2431C8.0575 22.7196 7.1785 22.3311 6.2395 22.1661C5.4985 22.0356 4.7365 22.0551 4 22.2051V26.4951H33.097C32.9245 26.1831 32.734 25.8831 32.515 25.5996C31.7035 24.5466 30.4555 23.7441 29.128 23.7981V23.7951Z" fill="white"/>
<path d="M87.369 9.32167C87.1155 8.67967 86.7555 8.08117 86.3025 7.56067C85.4385 6.56917 84.243 5.87017 82.953 5.60317C81.828 5.37067 80.5905 5.48167 79.641 6.12967C79.5825 6.17017 79.527 6.21367 79.4715 6.25567C79.2015 5.78167 78.867 5.34667 78.4575 4.98367C77.5575 4.18567 76.263 3.77767 75.1095 4.12417C73.9485 4.47367 73.1085 5.51617 72.6945 6.66217C71.9055 6.24667 70.9875 6.07867 70.107 6.21967C69.054 6.38767 68.0985 6.96817 67.329 7.70767C66.825 8.19217 66.3945 8.74417 66 9.32167H87.3675H87.369Z" fill="white"/>
<path d="M116.5 20.4907C116.26 20.5522 116.029 20.6407 115.81 20.7562C115.506 19.9147 114.889 19.1482 114.036 18.8917C113.188 18.6367 112.237 18.9367 111.576 19.5232C111.276 19.7902 111.03 20.1082 110.83 20.4577C110.79 20.4262 110.749 20.3947 110.706 20.3647C110.008 19.8892 109.098 19.8067 108.271 19.9777C107.325 20.1742 106.446 20.6872 105.81 21.4162C105.477 21.7987 105.213 22.2382 105.025 22.7107H116.499V20.4922L116.5 20.4907Z" fill="white"/>
<path d="M13.4065 7.31603C13.531 7.00103 13.708 6.70703 13.93 6.45053C14.3545 5.96303 14.941 5.61953 15.574 5.48903C16.126 5.37503 16.735 5.42903 17.2 5.74703C17.2285 5.76653 17.2555 5.78753 17.284 5.80853C17.416 5.57603 17.581 5.36303 17.782 5.18453C18.2245 4.79303 18.8605 4.59203 19.426 4.76303C19.996 4.93403 20.4085 5.44703 20.6125 6.00953C20.9995 5.80553 21.451 5.72303 21.883 5.79203C22.4005 5.87453 22.87 6.15953 23.2465 6.52253C23.494 6.76103 23.7055 7.03103 23.899 7.31453H13.4065V7.31603Z" fill="white"/>
<g clip-path="url(#clip1_8139_50381)">
<path d="M9.86587 28.2285L26.3833 28.2285V14.006L9.86587 14.006V28.2285Z" fill="#E0E6F5"/>
<path d="M18.1875 28.2285H31.8101V20.3658H18.1875V28.2285Z" fill="#B6C2EC"/>
<path d="M17.8185 21.3648H32.179C32.455 21.3648 32.68 21.1398 32.68 20.8638C32.68 20.5878 32.455 20.3628 32.179 20.3628H17.8185C17.5425 20.3628 17.3175 20.5878 17.3175 20.8638C17.3175 21.1398 17.5425 21.3648 17.8185 21.3648Z" fill="#1B4361"/>
<path d="M29.3504 24.2988H31.2643C31.3273 24.2988 31.3783 24.2478 31.3783 24.1848V22.2709C31.3783 22.2079 31.3273 22.1569 31.2643 22.1569H29.3504C29.2874 22.1569 29.2364 22.2079 29.2364 22.2709V24.1848C29.2364 24.2478 29.2874 24.2988 29.3504 24.2988Z" fill="#F7F0E6"/>
<path d="M31.2373 24.1308V22.3219C31.2373 22.3086 31.2266 22.2979 31.2133 22.2979H29.4044C29.3911 22.2979 29.3804 22.3086 29.3804 22.3219V24.1308C29.3804 24.144 29.3911 24.1548 29.4044 24.1548H31.2133C31.2266 24.1548 31.2373 24.144 31.2373 24.1308Z" fill="#E0E6F5"/>
<path d="M25.8134 24.2988H27.7274C27.7903 24.2988 27.8414 24.2478 27.8414 24.1848V22.2709C27.8414 22.2079 27.7903 22.1569 27.7274 22.1569H25.8134C25.7505 22.1569 25.6994 22.2079 25.6994 22.2709V24.1848C25.6994 24.2478 25.7505 24.2988 25.8134 24.2988Z" fill="#F7F0E6"/>
<path d="M27.6975 24.1308V22.3219C27.6975 22.3086 27.6868 22.2979 27.6735 22.2979H25.8646C25.8513 22.2979 25.8406 22.3086 25.8406 22.3219V24.1308C25.8406 24.144 25.8513 24.1548 25.8646 24.1548H27.6735C27.6868 24.1548 27.6975 24.144 27.6975 24.1308Z" fill="#E0E6F5"/>
<path d="M22.2704 24.2988H24.1843C24.2473 24.2988 24.2983 24.2478 24.2983 24.1848V22.2709C24.2983 22.2079 24.2473 22.1569 24.1843 22.1569H22.2704C22.2075 22.1569 22.1564 22.2079 22.1564 22.2709V24.1848C22.1564 24.2478 22.2075 24.2988 22.2704 24.2988Z" fill="#F7F0E6"/>
<path d="M24.1573 24.1308V22.3219C24.1573 22.3086 24.1466 22.2979 24.1333 22.2979H22.3244C22.3112 22.2979 22.3004 22.3086 22.3004 22.3219V24.1308C22.3004 24.144 22.3112 24.1548 22.3244 24.1548H24.1333C24.1466 24.1548 24.1573 24.144 24.1573 24.1308Z" fill="#E0E6F5"/>
<path d="M18.7306 24.2988H20.6445C20.7075 24.2988 20.7585 24.2478 20.7585 24.1848V22.2709C20.7585 22.2079 20.7075 22.1569 20.6445 22.1569H18.7306C18.6677 22.1569 18.6166 22.2079 18.6166 22.2709V24.1848C18.6166 24.2478 18.6677 24.2988 18.7306 24.2988Z" fill="#F7F0E6"/>
<path d="M20.6146 24.1308V22.3219C20.6146 22.3086 20.6038 22.2979 20.5906 22.2979H18.7816C18.7684 22.2979 18.7576 22.3086 18.7576 22.3219V24.1308C18.7576 24.144 18.7684 24.1548 18.7816 24.1548H20.5906C20.6038 24.1548 20.6146 24.144 20.6146 24.1308Z" fill="#E0E6F5"/>
<path d="M17.0715 28.2285H14.3926V23.8637C14.3926 23.7587 14.4766 23.6747 14.5816 23.6747H16.8825C16.9875 23.6747 17.0715 23.7587 17.0715 23.8637V28.2285Z" fill="#1B4361"/>
<path d="M9.41291 15.1698H26.8333C27.1543 15.1698 27.4153 14.9088 27.4153 14.5878C27.4153 14.2668 27.1543 14.0059 26.8333 14.0059H9.41291C9.09192 14.0059 8.83093 14.2668 8.83093 14.5878C8.83093 14.9088 9.09192 15.1698 9.41291 15.1698Z" fill="#1B4361"/>
<path d="M9.40686 19.6366C9.40686 19.7206 9.43986 19.7985 9.49686 19.8525C9.55386 19.9065 9.62885 19.9425 9.71285 19.9425H26.5333C26.7013 19.9425 26.8393 19.8046 26.8393 19.6366C26.8393 19.5526 26.8063 19.4746 26.7493 19.4206C26.6953 19.3666 26.6173 19.3306 26.5333 19.3306H9.71285C9.54486 19.3306 9.40686 19.4686 9.40686 19.6366Z" fill="#1B4361"/>
<path d="M26.3833 18.7817H16.4896C16.3336 18.7817 16.2077 18.6557 16.2077 18.4997V15.8568C16.2077 15.7008 16.3336 15.5748 16.4896 15.5748L26.3833 15.5748V18.7817Z" fill="#809FB3"/>
<path d="M29.6381 11.5547L29.8961 12.0497V20.3654H29.6381V11.5547Z" fill="#FC4349"/>
<path d="M13.7057 9.58398L13.9637 10.079V13.9908H13.7057V9.58398Z" fill="#FC4349"/>
<path d="M21.1664 8L21.4214 8.49498V13.9908H21.1664V8Z" fill="#FC4349"/>
<g opacity="0.25">
<path d="M24.0193 18.7816H25.6963L23.8723 15.5747H22.1954L24.0193 18.7816Z" fill="white"/>
<path d="M19.4683 18.7816H22.4352L20.6113 15.5747H17.6444L19.4683 18.7816Z" fill="white"/>
</g>
<path d="M18.1875 21.6558H31.8101V21.3648H18.1875V21.6558Z" fill="#0F93B9"/>
<path opacity="0.5" d="M9.86584 15.1699V19.3308H12.9317V17.7078C12.9317 16.4119 13.9847 15.3589 15.2807 15.3589H26.3833V15.1699H9.86584Z" fill="#B6C2EC"/>
<path opacity="0.5" d="M12.9317 19.9424H26.3833V20.2214H15.3857C14.0297 20.2214 12.9317 21.3193 12.9317 22.6753V28.2311H9.86584V19.9454H12.9317V19.9424Z" fill="#B6C2EC"/>
<path d="M4.99994 28.2671C4.99994 28.2671 5.60892 32.3949 7.59785 34.9749C8.50082 36.1478 9.68878 36.9998 11.2337 36.9998H108.601L110.374 34.9749L116.251 28.2671H4.99994Z" fill="#2C5B7F"/>
<path d="M84.5992 29.1191C84.5992 29.2271 84.6442 29.3261 84.7132 29.3981C84.7852 29.4701 84.8842 29.512 84.9922 29.512H86.5972C86.8132 29.512 86.9902 29.3351 86.9902 29.1191C86.9902 29.0111 86.9452 28.9121 86.8762 28.8401C86.8072 28.7681 86.7052 28.7261 86.5972 28.7261H84.9922C84.7732 28.7261 84.5992 28.9031 84.5992 29.1191Z" fill="#1E3F57"/>
<path d="M84.5992 29.1191C84.5992 29.2271 84.6442 29.3261 84.7132 29.3981C84.7852 29.4701 84.8842 29.512 84.9922 29.512H86.2072C86.4262 29.512 86.6002 29.3351 86.6002 29.1191C86.6002 29.0111 86.5552 28.9121 86.4862 28.8401C86.4142 28.7681 86.3152 28.7261 86.2072 28.7261H84.9922C84.7732 28.7261 84.5992 28.9031 84.5992 29.1191Z" fill="#162F41"/>
<path d="M75.9025 29.1191C75.9025 29.2271 75.9475 29.3261 76.0165 29.3981C76.0885 29.4701 76.1875 29.512 76.2955 29.512H77.9004C78.1164 29.512 78.2934 29.3351 78.2934 29.1191C78.2934 29.0111 78.2484 28.9121 78.1794 28.8401C78.1104 28.7681 78.0084 28.7261 77.9004 28.7261H76.2955C76.0765 28.7261 75.9025 28.9031 75.9025 29.1191Z" fill="#1E3F57"/>
<path d="M75.9025 29.1191C75.9025 29.2271 75.9475 29.3261 76.0165 29.3981C76.0885 29.4701 76.1875 29.512 76.2955 29.512H77.5104C77.7294 29.512 77.9034 29.3351 77.9034 29.1191C77.9034 29.0111 77.8584 28.9121 77.7894 28.8401C77.7174 28.7681 77.6184 28.7261 77.5104 28.7261H76.2955C76.0765 28.7261 75.9025 28.9031 75.9025 29.1191Z" fill="#162F41"/>
<path d="M67.2057 29.1191C67.2057 29.2271 67.2507 29.3261 67.3197 29.3981C67.3917 29.4701 67.4907 29.512 67.5987 29.512H69.2037C69.4197 29.512 69.5967 29.3351 69.5967 29.1191C69.5967 29.0111 69.5517 28.9121 69.4827 28.8401C69.4137 28.7681 69.3117 28.7261 69.2037 28.7261H67.5987C67.3797 28.7261 67.2057 28.9031 67.2057 29.1191Z" fill="#1E3F57"/>
<path d="M67.2057 29.1191C67.2057 29.2271 67.2507 29.3261 67.3197 29.3981C67.3917 29.4701 67.4907 29.512 67.5987 29.512H68.8137C69.0327 29.512 69.2067 29.3351 69.2067 29.1191C69.2067 29.0111 69.1617 28.9121 69.0927 28.8401C69.0207 28.7681 68.9217 28.7261 68.8137 28.7261H67.5987C67.3797 28.7261 67.2057 28.9031 67.2057 29.1191Z" fill="#162F41"/>
<path d="M58.512 29.1191C58.512 29.2271 58.557 29.3261 58.626 29.3981C58.695 29.4701 58.797 29.512 58.905 29.512H60.51C60.7259 29.512 60.9029 29.3351 60.9029 29.1191C60.9029 29.0111 60.8579 28.9121 60.7889 28.8401C60.7169 28.7681 60.6179 28.7261 60.51 28.7261H58.905C58.686 28.7261 58.512 28.9031 58.512 29.1191Z" fill="#1E3F57"/>
<path d="M58.512 29.1191C58.512 29.2271 58.557 29.3261 58.626 29.3981C58.695 29.4701 58.797 29.512 58.905 29.512H60.12C60.339 29.512 60.513 29.3351 60.513 29.1191C60.513 29.0111 60.468 28.9121 60.399 28.8401C60.33 28.7681 60.228 28.7261 60.12 28.7261H58.905C58.686 28.7261 58.512 28.9031 58.512 29.1191Z" fill="#162F41"/>
<path d="M49.8154 29.1191C49.8154 29.2271 49.8604 29.3261 49.9294 29.3981C49.9984 29.4701 50.1004 29.512 50.2084 29.512H51.8134C52.0294 29.512 52.2063 29.3351 52.2063 29.1191C52.2063 29.0111 52.1613 28.9121 52.0924 28.8401C52.0204 28.7681 51.9214 28.7261 51.8134 28.7261H50.2084C49.9894 28.7261 49.8154 28.9031 49.8154 29.1191Z" fill="#1E3F57"/>
<path d="M49.8154 29.1191C49.8154 29.2271 49.8604 29.3261 49.9294 29.3981C49.9984 29.4701 50.1004 29.512 50.2084 29.512H51.4234C51.6424 29.512 51.8164 29.3351 51.8164 29.1191C51.8164 29.0111 51.7714 28.9121 51.7024 28.8401C51.6334 28.7681 51.5314 28.7261 51.4234 28.7261H50.2084C49.9894 28.7261 49.8154 28.9031 49.8154 29.1191Z" fill="#162F41"/>
<path d="M41.1187 29.1191C41.1187 29.2271 41.1636 29.3261 41.2326 29.3981C41.3016 29.4701 41.4036 29.512 41.5116 29.512H43.1166C43.3326 29.512 43.5096 29.3351 43.5096 29.1191C43.5096 29.0111 43.4646 28.9121 43.3956 28.8401C43.3236 28.7681 43.2246 28.7261 43.1166 28.7261H41.5116C41.2926 28.7261 41.1187 28.9031 41.1187 29.1191Z" fill="#1E3F57"/>
<path d="M41.1187 29.1191C41.1187 29.2271 41.1636 29.3261 41.2326 29.3981C41.3016 29.4701 41.4036 29.512 41.5116 29.512H42.7266C42.9456 29.512 43.1196 29.3351 43.1196 29.1191C43.1196 29.0111 43.0746 28.9121 43.0056 28.8401C42.9366 28.7681 42.8346 28.7261 42.7266 28.7261H41.5116C41.2926 28.7261 41.1187 28.9031 41.1187 29.1191Z" fill="#162F41"/>
<path d="M32.4249 29.1191C32.4249 29.2271 32.4699 29.3261 32.5389 29.3981C32.6109 29.4701 32.7099 29.512 32.8179 29.512H34.4229C34.6389 29.512 34.8158 29.3351 34.8158 29.1191C34.8158 29.0111 34.7708 28.9121 34.7018 28.8401C34.6329 28.7681 34.5309 28.7261 34.4229 28.7261H32.8179C32.5989 28.7261 32.4249 28.9031 32.4249 29.1191Z" fill="#1E3F57"/>
<path d="M32.4249 29.1191C32.4249 29.2271 32.4699 29.3261 32.5389 29.3981C32.6109 29.4701 32.7099 29.512 32.8179 29.512H34.0329C34.2519 29.512 34.4259 29.3351 34.4259 29.1191C34.4259 29.0111 34.3809 28.9121 34.3119 28.8401C34.2399 28.7681 34.1409 28.7261 34.0329 28.7261H32.8179C32.5989 28.7261 32.4249 28.9031 32.4249 29.1191Z" fill="#162F41"/>
<path d="M23.7281 29.1191C23.7281 29.2271 23.7731 29.3261 23.8421 29.3981C23.9141 29.4701 24.0131 29.512 24.1211 29.512H25.7261C25.9421 29.512 26.1191 29.3351 26.1191 29.1191C26.1191 29.0111 26.0741 28.9121 26.0051 28.8401C25.9361 28.7681 25.8341 28.7261 25.7261 28.7261H24.1211C23.9021 28.7261 23.7281 28.9031 23.7281 29.1191Z" fill="#1E3F57"/>
<path d="M23.7281 29.1191C23.7281 29.2271 23.7731 29.3261 23.8421 29.3981C23.9141 29.4701 24.0131 29.512 24.1211 29.512H25.3361C25.5551 29.512 25.7291 29.3351 25.7291 29.1191C25.7291 29.0111 25.6841 28.9121 25.6151 28.8401C25.5431 28.7681 25.4441 28.7261 25.3361 28.7261H24.1211C23.9021 28.7261 23.7281 28.9031 23.7281 29.1191Z" fill="#162F41"/>
<path d="M15.0316 29.1191C15.0316 29.2271 15.0766 29.3261 15.1456 29.3981C15.2176 29.4701 15.3166 29.512 15.4246 29.512H17.0295C17.2455 29.512 17.4225 29.3351 17.4225 29.1191C17.4225 29.0111 17.3775 28.9121 17.3085 28.8401C17.2395 28.7681 17.1375 28.7261 17.0295 28.7261H15.4246C15.2056 28.7261 15.0316 28.9031 15.0316 29.1191Z" fill="#1E3F57"/>
<path d="M15.0316 29.1191C15.0316 29.2271 15.0766 29.3261 15.1456 29.3981C15.2176 29.4701 15.3166 29.512 15.4246 29.512H16.6396C16.8586 29.512 17.0325 29.3351 17.0325 29.1191C17.0325 29.0111 16.9875 28.9121 16.9186 28.8401C16.8466 28.7681 16.7476 28.7261 16.6396 28.7261H15.4246C15.2056 28.7261 15.0316 28.9031 15.0316 29.1191Z" fill="#162F41"/>
<path d="M6.33484 29.1191C6.33484 29.2271 6.37984 29.3261 6.44883 29.3981C6.51783 29.4701 6.61983 29.512 6.72783 29.512H8.33277C8.54876 29.512 8.72576 29.3351 8.72576 29.1191C8.72576 29.0111 8.68076 28.9121 8.61176 28.8401C8.53976 28.7681 8.44077 28.7261 8.33277 28.7261H6.72783C6.50883 28.7261 6.33484 28.9031 6.33484 29.1191Z" fill="#1E3F57"/>
<path d="M6.33484 29.1191C6.33484 29.2271 6.37984 29.3261 6.44883 29.3981C6.51783 29.4701 6.61983 29.512 6.72783 29.512H7.94278C8.16178 29.512 8.33577 29.3351 8.33577 29.1191C8.33577 29.0111 8.29077 28.9121 8.22177 28.8401C8.15278 28.7681 8.05078 28.7261 7.94278 28.7261H6.72783C6.50883 28.7261 6.33484 28.9031 6.33484 29.1191Z" fill="#162F41"/>
<path d="M27.0941 28.2676H27.415V26.3086H27.0941V28.2676Z" fill="#2C5B7F"/>
<path d="M23.6293 28.2676H23.9503V26.3086H23.6293V28.2676Z" fill="#2C5B7F"/>
<path d="M20.1614 28.2676H20.4824V26.3086H20.1614V28.2676Z" fill="#2C5B7F"/>
<path d="M16.6964 28.2676H17.0174V26.3086H16.6964V28.2676Z" fill="#2C5B7F"/>
<path d="M13.2286 28.2676H13.5496V26.3086H13.2286V28.2676Z" fill="#2C5B7F"/>
<path d="M9.76361 28.2676H10.0846V26.3086H9.76361V28.2676Z" fill="#2C5B7F"/>
<path d="M6.29577 28.2676H6.61676V26.3086H6.29577V28.2676Z" fill="#2C5B7F"/>
<path d="M6.33476 26.5786L27.415 26.5786V26.3086L6.33476 26.3086V26.5786Z" fill="#2C5B7F"/>
<path d="M6.33476 27.2056L27.415 27.2056V27.1006L6.33476 27.1006V27.2056Z" fill="#2C5B7F"/>
<path d="M6.33476 27.7788L27.415 27.7788V27.6738L6.33476 27.6738V27.7788Z" fill="#2C5B7F"/>
<path d="M90.179 27.7514C91.1779 26.5754 92.6449 25.8975 94.1898 25.8975H117.481C117.694 25.8975 117.805 26.1465 117.667 26.3054L108.301 37.0001H77.9994C81.8213 37.0001 87.4911 30.9103 90.179 27.7514ZM108.538 27.5924C108.538 27.7664 108.679 27.9074 108.853 27.9074H111.214C111.388 27.9074 111.529 27.7664 111.529 27.5924V27.4124C111.529 27.2384 111.388 27.0974 111.214 27.0974H108.853C108.679 27.0974 108.538 27.2384 108.538 27.4124V27.5924ZM104.911 27.5924C104.911 27.7664 105.052 27.9074 105.226 27.9074H106.093C106.267 27.9074 106.408 27.7664 106.408 27.5924V27.4124C106.408 27.2384 106.267 27.0974 106.093 27.0974H105.226C105.052 27.0974 104.911 27.2384 104.911 27.4124V27.5924ZM93.6109 27.5924C93.6109 27.7664 93.7518 27.9074 93.9258 27.9074H96.2868C96.4607 27.9074 96.6017 27.7664 96.6017 27.5924V27.4124C96.6017 27.2384 96.4607 27.0974 96.2868 27.0974H93.9258C93.7518 27.0974 93.6109 27.2384 93.6109 27.4124V27.5924Z" fill="#1E3F57"/>
<path d="M90.0348 28.2674C90.1908 28.0874 90.3378 27.9164 90.4788 27.7514C91.4778 26.5754 92.9447 25.8975 94.4897 25.8975H117.589C117.877 25.8975 118.03 26.2364 117.841 26.4524L116.251 28.2674L110.374 34.9751L108.601 37.0001H78.2993C81.9201 37.0001 87.2089 31.5283 90.0348 28.2674ZM106.708 27.4154C106.708 27.2414 106.567 27.1004 106.393 27.1004H105.526C105.352 27.1004 105.211 27.2414 105.211 27.4154V27.5954C105.211 27.7694 105.352 27.9104 105.526 27.9104H106.393C106.567 27.9104 106.708 27.7694 106.708 27.5954V27.4154ZM111.514 27.9104C111.688 27.9104 111.829 27.7694 111.829 27.5954V27.4154C111.829 27.2414 111.688 27.1004 111.514 27.1004H109.153C108.979 27.1004 108.838 27.2414 108.838 27.4154V27.5954C108.838 27.6764 108.868 27.7484 108.916 27.8054C108.973 27.8714 109.057 27.9104 109.15 27.9104H111.511H111.514ZM93.9107 27.5954C93.9107 27.7694 94.0517 27.9104 94.2257 27.9104H96.5866C96.7606 27.9104 96.9016 27.7694 96.9016 27.5954V27.4154C96.9016 27.2414 96.7606 27.1004 96.5866 27.1004H94.2257C94.0517 27.1004 93.9107 27.2414 93.9107 27.4154V27.5954Z" fill="#2D5E80"/>
<path d="M90.4759 27.7514C91.4749 26.5754 92.9418 25.8975 94.4868 25.8975H117.586C117.874 25.8975 118.027 26.2364 117.838 26.4524L116.248 28.2674H90.0349C90.1909 28.0874 90.3379 27.9164 90.4789 27.7514H90.4759ZM109.15 27.9074H111.511C111.685 27.9074 111.826 27.7664 111.826 27.5924V27.4124C111.826 27.2384 111.685 27.0974 111.511 27.0974H109.15C108.976 27.0974 108.835 27.2384 108.835 27.4124V27.5924C108.835 27.6734 108.865 27.7454 108.913 27.8024C108.97 27.8684 109.054 27.9074 109.147 27.9074H109.15ZM105.211 27.5924C105.211 27.7664 105.352 27.9074 105.526 27.9074H106.393C106.567 27.9074 106.708 27.7664 106.708 27.5924V27.4124C106.708 27.2384 106.567 27.0974 106.393 27.0974H105.526C105.352 27.0974 105.211 27.2384 105.211 27.4124V27.5924ZM93.9108 27.5924C93.9108 27.7664 94.0518 27.9074 94.2258 27.9074H96.5867C96.7607 27.9074 96.9017 27.7664 96.9017 27.5924V27.4124C96.9017 27.2384 96.7607 27.0974 96.5867 27.0974H94.2258C94.0518 27.0974 93.9108 27.2384 93.9108 27.4124V27.5924Z" fill="#0F93B9"/>
<path d="M7.59772 34.9751C8.50069 36.1481 9.68865 37 11.2336 37H111.829C111.829 35.8811 110.923 34.9751 109.804 34.9751H7.59772Z" fill="#FF6854"/>
<path opacity="0.25" d="M102.596 34.9751H110.371L116.248 28.2674L117.838 26.4524C118.027 26.2364 117.874 25.8975 117.586 25.8975H109.69C109.573 26.2394 109.42 26.6474 109.228 27.0974H111.511C111.685 27.0974 111.826 27.2384 111.826 27.4124V27.5924C111.826 27.7664 111.685 27.9074 111.511 27.9074H109.15C109.057 27.9074 108.973 27.8654 108.916 27.8024C108.844 27.9524 108.769 28.1084 108.691 28.2674C107.59 30.4513 105.697 33.1752 102.599 34.9751H102.596Z" fill="#162F41"/>
<path opacity="0.25" d="M4.99994 28.2671C4.99994 28.2671 5.60892 32.3949 7.59785 34.9749C8.50082 36.1478 9.68878 36.9998 11.2337 36.9998H35.5329C31.051 34.2279 29.8721 30.508 29.5931 28.2671H4.99994Z" fill="#162F41"/>
<path opacity="0.1" d="M29.5931 28.2671C29.8721 30.511 31.0511 34.2279 35.5329 36.9998H49.6264C45.1446 34.2279 43.9656 30.508 43.6867 28.2671H29.5931Z" fill="#162F41"/>
</g>
<path d="M93.9352 41.8184C93.4061 43.9044 91.0482 45.0918 88.8992 44.9999C86.7569 44.9081 84.7908 43.8454 82.9162 42.7893C81.0482 41.7332 79.1083 40.6377 76.9724 40.4606C75.3003 40.3228 73.6347 40.7558 71.9887 41.1034C70.3428 41.4511 68.6119 41.7004 67.0051 41.2084C65.3983 40.7164 63.9678 39.2732 64.0005 37.5874C71.5446 36.1705 79.1344 35.4358 86.7307 36.5313C88.331 36.7609 89.9639 37.0626 91.3356 37.9285C92.7007 38.7878 94.3401 40.2506 93.9352 41.8184Z" fill="#7FC0E5"/>
<path d="M69.8998 41.8141C69.0532 43.8997 65.2803 45.0869 61.8417 44.995C58.4137 44.9032 55.2678 43.8407 52.2682 42.7848C49.2791 41.7288 46.175 40.6336 42.7574 40.4565C40.0819 40.3187 37.4167 40.7516 34.783 41.0992C32.1492 41.4468 29.3796 41.696 26.8085 41.2042C24.2375 40.7123 21.9486 39.2694 22.0009 37.5838C34.0723 36.1671 46.2168 35.4326 58.3719 36.5279C60.9325 36.7574 63.5453 37.0591 65.7401 37.9248C67.9245 38.784 70.5478 40.2466 69.8998 41.8141Z" fill="#7FC0E5"/>
<path d="M83.0275 38.9541C80.1175 38.2872 77.1744 36.6173 74.2093 35.9063C65.2698 33.7624 56.3909 40.5028 47.2089 39.9848C40.8707 39.6265 34.4389 39.3565 28.426 37.3338C11.5776 31.6736 2.18063 41.1752 -11.3278 39.2407C-16.3763 38.5187 -21.2208 38.4636 -26.1039 37.0086C-30.9871 35.5536 -35.06 35.9725 -37 38.403V43.3467H83.0275V38.9541Z" fill="#9FCFF1"/>
<path d="M4.40186 36.2756C5.06874 36.0717 5.84584 36.0386 6.66153 36.1874C7.61501 36.3583 8.5299 36.7441 9.41724 37.1079C9.6377 37.2015 9.86366 37.2952 10.0896 37.3834C13.2863 38.6676 16.7309 39.3179 20.1755 39.3179C22.3525 39.3179 24.5295 39.0589 26.6459 38.5353C27.1034 38.4196 27.5663 38.2928 28.0127 38.1716C29.3079 37.8133 30.6417 37.444 31.9975 37.3779C34.1139 37.2677 36.2248 37.896 37.9388 39.1416L37.9664 39.103C36.2413 37.8519 34.1194 37.2236 31.992 37.3338C30.6307 37.4055 29.2914 37.7747 27.9962 38.1275C27.5498 38.2487 27.0868 38.381 26.6294 38.4912C21.1841 39.8415 15.3145 39.4337 10.1062 37.3448C9.8802 37.2567 9.65423 37.163 9.43929 37.0693C8.55195 36.7 7.63154 36.3142 6.67256 36.1434C5.85687 35.9945 5.07425 36.0276 4.40186 36.2315V36.2866V36.2756Z" fill="#7FC0E5"/>
<path d="M11.9744 39.6099C7.85187 41.1311 3.61359 42.3822 -0.734913 42.1837C-5.46921 41.9688 -10.0272 40.0288 -14.293 38.0557C-14.5961 37.9179 -14.8992 37.7746 -15.2079 37.6313C-19.1981 35.7795 -23.3207 33.867 -27.7133 33.2167C-31.0918 32.7151 -34.327 33.0954 -37 34.2418V34.4182C-34.3435 33.2663 -31.1193 32.875 -27.7408 33.3765C-23.3703 34.0213 -19.2533 35.9338 -15.2795 37.7801C-14.9764 37.9234 -14.6678 38.0612 -14.3646 38.2045C-10.0878 40.1831 -5.5078 42.1341 -0.745937 42.3491C-0.437298 42.3656 -0.134167 42.3711 0.174473 42.3711C4.37417 42.3711 8.45261 41.098 12.4319 39.6154H11.9689L11.9744 39.6099Z" fill="#7FC0E5"/>
<path d="M69.1777 38.2873C67.3534 38.4802 65.4961 38.7392 63.6993 38.9928C58.9761 39.6596 54.1095 40.3486 49.3366 39.814C49.1713 39.8525 49.0059 39.8856 48.8406 39.9132C53.7843 40.5525 58.8328 39.8415 63.7214 39.1526C65.5181 38.8991 67.3755 38.6345 69.1942 38.4471C74.6285 37.8795 79.2525 38.2101 83.0279 39.4337V39.2628C79.236 38.0448 74.6064 37.7141 69.1777 38.2873Z" fill="#7FC0E5"/>
<path d="M109.954 40.5221C109.566 42.1442 107.837 43.0676 106.261 42.9961C104.69 42.9247 103.248 42.0983 101.873 41.2771C100.503 40.4558 99.0802 39.6039 97.5138 39.4661C96.2875 39.359 95.066 39.6957 93.8589 39.9661C92.6517 40.2364 91.3823 40.4303 90.2039 40.0477C89.0255 39.6651 87.9765 38.5428 88.0004 37.2318C93.5331 36.13 99.0994 35.5587 104.67 36.4106C105.844 36.5891 107.042 36.8237 108.048 37.4971C109.049 38.1653 110.251 39.3029 109.954 40.5221Z" fill="#7FC0E5"/>
<path d="M183.028 38.9541C180.118 38.2872 177.174 36.6173 174.209 35.9063C165.27 33.7624 156.391 40.5028 147.209 39.9848C140.871 39.6265 134.439 39.3565 128.426 37.3338C111.578 31.6736 102.181 41.1752 88.6722 39.2407C83.6237 38.5187 78.7792 38.4636 73.8961 37.0086C69.0129 35.5536 64.94 35.9725 63 38.403V43.3467H183.028V38.9541Z" fill="#9FCFF1"/>
<path d="M104.402 36.2756C105.069 36.0717 105.846 36.0386 106.662 36.1874C107.615 36.3583 108.53 36.7441 109.417 37.1079C109.638 37.2015 109.864 37.2952 110.09 37.3834C113.286 38.6676 116.731 39.3179 120.176 39.3179C122.353 39.3179 124.53 39.0589 126.646 38.5353C127.103 38.4196 127.566 38.2928 128.013 38.1716C129.308 37.8133 130.642 37.444 131.997 37.3779C134.114 37.2677 136.225 37.896 137.939 39.1416L137.966 39.103C136.241 37.8519 134.119 37.2236 131.992 37.3338C130.631 37.4055 129.291 37.7747 127.996 38.1275C127.55 38.2487 127.087 38.381 126.629 38.4912C121.184 39.8415 115.314 39.4337 110.106 37.3448C109.88 37.2567 109.654 37.163 109.439 37.0693C108.552 36.7 107.632 36.3142 106.673 36.1434C105.857 35.9945 105.074 36.0276 104.402 36.2315V36.2866V36.2756Z" fill="#7FC0E5"/>
<path d="M111.974 39.6099C107.852 41.1311 103.614 42.3822 99.2651 42.1837C94.5308 41.9688 89.9728 40.0288 85.707 38.0557C85.4039 37.9179 85.1008 37.7746 84.7921 37.6313C80.8019 35.7795 76.6793 33.867 72.2867 33.2167C68.9082 32.7151 65.673 33.0954 63 34.2418V34.4182C65.6565 33.2663 68.8807 32.875 72.2592 33.3765C76.6297 34.0213 80.7467 35.9338 84.7205 37.7801C85.0236 37.9234 85.3322 38.0612 85.6354 38.2045C89.9122 40.1831 94.4922 42.1341 99.2541 42.3491C99.5627 42.3656 99.8658 42.3711 100.174 42.3711C104.374 42.3711 108.453 41.098 112.432 39.6154H111.969L111.974 39.6099Z" fill="#7FC0E5"/>
</g>
<defs>
<clipPath id="clip0_8139_50381">
<rect width="120" height="40" rx="12" fill="white"/>
</clipPath>
<clipPath id="clip1_8139_50381">
<rect width="112.922" height="29" fill="white" transform="translate(5 8)"/>
</clipPath>
</defs>
</svg>
