<svg width="79" height="26" viewBox="0 0 79 26" fill="none" xmlns="http://www.w3.org/2000/svg">
<path d="M0 12C0 5.37258 5.37258 0 12 0H79V14C79 20.6274 73.6274 26 67 26H0V12Z" fill="#F0FCFF"/>
<path fill-rule="evenodd" clip-rule="evenodd" d="M16.0833 18.25H22.2083C23.0137 18.25 23.6667 17.5971 23.6667 16.7917V10.8835C23.6667 10.4193 23.4823 9.97423 23.1541 9.64604L21.7706 8.26256C21.4424 7.93437 20.9973 7.75 20.5332 7.75H16.375C15.5696 7.75 14.9167 8.40292 14.9167 9.20833V17.0833C14.9167 17.7277 15.439 18.25 16.0833 18.25Z" stroke="#0093B8" stroke-width="1.2" stroke-linecap="round" stroke-linejoin="round"/>
<path d="M23.6529 10.6666H21.625C21.1418 10.6666 20.75 10.2748 20.75 9.79156V7.76367" stroke="#0093B8" stroke-width="1.2" stroke-linecap="round" stroke-linejoin="round"/>
<path d="M21.3333 13.0002H19.1458" stroke="#0093B8" stroke-width="1.2" stroke-linecap="round" stroke-linejoin="round"/>
<path d="M21.3333 15.3332H19.1458" stroke="#0093B8" stroke-width="1.2" stroke-linecap="round" stroke-linejoin="round"/>
<path d="M17.25 12.9272C17.2097 12.9272 17.1771 12.9599 17.1771 13.0002C17.1771 13.0404 17.2097 13.0731 17.25 13.0731C17.2903 13.0731 17.3229 13.0404 17.3229 13.0002C17.3229 12.9599 17.2903 12.9272 17.25 12.9272" stroke="#0093B8" stroke-width="1.2" stroke-linecap="round" stroke-linejoin="round"/>
<path d="M17.25 15.2603C17.2097 15.2603 17.1771 15.2929 17.1771 15.3332C17.1771 15.3734 17.2097 15.4061 17.25 15.4061C17.2903 15.4061 17.3229 15.3734 17.3229 15.3332C17.3229 15.2929 17.2903 15.2603 17.25 15.2603" stroke="#0093B8" stroke-width="1.2" stroke-linecap="round" stroke-linejoin="round"/>
<path d="M30.783 18L33.591 9.36H35.397L38.205 18H36.903L34.317 10.116H34.641L32.085 18H30.783ZM32.241 16.05V14.874H36.753V16.05H32.241ZM39.2814 18V11.52H40.3974V13.092L40.2414 12.888C40.3214 12.68 40.4254 12.49 40.5534 12.318C40.6814 12.142 40.8294 11.998 40.9974 11.886C41.1614 11.766 41.3434 11.674 41.5434 11.61C41.7474 11.542 41.9554 11.502 42.1674 11.49C42.3794 11.474 42.5834 11.484 42.7794 11.52V12.696C42.5674 12.64 42.3314 12.624 42.0714 12.648C41.8154 12.672 41.5794 12.754 41.3634 12.894C41.1594 13.026 40.9974 13.186 40.8774 13.374C40.7614 13.562 40.6774 13.772 40.6254 14.004C40.5734 14.232 40.5474 14.474 40.5474 14.73V18H39.2814ZM43.922 18V11.52H45.038V13.092L44.882 12.888C44.962 12.68 45.066 12.49 45.194 12.318C45.322 12.142 45.47 11.998 45.638 11.886C45.802 11.766 45.984 11.674 46.184 11.61C46.388 11.542 46.596 11.502 46.808 11.49C47.02 11.474 47.224 11.484 47.42 11.52V12.696C47.208 12.64 46.972 12.624 46.712 12.648C46.456 12.672 46.22 12.754 46.004 12.894C45.8 13.026 45.638 13.186 45.518 13.374C45.402 13.562 45.318 13.772 45.266 14.004C45.214 14.232 45.188 14.474 45.188 14.73V18H43.922ZM48.6827 10.458V9.24H49.9367V10.458H48.6827ZM48.6827 18V11.52H49.9367V18H48.6827ZM53.4904 18L51.1384 11.52H52.4044L54.1264 16.428L55.8484 11.52H57.1144L54.7624 18H53.4904ZM59.6622 18.18C59.1822 18.18 58.7802 18.092 58.4562 17.916C58.1322 17.736 57.8862 17.5 57.7182 17.208C57.5542 16.912 57.4722 16.588 57.4722 16.236C57.4722 15.908 57.5302 15.62 57.6462 15.372C57.7622 15.124 57.9342 14.914 58.1622 14.742C58.3902 14.566 58.6702 14.424 59.0022 14.316C59.2902 14.232 59.6162 14.158 59.9802 14.094C60.3442 14.03 60.7262 13.97 61.1262 13.914C61.5302 13.858 61.9302 13.802 62.3262 13.746L61.8702 13.998C61.8782 13.49 61.7702 13.114 61.5462 12.87C61.3262 12.622 60.9462 12.498 60.4062 12.498C60.0662 12.498 59.7542 12.578 59.4702 12.738C59.1862 12.894 58.9882 13.154 58.8762 13.518L57.7062 13.158C57.8662 12.602 58.1702 12.16 58.6182 11.832C59.0702 11.504 59.6702 11.34 60.4182 11.34C60.9982 11.34 61.5022 11.44 61.9302 11.64C62.3622 11.836 62.6782 12.148 62.8782 12.576C62.9822 12.788 63.0462 13.012 63.0702 13.248C63.0942 13.484 63.1062 13.738 63.1062 14.01V18H61.9962V16.518L62.2122 16.71C61.9442 17.206 61.6022 17.576 61.1862 17.82C60.7742 18.06 60.2662 18.18 59.6622 18.18ZM59.8842 17.154C60.2402 17.154 60.5462 17.092 60.8022 16.968C61.0582 16.84 61.2642 16.678 61.4202 16.482C61.5762 16.286 61.6782 16.082 61.7262 15.87C61.7942 15.678 61.8322 15.462 61.8402 15.222C61.8522 14.982 61.8582 14.79 61.8582 14.646L62.2662 14.796C61.8702 14.856 61.5102 14.91 61.1862 14.958C60.8622 15.006 60.5682 15.054 60.3042 15.102C60.0442 15.146 59.8122 15.2 59.6082 15.264C59.4362 15.324 59.2822 15.396 59.1462 15.48C59.0142 15.564 58.9082 15.666 58.8282 15.786C58.7522 15.906 58.7142 16.052 58.7142 16.224C58.7142 16.392 58.7562 16.548 58.8402 16.692C58.9242 16.832 59.0522 16.944 59.2242 17.028C59.3962 17.112 59.6162 17.154 59.8842 17.154ZM64.7842 18V9.18H66.0382V18H64.7842Z" fill="#0093B8"/>
</svg>
