<svg width="74" height="28" viewBox="0 0 74 28" fill="none" xmlns="http://www.w3.org/2000/svg">
<rect width="74" height="28" rx="14" fill="#F0FCFF"/>
<circle cx="12" cy="14" r="3" fill="#00CCFF"/>
<path d="M23.0456 19L26.4196 8.92H28.1556L31.5296 19H30.2346L27.0776 9.648H27.4696L24.3406 19H23.0456ZM24.6696 16.641V15.472H29.9056V16.641H24.6696ZM32.7827 19V11.44H33.8957V13.267L33.7137 13.029C33.8024 12.7957 33.9167 12.581 34.0567 12.385C34.2014 12.189 34.3624 12.028 34.5397 11.902C34.7357 11.7433 34.9574 11.622 35.2047 11.538C35.4521 11.454 35.7041 11.405 35.9607 11.391C36.2174 11.3723 36.4577 11.3887 36.6817 11.44V12.609C36.4204 12.539 36.1334 12.5203 35.8207 12.553C35.5081 12.5857 35.2187 12.7 34.9527 12.896C34.7101 13.0687 34.5211 13.2787 34.3857 13.526C34.2551 13.7733 34.1641 14.0417 34.1127 14.331C34.0614 14.6157 34.0357 14.9073 34.0357 15.206V19H32.7827ZM38.0054 19V11.44H39.1184V13.267L38.9364 13.029C39.0251 12.7957 39.1394 12.581 39.2794 12.385C39.4241 12.189 39.5851 12.028 39.7624 11.902C39.9584 11.7433 40.1801 11.622 40.4274 11.538C40.6747 11.454 40.9267 11.405 41.1834 11.391C41.4401 11.3723 41.6804 11.3887 41.9044 11.44V12.609C41.6431 12.539 41.3561 12.5203 41.0434 12.553C40.7307 12.5857 40.4414 12.7 40.1754 12.896C39.9327 13.0687 39.7437 13.2787 39.6084 13.526C39.4777 13.7733 39.3867 14.0417 39.3354 14.331C39.2841 14.6157 39.2584 14.9073 39.2584 15.206V19H38.0054ZM43.368 10.103V8.815H44.614V10.103H43.368ZM43.368 19V11.44H44.614V19H43.368ZM48.7584 19L46.0144 11.44H47.2744L49.3954 17.411L51.5094 11.44H52.7764L50.0324 19H48.7584ZM55.7677 19.21C55.203 19.21 54.7293 19.1073 54.3467 18.902C53.9687 18.692 53.6817 18.4167 53.4857 18.076C53.2943 17.7353 53.1987 17.362 53.1987 16.956C53.1987 16.5593 53.2733 16.2163 53.4227 15.927C53.5767 15.633 53.7913 15.3903 54.0667 15.199C54.342 15.003 54.671 14.849 55.0537 14.737C55.413 14.639 55.8143 14.555 56.2577 14.485C56.7057 14.4103 57.1583 14.3427 57.6157 14.282C58.073 14.2213 58.5 14.163 58.8967 14.107L58.4487 14.366C58.4627 13.694 58.3273 13.197 58.0427 12.875C57.7627 12.553 57.2773 12.392 56.5867 12.392C56.1293 12.392 55.728 12.497 55.3827 12.707C55.042 12.9123 54.8017 13.2483 54.6617 13.715L53.4787 13.358C53.6607 12.6953 54.013 12.175 54.5357 11.797C55.0583 11.419 55.7467 11.23 56.6007 11.23C57.2867 11.23 57.8747 11.3537 58.3647 11.601C58.8593 11.8437 59.214 12.2123 59.4287 12.707C59.536 12.9403 59.6037 13.1947 59.6317 13.47C59.6597 13.7407 59.6737 14.0253 59.6737 14.324V19H58.5677V17.187L58.8267 17.355C58.542 17.9663 58.143 18.4283 57.6297 18.741C57.121 19.0537 56.5003 19.21 55.7677 19.21ZM55.9567 18.167C56.4047 18.167 56.792 18.0877 57.1187 17.929C57.45 17.7657 57.716 17.5533 57.9167 17.292C58.1173 17.026 58.248 16.7367 58.3087 16.424C58.3787 16.1907 58.416 15.9317 58.4207 15.647C58.43 15.3577 58.4347 15.136 58.4347 14.982L58.8687 15.171C58.4627 15.227 58.0637 15.2807 57.6717 15.332C57.2797 15.3833 56.9087 15.4393 56.5587 15.5C56.2087 15.556 55.8937 15.6237 55.6137 15.703C55.4083 15.7683 55.2147 15.8523 55.0327 15.955C54.8553 16.0577 54.7107 16.1907 54.5987 16.354C54.4913 16.5127 54.4377 16.711 54.4377 16.949C54.4377 17.1543 54.489 17.3503 54.5917 17.537C54.699 17.7237 54.8623 17.8753 55.0817 17.992C55.3057 18.1087 55.5973 18.167 55.9567 18.167ZM61.6337 19V8.71H62.8797V19H61.6337Z" fill="#007694"/>
</svg>
