<svg width="20" height="20" viewBox="0 0 20 20" fill="none" xmlns="http://www.w3.org/2000/svg">
<path d="M15 15.0002V12.0835C15 11.3935 15.56 10.8335 16.25 10.8335V10.8335C16.94 10.8335 17.5 11.3935 17.5 12.0835V15.8335C17.5 17.2143 16.3808 18.3335 15 18.3335V18.3335C13.6192 18.3335 12.5 17.2143 12.5 15.8335V13.3335" stroke="#344054" stroke-width="1.5" stroke-linecap="round" stroke-linejoin="round"/>
<path d="M9.16683 13.3332H5.8335" stroke="#344054" stroke-width="1.5" stroke-linecap="round" stroke-linejoin="round"/>
<path d="M11.6668 10.0002H5.8335" stroke="#344054" stroke-width="1.5" stroke-linecap="round" stroke-linejoin="round"/>
<path d="M11.6668 6.66667H5.8335" stroke="#344054" stroke-width="1.5" stroke-linecap="round" stroke-linejoin="round"/>
<path d="M15 7.5V4.16667C15 3.24583 14.2542 2.5 13.3333 2.5H4.16667C3.24583 2.5 2.5 3.24583 2.5 4.16667V15.8333C2.5 16.7542 3.24583 17.5 4.16667 17.5H9.16667" stroke="#344054" stroke-width="1.5" stroke-linecap="round" stroke-linejoin="round"/>
</svg>
