<svg width="26" height="26" viewBox="0 0 26 26" fill="none" xmlns="http://www.w3.org/2000/svg">
<path fill-rule="evenodd" clip-rule="evenodd" d="M18.5024 18.3609C19.5498 18.3609 20.3998 17.5135 20.4031 16.4661V16.4661V16.4661C20.4025 15.9331 20.1897 15.4224 19.8119 15.0465L18.5524 13.786V10.0414C18.5521 8.56957 17.9668 7.15819 16.9254 6.1181C15.884 5.07801 14.4719 4.49451 13.0001 4.4961V4.4961C9.93848 4.49776 7.4573 6.97983 7.45675 10.0414V13.783L6.19723 15.0435C5.8191 15.4192 5.60602 15.93 5.60498 16.4631V16.4631V16.4631C5.60829 17.5105 6.45833 18.3579 7.50577 18.3579L18.5024 18.3609Z" stroke="#475467" stroke-width="1.5" stroke-linecap="round" stroke-linejoin="round"/>
<path d="M11.5205 21.5041H14.4787" stroke="#475467" stroke-width="1.5" stroke-linecap="round" stroke-linejoin="round"/>
</svg>
