<svg width="83" height="26" viewBox="0 0 83 26" fill="none" xmlns="http://www.w3.org/2000/svg">
<path d="M0 12C0 5.37258 5.37258 0 12 0H83V14C83 20.6274 77.6274 26 71 26H0V12Z" fill="#F2F4F7"/>
<path fill-rule="evenodd" clip-rule="evenodd" d="M16.0833 18.25H22.2083C23.0137 18.25 23.6667 17.5971 23.6667 16.7917V10.8835C23.6667 10.4193 23.4823 9.97423 23.1541 9.64604L21.7706 8.26256C21.4424 7.93437 20.9973 7.75 20.5332 7.75H16.375C15.5696 7.75 14.9167 8.40292 14.9167 9.20833V17.0833C14.9167 17.7277 15.439 18.25 16.0833 18.25Z" stroke="#475467" stroke-width="1.2" stroke-linecap="round" stroke-linejoin="round"/>
<path d="M23.6529 10.6666H21.625C21.1418 10.6666 20.75 10.2748 20.75 9.79156V7.76367" stroke="#475467" stroke-width="1.2" stroke-linecap="round" stroke-linejoin="round"/>
<path d="M21.3333 13.0002H19.1458" stroke="#475467" stroke-width="1.2" stroke-linecap="round" stroke-linejoin="round"/>
<path d="M21.3333 15.3332H19.1458" stroke="#475467" stroke-width="1.2" stroke-linecap="round" stroke-linejoin="round"/>
<path d="M17.25 12.9272C17.2097 12.9272 17.1771 12.9599 17.1771 13.0002C17.1771 13.0404 17.2097 13.0731 17.25 13.0731C17.2903 13.0731 17.3229 13.0404 17.3229 13.0002C17.3229 12.9599 17.2903 12.9272 17.25 12.9272" stroke="#475467" stroke-width="1.2" stroke-linecap="round" stroke-linejoin="round"/>
<path d="M17.25 15.2603C17.2097 15.2603 17.1771 15.2929 17.1771 15.3332C17.1771 15.3734 17.2097 15.4061 17.25 15.4061C17.2903 15.4061 17.3229 15.3734 17.3229 15.3332C17.3229 15.2929 17.2903 15.2603 17.25 15.2603" stroke="#475467" stroke-width="1.2" stroke-linecap="round" stroke-linejoin="round"/>
<path d="M31.5978 18V9.36H34.9938C35.5418 9.36 36.0018 9.472 36.3738 9.696C36.7458 9.92 37.0258 10.21 37.2138 10.566C37.4018 10.918 37.4958 11.29 37.4958 11.682C37.4958 12.158 37.3778 12.566 37.1418 12.906C36.9098 13.246 36.5958 13.478 36.1998 13.602L36.1878 13.308C36.7398 13.444 37.1638 13.71 37.4598 14.106C37.7558 14.498 37.9038 14.956 37.9038 15.48C37.9038 15.988 37.8018 16.43 37.5978 16.806C37.3978 17.182 37.1038 17.476 36.7158 17.688C36.3318 17.896 35.8658 18 35.3178 18H31.5978ZM32.8698 16.806H35.1258C35.4098 16.806 35.6638 16.752 35.8878 16.644C36.1158 16.536 36.2938 16.382 36.4218 16.182C36.5538 15.978 36.6198 15.736 36.6198 15.456C36.6198 15.196 36.5618 14.962 36.4458 14.754C36.3338 14.542 36.1698 14.376 35.9538 14.256C35.7418 14.132 35.4918 14.07 35.2038 14.07H32.8698V16.806ZM32.8698 12.888H34.9758C35.2078 12.888 35.4158 12.842 35.5998 12.75C35.7878 12.654 35.9358 12.518 36.0438 12.342C36.1558 12.162 36.2118 11.946 36.2118 11.694C36.2118 11.358 36.0998 11.082 35.8758 10.866C35.6518 10.65 35.3518 10.542 34.9758 10.542H32.8698V12.888ZM41.5398 18.174C41.0918 18.174 40.7158 18.102 40.4118 17.958C40.1078 17.814 39.8598 17.626 39.6678 17.394C39.4798 17.158 39.3358 16.902 39.2358 16.626C39.1358 16.35 39.0678 16.08 39.0318 15.816C38.9958 15.552 38.9778 15.32 38.9778 15.12V11.52H40.2498V14.706C40.2498 14.958 40.2698 15.218 40.3098 15.486C40.3538 15.75 40.4338 15.996 40.5498 16.224C40.6698 16.452 40.8358 16.636 41.0478 16.776C41.2638 16.916 41.5438 16.986 41.8878 16.986C42.1118 16.986 42.3238 16.95 42.5238 16.878C42.7238 16.802 42.8978 16.682 43.0458 16.518C43.1978 16.354 43.3158 16.138 43.3998 15.87C43.4878 15.602 43.5318 15.276 43.5318 14.892L44.3118 15.186C44.3118 15.774 44.2018 16.294 43.9818 16.746C43.7618 17.194 43.4458 17.544 43.0338 17.796C42.6218 18.048 42.1238 18.174 41.5398 18.174ZM43.6818 18V16.128H43.5318V11.52H44.7978V18H43.6818ZM51.0286 18V14.814C51.0286 14.562 51.0066 14.304 50.9626 14.04C50.9226 13.772 50.8426 13.524 50.7226 13.296C50.6066 13.068 50.4406 12.884 50.2246 12.744C50.0126 12.604 49.7346 12.534 49.3906 12.534C49.1666 12.534 48.9546 12.572 48.7546 12.648C48.5546 12.72 48.3786 12.838 48.2266 13.002C48.0786 13.166 47.9606 13.382 47.8726 13.65C47.7886 13.918 47.7466 14.244 47.7466 14.628L46.9666 14.334C46.9666 13.746 47.0766 13.228 47.2966 12.78C47.5166 12.328 47.8326 11.976 48.2446 11.724C48.6566 11.472 49.1546 11.346 49.7386 11.346C50.1866 11.346 50.5626 11.418 50.8666 11.562C51.1706 11.706 51.4166 11.896 51.6046 12.132C51.7966 12.364 51.9426 12.618 52.0426 12.894C52.1426 13.17 52.2106 13.44 52.2466 13.704C52.2826 13.968 52.3006 14.2 52.3006 14.4V18H51.0286ZM46.4746 18V11.52H47.5966V13.392H47.7466V18H46.4746ZM53.8574 18L53.8634 9.36H55.1354V14.64L57.6794 11.52H59.2754L56.5874 14.76L59.5514 18H57.8474L55.1354 14.88V18H53.8574ZM62.9132 18.18C62.2692 18.18 61.7032 18.04 61.2152 17.76C60.7312 17.476 60.3532 17.082 60.0812 16.578C59.8132 16.07 59.6792 15.482 59.6792 14.814C59.6792 14.106 59.8112 13.492 60.0752 12.972C60.3432 12.452 60.7152 12.05 61.1912 11.766C61.6672 11.482 62.2212 11.34 62.8532 11.34C63.5132 11.34 64.0752 11.494 64.5392 11.802C65.0032 12.106 65.3492 12.54 65.5772 13.104C65.8092 13.668 65.9012 14.338 65.8532 15.114H64.5992V14.658C64.5912 13.906 64.4472 13.35 64.1672 12.99C63.8912 12.63 63.4692 12.45 62.9012 12.45C62.2732 12.45 61.8012 12.648 61.4852 13.044C61.1692 13.44 61.0112 14.012 61.0112 14.76C61.0112 15.472 61.1692 16.024 61.4852 16.416C61.8012 16.804 62.2572 16.998 62.8532 16.998C63.2452 16.998 63.5832 16.91 63.8672 16.734C64.1552 16.554 64.3792 16.298 64.5392 15.966L65.7692 16.356C65.5172 16.936 65.1352 17.386 64.6232 17.706C64.1112 18.022 63.5412 18.18 62.9132 18.18ZM60.6032 15.114V14.136H65.2292V15.114H60.6032ZM67.1994 18V11.52H68.3154V13.092L68.1594 12.888C68.2394 12.68 68.3434 12.49 68.4714 12.318C68.5994 12.142 68.7474 11.998 68.9154 11.886C69.0794 11.766 69.2614 11.674 69.4614 11.61C69.6654 11.542 69.8734 11.502 70.0854 11.49C70.2974 11.474 70.5014 11.484 70.6974 11.52V12.696C70.4854 12.64 70.2494 12.624 69.9894 12.648C69.7334 12.672 69.4974 12.754 69.2814 12.894C69.0774 13.026 68.9154 13.186 68.7954 13.374C68.6794 13.562 68.5954 13.772 68.5434 14.004C68.4914 14.232 68.4654 14.474 68.4654 14.73V18H67.1994Z" fill="#475467"/>
</svg>
