<svg width="134" height="28" viewBox="0 0 134 28" fill="none" xmlns="http://www.w3.org/2000/svg">
<rect width="134" height="28" rx="14" fill="#F2F4F7"/>
<circle cx="12" cy="14" r="3" fill="#667085"/>
<path d="M23.3706 19V8.92H27.2976C27.8996 8.92 28.413 9.04367 28.8376 9.291C29.267 9.53833 29.5936 9.865 29.8176 10.271C30.0463 10.6723 30.1606 11.1063 30.1606 11.573C30.1606 12.119 30.0206 12.5973 29.7406 13.008C29.4606 13.4187 29.0826 13.701 28.6066 13.855L28.5926 13.512C29.2413 13.6847 29.7453 14.002 30.1046 14.464C30.464 14.926 30.6436 15.4767 30.6436 16.116C30.6436 16.704 30.5223 17.2127 30.2796 17.642C30.0416 18.0713 29.6963 18.405 29.2436 18.643C28.7956 18.881 28.2636 19 27.6476 19H23.3706ZM24.6306 17.81H27.4096C27.783 17.81 28.1166 17.7423 28.4106 17.607C28.7046 17.467 28.9356 17.271 29.1036 17.019C29.2763 16.767 29.3626 16.4637 29.3626 16.109C29.3626 15.7683 29.2856 15.4627 29.1316 15.192C28.9823 14.9213 28.77 14.7067 28.4946 14.548C28.224 14.3847 27.909 14.303 27.5496 14.303H24.6306V17.81ZM24.6306 13.127H27.2836C27.5823 13.127 27.8506 13.064 28.0886 12.938C28.3313 12.8073 28.5226 12.6253 28.6626 12.392C28.8073 12.1587 28.8796 11.8857 28.8796 11.573C28.8796 11.139 28.7326 10.7843 28.4386 10.509C28.1446 10.2337 27.7596 10.096 27.2836 10.096H24.6306V13.127ZM34.9086 19.196C34.4233 19.196 34.0056 19.119 33.6556 18.965C33.3103 18.811 33.0233 18.6057 32.7946 18.349C32.5659 18.0923 32.3863 17.8077 32.2556 17.495C32.1249 17.1823 32.0316 16.8627 31.9756 16.536C31.9243 16.2093 31.8986 15.9037 31.8986 15.619V11.44H33.1586V15.227C33.1586 15.5817 33.1913 15.9247 33.2566 16.256C33.3219 16.5873 33.4316 16.886 33.5856 17.152C33.7443 17.418 33.9543 17.628 34.2156 17.782C34.4816 17.936 34.8129 18.013 35.2096 18.013C35.5223 18.013 35.8069 17.9593 36.0636 17.852C36.3203 17.7447 36.5396 17.586 36.7216 17.376C36.9036 17.1613 37.0436 16.8907 37.1416 16.564C37.2396 16.2373 37.2886 15.857 37.2886 15.423L38.1076 15.675C38.1076 16.403 37.9746 17.0307 37.7086 17.558C37.4473 18.0853 37.0763 18.4913 36.5956 18.776C36.1196 19.056 35.5573 19.196 34.9086 19.196ZM37.4286 19V16.977H37.2886V11.44H38.5416V19H37.4286ZM45.8845 19V15.213C45.8845 14.8537 45.8518 14.5083 45.7865 14.177C45.7258 13.8457 45.6162 13.5493 45.4575 13.288C45.3035 13.022 45.0935 12.812 44.8275 12.658C44.5662 12.504 44.2348 12.427 43.8335 12.427C43.5208 12.427 43.2362 12.4807 42.9795 12.588C42.7275 12.6907 42.5105 12.8493 42.3285 13.064C42.1465 13.2787 42.0042 13.5493 41.9015 13.876C41.8035 14.198 41.7545 14.5783 41.7545 15.017L40.9355 14.765C40.9355 14.0323 41.0662 13.4047 41.3275 12.882C41.5935 12.3547 41.9645 11.951 42.4405 11.671C42.9212 11.3863 43.4858 11.244 44.1345 11.244C44.6245 11.244 45.0422 11.321 45.3875 11.475C45.7328 11.629 46.0198 11.8343 46.2485 12.091C46.4772 12.343 46.6568 12.6277 46.7875 12.945C46.9182 13.2577 47.0092 13.5773 47.0605 13.904C47.1165 14.226 47.1445 14.5317 47.1445 14.821V19H45.8845ZM40.4945 19V11.44H41.6145V13.463H41.7545V19H40.4945ZM48.9574 19L48.9644 8.92H50.2244V15.08L53.3954 11.44H55.0124L51.6734 15.22L55.4044 19H53.6614L50.2244 15.36V19H48.9574ZM59.2404 19.21C58.4984 19.21 57.8497 19.0467 57.2944 18.72C56.7437 18.3887 56.3144 17.929 56.0064 17.341C55.6984 16.7483 55.5444 16.0577 55.5444 15.269C55.5444 14.443 55.696 13.729 55.9994 13.127C56.3027 12.5203 56.725 12.0537 57.2664 11.727C57.8124 11.3957 58.4517 11.23 59.1844 11.23C59.945 11.23 60.5914 11.405 61.1234 11.755C61.66 12.105 62.0614 12.6043 62.3274 13.253C62.598 13.9017 62.7147 14.674 62.6774 15.57H61.4174V15.122C61.4034 14.1933 61.2144 13.5003 60.8504 13.043C60.4864 12.581 59.945 12.35 59.2264 12.35C58.4564 12.35 57.8707 12.5973 57.4694 13.092C57.068 13.5867 56.8674 14.296 56.8674 15.22C56.8674 16.1113 57.068 16.802 57.4694 17.292C57.8707 17.782 58.4424 18.027 59.1844 18.027C59.6837 18.027 60.1177 17.9127 60.4864 17.684C60.855 17.4553 61.1444 17.1263 61.3544 16.697L62.5514 17.11C62.2574 17.7773 61.814 18.2953 61.2214 18.664C60.6334 19.028 59.973 19.21 59.2404 19.21ZM56.4474 15.57V14.569H62.0334V15.57H56.4474ZM64.2359 19V11.44H65.3489V13.267L65.1669 13.029C65.2555 12.7957 65.3699 12.581 65.5099 12.385C65.6545 12.189 65.8155 12.028 65.9929 11.902C66.1889 11.7433 66.4105 11.622 66.6579 11.538C66.9052 11.454 67.1572 11.405 67.4139 11.391C67.6705 11.3723 67.9109 11.3887 68.1349 11.44V12.609C67.8735 12.539 67.5865 12.5203 67.2739 12.553C66.9612 12.5857 66.6719 12.7 66.4059 12.896C66.1632 13.0687 65.9742 13.2787 65.8389 13.526C65.7082 13.7733 65.6172 14.0417 65.5659 14.331C65.5145 14.6157 65.4889 14.9073 65.4889 15.206V19H64.2359ZM72.2613 19V8.92H75.3693C75.4719 8.92 75.6516 8.92233 75.9083 8.927C76.1649 8.93167 76.4099 8.95033 76.6433 8.983C77.4226 9.08567 78.0736 9.37033 78.5963 9.837C79.1236 10.299 79.5203 10.887 79.7863 11.601C80.0523 12.315 80.1853 13.1013 80.1853 13.96C80.1853 14.8187 80.0523 15.605 79.7863 16.319C79.5203 17.033 79.1236 17.6233 78.5963 18.09C78.0736 18.552 77.4226 18.8343 76.6433 18.937C76.4099 18.965 76.1626 18.9837 75.9013 18.993C75.6446 18.9977 75.4673 19 75.3693 19H72.2613ZM73.5423 17.81H75.3693C75.5466 17.81 75.7449 17.8053 75.9643 17.796C76.1836 17.782 76.3749 17.761 76.5383 17.733C77.0889 17.6303 77.5346 17.3993 77.8753 17.04C78.2159 16.6807 78.4656 16.2327 78.6243 15.696C78.7829 15.1593 78.8623 14.5807 78.8623 13.96C78.8623 13.3253 78.7806 12.7397 78.6173 12.203C78.4586 11.6663 78.2089 11.2207 77.8683 10.866C77.5276 10.5113 77.0843 10.285 76.5383 10.187C76.3749 10.1543 76.1813 10.1333 75.9573 10.124C75.7333 10.1147 75.5373 10.11 75.3693 10.11H73.5423V17.81ZM85.0665 19.21C84.3245 19.21 83.6759 19.0467 83.1205 18.72C82.5699 18.3887 82.1405 17.929 81.8325 17.341C81.5245 16.7483 81.3705 16.0577 81.3705 15.269C81.3705 14.443 81.5222 13.729 81.8255 13.127C82.1289 12.5203 82.5512 12.0537 83.0925 11.727C83.6385 11.3957 84.2779 11.23 85.0105 11.23C85.7712 11.23 86.4175 11.405 86.9495 11.755C87.4862 12.105 87.8875 12.6043 88.1535 13.253C88.4242 13.9017 88.5409 14.674 88.5035 15.57H87.2435V15.122C87.2295 14.1933 87.0405 13.5003 86.6765 13.043C86.3125 12.581 85.7712 12.35 85.0525 12.35C84.2825 12.35 83.6969 12.5973 83.2955 13.092C82.8942 13.5867 82.6935 14.296 82.6935 15.22C82.6935 16.1113 82.8942 16.802 83.2955 17.292C83.6969 17.782 84.2685 18.027 85.0105 18.027C85.5099 18.027 85.9439 17.9127 86.3125 17.684C86.6812 17.4553 86.9705 17.1263 87.1805 16.697L88.3775 17.11C88.0835 17.7773 87.6402 18.2953 87.0475 18.664C86.4595 19.028 85.7992 19.21 85.0665 19.21ZM82.2735 15.57V14.569H87.8595V15.57H82.2735ZM90.202 19V8.71H91.448V19H90.202ZM93.6884 10.103V8.815H94.9344V10.103H93.6884ZM93.6884 19V11.44H94.9344V19H93.6884ZM99.0787 19L96.3347 11.44H97.5947L99.7157 17.411L101.83 11.44H103.097L100.353 19H99.0787ZM107.365 19.21C106.623 19.21 105.975 19.0467 105.419 18.72C104.869 18.3887 104.439 17.929 104.131 17.341C103.823 16.7483 103.669 16.0577 103.669 15.269C103.669 14.443 103.821 13.729 104.124 13.127C104.428 12.5203 104.85 12.0537 105.391 11.727C105.937 11.3957 106.577 11.23 107.309 11.23C108.07 11.23 108.716 11.405 109.248 11.755C109.785 12.105 110.186 12.6043 110.452 13.253C110.723 13.9017 110.84 14.674 110.802 15.57H109.542V15.122C109.528 14.1933 109.339 13.5003 108.975 13.043C108.611 12.581 108.07 12.35 107.351 12.35C106.581 12.35 105.996 12.5973 105.594 13.092C105.193 13.5867 104.992 14.296 104.992 15.22C104.992 16.1113 105.193 16.802 105.594 17.292C105.996 17.782 106.567 18.027 107.309 18.027C107.809 18.027 108.243 17.9127 108.611 17.684C108.98 17.4553 109.269 17.1263 109.479 16.697L110.676 17.11C110.382 17.7773 109.939 18.2953 109.346 18.664C108.758 19.028 108.098 19.21 107.365 19.21ZM104.572 15.57V14.569H110.158V15.57H104.572ZM112.361 19V11.44H113.474V13.267L113.292 13.029C113.381 12.7957 113.495 12.581 113.635 12.385C113.78 12.189 113.941 12.028 114.118 11.902C114.314 11.7433 114.536 11.622 114.783 11.538C115.03 11.454 115.282 11.405 115.539 11.391C115.796 11.3723 116.036 11.3887 116.26 11.44V12.609C115.999 12.539 115.712 12.5203 115.399 12.553C115.086 12.5857 114.797 12.7 114.531 12.896C114.288 13.0687 114.099 13.2787 113.964 13.526C113.833 13.7733 113.742 14.0417 113.691 14.331C113.64 14.6157 113.614 14.9073 113.614 15.206V19H112.361ZM118.497 22.36L119.96 18.384L119.981 19.56L116.677 11.44H117.986L120.576 17.971H120.128L122.557 11.44H123.824L119.708 22.36H118.497Z" fill="#344054"/>
</svg>
