<svg width="99" height="28" viewBox="0 0 99 28" fill="none" xmlns="http://www.w3.org/2000/svg">
<g style="mix-blend-mode:multiply">
<rect width="99" height="28" rx="14" fill="#FFFAEB"/>
<circle cx="12" cy="14" r="3" fill="#F79009"/>
<path d="M23.3159 19V8.92H26.4239C26.5266 8.92 26.7063 8.92233 26.9629 8.927C27.2196 8.93167 27.4646 8.95033 27.6979 8.983C28.4773 9.08567 29.1283 9.37033 29.6509 9.837C30.1783 10.299 30.5749 10.887 30.8409 11.601C31.1069 12.315 31.2399 13.1013 31.2399 13.96C31.2399 14.8187 31.1069 15.605 30.8409 16.319C30.5749 17.033 30.1783 17.6233 29.6509 18.09C29.1283 18.552 28.4773 18.8343 27.6979 18.937C27.4646 18.965 27.2173 18.9837 26.9559 18.993C26.6993 18.9977 26.5219 19 26.4239 19H23.3159ZM24.5969 17.81H26.4239C26.6013 17.81 26.7996 17.8053 27.0189 17.796C27.2383 17.782 27.4296 17.761 27.5929 17.733C28.1436 17.6303 28.5893 17.3993 28.9299 17.04C29.2706 16.6807 29.5203 16.2327 29.6789 15.696C29.8376 15.1593 29.9169 14.5807 29.9169 13.96C29.9169 13.3253 29.8353 12.7397 29.6719 12.203C29.5133 11.6663 29.2636 11.2207 28.9229 10.866C28.5823 10.5113 28.1389 10.285 27.5929 10.187C27.4296 10.1543 27.2359 10.1333 27.0119 10.124C26.7879 10.1147 26.5919 10.11 26.4239 10.11H24.5969V17.81ZM36.1212 19.21C35.3792 19.21 34.7306 19.0467 34.1752 18.72C33.6246 18.3887 33.1952 17.929 32.8872 17.341C32.5792 16.7483 32.4252 16.0577 32.4252 15.269C32.4252 14.443 32.5769 13.729 32.8802 13.127C33.1836 12.5203 33.6059 12.0537 34.1472 11.727C34.6932 11.3957 35.3326 11.23 36.0652 11.23C36.8259 11.23 37.4722 11.405 38.0042 11.755C38.5409 12.105 38.9422 12.6043 39.2082 13.253C39.4789 13.9017 39.5956 14.674 39.5582 15.57H38.2982V15.122C38.2842 14.1933 38.0952 13.5003 37.7312 13.043C37.3672 12.581 36.8259 12.35 36.1072 12.35C35.3372 12.35 34.7516 12.5973 34.3502 13.092C33.9489 13.5867 33.7482 14.296 33.7482 15.22C33.7482 16.1113 33.9489 16.802 34.3502 17.292C34.7516 17.782 35.3232 18.027 36.0652 18.027C36.5646 18.027 36.9986 17.9127 37.3672 17.684C37.7359 17.4553 38.0252 17.1263 38.2352 16.697L39.4322 17.11C39.1382 17.7773 38.6949 18.2953 38.1022 18.664C37.5142 19.028 36.8539 19.21 36.1212 19.21ZM33.3282 15.57V14.569H38.9142V15.57H33.3282ZM44.3836 19.21C43.6743 19.21 43.077 19.035 42.5916 18.685C42.1063 18.3303 41.7376 17.852 41.4856 17.25C41.2383 16.6433 41.1146 15.9643 41.1146 15.213C41.1146 14.4523 41.2383 13.771 41.4856 13.169C41.7376 12.567 42.1063 12.0933 42.5916 11.748C43.0816 11.4027 43.6813 11.23 44.3906 11.23C45.0906 11.23 45.6926 11.405 46.1966 11.755C46.7053 12.1003 47.095 12.574 47.3656 13.176C47.6363 13.778 47.7716 14.457 47.7716 15.213C47.7716 15.969 47.6363 16.648 47.3656 17.25C47.095 17.852 46.7053 18.3303 46.1966 18.685C45.6926 19.035 45.0883 19.21 44.3836 19.21ZM40.9046 22.36V11.44H42.0176V17.005H42.1576V22.36H40.9046ZM44.2296 18.069C44.729 18.069 45.142 17.943 45.4686 17.691C45.7953 17.439 46.0403 17.0983 46.2036 16.669C46.367 16.235 46.4486 15.7497 46.4486 15.213C46.4486 14.681 46.367 14.2003 46.2036 13.771C46.045 13.3417 45.7976 13.001 45.4616 12.749C45.1303 12.497 44.708 12.371 44.1946 12.371C43.7046 12.371 43.2986 12.4923 42.9766 12.735C42.6546 12.973 42.4143 13.3067 42.2556 13.736C42.097 14.1607 42.0176 14.653 42.0176 15.213C42.0176 15.7637 42.0946 16.256 42.2486 16.69C42.4073 17.1193 42.65 17.4577 42.9766 17.705C43.3033 17.9477 43.721 18.069 44.2296 18.069ZM51.4552 19.21C50.8905 19.21 50.4168 19.1073 50.0342 18.902C49.6562 18.692 49.3692 18.4167 49.1732 18.076C48.9818 17.7353 48.8862 17.362 48.8862 16.956C48.8862 16.5593 48.9608 16.2163 49.1102 15.927C49.2642 15.633 49.4788 15.3903 49.7542 15.199C50.0295 15.003 50.3585 14.849 50.7412 14.737C51.1005 14.639 51.5018 14.555 51.9452 14.485C52.3932 14.4103 52.8458 14.3427 53.3032 14.282C53.7605 14.2213 54.1875 14.163 54.5842 14.107L54.1362 14.366C54.1502 13.694 54.0148 13.197 53.7302 12.875C53.4502 12.553 52.9648 12.392 52.2742 12.392C51.8168 12.392 51.4155 12.497 51.0702 12.707C50.7295 12.9123 50.4892 13.2483 50.3492 13.715L49.1662 13.358C49.3482 12.6953 49.7005 12.175 50.2232 11.797C50.7458 11.419 51.4342 11.23 52.2882 11.23C52.9742 11.23 53.5622 11.3537 54.0522 11.601C54.5468 11.8437 54.9015 12.2123 55.1162 12.707C55.2235 12.9403 55.2912 13.1947 55.3192 13.47C55.3472 13.7407 55.3612 14.0253 55.3612 14.324V19H54.2552V17.187L54.5142 17.355C54.2295 17.9663 53.8305 18.4283 53.3172 18.741C52.8085 19.0537 52.1878 19.21 51.4552 19.21ZM51.6442 18.167C52.0922 18.167 52.4795 18.0877 52.8062 17.929C53.1375 17.7657 53.4035 17.5533 53.6042 17.292C53.8048 17.026 53.9355 16.7367 53.9962 16.424C54.0662 16.1907 54.1035 15.9317 54.1082 15.647C54.1175 15.3577 54.1222 15.136 54.1222 14.982L54.5562 15.171C54.1502 15.227 53.7512 15.2807 53.3592 15.332C52.9672 15.3833 52.5962 15.4393 52.2462 15.5C51.8962 15.556 51.5812 15.6237 51.3012 15.703C51.0958 15.7683 50.9022 15.8523 50.7202 15.955C50.5428 16.0577 50.3982 16.1907 50.2862 16.354C50.1788 16.5127 50.1252 16.711 50.1252 16.949C50.1252 17.1543 50.1765 17.3503 50.2792 17.537C50.3865 17.7237 50.5498 17.8753 50.7692 17.992C50.9932 18.1087 51.2848 18.167 51.6442 18.167ZM57.1812 19V11.44H58.2942V13.267L58.1122 13.029C58.2008 12.7957 58.3152 12.581 58.4552 12.385C58.5998 12.189 58.7608 12.028 58.9382 11.902C59.1342 11.7433 59.3558 11.622 59.6032 11.538C59.8505 11.454 60.1025 11.405 60.3592 11.391C60.6158 11.3723 60.8562 11.3887 61.0802 11.44V12.609C60.8188 12.539 60.5318 12.5203 60.2192 12.553C59.9065 12.5857 59.6172 12.7 59.3512 12.896C59.1085 13.0687 58.9195 13.2787 58.7842 13.526C58.6535 13.7733 58.5625 14.0417 58.5112 14.331C58.4598 14.6157 58.4342 14.9073 58.4342 15.206V19H57.1812ZM66.6248 19C66.1768 19.0887 65.7335 19.1237 65.2948 19.105C64.8608 19.091 64.4735 19.0047 64.1328 18.846C63.7922 18.6827 63.5332 18.4307 63.3558 18.09C63.2065 17.7913 63.1248 17.4903 63.1108 17.187C63.1015 16.879 63.0968 16.5313 63.0968 16.144V9.34H64.3428V16.088C64.3428 16.396 64.3452 16.6597 64.3498 16.879C64.3592 17.0983 64.4082 17.2873 64.4968 17.446C64.6648 17.7447 64.9308 17.9197 65.2948 17.971C65.6635 18.0223 66.1068 18.0083 66.6248 17.929V19ZM61.5638 12.469V11.44H66.6248V12.469H61.5638ZM71.0297 19.196C70.5444 19.196 70.1267 19.119 69.7767 18.965C69.4314 18.811 69.1444 18.6057 68.9157 18.349C68.687 18.0923 68.5074 17.8077 68.3767 17.495C68.246 17.1823 68.1527 16.8627 68.0967 16.536C68.0454 16.2093 68.0197 15.9037 68.0197 15.619V11.44H69.2797V15.227C69.2797 15.5817 69.3124 15.9247 69.3777 16.256C69.443 16.5873 69.5527 16.886 69.7067 17.152C69.8654 17.418 70.0754 17.628 70.3367 17.782C70.6027 17.936 70.934 18.013 71.3307 18.013C71.6434 18.013 71.928 17.9593 72.1847 17.852C72.4414 17.7447 72.6607 17.586 72.8427 17.376C73.0247 17.1613 73.1647 16.8907 73.2627 16.564C73.3607 16.2373 73.4097 15.857 73.4097 15.423L74.2287 15.675C74.2287 16.403 74.0957 17.0307 73.8297 17.558C73.5684 18.0853 73.1974 18.4913 72.7167 18.776C72.2407 19.056 71.6784 19.196 71.0297 19.196ZM73.5497 19V16.977H73.4097V11.44H74.6627V19H73.5497ZM76.6226 19V11.44H77.7356V13.267L77.5536 13.029C77.6422 12.7957 77.7566 12.581 77.8966 12.385C78.0412 12.189 78.2022 12.028 78.3796 11.902C78.5756 11.7433 78.7972 11.622 79.0446 11.538C79.2919 11.454 79.5439 11.405 79.8006 11.391C80.0572 11.3723 80.2976 11.3887 80.5216 11.44V12.609C80.2602 12.539 79.9732 12.5203 79.6606 12.553C79.3479 12.5857 79.0586 12.7 78.7926 12.896C78.5499 13.0687 78.3609 13.2787 78.2256 13.526C78.0949 13.7733 78.0039 14.0417 77.9526 14.331C77.9012 14.6157 77.8756 14.9073 77.8756 15.206V19H76.6226ZM84.9845 19.21C84.2425 19.21 83.5938 19.0467 83.0385 18.72C82.4878 18.3887 82.0585 17.929 81.7505 17.341C81.4425 16.7483 81.2885 16.0577 81.2885 15.269C81.2885 14.443 81.4402 13.729 81.7435 13.127C82.0468 12.5203 82.4692 12.0537 83.0105 11.727C83.5565 11.3957 84.1958 11.23 84.9285 11.23C85.6892 11.23 86.3355 11.405 86.8675 11.755C87.4042 12.105 87.8055 12.6043 88.0715 13.253C88.3422 13.9017 88.4588 14.674 88.4215 15.57H87.1615V15.122C87.1475 14.1933 86.9585 13.5003 86.5945 13.043C86.2305 12.581 85.6892 12.35 84.9705 12.35C84.2005 12.35 83.6148 12.5973 83.2135 13.092C82.8122 13.5867 82.6115 14.296 82.6115 15.22C82.6115 16.1113 82.8122 16.802 83.2135 17.292C83.6148 17.782 84.1865 18.027 84.9285 18.027C85.4278 18.027 85.8618 17.9127 86.2305 17.684C86.5992 17.4553 86.8885 17.1263 87.0985 16.697L88.2955 17.11C88.0015 17.7773 87.5582 18.2953 86.9655 18.664C86.3775 19.028 85.7172 19.21 84.9845 19.21ZM82.1915 15.57V14.569H87.7775V15.57H82.1915Z" fill="#B54708"/>
</g>
</svg>
