<svg width="40" height="40" viewBox="0 0 40 40" fill="none" xmlns="http://www.w3.org/2000/svg">
<rect width="40" height="40" rx="20" fill="#FFFAEB"/>
<path fill-rule="evenodd" clip-rule="evenodd" d="M15.8332 27.5H24.5832C25.7338 27.5 26.6665 26.5673 26.6665 25.4167V16.9764C26.6665 16.3134 26.4031 15.6775 25.9343 15.2086L23.9579 13.2322C23.489 12.7634 22.8532 12.5 22.1901 12.5H16.2498C15.0992 12.5 14.1665 13.4327 14.1665 14.5833V25.8333C14.1665 26.7538 14.9127 27.5 15.8332 27.5Z" stroke="#DC6803" stroke-width="1.5" stroke-linecap="round" stroke-linejoin="round"/>
<path d="M26.647 16.6665H23.75C23.0596 16.6665 22.5 16.1069 22.5 15.4165V12.5195" stroke="#DC6803" stroke-width="1.5" stroke-linecap="round" stroke-linejoin="round"/>
<path d="M23.3335 19.9997H20.2085" stroke="#DC6803" stroke-width="1.5" stroke-linecap="round" stroke-linejoin="round"/>
<path d="M23.3335 23.3337H20.2085" stroke="#DC6803" stroke-width="1.5" stroke-linecap="round" stroke-linejoin="round"/>
<path d="M17.5002 19.8955C17.4426 19.8955 17.396 19.9421 17.396 19.9997C17.396 20.0572 17.4426 20.1038 17.5002 20.1038C17.5577 20.1038 17.6043 20.0572 17.6043 19.9997C17.6043 19.9421 17.5577 19.8955 17.5002 19.8955" stroke="#DC6803" stroke-width="1.5" stroke-linecap="round" stroke-linejoin="round"/>
<path d="M17.5002 23.2295C17.4426 23.2295 17.396 23.2761 17.396 23.3337C17.396 23.3912 17.4426 23.4378 17.5002 23.4378C17.5577 23.4378 17.6043 23.3912 17.6043 23.3337C17.6043 23.2761 17.5577 23.2295 17.5002 23.2295" stroke="#DC6803" stroke-width="1.5" stroke-linecap="round" stroke-linejoin="round"/>
</svg>
