<svg width="94" height="28" viewBox="0 0 94 28" fill="none" xmlns="http://www.w3.org/2000/svg">
<rect width="94" height="28" rx="14" fill="#FFFAEB"/>
<circle cx="12" cy="14" r="3" fill="#F79009"/>
<path d="M23.5386 19V8.92H26.6466C26.7493 8.92 26.9289 8.92233 27.1856 8.927C27.4423 8.93167 27.6873 8.95033 27.9206 8.983C28.6999 9.08567 29.3509 9.37033 29.8736 9.837C30.4009 10.299 30.7976 10.887 31.0636 11.601C31.3296 12.315 31.4626 13.1013 31.4626 13.96C31.4626 14.8187 31.3296 15.605 31.0636 16.319C30.7976 17.033 30.4009 17.6233 29.8736 18.09C29.3509 18.552 28.6999 18.8343 27.9206 18.937C27.6873 18.965 27.4399 18.9837 27.1786 18.993C26.9219 18.9977 26.7446 19 26.6466 19H23.5386ZM24.8196 17.81H26.6466C26.8239 17.81 27.0223 17.8053 27.2416 17.796C27.4609 17.782 27.6523 17.761 27.8156 17.733C28.3663 17.6303 28.8119 17.3993 29.1526 17.04C29.4933 16.6807 29.7429 16.2327 29.9016 15.696C30.0603 15.1593 30.1396 14.5807 30.1396 13.96C30.1396 13.3253 30.0579 12.7397 29.8946 12.203C29.7359 11.6663 29.4863 11.2207 29.1456 10.866C28.8049 10.5113 28.3616 10.285 27.8156 10.187C27.6523 10.1543 27.4586 10.1333 27.2346 10.124C27.0106 10.1147 26.8146 10.11 26.6466 10.11H24.8196V17.81ZM36.3439 19.21C35.6019 19.21 34.9532 19.0467 34.3979 18.72C33.8472 18.3887 33.4179 17.929 33.1099 17.341C32.8019 16.7483 32.6479 16.0577 32.6479 15.269C32.6479 14.443 32.7996 13.729 33.1029 13.127C33.4062 12.5203 33.8286 12.0537 34.3699 11.727C34.9159 11.3957 35.5552 11.23 36.2879 11.23C37.0486 11.23 37.6949 11.405 38.2269 11.755C38.7636 12.105 39.1649 12.6043 39.4309 13.253C39.7016 13.9017 39.8182 14.674 39.7809 15.57H38.5209V15.122C38.5069 14.1933 38.3179 13.5003 37.9539 13.043C37.5899 12.581 37.0486 12.35 36.3299 12.35C35.5599 12.35 34.9742 12.5973 34.5729 13.092C34.1716 13.5867 33.9709 14.296 33.9709 15.22C33.9709 16.1113 34.1716 16.802 34.5729 17.292C34.9742 17.782 35.5459 18.027 36.2879 18.027C36.7872 18.027 37.2212 17.9127 37.5899 17.684C37.9586 17.4553 38.2479 17.1263 38.4579 16.697L39.6549 17.11C39.3609 17.7773 38.9176 18.2953 38.3249 18.664C37.7369 19.028 37.0766 19.21 36.3439 19.21ZM33.5509 15.57V14.569H39.1369V15.57H33.5509ZM44.6063 19.21C43.897 19.21 43.2996 19.035 42.8143 18.685C42.329 18.3303 41.9603 17.852 41.7083 17.25C41.461 16.6433 41.3373 15.9643 41.3373 15.213C41.3373 14.4523 41.461 13.771 41.7083 13.169C41.9603 12.567 42.329 12.0933 42.8143 11.748C43.3043 11.4027 43.904 11.23 44.6133 11.23C45.3133 11.23 45.9153 11.405 46.4193 11.755C46.928 12.1003 47.3176 12.574 47.5883 13.176C47.859 13.778 47.9943 14.457 47.9943 15.213C47.9943 15.969 47.859 16.648 47.5883 17.25C47.3176 17.852 46.928 18.3303 46.4193 18.685C45.9153 19.035 45.311 19.21 44.6063 19.21ZM41.1273 22.36V11.44H42.2403V17.005H42.3803V22.36H41.1273ZM44.4523 18.069C44.9516 18.069 45.3646 17.943 45.6913 17.691C46.018 17.439 46.263 17.0983 46.4263 16.669C46.5896 16.235 46.6713 15.7497 46.6713 15.213C46.6713 14.681 46.5896 14.2003 46.4263 13.771C46.2676 13.3417 46.0203 13.001 45.6843 12.749C45.353 12.497 44.9306 12.371 44.4173 12.371C43.9273 12.371 43.5213 12.4923 43.1993 12.735C42.8773 12.973 42.637 13.3067 42.4783 13.736C42.3196 14.1607 42.2403 14.653 42.2403 15.213C42.2403 15.7637 42.3173 16.256 42.4713 16.69C42.63 17.1193 42.8726 17.4577 43.1993 17.705C43.526 17.9477 43.9436 18.069 44.4523 18.069ZM51.6778 19.21C51.1132 19.21 50.6395 19.1073 50.2568 18.902C49.8788 18.692 49.5918 18.4167 49.3958 18.076C49.2045 17.7353 49.1088 17.362 49.1088 16.956C49.1088 16.5593 49.1835 16.2163 49.3328 15.927C49.4868 15.633 49.7015 15.3903 49.9768 15.199C50.2522 15.003 50.5812 14.849 50.9638 14.737C51.3232 14.639 51.7245 14.555 52.1678 14.485C52.6158 14.4103 53.0685 14.3427 53.5258 14.282C53.9832 14.2213 54.4102 14.163 54.8068 14.107L54.3588 14.366C54.3728 13.694 54.2375 13.197 53.9528 12.875C53.6728 12.553 53.1875 12.392 52.4968 12.392C52.0395 12.392 51.6382 12.497 51.2928 12.707C50.9522 12.9123 50.7118 13.2483 50.5718 13.715L49.3888 13.358C49.5708 12.6953 49.9232 12.175 50.4458 11.797C50.9685 11.419 51.6568 11.23 52.5108 11.23C53.1968 11.23 53.7848 11.3537 54.2748 11.601C54.7695 11.8437 55.1242 12.2123 55.3388 12.707C55.4462 12.9403 55.5138 13.1947 55.5418 13.47C55.5698 13.7407 55.5838 14.0253 55.5838 14.324V19H54.4778V17.187L54.7368 17.355C54.4522 17.9663 54.0532 18.4283 53.5398 18.741C53.0312 19.0537 52.4105 19.21 51.6778 19.21ZM51.8668 18.167C52.3148 18.167 52.7022 18.0877 53.0288 17.929C53.3602 17.7657 53.6262 17.5533 53.8268 17.292C54.0275 17.026 54.1582 16.7367 54.2188 16.424C54.2888 16.1907 54.3262 15.9317 54.3308 15.647C54.3402 15.3577 54.3448 15.136 54.3448 14.982L54.7788 15.171C54.3728 15.227 53.9738 15.2807 53.5818 15.332C53.1898 15.3833 52.8188 15.4393 52.4688 15.5C52.1188 15.556 51.8038 15.6237 51.5238 15.703C51.3185 15.7683 51.1248 15.8523 50.9428 15.955C50.7655 16.0577 50.6208 16.1907 50.5088 16.354C50.4015 16.5127 50.3478 16.711 50.3478 16.949C50.3478 17.1543 50.3992 17.3503 50.5018 17.537C50.6092 17.7237 50.7725 17.8753 50.9918 17.992C51.2158 18.1087 51.5075 18.167 51.8668 18.167ZM61.6248 19C61.1768 19.0887 60.7335 19.1237 60.2948 19.105C59.8608 19.091 59.4735 19.0047 59.1328 18.846C58.7922 18.6827 58.5332 18.4307 58.3558 18.09C58.2065 17.7913 58.1248 17.4903 58.1108 17.187C58.1015 16.879 58.0968 16.5313 58.0968 16.144V9.34H59.3428V16.088C59.3428 16.396 59.3452 16.6597 59.3498 16.879C59.3592 17.0983 59.4082 17.2873 59.4968 17.446C59.6648 17.7447 59.9308 17.9197 60.2948 17.971C60.6635 18.0223 61.1068 18.0083 61.6248 17.929V19ZM56.5638 12.469V11.44H61.6248V12.469H56.5638ZM66.0297 19.196C65.5444 19.196 65.1267 19.119 64.7767 18.965C64.4314 18.811 64.1444 18.6057 63.9157 18.349C63.687 18.0923 63.5074 17.8077 63.3767 17.495C63.246 17.1823 63.1527 16.8627 63.0967 16.536C63.0454 16.2093 63.0197 15.9037 63.0197 15.619V11.44H64.2797V15.227C64.2797 15.5817 64.3124 15.9247 64.3777 16.256C64.443 16.5873 64.5527 16.886 64.7067 17.152C64.8654 17.418 65.0754 17.628 65.3367 17.782C65.6027 17.936 65.934 18.013 66.3307 18.013C66.6434 18.013 66.928 17.9593 67.1847 17.852C67.4414 17.7447 67.6607 17.586 67.8427 17.376C68.0247 17.1613 68.1647 16.8907 68.2627 16.564C68.3607 16.2373 68.4097 15.857 68.4097 15.423L69.2287 15.675C69.2287 16.403 69.0957 17.0307 68.8297 17.558C68.5684 18.0853 68.1974 18.4913 67.7167 18.776C67.2407 19.056 66.6784 19.196 66.0297 19.196ZM68.5497 19V16.977H68.4097V11.44H69.6627V19H68.5497ZM71.6226 19V11.44H72.7356V13.267L72.5536 13.029C72.6422 12.7957 72.7566 12.581 72.8966 12.385C73.0412 12.189 73.2022 12.028 73.3796 11.902C73.5756 11.7433 73.7972 11.622 74.0446 11.538C74.2919 11.454 74.5439 11.405 74.8006 11.391C75.0572 11.3723 75.2976 11.3887 75.5216 11.44V12.609C75.2602 12.539 74.9732 12.5203 74.6606 12.553C74.3479 12.5857 74.0586 12.7 73.7926 12.896C73.5499 13.0687 73.3609 13.2787 73.2256 13.526C73.0949 13.7733 73.0039 14.0417 72.9526 14.331C72.9012 14.6157 72.8756 14.9073 72.8756 15.206V19H71.6226ZM79.9845 19.21C79.2425 19.21 78.5938 19.0467 78.0385 18.72C77.4878 18.3887 77.0585 17.929 76.7505 17.341C76.4425 16.7483 76.2885 16.0577 76.2885 15.269C76.2885 14.443 76.4402 13.729 76.7435 13.127C77.0468 12.5203 77.4692 12.0537 78.0105 11.727C78.5565 11.3957 79.1958 11.23 79.9285 11.23C80.6892 11.23 81.3355 11.405 81.8675 11.755C82.4042 12.105 82.8055 12.6043 83.0715 13.253C83.3422 13.9017 83.4588 14.674 83.4215 15.57H82.1615V15.122C82.1475 14.1933 81.9585 13.5003 81.5945 13.043C81.2305 12.581 80.6892 12.35 79.9705 12.35C79.2005 12.35 78.6148 12.5973 78.2135 13.092C77.8122 13.5867 77.6115 14.296 77.6115 15.22C77.6115 16.1113 77.8122 16.802 78.2135 17.292C78.6148 17.782 79.1865 18.027 79.9285 18.027C80.4278 18.027 80.8618 17.9127 81.2305 17.684C81.5992 17.4553 81.8885 17.1263 82.0985 16.697L83.2955 17.11C83.0015 17.7773 82.5582 18.2953 81.9655 18.664C81.3775 19.028 80.7172 19.21 79.9845 19.21ZM77.1915 15.57V14.569H82.7775V15.57H77.1915Z" fill="#B54708"/>
</svg>
