<svg width="101" height="26" viewBox="0 0 101 26" fill="none" xmlns="http://www.w3.org/2000/svg">
<path d="M0 12C0 5.37258 5.37258 0 12 0H101V14C101 20.6274 95.6274 26 89 26H0V12Z" fill="#FFFAEB"/>
<path fill-rule="evenodd" clip-rule="evenodd" d="M16.0833 18.25H22.2083C23.0137 18.25 23.6667 17.5971 23.6667 16.7917V10.8835C23.6667 10.4193 23.4823 9.97423 23.1541 9.64604L21.7706 8.26256C21.4424 7.93437 20.9973 7.75 20.5332 7.75H16.375C15.5696 7.75 14.9167 8.40292 14.9167 9.20833V17.0833C14.9167 17.7277 15.439 18.25 16.0833 18.25Z" stroke="#DC6803" stroke-width="1.2" stroke-linecap="round" stroke-linejoin="round"/>
<path d="M23.6529 10.6666H21.625C21.1418 10.6666 20.75 10.2748 20.75 9.79156V7.76367" stroke="#DC6803" stroke-width="1.2" stroke-linecap="round" stroke-linejoin="round"/>
<path d="M21.3333 13.0002H19.1458" stroke="#DC6803" stroke-width="1.2" stroke-linecap="round" stroke-linejoin="round"/>
<path d="M21.3333 15.3332H19.1458" stroke="#DC6803" stroke-width="1.2" stroke-linecap="round" stroke-linejoin="round"/>
<path d="M17.25 12.9272C17.2097 12.9272 17.1771 12.9599 17.1771 13.0002C17.1771 13.0404 17.2097 13.0731 17.25 13.0731C17.2903 13.0731 17.3229 13.0404 17.3229 13.0002C17.3229 12.9599 17.2903 12.9272 17.25 12.9272" stroke="#DC6803" stroke-width="1.2" stroke-linecap="round" stroke-linejoin="round"/>
<path d="M17.25 15.2603C17.2097 15.2603 17.1771 15.2929 17.1771 15.3332C17.1771 15.3734 17.2097 15.4061 17.25 15.4061C17.2903 15.4061 17.3229 15.3734 17.3229 15.3332C17.3229 15.2929 17.2903 15.2603 17.25 15.2603" stroke="#DC6803" stroke-width="1.2" stroke-linecap="round" stroke-linejoin="round"/>
<path d="M31.6564 18V9.36H34.3624C34.4424 9.36 34.5904 9.362 34.8064 9.366C35.0264 9.37 35.2364 9.386 35.4364 9.414C36.1124 9.498 36.6804 9.74 37.1404 10.14C37.6044 10.54 37.9544 11.048 38.1904 11.664C38.4264 12.276 38.5444 12.948 38.5444 13.68C38.5444 14.416 38.4264 15.092 38.1904 15.708C37.9544 16.32 37.6044 16.826 37.1404 17.226C36.6804 17.622 36.1124 17.862 35.4364 17.946C35.2364 17.974 35.0264 17.99 34.8064 17.994C34.5904 17.998 34.4424 18 34.3624 18H31.6564ZM32.9404 16.806H34.3624C34.4984 16.806 34.6604 16.802 34.8484 16.794C35.0364 16.786 35.2024 16.77 35.3464 16.746C35.7864 16.662 36.1424 16.472 36.4144 16.176C36.6904 15.876 36.8924 15.508 37.0204 15.072C37.1484 14.636 37.2124 14.172 37.2124 13.68C37.2124 13.172 37.1464 12.702 37.0144 12.27C36.8824 11.834 36.6784 11.47 36.4024 11.178C36.1304 10.882 35.7784 10.694 35.3464 10.614C35.2024 10.586 35.0344 10.57 34.8424 10.566C34.6544 10.558 34.4944 10.554 34.3624 10.554H32.9404V16.806ZM42.8156 18.18C42.1716 18.18 41.6056 18.04 41.1176 17.76C40.6336 17.476 40.2556 17.082 39.9836 16.578C39.7156 16.07 39.5816 15.482 39.5816 14.814C39.5816 14.106 39.7136 13.492 39.9776 12.972C40.2456 12.452 40.6176 12.05 41.0936 11.766C41.5696 11.482 42.1236 11.34 42.7556 11.34C43.4156 11.34 43.9776 11.494 44.4416 11.802C44.9056 12.106 45.2516 12.54 45.4796 13.104C45.7116 13.668 45.8036 14.338 45.7556 15.114H44.5016V14.658C44.4936 13.906 44.3496 13.35 44.0696 12.99C43.7936 12.63 43.3716 12.45 42.8036 12.45C42.1756 12.45 41.7036 12.648 41.3876 13.044C41.0716 13.44 40.9136 14.012 40.9136 14.76C40.9136 15.472 41.0716 16.024 41.3876 16.416C41.7036 16.804 42.1596 16.998 42.7556 16.998C43.1476 16.998 43.4856 16.91 43.7696 16.734C44.0576 16.554 44.2816 16.298 44.4416 15.966L45.6716 16.356C45.4196 16.936 45.0376 17.386 44.5256 17.706C44.0136 18.022 43.4436 18.18 42.8156 18.18ZM40.5056 15.114V14.136H45.1316V15.114H40.5056ZM49.9679 18.18C49.3479 18.18 48.8279 18.03 48.4079 17.73C47.9879 17.426 47.6699 17.016 47.4539 16.5C47.2379 15.984 47.1299 15.402 47.1299 14.754C47.1299 14.106 47.2359 13.524 47.4479 13.008C47.6639 12.492 47.9799 12.086 48.3959 11.79C48.8159 11.49 49.3319 11.34 49.9439 11.34C50.5519 11.34 51.0759 11.49 51.5159 11.79C51.9599 12.086 52.3019 12.492 52.5419 13.008C52.7819 13.52 52.9019 14.102 52.9019 14.754C52.9019 15.402 52.7819 15.986 52.5419 16.506C52.3059 17.022 51.9679 17.43 51.5279 17.73C51.0919 18.03 50.5719 18.18 49.9679 18.18ZM46.9199 20.88V11.52H48.0359V16.182H48.1799V20.88H46.9199ZM49.7939 17.046C50.1939 17.046 50.5239 16.944 50.7839 16.74C51.0479 16.536 51.2439 16.262 51.3719 15.918C51.5039 15.57 51.5699 15.182 51.5699 14.754C51.5699 14.33 51.5039 13.946 51.3719 13.602C51.2439 13.258 51.0459 12.984 50.7779 12.78C50.5099 12.576 50.1679 12.474 49.7519 12.474C49.3599 12.474 49.0359 12.57 48.7799 12.762C48.5279 12.954 48.3399 13.222 48.2159 13.566C48.0959 13.91 48.0359 14.306 48.0359 14.754C48.0359 15.202 48.0959 15.598 48.2159 15.942C48.3359 16.286 48.5259 16.556 48.7859 16.752C49.0459 16.948 49.3819 17.046 49.7939 17.046ZM56.0567 18.18C55.5767 18.18 55.1747 18.092 54.8507 17.916C54.5267 17.736 54.2807 17.5 54.1127 17.208C53.9487 16.912 53.8667 16.588 53.8667 16.236C53.8667 15.908 53.9247 15.62 54.0407 15.372C54.1567 15.124 54.3287 14.914 54.5567 14.742C54.7847 14.566 55.0647 14.424 55.3967 14.316C55.6847 14.232 56.0107 14.158 56.3747 14.094C56.7387 14.03 57.1207 13.97 57.5207 13.914C57.9247 13.858 58.3247 13.802 58.7207 13.746L58.2647 13.998C58.2727 13.49 58.1647 13.114 57.9407 12.87C57.7207 12.622 57.3407 12.498 56.8007 12.498C56.4607 12.498 56.1487 12.578 55.8647 12.738C55.5807 12.894 55.3827 13.154 55.2707 13.518L54.1007 13.158C54.2607 12.602 54.5647 12.16 55.0127 11.832C55.4647 11.504 56.0647 11.34 56.8127 11.34C57.3927 11.34 57.8967 11.44 58.3247 11.64C58.7567 11.836 59.0727 12.148 59.2727 12.576C59.3767 12.788 59.4407 13.012 59.4647 13.248C59.4887 13.484 59.5007 13.738 59.5007 14.01V18H58.3907V16.518L58.6067 16.71C58.3387 17.206 57.9967 17.576 57.5807 17.82C57.1687 18.06 56.6607 18.18 56.0567 18.18ZM56.2787 17.154C56.6347 17.154 56.9407 17.092 57.1967 16.968C57.4527 16.84 57.6587 16.678 57.8147 16.482C57.9707 16.286 58.0727 16.082 58.1207 15.87C58.1887 15.678 58.2267 15.462 58.2347 15.222C58.2467 14.982 58.2527 14.79 58.2527 14.646L58.6607 14.796C58.2647 14.856 57.9047 14.91 57.5807 14.958C57.2567 15.006 56.9627 15.054 56.6987 15.102C56.4387 15.146 56.2067 15.2 56.0027 15.264C55.8307 15.324 55.6767 15.396 55.5407 15.48C55.4087 15.564 55.3027 15.666 55.2227 15.786C55.1467 15.906 55.1087 16.052 55.1087 16.224C55.1087 16.392 55.1507 16.548 55.2347 16.692C55.3187 16.832 55.4467 16.944 55.6187 17.028C55.7907 17.112 56.0107 17.154 56.2787 17.154ZM61.0588 18V11.52H62.1748V13.092L62.0188 12.888C62.0988 12.68 62.2028 12.49 62.3308 12.318C62.4588 12.142 62.6068 11.998 62.7748 11.886C62.9388 11.766 63.1208 11.674 63.3208 11.61C63.5248 11.542 63.7328 11.502 63.9448 11.49C64.1568 11.474 64.3608 11.484 64.5568 11.52V12.696C64.3448 12.64 64.1088 12.624 63.8488 12.648C63.5928 12.672 63.3568 12.754 63.1408 12.894C62.9368 13.026 62.7748 13.186 62.6548 13.374C62.5388 13.562 62.4548 13.772 62.4028 14.004C62.3508 14.232 62.3248 14.474 62.3248 14.73V18H61.0588ZM69.4074 18C68.9994 18.08 68.5994 18.114 68.2074 18.102C67.8154 18.09 67.4654 18.014 67.1574 17.874C66.8494 17.734 66.6174 17.514 66.4614 17.214C66.3214 16.946 66.2454 16.674 66.2334 16.398C66.2254 16.118 66.2214 15.802 66.2214 15.45V9.72H67.4814V15.39C67.4814 15.65 67.4834 15.876 67.4874 16.068C67.4954 16.26 67.5374 16.422 67.6134 16.554C67.7574 16.802 67.9854 16.944 68.2974 16.98C68.6134 17.012 68.9834 16.998 69.4074 16.938V18ZM64.9794 12.528V11.52H69.4074V12.528H64.9794ZM73.2156 18.174C72.7676 18.174 72.3916 18.102 72.0876 17.958C71.7836 17.814 71.5356 17.626 71.3436 17.394C71.1556 17.158 71.0116 16.902 70.9116 16.626C70.8116 16.35 70.7436 16.08 70.7076 15.816C70.6716 15.552 70.6536 15.32 70.6536 15.12V11.52H71.9256V14.706C71.9256 14.958 71.9456 15.218 71.9856 15.486C72.0296 15.75 72.1096 15.996 72.2256 16.224C72.3456 16.452 72.5116 16.636 72.7236 16.776C72.9396 16.916 73.2196 16.986 73.5636 16.986C73.7876 16.986 73.9996 16.95 74.1996 16.878C74.3996 16.802 74.5736 16.682 74.7216 16.518C74.8736 16.354 74.9916 16.138 75.0756 15.87C75.1636 15.602 75.2076 15.276 75.2076 14.892L75.9876 15.186C75.9876 15.774 75.8776 16.294 75.6576 16.746C75.4376 17.194 75.1216 17.544 74.7096 17.796C74.2976 18.048 73.7996 18.174 73.2156 18.174ZM75.3576 18V16.128H75.2076V11.52H76.4736V18H75.3576ZM78.1564 18V11.52H79.2724V13.092L79.1164 12.888C79.1964 12.68 79.3004 12.49 79.4284 12.318C79.5564 12.142 79.7044 11.998 79.8724 11.886C80.0364 11.766 80.2184 11.674 80.4184 11.61C80.6224 11.542 80.8304 11.502 81.0424 11.49C81.2544 11.474 81.4584 11.484 81.6544 11.52V12.696C81.4424 12.64 81.2064 12.624 80.9464 12.648C80.6904 12.672 80.4544 12.754 80.2384 12.894C80.0344 13.026 79.8724 13.186 79.7524 13.374C79.6364 13.562 79.5524 13.772 79.5004 14.004C79.4484 14.232 79.4224 14.474 79.4224 14.73V18H78.1564ZM85.5538 18.18C84.9098 18.18 84.3438 18.04 83.8558 17.76C83.3718 17.476 82.9938 17.082 82.7218 16.578C82.4538 16.07 82.3198 15.482 82.3198 14.814C82.3198 14.106 82.4518 13.492 82.7158 12.972C82.9838 12.452 83.3558 12.05 83.8318 11.766C84.3078 11.482 84.8618 11.34 85.4938 11.34C86.1538 11.34 86.7158 11.494 87.1798 11.802C87.6438 12.106 87.9898 12.54 88.2178 13.104C88.4498 13.668 88.5418 14.338 88.4938 15.114H87.2398V14.658C87.2318 13.906 87.0878 13.35 86.8078 12.99C86.5318 12.63 86.1098 12.45 85.5418 12.45C84.9138 12.45 84.4418 12.648 84.1258 13.044C83.8098 13.44 83.6518 14.012 83.6518 14.76C83.6518 15.472 83.8098 16.024 84.1258 16.416C84.4418 16.804 84.8978 16.998 85.4938 16.998C85.8858 16.998 86.2238 16.91 86.5078 16.734C86.7958 16.554 87.0198 16.298 87.1798 15.966L88.4098 16.356C88.1578 16.936 87.7758 17.386 87.2638 17.706C86.7518 18.022 86.1818 18.18 85.5538 18.18ZM83.2438 15.114V14.136H87.8698V15.114H83.2438Z" fill="#DC6803"/>
</svg>
