<svg width="36" height="36" viewBox="0 0 36 36" fill="none" xmlns="http://www.w3.org/2000/svg">
<rect x="0.799805" width="35.2" height="35.2" rx="17.6" fill="#F9FAFB"/>
<path d="M23.6021 17.6004C23.6021 17.8214 23.4229 18.0005 23.2019 18.0005C22.9809 18.0005 22.8018 17.8214 22.8018 17.6004C22.8018 17.3794 22.9809 17.2002 23.2019 17.2002C23.4229 17.2002 23.6021 17.3794 23.6021 17.6004" stroke="#475467" stroke-width="1.2" stroke-linecap="round" stroke-linejoin="round"/>
<path d="M18.7998 17.6004C18.7998 17.8214 18.6207 18.0005 18.3997 18.0005C18.1787 18.0005 17.9995 17.8214 17.9995 17.6004C17.9995 17.3794 18.1787 17.2002 18.3997 17.2002C18.6207 17.2002 18.7998 17.3794 18.7998 17.6004" stroke="#475467" stroke-width="1.2" stroke-linecap="round" stroke-linejoin="round"/>
<path d="M13.9981 17.6004C13.9981 17.8214 13.8189 18.0005 13.5979 18.0005C13.3769 18.0005 13.1978 17.8214 13.1978 17.6004C13.1978 17.3794 13.3769 17.2002 13.5979 17.2002C13.8189 17.2002 13.9981 17.3794 13.9981 17.6004" stroke="#475467" stroke-width="1.2" stroke-linecap="round" stroke-linejoin="round"/>
</svg>
