<svg width="20" height="20" viewBox="0 0 20 20" fill="none" xmlns="http://www.w3.org/2000/svg">
<path d="M17.5 10.8898V15.8107C17.5 16.744 16.7492 17.5007 15.8225 17.5007H4.1775C3.25083 17.5007 2.5 16.744 2.5 15.8107V5.02398C2.5 4.09065 3.25083 3.33398 4.1775 3.33398H10" stroke="#1570EF" stroke-width="1.5" stroke-linecap="round" stroke-linejoin="round"/>
<path d="M6.52344 14.3104L9.6326 13.5329C9.77927 13.4963 9.9126 13.4204 10.0201 13.3138L17.0118 6.32211C17.6626 5.67128 17.6626 4.61628 17.0118 3.96544L16.8684 3.82211C16.2176 3.17128 15.1626 3.17128 14.5118 3.82211L7.5201 10.8138C7.41344 10.9204 7.3376 11.0546 7.30094 11.2013L6.52344 14.3104" stroke="#1570EF" stroke-width="1.5" stroke-linecap="round" stroke-linejoin="round"/>
<path d="M13.1917 5.14258L15.6917 7.64258" stroke="#1570EF" stroke-width="1.5" stroke-linecap="round" stroke-linejoin="round"/>
<path d="M9.62177 13.5364C9.63344 13.448 9.64844 13.3605 9.64844 13.2689C9.64844 12.118 8.71594 11.1855 7.56511 11.1855C7.47344 11.1855 7.38594 11.2014 7.29761 11.2122" stroke="#1570EF" stroke-width="1.5" stroke-linecap="round" stroke-linejoin="round"/>
</svg>
