<svg width="128" height="121" viewBox="0 0 128 121" fill="none" xmlns="http://www.w3.org/2000/svg">
<path d="M54.1246 120.596C83.848 120.596 107.943 116.073 107.943 110.494C107.943 104.914 83.848 100.392 54.1246 100.392C24.4013 100.392 0.305786 104.914 0.305786 110.494C0.305786 116.073 24.4013 120.596 54.1246 120.596Z" fill="#E4E7EC" fill-opacity="0.72"/>
<path fill-rule="evenodd" clip-rule="evenodd" d="M97.1793 80.8167L78.187 57.3358C77.2757 56.2306 75.9437 55.5615 74.541 55.5615H33.7067C32.3048 55.5615 30.9728 56.2306 30.0615 57.3358L11.0701 80.8167V93.0838H97.1801V80.8167H97.1793Z" fill="#AEB8C2"/>
<path fill-rule="evenodd" clip-rule="evenodd" d="M27.1608 25.2549H81.0876C81.9297 25.2549 82.7374 25.5909 83.3329 26.1892C83.9283 26.7874 84.2629 27.5987 84.2629 28.4447V102.882C84.2629 103.728 83.9283 104.539 83.3329 105.137C82.7374 105.735 81.9297 106.071 81.0876 106.071H27.1608C26.3186 106.071 25.511 105.735 24.9155 105.137C24.32 104.539 23.9855 103.728 23.9855 102.882V28.4447C23.9855 27.5987 24.32 26.7874 24.9155 26.1892C25.511 25.5909 26.3186 25.2549 27.1608 25.2549V25.2549Z" fill="white"/>
<path fill-rule="evenodd" clip-rule="evenodd" d="M34.1846 33.1914H74.0639C74.4849 33.1914 74.8888 33.3594 75.1865 33.6585C75.4843 33.9576 75.6515 34.3633 75.6515 34.7863V54.6882C75.6515 55.1112 75.4843 55.5169 75.1865 55.816C74.8888 56.1151 74.4849 56.2831 74.0639 56.2831H34.1846C33.7635 56.2831 33.3597 56.1151 33.0619 55.816C32.7642 55.5169 32.5969 55.1112 32.5969 54.6882V34.7863C32.5969 34.3633 32.7642 33.9576 33.0619 33.6585C33.3597 33.3594 33.7635 33.1914 34.1846 33.1914ZM34.3925 64.941H73.8559C74.3321 64.941 74.7888 65.1311 75.1256 65.4693C75.4623 65.8076 75.6515 66.2664 75.6515 66.7448C75.6515 67.2232 75.4623 67.6821 75.1256 68.0203C74.7888 68.3586 74.3321 68.5487 73.8559 68.5487H34.3925C33.9163 68.5487 33.4596 68.3586 33.1228 68.0203C32.7861 67.6821 32.5969 67.2232 32.5969 66.7448C32.5969 66.2664 32.7861 65.8076 33.1228 65.4693C33.4596 65.1311 33.9163 64.941 34.3925 64.941ZM34.3925 74.3214H73.8559C74.3322 74.3214 74.7891 74.5115 75.1259 74.8498C75.4627 75.1882 75.6519 75.6471 75.6519 76.1256C75.6519 76.6041 75.4627 77.063 75.1259 77.4014C74.7891 77.7398 74.3322 77.9298 73.8559 77.9298H34.3925C33.9162 77.9298 33.4594 77.7398 33.1226 77.4014C32.7857 77.063 32.5965 76.6041 32.5965 76.1256C32.5965 75.6471 32.7857 75.1882 33.1226 74.8498C33.4594 74.5115 33.9162 74.3214 34.3925 74.3214ZM97.0038 109.012C96.3886 111.461 94.2278 113.286 91.6574 113.286H16.591C14.0206 113.286 11.8599 111.46 11.2454 109.012C11.1283 108.545 11.0691 108.066 11.0692 107.585V80.8166H31.9611C34.2687 80.8166 36.1286 82.7688 36.1286 85.1388V85.1707C36.1286 87.5399 38.01 89.453 40.3176 89.453H67.9308C70.2384 89.453 72.1198 87.5223 72.1198 85.1523V85.1428C72.1198 82.7727 73.9797 80.8158 76.2874 80.8158H97.1792V107.585C97.1792 108.077 97.1181 108.555 97.0038 109.012Z" fill="#DCE0E6"/>
<path fill-rule="evenodd" clip-rule="evenodd" d="M99.6298 26.5486L94.208 28.6619C94.0687 28.7163 93.917 28.7301 93.7702 28.7017C93.6235 28.6733 93.4877 28.6039 93.3785 28.5015C93.2693 28.399 93.191 28.2676 93.1528 28.1225C93.1146 27.9773 93.118 27.8243 93.1625 27.681L94.7002 22.7313C92.645 20.3836 91.4384 17.5207 91.4384 14.4314C91.4384 6.46093 99.4703 0 109.379 0C119.285 0 127.318 6.46093 127.318 14.4314C127.318 22.4019 119.286 28.8628 109.378 28.8628C105.784 28.8628 102.437 28.0128 99.6298 26.5486Z" fill="#D0D5DD"/>
<path d="M116.445 17.0375C117.694 17.0375 118.707 16.0324 118.707 14.7927C118.707 13.5529 117.694 12.5479 116.445 12.5479C115.196 12.5479 114.184 13.5529 114.184 14.7927C114.184 16.0324 115.196 17.0375 116.445 17.0375Z" fill="white"/>
<path fill-rule="evenodd" clip-rule="evenodd" d="M104.573 16.7564H100.05L102.35 12.8281L104.573 16.7564ZM107.4 12.8281H111.357V16.7564H107.4V12.8281Z" fill="white"/>
</svg>
