<svg width="41" height="40" viewBox="0 0 41 40" fill="none" xmlns="http://www.w3.org/2000/svg">
<rect x="0.399902" width="40" height="40" rx="20" fill="#ED7B84" fill-opacity="0.12"/>
<path fill-rule="evenodd" clip-rule="evenodd" d="M16.2332 27.5H24.9832C26.1338 27.5 27.0665 26.5673 27.0665 25.4167V16.9764C27.0665 16.3134 26.8031 15.6775 26.3343 15.2086L24.3579 13.2322C23.8891 12.7634 23.2532 12.5 22.5901 12.5H16.6499C15.4993 12.5 14.5665 13.4327 14.5665 14.5833V25.8333C14.5665 26.7538 15.3127 27.5 16.2332 27.5Z" stroke="#ED7B84" stroke-width="1.5" stroke-linecap="round" stroke-linejoin="round"/>
<path d="M27.0469 16.6668H24.1499C23.4595 16.6668 22.8999 16.1071 22.8999 15.4168V12.5198" stroke="#ED7B84" stroke-width="1.5" stroke-linecap="round" stroke-linejoin="round"/>
<path d="M23.7333 19.9999H20.6083" stroke="#ED7B84" stroke-width="1.5" stroke-linecap="round" stroke-linejoin="round"/>
<path d="M23.7333 23.3334H20.6083" stroke="#ED7B84" stroke-width="1.5" stroke-linecap="round" stroke-linejoin="round"/>
<path d="M17.8999 19.8958C17.8424 19.8958 17.7958 19.9424 17.7958 19.9999C17.7958 20.0574 17.8424 20.1041 17.8999 20.1041C17.9575 20.1041 18.0041 20.0574 18.0041 19.9999C18.0041 19.9424 17.9575 19.8958 17.8999 19.8958" stroke="#ED7B84" stroke-width="1.5" stroke-linecap="round" stroke-linejoin="round"/>
<path d="M17.8999 23.2292C17.8424 23.2292 17.7958 23.2759 17.7958 23.3334C17.7958 23.3909 17.8424 23.4376 17.8999 23.4376C17.9575 23.4376 18.0041 23.3909 18.0041 23.3334C18.0041 23.2759 17.9575 23.2292 17.8999 23.2292" stroke="#ED7B84" stroke-width="1.5" stroke-linecap="round" stroke-linejoin="round"/>
</svg>
