<svg width="97" height="26" viewBox="0 0 97 26" fill="none" xmlns="http://www.w3.org/2000/svg">
<path d="M0 12C0 5.37258 5.37258 0 12 0H97V14C97 20.6274 91.6274 26 85 26H0V12Z" fill="#FDF2F2"/>
<path fill-rule="evenodd" clip-rule="evenodd" d="M16.0833 18.25H22.2083C23.0137 18.25 23.6667 17.5971 23.6667 16.7917V10.8835C23.6667 10.4193 23.4823 9.97423 23.1541 9.64604L21.7706 8.26256C21.4424 7.93437 20.9973 7.75 20.5332 7.75H16.375C15.5696 7.75 14.9167 8.40292 14.9167 9.20833V17.0833C14.9167 17.7277 15.439 18.25 16.0833 18.25Z" stroke="#ED7B84" stroke-width="1.2" stroke-linecap="round" stroke-linejoin="round"/>
<path d="M23.6529 10.6666H21.625C21.1418 10.6666 20.75 10.2748 20.75 9.79156V7.76367" stroke="#ED7B84" stroke-width="1.2" stroke-linecap="round" stroke-linejoin="round"/>
<path d="M21.3333 13.0002H19.1458" stroke="#ED7B84" stroke-width="1.2" stroke-linecap="round" stroke-linejoin="round"/>
<path d="M21.3333 15.3332H19.1458" stroke="#ED7B84" stroke-width="1.2" stroke-linecap="round" stroke-linejoin="round"/>
<path d="M17.25 12.9272C17.2097 12.9272 17.1771 12.9599 17.1771 13.0002C17.1771 13.0404 17.2097 13.0731 17.25 13.0731C17.2903 13.0731 17.3229 13.0404 17.3229 13.0002C17.3229 12.9599 17.2903 12.9272 17.25 12.9272" stroke="#ED7B84" stroke-width="1.2" stroke-linecap="round" stroke-linejoin="round"/>
<path d="M17.25 15.2603C17.2097 15.2603 17.1771 15.2929 17.1771 15.3332C17.1771 15.3734 17.2097 15.4061 17.25 15.4061C17.2903 15.4061 17.3229 15.3734 17.3229 15.3332C17.3229 15.2929 17.2903 15.2603 17.25 15.2603" stroke="#ED7B84" stroke-width="1.2" stroke-linecap="round" stroke-linejoin="round"/>
<path d="M31.0108 18V9.36H32.2648V18H31.0108ZM38.6146 18V14.814C38.6146 14.562 38.5926 14.304 38.5486 14.04C38.5086 13.772 38.4286 13.524 38.3086 13.296C38.1926 13.068 38.0266 12.884 37.8106 12.744C37.5986 12.604 37.3206 12.534 36.9766 12.534C36.7526 12.534 36.5406 12.572 36.3406 12.648C36.1406 12.72 35.9646 12.838 35.8126 13.002C35.6646 13.166 35.5466 13.382 35.4586 13.65C35.3746 13.918 35.3326 14.244 35.3326 14.628L34.5526 14.334C34.5526 13.746 34.6626 13.228 34.8826 12.78C35.1026 12.328 35.4186 11.976 35.8306 11.724C36.2426 11.472 36.7406 11.346 37.3246 11.346C37.7726 11.346 38.1486 11.418 38.4526 11.562C38.7566 11.706 39.0026 11.896 39.1906 12.132C39.3826 12.364 39.5286 12.618 39.6286 12.894C39.7286 13.17 39.7966 13.44 39.8326 13.704C39.8686 13.968 39.8866 14.2 39.8866 14.4V18H38.6146ZM34.0606 18V11.52H35.1826V13.392H35.3326V18H34.0606ZM43.8517 18V9.36H45.1057V13.086H49.4257V9.36H50.6857V18H49.4257V14.268H45.1057V18H43.8517ZM54.2013 18.18C53.7213 18.18 53.3193 18.092 52.9953 17.916C52.6713 17.736 52.4253 17.5 52.2573 17.208C52.0933 16.912 52.0113 16.588 52.0113 16.236C52.0113 15.908 52.0693 15.62 52.1853 15.372C52.3013 15.124 52.4733 14.914 52.7013 14.742C52.9293 14.566 53.2093 14.424 53.5413 14.316C53.8293 14.232 54.1553 14.158 54.5193 14.094C54.8833 14.03 55.2653 13.97 55.6653 13.914C56.0693 13.858 56.4693 13.802 56.8653 13.746L56.4093 13.998C56.4173 13.49 56.3093 13.114 56.0853 12.87C55.8653 12.622 55.4853 12.498 54.9453 12.498C54.6053 12.498 54.2933 12.578 54.0093 12.738C53.7253 12.894 53.5273 13.154 53.4153 13.518L52.2453 13.158C52.4053 12.602 52.7093 12.16 53.1573 11.832C53.6093 11.504 54.2093 11.34 54.9573 11.34C55.5373 11.34 56.0413 11.44 56.4693 11.64C56.9013 11.836 57.2173 12.148 57.4173 12.576C57.5213 12.788 57.5853 13.012 57.6093 13.248C57.6333 13.484 57.6453 13.738 57.6453 14.01V18H56.5353V16.518L56.7513 16.71C56.4833 17.206 56.1413 17.576 55.7253 17.82C55.3133 18.06 54.8053 18.18 54.2013 18.18ZM54.4233 17.154C54.7793 17.154 55.0853 17.092 55.3413 16.968C55.5973 16.84 55.8033 16.678 55.9593 16.482C56.1153 16.286 56.2173 16.082 56.2653 15.87C56.3333 15.678 56.3713 15.462 56.3793 15.222C56.3913 14.982 56.3973 14.79 56.3973 14.646L56.8053 14.796C56.4093 14.856 56.0493 14.91 55.7253 14.958C55.4013 15.006 55.1073 15.054 54.8433 15.102C54.5833 15.146 54.3513 15.2 54.1473 15.264C53.9753 15.324 53.8213 15.396 53.6853 15.48C53.5533 15.564 53.4473 15.666 53.3673 15.786C53.2913 15.906 53.2533 16.052 53.2533 16.224C53.2533 16.392 53.2953 16.548 53.3793 16.692C53.4633 16.832 53.5913 16.944 53.7633 17.028C53.9353 17.112 54.1553 17.154 54.4233 17.154ZM62.2453 18.18C61.6253 18.18 61.1053 18.03 60.6853 17.73C60.2653 17.426 59.9473 17.016 59.7313 16.5C59.5153 15.984 59.4073 15.402 59.4073 14.754C59.4073 14.106 59.5133 13.524 59.7253 13.008C59.9413 12.492 60.2573 12.086 60.6733 11.79C61.0933 11.49 61.6093 11.34 62.2213 11.34C62.8293 11.34 63.3533 11.49 63.7933 11.79C64.2373 12.086 64.5793 12.492 64.8193 13.008C65.0593 13.52 65.1793 14.102 65.1793 14.754C65.1793 15.402 65.0593 15.986 64.8193 16.506C64.5833 17.022 64.2453 17.43 63.8053 17.73C63.3693 18.03 62.8493 18.18 62.2453 18.18ZM59.1973 18V9.36H60.4573V13.338H60.3133V18H59.1973ZM62.0713 17.046C62.4713 17.046 62.8013 16.944 63.0613 16.74C63.3253 16.536 63.5213 16.262 63.6493 15.918C63.7813 15.57 63.8473 15.182 63.8473 14.754C63.8473 14.33 63.7813 13.946 63.6493 13.602C63.5213 13.258 63.3233 12.984 63.0553 12.78C62.7873 12.576 62.4453 12.474 62.0293 12.474C61.6373 12.474 61.3133 12.57 61.0573 12.762C60.8053 12.954 60.6173 13.222 60.4933 13.566C60.3733 13.91 60.3133 14.306 60.3133 14.754C60.3133 15.202 60.3733 15.598 60.4933 15.942C60.6133 16.286 60.8033 16.556 61.0633 16.752C61.3233 16.948 61.6593 17.046 62.0713 17.046ZM69.3181 18.18C68.6701 18.18 68.1081 18.034 67.6321 17.742C67.1561 17.45 66.7881 17.048 66.5281 16.536C66.2721 16.02 66.1441 15.426 66.1441 14.754C66.1441 14.078 66.2761 13.484 66.5401 12.972C66.8041 12.456 67.1741 12.056 67.6501 11.772C68.1261 11.484 68.6821 11.34 69.3181 11.34C69.9661 11.34 70.5281 11.486 71.0041 11.778C71.4801 12.07 71.8481 12.472 72.1081 12.984C72.3681 13.496 72.4981 14.086 72.4981 14.754C72.4981 15.43 72.3661 16.026 72.1021 16.542C71.8421 17.054 71.4741 17.456 70.9981 17.748C70.5221 18.036 69.9621 18.18 69.3181 18.18ZM69.3181 16.998C69.9381 16.998 70.4001 16.79 70.7041 16.374C71.0121 15.954 71.1661 15.414 71.1661 14.754C71.1661 14.078 71.0101 13.538 70.6981 13.134C70.3901 12.726 69.9301 12.522 69.3181 12.522C68.8981 12.522 68.5521 12.618 68.2801 12.81C68.0081 12.998 67.8061 13.26 67.6741 13.596C67.5421 13.928 67.4761 14.314 67.4761 14.754C67.4761 15.434 67.6321 15.978 67.9441 16.386C68.2561 16.794 68.7141 16.998 69.3181 16.998ZM76.2586 18.174C75.8106 18.174 75.4346 18.102 75.1306 17.958C74.8266 17.814 74.5786 17.626 74.3866 17.394C74.1986 17.158 74.0546 16.902 73.9546 16.626C73.8546 16.35 73.7866 16.08 73.7506 15.816C73.7146 15.552 73.6966 15.32 73.6966 15.12V11.52H74.9686V14.706C74.9686 14.958 74.9886 15.218 75.0286 15.486C75.0726 15.75 75.1526 15.996 75.2686 16.224C75.3886 16.452 75.5546 16.636 75.7666 16.776C75.9826 16.916 76.2626 16.986 76.6066 16.986C76.8306 16.986 77.0426 16.95 77.2426 16.878C77.4426 16.802 77.6166 16.682 77.7646 16.518C77.9166 16.354 78.0346 16.138 78.1186 15.87C78.2066 15.602 78.2506 15.276 78.2506 14.892L79.0306 15.186C79.0306 15.774 78.9206 16.294 78.7006 16.746C78.4806 17.194 78.1646 17.544 77.7526 17.796C77.3406 18.048 76.8426 18.174 76.2586 18.174ZM78.4006 18V16.128H78.2506V11.52H79.5166V18H78.4006ZM81.1994 18V11.52H82.3154V13.092L82.1594 12.888C82.2394 12.68 82.3434 12.49 82.4714 12.318C82.5994 12.142 82.7474 11.998 82.9154 11.886C83.0794 11.766 83.2614 11.674 83.4614 11.61C83.6654 11.542 83.8734 11.502 84.0854 11.49C84.2974 11.474 84.5014 11.484 84.6974 11.52V12.696C84.4854 12.64 84.2494 12.624 83.9894 12.648C83.7334 12.672 83.4974 12.754 83.2814 12.894C83.0774 13.026 82.9154 13.186 82.7954 13.374C82.6794 13.562 82.5954 13.772 82.5434 14.004C82.4914 14.232 82.4654 14.474 82.4654 14.73V18H81.1994Z" fill="#ED7B84"/>
</svg>
