<svg width="14" height="14" viewBox="0 0 14 14" fill="none" xmlns="http://www.w3.org/2000/svg">
<path fill-rule="evenodd" clip-rule="evenodd" d="M4.08332 12.25H10.2083C11.0137 12.25 11.6667 11.5971 11.6667 10.7917V4.88347C11.6667 4.41935 11.4823 3.97423 11.1541 3.64604L9.77062 2.26256C9.44243 1.93437 8.99731 1.75 8.53318 1.75H4.37499C3.56957 1.75 2.91666 2.40292 2.91666 3.20833V11.0833C2.91666 11.7277 3.43899 12.25 4.08332 12.25Z" stroke="#ED7B84" stroke-width="1.2" stroke-linecap="round" stroke-linejoin="round"/>
<path d="M11.6529 4.66656H9.625C9.14175 4.66656 8.75 4.27481 8.75 3.79156V1.76367" stroke="#ED7B84" stroke-width="1.2" stroke-linecap="round" stroke-linejoin="round"/>
<path d="M9.33334 7.00016H7.14584" stroke="#ED7B84" stroke-width="1.2" stroke-linecap="round" stroke-linejoin="round"/>
<path d="M9.33334 9.33317H7.14584" stroke="#ED7B84" stroke-width="1.2" stroke-linecap="round" stroke-linejoin="round"/>
<path d="M5.25001 6.92725C5.20974 6.92725 5.17709 6.95989 5.17709 7.00016C5.17709 7.04043 5.20974 7.07308 5.25001 7.07308C5.29028 7.07308 5.32293 7.04043 5.32293 7.00016C5.32293 6.95989 5.29028 6.92725 5.25001 6.92725" stroke="#ED7B84" stroke-width="1.2" stroke-linecap="round" stroke-linejoin="round"/>
<path d="M5.25001 9.26025C5.20974 9.26025 5.17709 9.2929 5.17709 9.33317C5.17709 9.37344 5.20974 9.40609 5.25001 9.40609C5.29028 9.40609 5.32293 9.37344 5.32293 9.33317C5.32293 9.2929 5.29028 9.26025 5.25001 9.26025" stroke="#ED7B84" stroke-width="1.2" stroke-linecap="round" stroke-linejoin="round"/>
</svg>
