<svg width="24" height="24" viewBox="0 0 24 24" fill="none" xmlns="http://www.w3.org/2000/svg">
<path fill-rule="evenodd" clip-rule="evenodd" d="M14 20H19C20.105 20 21 19.105 21 18V6C21 4.895 20.105 4 19 4H5C3.895 4 3 4.895 3 6V18C3 19.105 3.895 20 5 20H10L12 22L14 20Z" stroke="#475467" stroke-width="1.5" stroke-linecap="round" stroke-linejoin="round"/>
<path d="M12.177 12.0726C12.275 12.1706 12.275 12.3286 12.177 12.4266C12.079 12.5246 11.921 12.5246 11.823 12.4266C11.725 12.3286 11.725 12.1706 11.823 12.0726C11.921 11.9756 12.079 11.9756 12.177 12.0726" stroke="#475467" stroke-width="1.5" stroke-linecap="round" stroke-linejoin="round"/>
<path d="M16.177 12.0726C16.275 12.1706 16.275 12.3286 16.177 12.4266C16.079 12.5246 15.921 12.5246 15.823 12.4266C15.725 12.3286 15.725 12.1706 15.823 12.0726C15.921 11.9756 16.079 11.9756 16.177 12.0726" stroke="#475467" stroke-width="1.5" stroke-linecap="round" stroke-linejoin="round"/>
<path d="M8.177 12.0726C8.275 12.1706 8.275 12.3286 8.177 12.4266C8.079 12.5246 7.921 12.5246 7.823 12.4266C7.725 12.3286 7.725 12.1706 7.823 12.0726C7.921 11.9756 8.079 11.9756 8.177 12.0726" stroke="#475467" stroke-width="1.5" stroke-linecap="round" stroke-linejoin="round"/>
</svg>
