<svg width="26" height="26" viewBox="0 0 26 26" fill="none" xmlns="http://www.w3.org/2000/svg">
<path d="M10.2358 7.86385V5.45785C10.2358 4.97065 10.631 4.57549 11.1182 4.57549H14.8818C15.369 4.57549 15.7641 4.97065 15.7641 5.45785V7.86385" stroke="white" stroke-width="1.5" stroke-linecap="round" stroke-linejoin="round"/>
<path d="M7.47168 12.3817V9.6306C7.47168 8.6552 8.26201 7.86487 9.23742 7.86487H16.7635C17.739 7.86487 18.5293 8.6552 18.5293 9.6306V12.3817" stroke="white" stroke-width="1.5" stroke-linecap="round" stroke-linejoin="round"/>
<path d="M13.0002 2.99583V4.57549" stroke="white" stroke-width="1.5" stroke-linecap="round" stroke-linejoin="round"/>
<path d="M17.6871 18.6333L19.0027 16.0012L21.0035 13L13.0002 10.9992L4.99683 13L6.99766 16.0012L7.87703 18.4923" stroke="white" stroke-width="1.5" stroke-linecap="round" stroke-linejoin="round"/>
<path d="M3.99634 18.4023C5.0968 17.902 6.49738 17.902 7.59784 18.4023C8.6983 18.9025 10.0989 18.9025 11.1993 18.4023C12.2998 17.902 13.7004 17.902 14.8008 18.4023C15.9013 18.9025 17.3019 18.9025 18.4023 18.4023C19.5028 17.902 20.9034 17.902 22.0038 18.4023" stroke="white" stroke-width="1.5" stroke-linecap="round" stroke-linejoin="round"/>
<path d="M7.5979 21.6286C8.69836 22.1288 10.0989 22.1288 11.1994 21.6286C12.2999 21.1284 13.7004 21.1284 14.8009 21.6286C15.9014 22.1288 17.3019 22.1288 18.4024 21.6286" stroke="white" stroke-width="1.5" stroke-linecap="round" stroke-linejoin="round"/>
</svg>
