<svg width="68" height="28" viewBox="0 0 68 28" fill="none" xmlns="http://www.w3.org/2000/svg">
<rect width="68" height="28" rx="14" fill="#ECFDF3"/>
<circle cx="12" cy="14" r="3" fill="#12B76A"/>
<path d="M23.9663 19V8.92H25.2263L30.4833 16.795V8.92H31.7433V19H30.4833L25.2263 11.118V19H23.9663ZM36.9207 19.21C36.1694 19.21 35.5207 19.0397 34.9747 18.699C34.4334 18.3583 34.0157 17.887 33.7217 17.285C33.4277 16.683 33.2807 15.9923 33.2807 15.213C33.2807 14.4197 33.43 13.7243 33.7287 13.127C34.0274 12.5297 34.4497 12.0653 34.9957 11.734C35.5417 11.398 36.1834 11.23 36.9207 11.23C37.6767 11.23 38.3277 11.4003 38.8737 11.741C39.4197 12.077 39.8374 12.546 40.1267 13.148C40.4207 13.7453 40.5677 14.4337 40.5677 15.213C40.5677 16.0017 40.4207 16.697 40.1267 17.299C39.8327 17.8963 39.4127 18.3653 38.8667 18.706C38.3207 19.042 37.672 19.21 36.9207 19.21ZM36.9207 18.027C37.7047 18.027 38.288 17.7657 38.6707 17.243C39.0534 16.7203 39.2447 16.0437 39.2447 15.213C39.2447 14.359 39.051 13.68 38.6637 13.176C38.2764 12.6673 37.6954 12.413 36.9207 12.413C36.3934 12.413 35.9594 12.532 35.6187 12.77C35.278 13.008 35.0237 13.337 34.8557 13.757C34.6877 14.177 34.6037 14.6623 34.6037 15.213C34.6037 16.0623 34.7997 16.7437 35.1917 17.257C35.5837 17.7703 36.16 18.027 36.9207 18.027ZM45.3289 19.21C44.5776 19.21 43.9289 19.0397 43.3829 18.699C42.8416 18.3583 42.4239 17.887 42.1299 17.285C41.8359 16.683 41.6889 15.9923 41.6889 15.213C41.6889 14.4197 41.8382 13.7243 42.1369 13.127C42.4356 12.5297 42.8579 12.0653 43.4039 11.734C43.9499 11.398 44.5916 11.23 45.3289 11.23C46.0849 11.23 46.7359 11.4003 47.2819 11.741C47.8279 12.077 48.2456 12.546 48.5349 13.148C48.8289 13.7453 48.9759 14.4337 48.9759 15.213C48.9759 16.0017 48.8289 16.697 48.5349 17.299C48.2409 17.8963 47.8209 18.3653 47.2749 18.706C46.7289 19.042 46.0802 19.21 45.3289 19.21ZM45.3289 18.027C46.1129 18.027 46.6962 17.7657 47.0789 17.243C47.4616 16.7203 47.6529 16.0437 47.6529 15.213C47.6529 14.359 47.4592 13.68 47.0719 13.176C46.6846 12.6673 46.1036 12.413 45.3289 12.413C44.8016 12.413 44.3676 12.532 44.0269 12.77C43.6862 13.008 43.4319 13.337 43.2639 13.757C43.0959 14.177 43.0119 14.6623 43.0119 15.213C43.0119 16.0623 43.2079 16.7437 43.5999 17.257C43.9919 17.7703 44.5682 18.027 45.3289 18.027ZM55.9001 19V15.213C55.9001 14.8537 55.8674 14.5083 55.8021 14.177C55.7414 13.8457 55.6318 13.5493 55.4731 13.288C55.3191 13.022 55.1091 12.812 54.8431 12.658C54.5818 12.504 54.2504 12.427 53.8491 12.427C53.5364 12.427 53.2518 12.4807 52.9951 12.588C52.7431 12.6907 52.5261 12.8493 52.3441 13.064C52.1621 13.2787 52.0198 13.5493 51.9171 13.876C51.8191 14.198 51.7701 14.5783 51.7701 15.017L50.9511 14.765C50.9511 14.0323 51.0818 13.4047 51.3431 12.882C51.6091 12.3547 51.9801 11.951 52.4561 11.671C52.9368 11.3863 53.5014 11.244 54.1501 11.244C54.6401 11.244 55.0578 11.321 55.4031 11.475C55.7484 11.629 56.0354 11.8343 56.2641 12.091C56.4928 12.343 56.6724 12.6277 56.8031 12.945C56.9338 13.2577 57.0248 13.5773 57.0761 13.904C57.1321 14.226 57.1601 14.5317 57.1601 14.821V19H55.9001ZM50.5101 19V11.44H51.6301V13.463H51.7701V19H50.5101Z" fill="#027A48"/>
</svg>
