<svg width="14" height="14" viewBox="0 0 14 14" fill="none" xmlns="http://www.w3.org/2000/svg">
<path fill-rule="evenodd" clip-rule="evenodd" d="M4.08332 12.25H10.2083C11.0137 12.25 11.6667 11.5971 11.6667 10.7917V4.88347C11.6667 4.41935 11.4823 3.97423 11.1541 3.64604L9.77062 2.26256C9.44243 1.93437 8.99731 1.75 8.53318 1.75H4.37499C3.56957 1.75 2.91666 2.40292 2.91666 3.20833V11.0833C2.91666 11.7277 3.43899 12.25 4.08332 12.25Z" stroke="#039855" stroke-width="1.2" stroke-linecap="round" stroke-linejoin="round"/>
<path d="M11.6529 4.66656H9.625C9.14175 4.66656 8.75 4.27481 8.75 3.79156V1.76367" stroke="#039855" stroke-width="1.2" stroke-linecap="round" stroke-linejoin="round"/>
<path d="M9.33334 6.99992H7.14584" stroke="#039855" stroke-width="1.2" stroke-linecap="round" stroke-linejoin="round"/>
<path d="M9.33334 9.33341H7.14584" stroke="#039855" stroke-width="1.2" stroke-linecap="round" stroke-linejoin="round"/>
<path d="M5.25001 6.927C5.20974 6.927 5.17709 6.95965 5.17709 6.99992C5.17709 7.04019 5.20974 7.07284 5.25001 7.07284C5.29028 7.07284 5.32293 7.04019 5.32293 6.99992C5.32293 6.95965 5.29028 6.927 5.25001 6.927" stroke="#039855" stroke-width="1.2" stroke-linecap="round" stroke-linejoin="round"/>
<path d="M5.25001 9.2605C5.20974 9.2605 5.17709 9.29314 5.17709 9.33341C5.17709 9.37369 5.20974 9.40633 5.25001 9.40633C5.29028 9.40633 5.32293 9.37369 5.32293 9.33341C5.32293 9.29314 5.29028 9.2605 5.25001 9.2605" stroke="#039855" stroke-width="1.2" stroke-linecap="round" stroke-linejoin="round"/>
</svg>
