<svg width="73" height="26" viewBox="0 0 73 26" fill="none" xmlns="http://www.w3.org/2000/svg">
<path d="M0 12C0 5.37258 5.37258 0 12 0H73V14C73 20.6274 67.6274 26 61 26H0V12Z" fill="#EDFDF9"/>
<path fill-rule="evenodd" clip-rule="evenodd" d="M16.0833 18.25H22.2083C23.0137 18.25 23.6667 17.5971 23.6667 16.7917V10.8835C23.6667 10.4193 23.4823 9.97423 23.1541 9.64604L21.7706 8.26256C21.4424 7.93437 20.9973 7.75 20.5332 7.75H16.375C15.5696 7.75 14.9167 8.40292 14.9167 9.20833V17.0833C14.9167 17.7277 15.439 18.25 16.0833 18.25Z" stroke="#039855" stroke-width="1.2" stroke-linecap="round" stroke-linejoin="round"/>
<path d="M23.6529 10.6666H21.625C21.1418 10.6666 20.75 10.2748 20.75 9.79156V7.76367" stroke="#039855" stroke-width="1.2" stroke-linecap="round" stroke-linejoin="round"/>
<path d="M21.3333 12.9999H19.1458" stroke="#039855" stroke-width="1.2" stroke-linecap="round" stroke-linejoin="round"/>
<path d="M21.3333 15.3334H19.1458" stroke="#039855" stroke-width="1.2" stroke-linecap="round" stroke-linejoin="round"/>
<path d="M17.25 12.927C17.2097 12.927 17.1771 12.9596 17.1771 12.9999C17.1771 13.0402 17.2097 13.0728 17.25 13.0728C17.2903 13.0728 17.3229 13.0402 17.3229 12.9999C17.3229 12.9596 17.2903 12.927 17.25 12.927" stroke="#039855" stroke-width="1.2" stroke-linecap="round" stroke-linejoin="round"/>
<path d="M17.25 15.2605C17.2097 15.2605 17.1771 15.2931 17.1771 15.3334C17.1771 15.3737 17.2097 15.4063 17.25 15.4063C17.2903 15.4063 17.3229 15.3737 17.3229 15.3334C17.3229 15.2931 17.2903 15.2605 17.25 15.2605" stroke="#039855" stroke-width="1.2" stroke-linecap="round" stroke-linejoin="round"/>
<path d="M31.3595 18V9.36H32.6315L36.8855 15.78V9.36H38.1575V18H36.8855L32.6315 11.574V18H31.3595ZM42.6462 18.18C41.9982 18.18 41.4362 18.034 40.9602 17.742C40.4842 17.45 40.1162 17.048 39.8562 16.536C39.6002 16.02 39.4722 15.426 39.4722 14.754C39.4722 14.078 39.6042 13.484 39.8682 12.972C40.1322 12.456 40.5022 12.056 40.9782 11.772C41.4542 11.484 42.0102 11.34 42.6462 11.34C43.2942 11.34 43.8562 11.486 44.3322 11.778C44.8082 12.07 45.1762 12.472 45.4362 12.984C45.6962 13.496 45.8262 14.086 45.8262 14.754C45.8262 15.43 45.6942 16.026 45.4302 16.542C45.1702 17.054 44.8022 17.456 44.3262 17.748C43.8502 18.036 43.2902 18.18 42.6462 18.18ZM42.6462 16.998C43.2662 16.998 43.7282 16.79 44.0322 16.374C44.3402 15.954 44.4942 15.414 44.4942 14.754C44.4942 14.078 44.3382 13.538 44.0262 13.134C43.7182 12.726 43.2582 12.522 42.6462 12.522C42.2262 12.522 41.8802 12.618 41.6082 12.81C41.3362 12.998 41.1342 13.26 41.0022 13.596C40.8702 13.928 40.8042 14.314 40.8042 14.754C40.8042 15.434 40.9602 15.978 41.2722 16.386C41.5842 16.794 42.0422 16.998 42.6462 16.998ZM49.9587 18.18C49.3107 18.18 48.7487 18.034 48.2727 17.742C47.7967 17.45 47.4287 17.048 47.1687 16.536C46.9127 16.02 46.7847 15.426 46.7847 14.754C46.7847 14.078 46.9167 13.484 47.1807 12.972C47.4447 12.456 47.8147 12.056 48.2907 11.772C48.7667 11.484 49.3227 11.34 49.9587 11.34C50.6067 11.34 51.1687 11.486 51.6447 11.778C52.1207 12.07 52.4887 12.472 52.7487 12.984C53.0087 13.496 53.1387 14.086 53.1387 14.754C53.1387 15.43 53.0067 16.026 52.7427 16.542C52.4827 17.054 52.1147 17.456 51.6387 17.748C51.1627 18.036 50.6027 18.18 49.9587 18.18ZM49.9587 16.998C50.5787 16.998 51.0407 16.79 51.3447 16.374C51.6527 15.954 51.8067 15.414 51.8067 14.754C51.8067 14.078 51.6507 13.538 51.3387 13.134C51.0307 12.726 50.5707 12.522 49.9587 12.522C49.5387 12.522 49.1927 12.618 48.9207 12.81C48.6487 12.998 48.4467 13.26 48.3147 13.596C48.1827 13.928 48.1167 14.314 48.1167 14.754C48.1167 15.434 48.2727 15.978 48.5847 16.386C48.8967 16.794 49.3547 16.998 49.9587 16.998ZM59.0052 18V14.814C59.0052 14.562 58.9832 14.304 58.9392 14.04C58.8992 13.772 58.8192 13.524 58.6992 13.296C58.5832 13.068 58.4172 12.884 58.2012 12.744C57.9892 12.604 57.7112 12.534 57.3672 12.534C57.1432 12.534 56.9312 12.572 56.7312 12.648C56.5312 12.72 56.3552 12.838 56.2032 13.002C56.0552 13.166 55.9372 13.382 55.8492 13.65C55.7652 13.918 55.7232 14.244 55.7232 14.628L54.9432 14.334C54.9432 13.746 55.0532 13.228 55.2732 12.78C55.4932 12.328 55.8092 11.976 56.2212 11.724C56.6332 11.472 57.1312 11.346 57.7152 11.346C58.1632 11.346 58.5392 11.418 58.8432 11.562C59.1472 11.706 59.3932 11.896 59.5812 12.132C59.7732 12.364 59.9192 12.618 60.0192 12.894C60.1192 13.17 60.1872 13.44 60.2232 13.704C60.2592 13.968 60.2772 14.2 60.2772 14.4V18H59.0052ZM54.4512 18V11.52H55.5732V13.392H55.7232V18H54.4512Z" fill="#039855"/>
</svg>
