<svg width="582" height="42" viewBox="0 0 582 42" fill="none" xmlns="http://www.w3.org/2000/svg">
<rect opacity="0.06" y="4" width="582" height="18" rx="9" fill="#12B76A"/>
<path opacity="0.24" d="M64 13L261.5 13" stroke="#027A48" stroke-dasharray="3 6"/>
<path d="M276.361 18.18C275.881 18.18 275.479 18.092 275.155 17.916C274.831 17.736 274.585 17.5 274.417 17.208C274.253 16.912 274.171 16.588 274.171 16.236C274.171 15.908 274.229 15.62 274.345 15.372C274.461 15.124 274.633 14.914 274.861 14.742C275.089 14.566 275.369 14.424 275.701 14.316C275.989 14.232 276.315 14.158 276.679 14.094C277.043 14.03 277.425 13.97 277.825 13.914C278.229 13.858 278.629 13.802 279.025 13.746L278.569 13.998C278.577 13.49 278.469 13.114 278.245 12.87C278.025 12.622 277.645 12.498 277.105 12.498C276.765 12.498 276.453 12.578 276.169 12.738C275.885 12.894 275.687 13.154 275.575 13.518L274.405 13.158C274.565 12.602 274.869 12.16 275.317 11.832C275.769 11.504 276.369 11.34 277.117 11.34C277.697 11.34 278.201 11.44 278.629 11.64C279.061 11.836 279.377 12.148 279.577 12.576C279.681 12.788 279.745 13.012 279.769 13.248C279.793 13.484 279.805 13.738 279.805 14.01V18H278.695V16.518L278.911 16.71C278.643 17.206 278.301 17.576 277.885 17.82C277.473 18.06 276.965 18.18 276.361 18.18ZM276.583 17.154C276.939 17.154 277.245 17.092 277.501 16.968C277.757 16.84 277.963 16.678 278.119 16.482C278.275 16.286 278.377 16.082 278.425 15.87C278.493 15.678 278.531 15.462 278.539 15.222C278.551 14.982 278.557 14.79 278.557 14.646L278.965 14.796C278.569 14.856 278.209 14.91 277.885 14.958C277.561 15.006 277.267 15.054 277.003 15.102C276.743 15.146 276.511 15.2 276.307 15.264C276.135 15.324 275.981 15.396 275.845 15.48C275.713 15.564 275.607 15.666 275.527 15.786C275.451 15.906 275.413 16.052 275.413 16.224C275.413 16.392 275.455 16.548 275.539 16.692C275.623 16.832 275.751 16.944 275.923 17.028C276.095 17.112 276.315 17.154 276.583 17.154ZM285.071 18C284.663 18.08 284.263 18.114 283.871 18.102C283.479 18.09 283.129 18.014 282.821 17.874C282.513 17.734 282.281 17.514 282.125 17.214C281.985 16.946 281.909 16.674 281.897 16.398C281.889 16.118 281.885 15.802 281.885 15.45V9.72H283.145V15.39C283.145 15.65 283.147 15.876 283.151 16.068C283.159 16.26 283.201 16.422 283.277 16.554C283.421 16.802 283.649 16.944 283.961 16.98C284.277 17.012 284.647 16.998 285.071 16.938V18ZM280.643 12.528V11.52H285.071V12.528H280.643ZM291.318 18.174C290.53 18.174 289.888 18 289.392 17.652C288.896 17.304 288.592 16.814 288.48 16.182L289.764 15.984C289.844 16.32 290.028 16.586 290.316 16.782C290.608 16.974 290.97 17.07 291.402 17.07C291.794 17.07 292.1 16.99 292.32 16.83C292.544 16.67 292.656 16.45 292.656 16.17C292.656 16.006 292.616 15.874 292.536 15.774C292.46 15.67 292.298 15.572 292.05 15.48C291.802 15.388 291.424 15.274 290.916 15.138C290.36 14.994 289.918 14.84 289.59 14.676C289.266 14.508 289.034 14.314 288.894 14.094C288.758 13.87 288.69 13.6 288.69 13.284C288.69 12.892 288.794 12.55 289.002 12.258C289.21 11.966 289.502 11.74 289.878 11.58C290.258 11.42 290.702 11.34 291.21 11.34C291.706 11.34 292.148 11.418 292.536 11.574C292.924 11.73 293.238 11.952 293.478 12.24C293.718 12.524 293.862 12.858 293.91 13.242L292.626 13.476C292.582 13.164 292.436 12.918 292.188 12.738C291.94 12.558 291.618 12.46 291.222 12.444C290.842 12.428 290.534 12.492 290.298 12.636C290.062 12.776 289.944 12.97 289.944 13.218C289.944 13.362 289.988 13.484 290.076 13.584C290.168 13.684 290.344 13.78 290.604 13.872C290.864 13.964 291.248 14.074 291.756 14.202C292.3 14.342 292.732 14.498 293.052 14.67C293.372 14.838 293.6 15.04 293.736 15.276C293.876 15.508 293.946 15.79 293.946 16.122C293.946 16.762 293.712 17.264 293.244 17.628C292.78 17.992 292.138 18.174 291.318 18.174ZM298.148 18.18C297.504 18.18 296.938 18.04 296.45 17.76C295.966 17.476 295.588 17.082 295.316 16.578C295.048 16.07 294.914 15.482 294.914 14.814C294.914 14.106 295.046 13.492 295.31 12.972C295.578 12.452 295.95 12.05 296.426 11.766C296.902 11.482 297.456 11.34 298.088 11.34C298.748 11.34 299.31 11.494 299.774 11.802C300.238 12.106 300.584 12.54 300.812 13.104C301.044 13.668 301.136 14.338 301.088 15.114H299.834V14.658C299.826 13.906 299.682 13.35 299.402 12.99C299.126 12.63 298.704 12.45 298.136 12.45C297.508 12.45 297.036 12.648 296.72 13.044C296.404 13.44 296.246 14.012 296.246 14.76C296.246 15.472 296.404 16.024 296.72 16.416C297.036 16.804 297.492 16.998 298.088 16.998C298.48 16.998 298.818 16.91 299.102 16.734C299.39 16.554 299.614 16.298 299.774 15.966L301.004 16.356C300.752 16.936 300.37 17.386 299.858 17.706C299.346 18.022 298.776 18.18 298.148 18.18ZM295.838 15.114V14.136H300.464V15.114H295.838ZM304.147 18.18C303.667 18.18 303.265 18.092 302.941 17.916C302.617 17.736 302.371 17.5 302.203 17.208C302.039 16.912 301.957 16.588 301.957 16.236C301.957 15.908 302.015 15.62 302.131 15.372C302.247 15.124 302.419 14.914 302.647 14.742C302.875 14.566 303.155 14.424 303.487 14.316C303.775 14.232 304.101 14.158 304.465 14.094C304.829 14.03 305.211 13.97 305.611 13.914C306.015 13.858 306.415 13.802 306.811 13.746L306.355 13.998C306.363 13.49 306.255 13.114 306.031 12.87C305.811 12.622 305.431 12.498 304.891 12.498C304.551 12.498 304.239 12.578 303.955 12.738C303.671 12.894 303.473 13.154 303.361 13.518L302.191 13.158C302.351 12.602 302.655 12.16 303.103 11.832C303.555 11.504 304.155 11.34 304.903 11.34C305.483 11.34 305.987 11.44 306.415 11.64C306.847 11.836 307.163 12.148 307.363 12.576C307.467 12.788 307.531 13.012 307.555 13.248C307.579 13.484 307.591 13.738 307.591 14.01V18H306.481V16.518L306.697 16.71C306.429 17.206 306.087 17.576 305.671 17.82C305.259 18.06 304.751 18.18 304.147 18.18ZM304.369 17.154C304.725 17.154 305.031 17.092 305.287 16.968C305.543 16.84 305.749 16.678 305.905 16.482C306.061 16.286 306.163 16.082 306.211 15.87C306.279 15.678 306.317 15.462 306.325 15.222C306.337 14.982 306.343 14.79 306.343 14.646L306.751 14.796C306.355 14.856 305.995 14.91 305.671 14.958C305.347 15.006 305.053 15.054 304.789 15.102C304.529 15.146 304.297 15.2 304.093 15.264C303.921 15.324 303.767 15.396 303.631 15.48C303.499 15.564 303.393 15.666 303.313 15.786C303.237 15.906 303.199 16.052 303.199 16.224C303.199 16.392 303.241 16.548 303.325 16.692C303.409 16.832 303.537 16.944 303.709 17.028C303.881 17.112 304.101 17.154 304.369 17.154Z" fill="#027A48"/>
<path opacity="0.24" d="M320.5 13L518 13" stroke="#027A48" stroke-dasharray="3 6"/>
<rect x="0.5" y="0.5" width="51" height="25" rx="12.5" fill="#F9FAFB"/>
<path d="M10.9142 18V9.36H14.4842C14.5682 9.36 14.6762 9.364 14.8082 9.372C14.9402 9.376 15.0622 9.388 15.1742 9.408C15.6742 9.484 16.0862 9.65 16.4102 9.906C16.7382 10.162 16.9802 10.486 17.1362 10.878C17.2962 11.266 17.3762 11.698 17.3762 12.174C17.3762 12.646 17.2962 13.078 17.1362 13.47C16.9762 13.858 16.7322 14.18 16.4042 14.436C16.0802 14.692 15.6702 14.858 15.1742 14.934C15.0622 14.95 14.9382 14.962 14.8022 14.97C14.6702 14.978 14.5642 14.982 14.4842 14.982H12.3602V18H10.9142ZM12.3602 13.632H14.4242C14.5042 13.632 14.5942 13.628 14.6942 13.62C14.7942 13.612 14.8862 13.596 14.9702 13.572C15.2102 13.512 15.3982 13.406 15.5342 13.254C15.6742 13.102 15.7722 12.93 15.8282 12.738C15.8882 12.546 15.9182 12.358 15.9182 12.174C15.9182 11.99 15.8882 11.802 15.8282 11.61C15.7722 11.414 15.6742 11.24 15.5342 11.088C15.3982 10.936 15.2102 10.83 14.9702 10.77C14.8862 10.746 14.7942 10.732 14.6942 10.728C14.5942 10.72 14.5042 10.716 14.4242 10.716H12.3602V13.632ZM22.2323 18.18C21.3683 18.18 20.6283 17.992 20.0123 17.616C19.3963 17.236 18.9223 16.708 18.5903 16.032C18.2623 15.356 18.0983 14.572 18.0983 13.68C18.0983 12.788 18.2623 12.004 18.5903 11.328C18.9223 10.652 19.3963 10.126 20.0123 9.75C20.6283 9.37 21.3683 9.18 22.2323 9.18C23.0963 9.18 23.8363 9.37 24.4523 9.75C25.0723 10.126 25.5463 10.652 25.8743 11.328C26.2063 12.004 26.3723 12.788 26.3723 13.68C26.3723 14.572 26.2063 15.356 25.8743 16.032C25.5463 16.708 25.0723 17.236 24.4523 17.616C23.8363 17.992 23.0963 18.18 22.2323 18.18ZM22.2323 16.818C22.8123 16.822 23.2943 16.694 23.6783 16.434C24.0663 16.174 24.3563 15.808 24.5483 15.336C24.7443 14.864 24.8423 14.312 24.8423 13.68C24.8423 13.048 24.7443 12.5 24.5483 12.036C24.3563 11.568 24.0663 11.204 23.6783 10.944C23.2943 10.684 22.8123 10.55 22.2323 10.542C21.6523 10.538 21.1703 10.666 20.7863 10.926C20.4023 11.186 20.1123 11.552 19.9163 12.024C19.7243 12.496 19.6283 13.048 19.6283 13.68C19.6283 14.312 19.7243 14.862 19.9163 15.33C20.1083 15.794 20.3963 16.156 20.7803 16.416C21.1683 16.676 21.6523 16.81 22.2323 16.818ZM27.5666 18V9.36H31.1366C31.2206 9.36 31.3286 9.364 31.4606 9.372C31.5926 9.376 31.7146 9.388 31.8266 9.408C32.3266 9.484 32.7386 9.65 33.0626 9.906C33.3906 10.162 33.6326 10.486 33.7886 10.878C33.9486 11.266 34.0286 11.698 34.0286 12.174C34.0286 12.878 33.8506 13.484 33.4946 13.992C33.1386 14.496 32.5926 14.808 31.8566 14.928L31.2386 14.982H29.0126V18H27.5666ZM32.5286 18L30.8246 14.484L32.2946 14.16L34.1666 18H32.5286ZM29.0126 13.632H31.0766C31.1566 13.632 31.2466 13.628 31.3466 13.62C31.4466 13.612 31.5386 13.596 31.6226 13.572C31.8626 13.512 32.0506 13.406 32.1866 13.254C32.3266 13.102 32.4246 12.93 32.4806 12.738C32.5406 12.546 32.5706 12.358 32.5706 12.174C32.5706 11.99 32.5406 11.802 32.4806 11.61C32.4246 11.414 32.3266 11.24 32.1866 11.088C32.0506 10.936 31.8626 10.83 31.6226 10.77C31.5386 10.746 31.4466 10.732 31.3466 10.728C31.2466 10.72 31.1566 10.716 31.0766 10.716H29.0126V13.632ZM37.5644 18V10.716H34.7684V9.36H41.8064V10.716H39.0104V18H37.5644Z" fill="#98A2B3"/>
<rect x="0.5" y="0.5" width="51" height="25" rx="12.5" stroke="#E4E7EC"/>
<path d="M135.133 38V29.36H138.703C138.787 29.36 138.895 29.364 139.027 29.372C139.159 29.376 139.281 29.388 139.393 29.408C139.893 29.484 140.305 29.65 140.629 29.906C140.957 30.162 141.199 30.486 141.355 30.878C141.515 31.266 141.595 31.698 141.595 32.174C141.595 32.878 141.417 33.484 141.061 33.992C140.705 34.496 140.159 34.808 139.423 34.928L138.805 34.982H136.579V38H135.133ZM140.095 38L138.391 34.484L139.861 34.16L141.733 38H140.095ZM136.579 33.632H138.643C138.723 33.632 138.813 33.628 138.913 33.62C139.013 33.612 139.105 33.596 139.189 33.572C139.429 33.512 139.617 33.406 139.753 33.254C139.893 33.102 139.991 32.93 140.047 32.738C140.107 32.546 140.137 32.358 140.137 32.174C140.137 31.99 140.107 31.802 140.047 31.61C139.991 31.414 139.893 31.24 139.753 31.088C139.617 30.936 139.429 30.83 139.189 30.77C139.105 30.746 139.013 30.732 138.913 30.728C138.813 30.72 138.723 30.716 138.643 30.716H136.579V33.632ZM145.239 29.36H146.691L144.387 38H142.935L145.239 29.36ZM151.726 38.18C151.038 38.18 150.432 38.04 149.908 37.76C149.388 37.48 148.98 37.086 148.684 36.578C148.392 36.07 148.246 35.474 148.246 34.79V29.372L149.71 29.36V34.754C149.71 35.078 149.764 35.368 149.872 35.624C149.984 35.88 150.134 36.098 150.322 36.278C150.51 36.454 150.726 36.588 150.97 36.68C151.214 36.772 151.466 36.818 151.726 36.818C151.994 36.818 152.248 36.772 152.488 36.68C152.732 36.584 152.948 36.448 153.136 36.272C153.324 36.092 153.472 35.874 153.58 35.618C153.688 35.362 153.742 35.074 153.742 34.754V29.36H155.206V34.79C155.206 35.474 155.058 36.07 154.762 36.578C154.47 37.086 154.062 37.48 153.538 37.76C153.018 38.04 152.414 38.18 151.726 38.18ZM156.883 38V29.36H160.453C160.537 29.36 160.645 29.364 160.777 29.372C160.909 29.376 161.031 29.388 161.143 29.408C161.643 29.484 162.055 29.65 162.379 29.906C162.707 30.162 162.949 30.486 163.105 30.878C163.265 31.266 163.345 31.698 163.345 32.174C163.345 32.646 163.265 33.078 163.105 33.47C162.945 33.858 162.701 34.18 162.373 34.436C162.049 34.692 161.639 34.858 161.143 34.934C161.031 34.95 160.907 34.962 160.771 34.97C160.639 34.978 160.533 34.982 160.453 34.982H158.329V38H156.883ZM158.329 33.632H160.393C160.473 33.632 160.563 33.628 160.663 33.62C160.763 33.612 160.855 33.596 160.939 33.572C161.179 33.512 161.367 33.406 161.503 33.254C161.643 33.102 161.741 32.93 161.797 32.738C161.857 32.546 161.887 32.358 161.887 32.174C161.887 31.99 161.857 31.802 161.797 31.61C161.741 31.414 161.643 31.24 161.503 31.088C161.367 30.936 161.179 30.83 160.939 30.77C160.855 30.746 160.763 30.732 160.663 30.728C160.563 30.72 160.473 30.716 160.393 30.716H158.329V33.632Z" fill="#039855"/>
<path d="M421.227 38.18C420.595 38.18 420.025 38.07 419.517 37.85C419.013 37.63 418.597 37.316 418.269 36.908C417.945 36.496 417.739 36.008 417.651 35.444L419.151 35.216C419.279 35.728 419.541 36.124 419.937 36.404C420.337 36.684 420.797 36.824 421.317 36.824C421.625 36.824 421.915 36.776 422.187 36.68C422.459 36.584 422.679 36.444 422.847 36.26C423.019 36.076 423.105 35.85 423.105 35.582C423.105 35.462 423.085 35.352 423.045 35.252C423.005 35.148 422.945 35.056 422.865 34.976C422.789 34.896 422.689 34.824 422.565 34.76C422.445 34.692 422.305 34.634 422.145 34.586L419.913 33.926C419.721 33.87 419.513 33.796 419.289 33.704C419.069 33.608 418.859 33.478 418.659 33.314C418.463 33.146 418.301 32.934 418.173 32.678C418.049 32.418 417.987 32.098 417.987 31.718C417.987 31.162 418.127 30.696 418.407 30.32C418.691 29.94 419.071 29.656 419.547 29.468C420.027 29.28 420.559 29.188 421.143 29.192C421.735 29.196 422.263 29.298 422.727 29.498C423.191 29.694 423.579 29.98 423.891 30.356C424.203 30.732 424.423 31.186 424.551 31.718L422.997 31.988C422.933 31.684 422.809 31.426 422.625 31.214C422.445 30.998 422.223 30.834 421.959 30.722C421.699 30.61 421.421 30.55 421.125 30.542C420.837 30.538 420.569 30.582 420.321 30.674C420.077 30.762 419.879 30.89 419.727 31.058C419.579 31.226 419.505 31.422 419.505 31.646C419.505 31.858 419.569 32.032 419.697 32.168C419.825 32.3 419.983 32.406 420.171 32.486C420.363 32.562 420.557 32.626 420.753 32.678L422.301 33.11C422.513 33.166 422.751 33.242 423.015 33.338C423.279 33.434 423.533 33.568 423.777 33.74C424.021 33.912 424.221 34.138 424.377 34.418C424.537 34.698 424.617 35.054 424.617 35.486C424.617 35.934 424.523 36.328 424.335 36.668C424.151 37.004 423.901 37.284 423.585 37.508C423.269 37.732 422.907 37.9 422.499 38.012C422.095 38.124 421.671 38.18 421.227 38.18ZM428.1 29.36H429.552L427.248 38H425.796L428.1 29.36ZM431.108 38V29.36H434.534C435.118 29.36 435.596 29.478 435.968 29.714C436.344 29.946 436.622 30.244 436.802 30.608C436.986 30.972 437.078 31.348 437.078 31.736C437.078 32.212 436.964 32.616 436.736 32.948C436.512 33.28 436.206 33.504 435.818 33.62V33.32C436.362 33.444 436.774 33.702 437.054 34.094C437.338 34.486 437.48 34.932 437.48 35.432C437.48 35.944 437.382 36.392 437.186 36.776C436.99 37.16 436.698 37.46 436.31 37.676C435.926 37.892 435.45 38 434.882 38H431.108ZM432.572 36.638H434.702C434.954 36.638 435.18 36.588 435.38 36.488C435.58 36.384 435.736 36.24 435.848 36.056C435.964 35.868 436.022 35.646 436.022 35.39C436.022 35.158 435.972 34.95 435.872 34.766C435.772 34.582 435.626 34.436 435.434 34.328C435.242 34.216 435.012 34.16 434.744 34.16H432.572V36.638ZM432.572 32.81H434.516C434.724 32.81 434.91 32.77 435.074 32.69C435.238 32.61 435.368 32.492 435.464 32.336C435.56 32.18 435.608 31.988 435.608 31.76C435.608 31.46 435.512 31.21 435.32 31.01C435.128 30.81 434.86 30.71 434.516 30.71H432.572V32.81ZM440.415 38V34.46L437.475 29.36H439.161L441.147 32.804L443.127 29.36H444.813L441.879 34.46V38H440.415Z" fill="#039855"/>
<circle cx="149" cy="13" r="4" fill="white" stroke="#039855" stroke-width="2"/>
<circle cx="431" cy="13" r="4" fill="white" stroke="#039855" stroke-width="2"/>
<rect x="530.5" y="0.5" width="51" height="25" rx="12.5" fill="#ECFDF3"/>
<path d="M540.914 18V9.36H544.484C544.568 9.36 544.676 9.364 544.808 9.372C544.94 9.376 545.062 9.388 545.174 9.408C545.674 9.484 546.086 9.65 546.41 9.906C546.738 10.162 546.98 10.486 547.136 10.878C547.296 11.266 547.376 11.698 547.376 12.174C547.376 12.646 547.296 13.078 547.136 13.47C546.976 13.858 546.732 14.18 546.404 14.436C546.08 14.692 545.67 14.858 545.174 14.934C545.062 14.95 544.938 14.962 544.802 14.97C544.67 14.978 544.564 14.982 544.484 14.982H542.36V18H540.914ZM542.36 13.632H544.424C544.504 13.632 544.594 13.628 544.694 13.62C544.794 13.612 544.886 13.596 544.97 13.572C545.21 13.512 545.398 13.406 545.534 13.254C545.674 13.102 545.772 12.93 545.828 12.738C545.888 12.546 545.918 12.358 545.918 12.174C545.918 11.99 545.888 11.802 545.828 11.61C545.772 11.414 545.674 11.24 545.534 11.088C545.398 10.936 545.21 10.83 544.97 10.77C544.886 10.746 544.794 10.732 544.694 10.728C544.594 10.72 544.504 10.716 544.424 10.716H542.36V13.632ZM552.232 18.18C551.368 18.18 550.628 17.992 550.012 17.616C549.396 17.236 548.922 16.708 548.59 16.032C548.262 15.356 548.098 14.572 548.098 13.68C548.098 12.788 548.262 12.004 548.59 11.328C548.922 10.652 549.396 10.126 550.012 9.75C550.628 9.37 551.368 9.18 552.232 9.18C553.096 9.18 553.836 9.37 554.452 9.75C555.072 10.126 555.546 10.652 555.874 11.328C556.206 12.004 556.372 12.788 556.372 13.68C556.372 14.572 556.206 15.356 555.874 16.032C555.546 16.708 555.072 17.236 554.452 17.616C553.836 17.992 553.096 18.18 552.232 18.18ZM552.232 16.818C552.812 16.822 553.294 16.694 553.678 16.434C554.066 16.174 554.356 15.808 554.548 15.336C554.744 14.864 554.842 14.312 554.842 13.68C554.842 13.048 554.744 12.5 554.548 12.036C554.356 11.568 554.066 11.204 553.678 10.944C553.294 10.684 552.812 10.55 552.232 10.542C551.652 10.538 551.17 10.666 550.786 10.926C550.402 11.186 550.112 11.552 549.916 12.024C549.724 12.496 549.628 13.048 549.628 13.68C549.628 14.312 549.724 14.862 549.916 15.33C550.108 15.794 550.396 16.156 550.78 16.416C551.168 16.676 551.652 16.81 552.232 16.818ZM557.567 18V9.36H561.137C561.221 9.36 561.329 9.364 561.461 9.372C561.593 9.376 561.715 9.388 561.827 9.408C562.327 9.484 562.739 9.65 563.063 9.906C563.391 10.162 563.633 10.486 563.789 10.878C563.949 11.266 564.029 11.698 564.029 12.174C564.029 12.878 563.851 13.484 563.495 13.992C563.139 14.496 562.593 14.808 561.857 14.928L561.239 14.982H559.013V18H557.567ZM562.529 18L560.825 14.484L562.295 14.16L564.167 18H562.529ZM559.013 13.632H561.077C561.157 13.632 561.247 13.628 561.347 13.62C561.447 13.612 561.539 13.596 561.623 13.572C561.863 13.512 562.051 13.406 562.187 13.254C562.327 13.102 562.425 12.93 562.481 12.738C562.541 12.546 562.571 12.358 562.571 12.174C562.571 11.99 562.541 11.802 562.481 11.61C562.425 11.414 562.327 11.24 562.187 11.088C562.051 10.936 561.863 10.83 561.623 10.77C561.539 10.746 561.447 10.732 561.347 10.728C561.247 10.72 561.157 10.716 561.077 10.716H559.013V13.632ZM567.564 18V10.716H564.768V9.36H571.806V10.716H569.01V18H567.564Z" fill="#039855"/>
<rect x="530.5" y="0.5" width="51" height="25" rx="12.5" stroke="#12B76A"/>
</svg>
