<svg width="1224" height="72" viewBox="0 0 1224 72" fill="none" xmlns="http://www.w3.org/2000/svg">
<rect opacity="0.06" y="32" width="1224" height="18" rx="9" fill="#F79009"/>
<rect opacity="0.5" x="0.5" y="32.5" width="185" height="17" rx="8.5" fill="#FEDF89" stroke="#B54708"/>
<rect opacity="0.2" x="586" y="32" width="186" height="18" rx="9" fill="#FEC84B"/>
<path opacity="0.24" d="M64 41L292.5 41" stroke="#B54708" stroke-dasharray="3 6"/>
<path d="M306.997 45.15C306.593 45.15 306.255 45.0767 305.982 44.93C305.712 44.78 305.507 44.5833 305.367 44.34C305.23 44.0967 305.162 43.83 305.162 43.54C305.162 43.2567 305.215 43.0117 305.322 42.805C305.432 42.595 305.585 42.4217 305.782 42.285C305.978 42.145 306.213 42.035 306.487 41.955C306.743 41.885 307.03 41.825 307.347 41.775C307.667 41.7217 307.99 41.6733 308.317 41.63C308.643 41.5867 308.948 41.545 309.232 41.505L308.912 41.69C308.922 41.21 308.825 40.855 308.622 40.625C308.422 40.395 308.075 40.28 307.582 40.28C307.255 40.28 306.968 40.355 306.722 40.505C306.478 40.6517 306.307 40.8917 306.207 41.225L305.362 40.97C305.492 40.4967 305.743 40.125 306.117 39.855C306.49 39.585 306.982 39.45 307.592 39.45C308.082 39.45 308.502 39.5383 308.852 39.715C309.205 39.8883 309.458 40.1517 309.612 40.505C309.688 40.6717 309.737 40.8533 309.757 41.05C309.777 41.2433 309.787 41.4467 309.787 41.66V45H308.997V43.705L309.182 43.825C308.978 44.2617 308.693 44.5917 308.327 44.815C307.963 45.0383 307.52 45.15 306.997 45.15ZM307.132 44.405C307.452 44.405 307.728 44.3483 307.962 44.235C308.198 44.1183 308.388 43.9667 308.532 43.78C308.675 43.59 308.768 43.3833 308.812 43.16C308.862 42.9933 308.888 42.8083 308.892 42.605C308.898 42.3983 308.902 42.24 308.902 42.13L309.212 42.265C308.922 42.305 308.637 42.3433 308.357 42.38C308.077 42.4167 307.812 42.4567 307.562 42.5C307.312 42.54 307.087 42.5883 306.887 42.645C306.74 42.6917 306.602 42.7517 306.472 42.825C306.345 42.8983 306.242 42.9933 306.162 43.11C306.085 43.2233 306.047 43.365 306.047 43.535C306.047 43.6817 306.083 43.8217 306.157 43.955C306.233 44.0883 306.35 44.1967 306.507 44.28C306.667 44.3633 306.875 44.405 307.132 44.405ZM314.102 45C313.782 45.0633 313.465 45.0883 313.152 45.075C312.842 45.065 312.565 45.0033 312.322 44.89C312.078 44.7733 311.893 44.5933 311.767 44.35C311.66 44.1367 311.602 43.9217 311.592 43.705C311.585 43.485 311.582 43.2367 311.582 42.96V38.1H312.472V42.92C312.472 43.14 312.473 43.3283 312.477 43.485C312.483 43.6417 312.518 43.7767 312.582 43.89C312.702 44.1033 312.892 44.2283 313.152 44.265C313.415 44.3017 313.732 44.2917 314.102 44.235V45ZM310.487 40.335V39.6H314.102V40.335H310.487ZM319.24 45.145C318.597 45.145 318.068 45.005 317.655 44.725C317.245 44.4417 316.993 44.0467 316.9 43.54L317.81 43.395C317.883 43.6883 318.052 43.9217 318.315 44.095C318.578 44.265 318.905 44.35 319.295 44.35C319.665 44.35 319.955 44.2733 320.165 44.12C320.375 43.9667 320.48 43.7583 320.48 43.495C320.48 43.3417 320.445 43.2183 320.375 43.125C320.305 43.0283 320.16 42.9383 319.94 42.855C319.723 42.7717 319.395 42.6717 318.955 42.555C318.478 42.4283 318.103 42.2967 317.83 42.16C317.557 42.0233 317.362 41.865 317.245 41.685C317.128 41.505 317.07 41.2867 317.07 41.03C317.07 40.7133 317.157 40.4367 317.33 40.2C317.503 39.96 317.745 39.775 318.055 39.645C318.368 39.515 318.732 39.45 319.145 39.45C319.555 39.45 319.922 39.515 320.245 39.645C320.568 39.775 320.828 39.96 321.025 40.2C321.225 40.4367 321.343 40.7133 321.38 41.03L320.47 41.195C320.427 40.905 320.287 40.6767 320.05 40.51C319.817 40.3433 319.515 40.255 319.145 40.245C318.795 40.2317 318.51 40.2933 318.29 40.43C318.073 40.5667 317.965 40.7517 317.965 40.985C317.965 41.115 318.005 41.2267 318.085 41.32C318.168 41.4133 318.32 41.5017 318.54 41.585C318.763 41.6683 319.087 41.7633 319.51 41.87C319.987 41.99 320.362 42.1217 320.635 42.265C320.912 42.405 321.108 42.5717 321.225 42.765C321.342 42.955 321.4 43.19 321.4 43.47C321.4 43.99 321.208 44.4 320.825 44.7C320.442 44.9967 319.913 45.145 319.24 45.145ZM324.843 45.15C324.313 45.15 323.849 45.0333 323.453 44.8C323.059 44.5633 322.753 44.235 322.533 43.815C322.313 43.3917 322.203 42.8983 322.203 42.335C322.203 41.745 322.311 41.235 322.528 40.805C322.744 40.3717 323.046 40.0383 323.433 39.805C323.823 39.5683 324.279 39.45 324.803 39.45C325.346 39.45 325.808 39.575 326.188 39.825C326.571 40.075 326.858 40.4317 327.048 40.895C327.241 41.3583 327.324 41.91 327.298 42.55H326.398V42.23C326.388 41.5667 326.253 41.0717 325.993 40.745C325.733 40.415 325.346 40.25 324.833 40.25C324.283 40.25 323.864 40.4267 323.578 40.78C323.291 41.1333 323.148 41.64 323.148 42.3C323.148 42.9367 323.291 43.43 323.578 43.78C323.864 44.13 324.273 44.305 324.803 44.305C325.159 44.305 325.469 44.2233 325.733 44.06C325.996 43.8967 326.203 43.6617 326.353 43.355L327.208 43.65C326.998 44.1267 326.681 44.4967 326.258 44.76C325.838 45.02 325.366 45.15 324.843 45.15ZM322.848 42.55V41.835H326.838V42.55H322.848ZM329.848 45.15C329.445 45.15 329.107 45.0767 328.833 44.93C328.563 44.78 328.358 44.5833 328.218 44.34C328.082 44.0967 328.013 43.83 328.013 43.54C328.013 43.2567 328.067 43.0117 328.173 42.805C328.283 42.595 328.437 42.4217 328.633 42.285C328.83 42.145 329.065 42.035 329.338 41.955C329.595 41.885 329.882 41.825 330.198 41.775C330.518 41.7217 330.842 41.6733 331.168 41.63C331.495 41.5867 331.8 41.545 332.083 41.505L331.763 41.69C331.773 41.21 331.677 40.855 331.473 40.625C331.273 40.395 330.927 40.28 330.433 40.28C330.107 40.28 329.82 40.355 329.573 40.505C329.33 40.6517 329.158 40.8917 329.058 41.225L328.213 40.97C328.343 40.4967 328.595 40.125 328.968 39.855C329.342 39.585 329.833 39.45 330.443 39.45C330.933 39.45 331.353 39.5383 331.703 39.715C332.057 39.8883 332.31 40.1517 332.463 40.505C332.54 40.6717 332.588 40.8533 332.608 41.05C332.628 41.2433 332.638 41.4467 332.638 41.66V45H331.848V43.705L332.033 43.825C331.83 44.2617 331.545 44.5917 331.178 44.815C330.815 45.0383 330.372 45.15 329.848 45.15ZM329.983 44.405C330.303 44.405 330.58 44.3483 330.813 44.235C331.05 44.1183 331.24 43.9667 331.383 43.78C331.527 43.59 331.62 43.3833 331.663 43.16C331.713 42.9933 331.74 42.8083 331.743 42.605C331.75 42.3983 331.753 42.24 331.753 42.13L332.063 42.265C331.773 42.305 331.488 42.3433 331.208 42.38C330.928 42.4167 330.663 42.4567 330.413 42.5C330.163 42.54 329.938 42.5883 329.738 42.645C329.592 42.6917 329.453 42.7517 329.323 42.825C329.197 42.8983 329.093 42.9933 329.013 43.11C328.937 43.2233 328.898 43.365 328.898 43.535C328.898 43.6817 328.935 43.8217 329.008 43.955C329.085 44.0883 329.202 44.1967 329.358 44.28C329.518 44.3633 329.727 44.405 329.983 44.405Z" fill="#007694"/>
<path opacity="0.24" d="M345.5 41L574 41" stroke="#B54708" stroke-dasharray="3 6"/>
<path opacity="0.24" d="M650 41L878.5 41" stroke="#B54708" stroke-dasharray="3 6"/>
<path d="M892.997 45.15C892.593 45.15 892.255 45.0767 891.982 44.93C891.712 44.78 891.507 44.5833 891.367 44.34C891.23 44.0967 891.162 43.83 891.162 43.54C891.162 43.2567 891.215 43.0117 891.322 42.805C891.432 42.595 891.585 42.4217 891.782 42.285C891.978 42.145 892.213 42.035 892.487 41.955C892.743 41.885 893.03 41.825 893.347 41.775C893.667 41.7217 893.99 41.6733 894.317 41.63C894.643 41.5867 894.948 41.545 895.232 41.505L894.912 41.69C894.922 41.21 894.825 40.855 894.622 40.625C894.422 40.395 894.075 40.28 893.582 40.28C893.255 40.28 892.968 40.355 892.722 40.505C892.478 40.6517 892.307 40.8917 892.207 41.225L891.362 40.97C891.492 40.4967 891.743 40.125 892.117 39.855C892.49 39.585 892.982 39.45 893.592 39.45C894.082 39.45 894.502 39.5383 894.852 39.715C895.205 39.8883 895.458 40.1517 895.612 40.505C895.688 40.6717 895.737 40.8533 895.757 41.05C895.777 41.2433 895.787 41.4467 895.787 41.66V45H894.997V43.705L895.182 43.825C894.978 44.2617 894.693 44.5917 894.327 44.815C893.963 45.0383 893.52 45.15 892.997 45.15ZM893.132 44.405C893.452 44.405 893.728 44.3483 893.962 44.235C894.198 44.1183 894.388 43.9667 894.532 43.78C894.675 43.59 894.768 43.3833 894.812 43.16C894.862 42.9933 894.888 42.8083 894.892 42.605C894.898 42.3983 894.902 42.24 894.902 42.13L895.212 42.265C894.922 42.305 894.637 42.3433 894.357 42.38C894.077 42.4167 893.812 42.4567 893.562 42.5C893.312 42.54 893.087 42.5883 892.887 42.645C892.74 42.6917 892.602 42.7517 892.472 42.825C892.345 42.8983 892.242 42.9933 892.162 43.11C892.085 43.2233 892.047 43.365 892.047 43.535C892.047 43.6817 892.083 43.8217 892.157 43.955C892.233 44.0883 892.35 44.1967 892.507 44.28C892.667 44.3633 892.875 44.405 893.132 44.405ZM900.102 45C899.782 45.0633 899.465 45.0883 899.152 45.075C898.842 45.065 898.565 45.0033 898.322 44.89C898.078 44.7733 897.893 44.5933 897.767 44.35C897.66 44.1367 897.602 43.9217 897.592 43.705C897.585 43.485 897.582 43.2367 897.582 42.96V38.1H898.472V42.92C898.472 43.14 898.473 43.3283 898.477 43.485C898.483 43.6417 898.518 43.7767 898.582 43.89C898.702 44.1033 898.892 44.2283 899.152 44.265C899.415 44.3017 899.732 44.2917 900.102 44.235V45ZM896.487 40.335V39.6H900.102V40.335H896.487ZM905.24 45.145C904.597 45.145 904.068 45.005 903.655 44.725C903.245 44.4417 902.993 44.0467 902.9 43.54L903.81 43.395C903.883 43.6883 904.052 43.9217 904.315 44.095C904.578 44.265 904.905 44.35 905.295 44.35C905.665 44.35 905.955 44.2733 906.165 44.12C906.375 43.9667 906.48 43.7583 906.48 43.495C906.48 43.3417 906.445 43.2183 906.375 43.125C906.305 43.0283 906.16 42.9383 905.94 42.855C905.723 42.7717 905.395 42.6717 904.955 42.555C904.478 42.4283 904.103 42.2967 903.83 42.16C903.557 42.0233 903.362 41.865 903.245 41.685C903.128 41.505 903.07 41.2867 903.07 41.03C903.07 40.7133 903.157 40.4367 903.33 40.2C903.503 39.96 903.745 39.775 904.055 39.645C904.368 39.515 904.732 39.45 905.145 39.45C905.555 39.45 905.922 39.515 906.245 39.645C906.568 39.775 906.828 39.96 907.025 40.2C907.225 40.4367 907.343 40.7133 907.38 41.03L906.47 41.195C906.427 40.905 906.287 40.6767 906.05 40.51C905.817 40.3433 905.515 40.255 905.145 40.245C904.795 40.2317 904.51 40.2933 904.29 40.43C904.073 40.5667 903.965 40.7517 903.965 40.985C903.965 41.115 904.005 41.2267 904.085 41.32C904.168 41.4133 904.32 41.5017 904.54 41.585C904.763 41.6683 905.087 41.7633 905.51 41.87C905.987 41.99 906.362 42.1217 906.635 42.265C906.912 42.405 907.108 42.5717 907.225 42.765C907.342 42.955 907.4 43.19 907.4 43.47C907.4 43.99 907.208 44.4 906.825 44.7C906.442 44.9967 905.913 45.145 905.24 45.145ZM910.843 45.15C910.313 45.15 909.849 45.0333 909.453 44.8C909.059 44.5633 908.753 44.235 908.533 43.815C908.313 43.3917 908.203 42.8983 908.203 42.335C908.203 41.745 908.311 41.235 908.528 40.805C908.744 40.3717 909.046 40.0383 909.433 39.805C909.823 39.5683 910.279 39.45 910.803 39.45C911.346 39.45 911.808 39.575 912.188 39.825C912.571 40.075 912.858 40.4317 913.048 40.895C913.241 41.3583 913.324 41.91 913.298 42.55H912.398V42.23C912.388 41.5667 912.253 41.0717 911.993 40.745C911.733 40.415 911.346 40.25 910.833 40.25C910.283 40.25 909.864 40.4267 909.578 40.78C909.291 41.1333 909.148 41.64 909.148 42.3C909.148 42.9367 909.291 43.43 909.578 43.78C909.864 44.13 910.273 44.305 910.803 44.305C911.159 44.305 911.469 44.2233 911.733 44.06C911.996 43.8967 912.203 43.6617 912.353 43.355L913.208 43.65C912.998 44.1267 912.681 44.4967 912.258 44.76C911.838 45.02 911.366 45.15 910.843 45.15ZM908.848 42.55V41.835H912.838V42.55H908.848ZM915.848 45.15C915.445 45.15 915.107 45.0767 914.833 44.93C914.563 44.78 914.358 44.5833 914.218 44.34C914.082 44.0967 914.013 43.83 914.013 43.54C914.013 43.2567 914.067 43.0117 914.173 42.805C914.283 42.595 914.437 42.4217 914.633 42.285C914.83 42.145 915.065 42.035 915.338 41.955C915.595 41.885 915.882 41.825 916.198 41.775C916.518 41.7217 916.842 41.6733 917.168 41.63C917.495 41.5867 917.8 41.545 918.083 41.505L917.763 41.69C917.773 41.21 917.677 40.855 917.473 40.625C917.273 40.395 916.927 40.28 916.433 40.28C916.107 40.28 915.82 40.355 915.573 40.505C915.33 40.6517 915.158 40.8917 915.058 41.225L914.213 40.97C914.343 40.4967 914.595 40.125 914.968 39.855C915.342 39.585 915.833 39.45 916.443 39.45C916.933 39.45 917.353 39.5383 917.703 39.715C918.057 39.8883 918.31 40.1517 918.463 40.505C918.54 40.6717 918.588 40.8533 918.608 41.05C918.628 41.2433 918.638 41.4467 918.638 41.66V45H917.848V43.705L918.033 43.825C917.83 44.2617 917.545 44.5917 917.178 44.815C916.815 45.0383 916.372 45.15 915.848 45.15ZM915.983 44.405C916.303 44.405 916.58 44.3483 916.813 44.235C917.05 44.1183 917.24 43.9667 917.383 43.78C917.527 43.59 917.62 43.3833 917.663 43.16C917.713 42.9933 917.74 42.8083 917.743 42.605C917.75 42.3983 917.753 42.24 917.753 42.13L918.063 42.265C917.773 42.305 917.488 42.3433 917.208 42.38C916.928 42.4167 916.663 42.4567 916.413 42.5C916.163 42.54 915.938 42.5883 915.738 42.645C915.592 42.6917 915.453 42.7517 915.323 42.825C915.197 42.8983 915.093 42.9933 915.013 43.11C914.937 43.2233 914.898 43.365 914.898 43.535C914.898 43.6817 914.935 43.8217 915.008 43.955C915.085 44.0883 915.202 44.1967 915.358 44.28C915.518 44.3633 915.727 44.405 915.983 44.405Z" fill="#007694"/>
<path opacity="0.24" d="M931.5 41L1160 41" stroke="#B54708" stroke-dasharray="3 6"/>
<path d="M0.84 14V5.36H2.304L6.312 11.45V5.36H7.776V14H6.312L2.304 7.91V14H0.84ZM9.45328 14V5.36H15.0333V6.716H10.8993V8.846H14.3133V10.202H10.8993V12.644H15.0333V14H9.45328ZM18.2968 14L15.7708 5.36H17.2888L19.0108 11.6L20.7268 5.372L22.2448 5.36L23.9668 11.6L25.6828 5.36H27.2008L24.6808 14H23.2528L21.4828 7.856L19.7248 14H18.2968ZM32.5262 14L29.8022 5.36H31.2902L33.5702 12.596L35.8802 5.36H37.3682L34.6442 14H32.5262ZM41.6893 14.18C40.8253 14.18 40.0853 13.992 39.4693 13.616C38.8533 13.236 38.3793 12.708 38.0473 12.032C37.7193 11.356 37.5553 10.572 37.5553 9.68C37.5553 8.788 37.7193 8.004 38.0473 7.328C38.3793 6.652 38.8533 6.126 39.4693 5.75C40.0853 5.37 40.8253 5.18 41.6893 5.18C42.5533 5.18 43.2933 5.37 43.9093 5.75C44.5293 6.126 45.0033 6.652 45.3313 7.328C45.6633 8.004 45.8293 8.788 45.8293 9.68C45.8293 10.572 45.6633 11.356 45.3313 12.032C45.0033 12.708 44.5293 13.236 43.9093 13.616C43.2933 13.992 42.5533 14.18 41.6893 14.18ZM41.6893 12.818C42.2693 12.822 42.7513 12.694 43.1353 12.434C43.5233 12.174 43.8133 11.808 44.0053 11.336C44.2013 10.864 44.2993 10.312 44.2993 9.68C44.2993 9.048 44.2013 8.5 44.0053 8.036C43.8133 7.568 43.5233 7.204 43.1353 6.944C42.7513 6.684 42.2693 6.55 41.6893 6.542C41.1093 6.538 40.6273 6.666 40.2433 6.926C39.8593 7.186 39.5693 7.552 39.3733 8.024C39.1813 8.496 39.0853 9.048 39.0853 9.68C39.0853 10.312 39.1813 10.862 39.3733 11.33C39.5653 11.794 39.8533 12.156 40.2373 12.416C40.6253 12.676 41.1093 12.81 41.6893 12.818ZM48.7603 14V10.46L45.8203 5.36H47.5063L49.4923 8.804L51.4723 5.36H53.1583L50.2243 10.46V14H48.7603ZM52.5525 14L55.2765 5.36H57.3945L60.1185 14H58.6305L56.1585 6.248H56.4825L54.0405 14H52.5525ZM54.0705 12.128V10.778H58.6065V12.128H54.0705ZM64.5329 14.18C63.9729 14.18 63.4469 14.082 62.9549 13.886C62.4669 13.686 62.0369 13.394 61.6649 13.01C61.2969 12.626 61.0089 12.156 60.8009 11.6C60.5929 11.04 60.4889 10.4 60.4889 9.68C60.4889 8.736 60.6649 7.93 61.0169 7.262C61.3689 6.59 61.8509 6.076 62.4629 5.72C63.0749 5.36 63.7649 5.18 64.5329 5.18C65.5969 5.18 66.4389 5.428 67.0589 5.924C67.6829 6.416 68.1049 7.108 68.3249 8L66.8489 8.234C66.6849 7.722 66.4169 7.314 66.0449 7.01C65.6729 6.702 65.1989 6.548 64.6229 6.548C64.0429 6.54 63.5609 6.666 63.1769 6.926C62.7929 7.186 62.5029 7.552 62.3069 8.024C62.1149 8.496 62.0189 9.048 62.0189 9.68C62.0189 10.312 62.1149 10.862 62.3069 11.33C62.4989 11.794 62.7869 12.156 63.1709 12.416C63.5589 12.676 64.0429 12.81 64.6229 12.818C65.0589 12.822 65.4409 12.744 65.7689 12.584C66.0969 12.42 66.3649 12.174 66.5729 11.846C66.7809 11.514 66.9209 11.1 66.9929 10.604H65.4689V9.47H68.5289C68.5369 9.534 68.5429 9.628 68.5469 9.752C68.5509 9.876 68.5529 9.95 68.5529 9.974C68.5529 10.79 68.3909 11.516 68.0669 12.152C67.7469 12.784 67.2869 13.28 66.6869 13.64C66.0869 14 65.3689 14.18 64.5329 14.18ZM69.758 14V5.36H75.338V6.716H71.204V8.846H74.618V10.202H71.204V12.644H75.338V14H69.758Z" fill="#93370D"/>
<path d="M564.752 14.18C563.888 14.18 563.148 13.992 562.532 13.616C561.916 13.236 561.442 12.708 561.11 12.032C560.782 11.356 560.618 10.572 560.618 9.68C560.618 8.788 560.782 8.004 561.11 7.328C561.442 6.652 561.916 6.126 562.532 5.75C563.148 5.37 563.888 5.18 564.752 5.18C565.748 5.18 566.578 5.43 567.242 5.93C567.906 6.426 568.372 7.096 568.64 7.94L567.182 8.342C567.014 7.778 566.728 7.338 566.324 7.022C565.92 6.702 565.396 6.542 564.752 6.542C564.172 6.542 563.688 6.672 563.3 6.932C562.916 7.192 562.626 7.558 562.43 8.03C562.238 8.498 562.14 9.048 562.136 9.68C562.136 10.312 562.232 10.864 562.424 11.336C562.62 11.804 562.912 12.168 563.3 12.428C563.688 12.688 564.172 12.818 564.752 12.818C565.396 12.818 565.92 12.658 566.324 12.338C566.728 12.018 567.014 11.578 567.182 11.018L568.64 11.42C568.372 12.264 567.906 12.936 567.242 13.436C566.578 13.932 565.748 14.18 564.752 14.18ZM573.437 14.18C572.749 14.18 572.143 14.04 571.619 13.76C571.099 13.48 570.691 13.086 570.395 12.578C570.103 12.07 569.957 11.474 569.957 10.79V5.372L571.421 5.36V10.754C571.421 11.078 571.475 11.368 571.583 11.624C571.695 11.88 571.845 12.098 572.033 12.278C572.221 12.454 572.437 12.588 572.681 12.68C572.925 12.772 573.177 12.818 573.437 12.818C573.705 12.818 573.959 12.772 574.199 12.68C574.443 12.584 574.659 12.448 574.847 12.272C575.035 12.092 575.183 11.874 575.291 11.618C575.399 11.362 575.453 11.074 575.453 10.754V5.36H576.917V10.79C576.917 11.474 576.769 12.07 576.473 12.578C576.181 13.086 575.773 13.48 575.249 13.76C574.729 14.04 574.125 14.18 573.437 14.18ZM578.594 14V5.36H582.164C582.248 5.36 582.356 5.364 582.488 5.372C582.62 5.376 582.742 5.388 582.854 5.408C583.354 5.484 583.766 5.65 584.09 5.906C584.418 6.162 584.66 6.486 584.816 6.878C584.976 7.266 585.056 7.698 585.056 8.174C585.056 8.878 584.878 9.484 584.522 9.992C584.166 10.496 583.62 10.808 582.884 10.928L582.266 10.982H580.04V14H578.594ZM583.556 14L581.852 10.484L583.322 10.16L585.194 14H583.556ZM580.04 9.632H582.104C582.184 9.632 582.274 9.628 582.374 9.62C582.474 9.612 582.566 9.596 582.65 9.572C582.89 9.512 583.078 9.406 583.214 9.254C583.354 9.102 583.452 8.93 583.508 8.738C583.568 8.546 583.598 8.358 583.598 8.174C583.598 7.99 583.568 7.802 583.508 7.61C583.452 7.414 583.354 7.24 583.214 7.088C583.078 6.936 582.89 6.83 582.65 6.77C582.566 6.746 582.474 6.732 582.374 6.728C582.274 6.72 582.184 6.716 582.104 6.716H580.04V9.632ZM586.516 14V5.36H590.086C590.17 5.36 590.278 5.364 590.41 5.372C590.542 5.376 590.664 5.388 590.776 5.408C591.276 5.484 591.688 5.65 592.012 5.906C592.34 6.162 592.582 6.486 592.738 6.878C592.898 7.266 592.978 7.698 592.978 8.174C592.978 8.878 592.8 9.484 592.444 9.992C592.088 10.496 591.542 10.808 590.806 10.928L590.188 10.982H587.962V14H586.516ZM591.478 14L589.774 10.484L591.244 10.16L593.116 14H591.478ZM587.962 9.632H590.026C590.106 9.632 590.196 9.628 590.296 9.62C590.396 9.612 590.488 9.596 590.572 9.572C590.812 9.512 591 9.406 591.136 9.254C591.276 9.102 591.374 8.93 591.43 8.738C591.49 8.546 591.52 8.358 591.52 8.174C591.52 7.99 591.49 7.802 591.43 7.61C591.374 7.414 591.276 7.24 591.136 7.088C591 6.936 590.812 6.83 590.572 6.77C590.488 6.746 590.396 6.732 590.296 6.728C590.196 6.72 590.106 6.716 590.026 6.716H587.962V9.632ZM594.438 14V5.36H600.018V6.716H595.884V8.846H599.298V10.202H595.884V12.644H600.018V14H594.438ZM601.457 14V5.36H602.921L606.929 11.45V5.36H608.393V14H606.929L602.921 7.91V14H601.457ZM612.146 14V6.716H609.35V5.36H616.388V6.716H613.592V14H612.146ZM621.331 14L618.607 5.36H620.095L622.375 12.596L624.685 5.36H626.173L623.449 14H621.331ZM630.494 14.18C629.63 14.18 628.89 13.992 628.274 13.616C627.658 13.236 627.184 12.708 626.852 12.032C626.524 11.356 626.36 10.572 626.36 9.68C626.36 8.788 626.524 8.004 626.852 7.328C627.184 6.652 627.658 6.126 628.274 5.75C628.89 5.37 629.63 5.18 630.494 5.18C631.358 5.18 632.098 5.37 632.714 5.75C633.334 6.126 633.808 6.652 634.136 7.328C634.468 8.004 634.634 8.788 634.634 9.68C634.634 10.572 634.468 11.356 634.136 12.032C633.808 12.708 633.334 13.236 632.714 13.616C632.098 13.992 631.358 14.18 630.494 14.18ZM630.494 12.818C631.074 12.822 631.556 12.694 631.94 12.434C632.328 12.174 632.618 11.808 632.81 11.336C633.006 10.864 633.104 10.312 633.104 9.68C633.104 9.048 633.006 8.5 632.81 8.036C632.618 7.568 632.328 7.204 631.94 6.944C631.556 6.684 631.074 6.55 630.494 6.542C629.914 6.538 629.432 6.666 629.048 6.926C628.664 7.186 628.374 7.552 628.178 8.024C627.986 8.496 627.89 9.048 627.89 9.68C627.89 10.312 627.986 10.862 628.178 11.33C628.37 11.794 628.658 12.156 629.042 12.416C629.43 12.676 629.914 12.81 630.494 12.818ZM637.565 14V10.46L634.625 5.36H636.311L638.297 8.804L640.277 5.36H641.963L639.029 10.46V14H637.565ZM641.357 14L644.081 5.36H646.199L648.923 14H647.435L644.963 6.248H645.287L642.845 14H641.357ZM642.875 12.128V10.778H647.411V12.128H642.875ZM653.338 14.18C652.778 14.18 652.252 14.082 651.76 13.886C651.272 13.686 650.842 13.394 650.47 13.01C650.102 12.626 649.814 12.156 649.606 11.6C649.398 11.04 649.294 10.4 649.294 9.68C649.294 8.736 649.47 7.93 649.822 7.262C650.174 6.59 650.656 6.076 651.268 5.72C651.88 5.36 652.57 5.18 653.338 5.18C654.402 5.18 655.244 5.428 655.864 5.924C656.488 6.416 656.91 7.108 657.13 8L655.654 8.234C655.49 7.722 655.222 7.314 654.85 7.01C654.478 6.702 654.004 6.548 653.428 6.548C652.848 6.54 652.366 6.666 651.982 6.926C651.598 7.186 651.308 7.552 651.112 8.024C650.92 8.496 650.824 9.048 650.824 9.68C650.824 10.312 650.92 10.862 651.112 11.33C651.304 11.794 651.592 12.156 651.976 12.416C652.364 12.676 652.848 12.81 653.428 12.818C653.864 12.822 654.246 12.744 654.574 12.584C654.902 12.42 655.17 12.174 655.378 11.846C655.586 11.514 655.726 11.1 655.798 10.604H654.274V9.47H657.334C657.342 9.534 657.348 9.628 657.352 9.752C657.356 9.876 657.358 9.95 657.358 9.974C657.358 10.79 657.196 11.516 656.872 12.152C656.552 12.784 656.092 13.28 655.492 13.64C654.892 14 654.174 14.18 653.338 14.18ZM658.563 14V5.36H664.143V6.716H660.009V8.846H663.423V10.202H660.009V12.644H664.143V14H658.563Z" fill="#93370D"/>
<path d="M163.133 68V59.36H166.703C166.787 59.36 166.895 59.364 167.027 59.372C167.159 59.376 167.281 59.388 167.393 59.408C167.893 59.484 168.305 59.65 168.629 59.906C168.957 60.162 169.199 60.486 169.355 60.878C169.515 61.266 169.595 61.698 169.595 62.174C169.595 62.878 169.417 63.484 169.061 63.992C168.705 64.496 168.159 64.808 167.423 64.928L166.805 64.982H164.579V68H163.133ZM168.095 68L166.391 64.484L167.861 64.16L169.733 68H168.095ZM164.579 63.632H166.643C166.723 63.632 166.813 63.628 166.913 63.62C167.013 63.612 167.105 63.596 167.189 63.572C167.429 63.512 167.617 63.406 167.753 63.254C167.893 63.102 167.991 62.93 168.047 62.738C168.107 62.546 168.137 62.358 168.137 62.174C168.137 61.99 168.107 61.802 168.047 61.61C167.991 61.414 167.893 61.24 167.753 61.088C167.617 60.936 167.429 60.83 167.189 60.77C167.105 60.746 167.013 60.732 166.913 60.728C166.813 60.72 166.723 60.716 166.643 60.716H164.579V63.632ZM173.239 59.36H174.691L172.387 68H170.935L173.239 59.36ZM179.726 68.18C179.038 68.18 178.432 68.04 177.908 67.76C177.388 67.48 176.98 67.086 176.684 66.578C176.392 66.07 176.246 65.474 176.246 64.79V59.372L177.71 59.36V64.754C177.71 65.078 177.764 65.368 177.872 65.624C177.984 65.88 178.134 66.098 178.322 66.278C178.51 66.454 178.726 66.588 178.97 66.68C179.214 66.772 179.466 66.818 179.726 66.818C179.994 66.818 180.248 66.772 180.488 66.68C180.732 66.584 180.948 66.448 181.136 66.272C181.324 66.092 181.472 65.874 181.58 65.618C181.688 65.362 181.742 65.074 181.742 64.754V59.36H183.206V64.79C183.206 65.474 183.058 66.07 182.762 66.578C182.47 67.086 182.062 67.48 181.538 67.76C181.018 68.04 180.414 68.18 179.726 68.18ZM184.883 68V59.36H188.453C188.537 59.36 188.645 59.364 188.777 59.372C188.909 59.376 189.031 59.388 189.143 59.408C189.643 59.484 190.055 59.65 190.379 59.906C190.707 60.162 190.949 60.486 191.105 60.878C191.265 61.266 191.345 61.698 191.345 62.174C191.345 62.646 191.265 63.078 191.105 63.47C190.945 63.858 190.701 64.18 190.373 64.436C190.049 64.692 189.639 64.858 189.143 64.934C189.031 64.95 188.907 64.962 188.771 64.97C188.639 64.978 188.533 64.982 188.453 64.982H186.329V68H184.883ZM186.329 63.632H188.393C188.473 63.632 188.563 63.628 188.663 63.62C188.763 63.612 188.855 63.596 188.939 63.572C189.179 63.512 189.367 63.406 189.503 63.254C189.643 63.102 189.741 62.93 189.797 62.738C189.857 62.546 189.887 62.358 189.887 62.174C189.887 61.99 189.857 61.802 189.797 61.61C189.741 61.414 189.643 61.24 189.503 61.088C189.367 60.936 189.179 60.83 188.939 60.77C188.855 60.746 188.763 60.732 188.663 60.728C188.563 60.72 188.473 60.716 188.393 60.716H186.329V63.632Z" fill="#DC6803"/>
<path d="M749.133 68V59.36H752.703C752.787 59.36 752.895 59.364 753.027 59.372C753.159 59.376 753.281 59.388 753.393 59.408C753.893 59.484 754.305 59.65 754.629 59.906C754.957 60.162 755.199 60.486 755.355 60.878C755.515 61.266 755.595 61.698 755.595 62.174C755.595 62.878 755.417 63.484 755.061 63.992C754.705 64.496 754.159 64.808 753.423 64.928L752.805 64.982H750.579V68H749.133ZM754.095 68L752.391 64.484L753.861 64.16L755.733 68H754.095ZM750.579 63.632H752.643C752.723 63.632 752.813 63.628 752.913 63.62C753.013 63.612 753.105 63.596 753.189 63.572C753.429 63.512 753.617 63.406 753.753 63.254C753.893 63.102 753.991 62.93 754.047 62.738C754.107 62.546 754.137 62.358 754.137 62.174C754.137 61.99 754.107 61.802 754.047 61.61C753.991 61.414 753.893 61.24 753.753 61.088C753.617 60.936 753.429 60.83 753.189 60.77C753.105 60.746 753.013 60.732 752.913 60.728C752.813 60.72 752.723 60.716 752.643 60.716H750.579V63.632ZM759.239 59.36H760.691L758.387 68H756.935L759.239 59.36ZM765.726 68.18C765.038 68.18 764.432 68.04 763.908 67.76C763.388 67.48 762.98 67.086 762.684 66.578C762.392 66.07 762.246 65.474 762.246 64.79V59.372L763.71 59.36V64.754C763.71 65.078 763.764 65.368 763.872 65.624C763.984 65.88 764.134 66.098 764.322 66.278C764.51 66.454 764.726 66.588 764.97 66.68C765.214 66.772 765.466 66.818 765.726 66.818C765.994 66.818 766.248 66.772 766.488 66.68C766.732 66.584 766.948 66.448 767.136 66.272C767.324 66.092 767.472 65.874 767.58 65.618C767.688 65.362 767.742 65.074 767.742 64.754V59.36H769.206V64.79C769.206 65.474 769.058 66.07 768.762 66.578C768.47 67.086 768.062 67.48 767.538 67.76C767.018 68.04 766.414 68.18 765.726 68.18ZM770.883 68V59.36H774.453C774.537 59.36 774.645 59.364 774.777 59.372C774.909 59.376 775.031 59.388 775.143 59.408C775.643 59.484 776.055 59.65 776.379 59.906C776.707 60.162 776.949 60.486 777.105 60.878C777.265 61.266 777.345 61.698 777.345 62.174C777.345 62.646 777.265 63.078 777.105 63.47C776.945 63.858 776.701 64.18 776.373 64.436C776.049 64.692 775.639 64.858 775.143 64.934C775.031 64.95 774.907 64.962 774.771 64.97C774.639 64.978 774.533 64.982 774.453 64.982H772.329V68H770.883ZM772.329 63.632H774.393C774.473 63.632 774.563 63.628 774.663 63.62C774.763 63.612 774.855 63.596 774.939 63.572C775.179 63.512 775.367 63.406 775.503 63.254C775.643 63.102 775.741 62.93 775.797 62.738C775.857 62.546 775.887 62.358 775.887 62.174C775.887 61.99 775.857 61.802 775.797 61.61C775.741 61.414 775.643 61.24 775.503 61.088C775.367 60.936 775.179 60.83 774.939 60.77C774.855 60.746 774.763 60.732 774.663 60.728C774.563 60.72 774.473 60.716 774.393 60.716H772.329V63.632Z" fill="#DC6803"/>
<circle cx="463" cy="41" r="2.5" fill="#B54708" stroke="#F5FDFF"/>
<path d="M452.978 68.18C452.358 68.18 451.798 68.074 451.298 67.862C450.802 67.646 450.392 67.34 450.068 66.944C449.748 66.544 449.54 66.07 449.444 65.522L450.752 65.324C450.884 65.852 451.16 66.264 451.58 66.56C452 66.852 452.49 66.998 453.05 66.998C453.398 66.998 453.718 66.944 454.01 66.836C454.302 66.724 454.536 66.566 454.712 66.362C454.892 66.154 454.982 65.906 454.982 65.618C454.982 65.462 454.954 65.324 454.898 65.204C454.846 65.084 454.772 64.98 454.676 64.892C454.584 64.8 454.47 64.722 454.334 64.658C454.202 64.59 454.056 64.532 453.896 64.484L451.682 63.83C451.466 63.766 451.246 63.684 451.022 63.584C450.798 63.48 450.592 63.346 450.404 63.182C450.22 63.014 450.07 62.808 449.954 62.564C449.838 62.316 449.78 62.016 449.78 61.664C449.78 61.132 449.916 60.682 450.188 60.314C450.464 59.942 450.836 59.662 451.304 59.474C451.772 59.282 452.296 59.186 452.876 59.186C453.46 59.194 453.982 59.298 454.442 59.498C454.906 59.698 455.29 59.986 455.594 60.362C455.902 60.734 456.114 61.186 456.23 61.718L454.886 61.946C454.826 61.622 454.698 61.344 454.502 61.112C454.306 60.876 454.066 60.696 453.782 60.572C453.498 60.444 453.19 60.378 452.858 60.374C452.538 60.366 452.244 60.414 451.976 60.518C451.712 60.622 451.5 60.768 451.34 60.956C451.184 61.144 451.106 61.36 451.106 61.604C451.106 61.844 451.176 62.038 451.316 62.186C451.456 62.334 451.628 62.452 451.832 62.54C452.04 62.624 452.246 62.694 452.45 62.75L454.046 63.2C454.246 63.256 454.472 63.332 454.724 63.428C454.98 63.52 455.226 63.65 455.462 63.818C455.702 63.986 455.9 64.21 456.056 64.49C456.212 64.766 456.29 65.114 456.29 65.534C456.29 65.97 456.202 66.354 456.026 66.686C455.85 67.014 455.608 67.29 455.3 67.514C454.996 67.734 454.644 67.9 454.244 68.012C453.844 68.124 453.422 68.18 452.978 68.18ZM459.753 59.36H461.019L458.715 68H457.449L459.753 59.36ZM462.584 68V59.36H465.98C466.528 59.36 466.988 59.472 467.36 59.696C467.732 59.92 468.012 60.21 468.2 60.566C468.388 60.918 468.482 61.29 468.482 61.682C468.482 62.158 468.364 62.566 468.128 62.906C467.896 63.246 467.582 63.478 467.186 63.602L467.174 63.308C467.726 63.444 468.15 63.71 468.446 64.106C468.742 64.498 468.89 64.956 468.89 65.48C468.89 65.988 468.788 66.43 468.584 66.806C468.384 67.182 468.09 67.476 467.702 67.688C467.318 67.896 466.852 68 466.304 68H462.584ZM463.856 66.806H466.112C466.396 66.806 466.65 66.752 466.874 66.644C467.102 66.536 467.28 66.382 467.408 66.182C467.54 65.978 467.606 65.736 467.606 65.456C467.606 65.196 467.548 64.962 467.432 64.754C467.32 64.542 467.156 64.376 466.94 64.256C466.728 64.132 466.478 64.07 466.19 64.07H463.856V66.806ZM463.856 62.888H465.962C466.194 62.888 466.402 62.842 466.586 62.75C466.774 62.654 466.922 62.518 467.03 62.342C467.142 62.162 467.198 61.946 467.198 61.694C467.198 61.358 467.086 61.082 466.862 60.866C466.638 60.65 466.338 60.542 465.962 60.542H463.856V62.888ZM471.803 68V64.43L468.881 59.36H470.345L472.439 62.99L474.533 59.36H475.997L473.075 64.43V68H471.803Z" fill="#98A2B3"/>
<circle cx="1045.5" cy="41" r="2.5" fill="#B54708" stroke="#F5FDFF"/>
<path d="M1035.98 68.18C1035.36 68.18 1034.8 68.074 1034.3 67.862C1033.8 67.646 1033.39 67.34 1033.07 66.944C1032.75 66.544 1032.54 66.07 1032.44 65.522L1033.75 65.324C1033.88 65.852 1034.16 66.264 1034.58 66.56C1035 66.852 1035.49 66.998 1036.05 66.998C1036.4 66.998 1036.72 66.944 1037.01 66.836C1037.3 66.724 1037.54 66.566 1037.71 66.362C1037.89 66.154 1037.98 65.906 1037.98 65.618C1037.98 65.462 1037.95 65.324 1037.9 65.204C1037.85 65.084 1037.77 64.98 1037.68 64.892C1037.58 64.8 1037.47 64.722 1037.33 64.658C1037.2 64.59 1037.06 64.532 1036.9 64.484L1034.68 63.83C1034.47 63.766 1034.25 63.684 1034.02 63.584C1033.8 63.48 1033.59 63.346 1033.4 63.182C1033.22 63.014 1033.07 62.808 1032.95 62.564C1032.84 62.316 1032.78 62.016 1032.78 61.664C1032.78 61.132 1032.92 60.682 1033.19 60.314C1033.46 59.942 1033.84 59.662 1034.3 59.474C1034.77 59.282 1035.3 59.186 1035.88 59.186C1036.46 59.194 1036.98 59.298 1037.44 59.498C1037.91 59.698 1038.29 59.986 1038.59 60.362C1038.9 60.734 1039.11 61.186 1039.23 61.718L1037.89 61.946C1037.83 61.622 1037.7 61.344 1037.5 61.112C1037.31 60.876 1037.07 60.696 1036.78 60.572C1036.5 60.444 1036.19 60.378 1035.86 60.374C1035.54 60.366 1035.24 60.414 1034.98 60.518C1034.71 60.622 1034.5 60.768 1034.34 60.956C1034.18 61.144 1034.11 61.36 1034.11 61.604C1034.11 61.844 1034.18 62.038 1034.32 62.186C1034.46 62.334 1034.63 62.452 1034.83 62.54C1035.04 62.624 1035.25 62.694 1035.45 62.75L1037.05 63.2C1037.25 63.256 1037.47 63.332 1037.72 63.428C1037.98 63.52 1038.23 63.65 1038.46 63.818C1038.7 63.986 1038.9 64.21 1039.06 64.49C1039.21 64.766 1039.29 65.114 1039.29 65.534C1039.29 65.97 1039.2 66.354 1039.03 66.686C1038.85 67.014 1038.61 67.29 1038.3 67.514C1038 67.734 1037.64 67.9 1037.24 68.012C1036.84 68.124 1036.42 68.18 1035.98 68.18ZM1042.75 59.36H1044.02L1041.71 68H1040.45L1042.75 59.36ZM1045.58 68V59.36H1048.98C1049.53 59.36 1049.99 59.472 1050.36 59.696C1050.73 59.92 1051.01 60.21 1051.2 60.566C1051.39 60.918 1051.48 61.29 1051.48 61.682C1051.48 62.158 1051.36 62.566 1051.13 62.906C1050.9 63.246 1050.58 63.478 1050.19 63.602L1050.17 63.308C1050.73 63.444 1051.15 63.71 1051.45 64.106C1051.74 64.498 1051.89 64.956 1051.89 65.48C1051.89 65.988 1051.79 66.43 1051.58 66.806C1051.38 67.182 1051.09 67.476 1050.7 67.688C1050.32 67.896 1049.85 68 1049.3 68H1045.58ZM1046.86 66.806H1049.11C1049.4 66.806 1049.65 66.752 1049.87 66.644C1050.1 66.536 1050.28 66.382 1050.41 66.182C1050.54 65.978 1050.61 65.736 1050.61 65.456C1050.61 65.196 1050.55 64.962 1050.43 64.754C1050.32 64.542 1050.16 64.376 1049.94 64.256C1049.73 64.132 1049.48 64.07 1049.19 64.07H1046.86V66.806ZM1046.86 62.888H1048.96C1049.19 62.888 1049.4 62.842 1049.59 62.75C1049.77 62.654 1049.92 62.518 1050.03 62.342C1050.14 62.162 1050.2 61.946 1050.2 61.694C1050.2 61.358 1050.09 61.082 1049.86 60.866C1049.64 60.65 1049.34 60.542 1048.96 60.542H1046.86V62.888ZM1054.8 68V64.43L1051.88 59.36H1053.34L1055.44 62.99L1057.53 59.36H1059L1056.07 64.43V68H1054.8Z" fill="#98A2B3"/>
<rect x="1172.5" y="28.5" width="51" height="25" rx="12.5" fill="#F9FAFB"/>
<path d="M1182.91 46V37.36H1186.48C1186.57 37.36 1186.68 37.364 1186.81 37.372C1186.94 37.376 1187.06 37.388 1187.17 37.408C1187.67 37.484 1188.09 37.65 1188.41 37.906C1188.74 38.162 1188.98 38.486 1189.14 38.878C1189.3 39.266 1189.38 39.698 1189.38 40.174C1189.38 40.646 1189.3 41.078 1189.14 41.47C1188.98 41.858 1188.73 42.18 1188.4 42.436C1188.08 42.692 1187.67 42.858 1187.17 42.934C1187.06 42.95 1186.94 42.962 1186.8 42.97C1186.67 42.978 1186.56 42.982 1186.48 42.982H1184.36V46H1182.91ZM1184.36 41.632H1186.42C1186.5 41.632 1186.59 41.628 1186.69 41.62C1186.79 41.612 1186.89 41.596 1186.97 41.572C1187.21 41.512 1187.4 41.406 1187.53 41.254C1187.67 41.102 1187.77 40.93 1187.83 40.738C1187.89 40.546 1187.92 40.358 1187.92 40.174C1187.92 39.99 1187.89 39.802 1187.83 39.61C1187.77 39.414 1187.67 39.24 1187.53 39.088C1187.4 38.936 1187.21 38.83 1186.97 38.77C1186.89 38.746 1186.79 38.732 1186.69 38.728C1186.59 38.72 1186.5 38.716 1186.42 38.716H1184.36V41.632ZM1194.23 46.18C1193.37 46.18 1192.63 45.992 1192.01 45.616C1191.4 45.236 1190.92 44.708 1190.59 44.032C1190.26 43.356 1190.1 42.572 1190.1 41.68C1190.1 40.788 1190.26 40.004 1190.59 39.328C1190.92 38.652 1191.4 38.126 1192.01 37.75C1192.63 37.37 1193.37 37.18 1194.23 37.18C1195.1 37.18 1195.84 37.37 1196.45 37.75C1197.07 38.126 1197.55 38.652 1197.87 39.328C1198.21 40.004 1198.37 40.788 1198.37 41.68C1198.37 42.572 1198.21 43.356 1197.87 44.032C1197.55 44.708 1197.07 45.236 1196.45 45.616C1195.84 45.992 1195.1 46.18 1194.23 46.18ZM1194.23 44.818C1194.81 44.822 1195.29 44.694 1195.68 44.434C1196.07 44.174 1196.36 43.808 1196.55 43.336C1196.74 42.864 1196.84 42.312 1196.84 41.68C1196.84 41.048 1196.74 40.5 1196.55 40.036C1196.36 39.568 1196.07 39.204 1195.68 38.944C1195.29 38.684 1194.81 38.55 1194.23 38.542C1193.65 38.538 1193.17 38.666 1192.79 38.926C1192.4 39.186 1192.11 39.552 1191.92 40.024C1191.72 40.496 1191.63 41.048 1191.63 41.68C1191.63 42.312 1191.72 42.862 1191.92 43.33C1192.11 43.794 1192.4 44.156 1192.78 44.416C1193.17 44.676 1193.65 44.81 1194.23 44.818ZM1199.57 46V37.36H1203.14C1203.22 37.36 1203.33 37.364 1203.46 37.372C1203.59 37.376 1203.71 37.388 1203.83 37.408C1204.33 37.484 1204.74 37.65 1205.06 37.906C1205.39 38.162 1205.63 38.486 1205.79 38.878C1205.95 39.266 1206.03 39.698 1206.03 40.174C1206.03 40.878 1205.85 41.484 1205.49 41.992C1205.14 42.496 1204.59 42.808 1203.86 42.928L1203.24 42.982H1201.01V46H1199.57ZM1204.53 46L1202.82 42.484L1204.29 42.16L1206.17 46H1204.53ZM1201.01 41.632H1203.08C1203.16 41.632 1203.25 41.628 1203.35 41.62C1203.45 41.612 1203.54 41.596 1203.62 41.572C1203.86 41.512 1204.05 41.406 1204.19 41.254C1204.33 41.102 1204.42 40.93 1204.48 40.738C1204.54 40.546 1204.57 40.358 1204.57 40.174C1204.57 39.99 1204.54 39.802 1204.48 39.61C1204.42 39.414 1204.33 39.24 1204.19 39.088C1204.05 38.936 1203.86 38.83 1203.62 38.77C1203.54 38.746 1203.45 38.732 1203.35 38.728C1203.25 38.72 1203.16 38.716 1203.08 38.716H1201.01V41.632ZM1209.56 46V38.716H1206.77V37.36H1213.81V38.716H1211.01V46H1209.56Z" fill="#667085"/>
<rect x="1172.5" y="28.5" width="51" height="25" rx="12.5" stroke="#E4E7EC"/>
<rect y="28" width="52" height="26" rx="13" fill="#DC6803"/>
<path d="M10.9142 46V37.36H14.4842C14.5682 37.36 14.6762 37.364 14.8082 37.372C14.9402 37.376 15.0622 37.388 15.1742 37.408C15.6742 37.484 16.0862 37.65 16.4102 37.906C16.7382 38.162 16.9802 38.486 17.1362 38.878C17.2962 39.266 17.3762 39.698 17.3762 40.174C17.3762 40.646 17.2962 41.078 17.1362 41.47C16.9762 41.858 16.7322 42.18 16.4042 42.436C16.0802 42.692 15.6702 42.858 15.1742 42.934C15.0622 42.95 14.9382 42.962 14.8022 42.97C14.6702 42.978 14.5642 42.982 14.4842 42.982H12.3602V46H10.9142ZM12.3602 41.632H14.4242C14.5042 41.632 14.5942 41.628 14.6942 41.62C14.7942 41.612 14.8862 41.596 14.9702 41.572C15.2102 41.512 15.3982 41.406 15.5342 41.254C15.6742 41.102 15.7722 40.93 15.8282 40.738C15.8882 40.546 15.9182 40.358 15.9182 40.174C15.9182 39.99 15.8882 39.802 15.8282 39.61C15.7722 39.414 15.6742 39.24 15.5342 39.088C15.3982 38.936 15.2102 38.83 14.9702 38.77C14.8862 38.746 14.7942 38.732 14.6942 38.728C14.5942 38.72 14.5042 38.716 14.4242 38.716H12.3602V41.632ZM22.2323 46.18C21.3683 46.18 20.6283 45.992 20.0123 45.616C19.3963 45.236 18.9223 44.708 18.5903 44.032C18.2623 43.356 18.0983 42.572 18.0983 41.68C18.0983 40.788 18.2623 40.004 18.5903 39.328C18.9223 38.652 19.3963 38.126 20.0123 37.75C20.6283 37.37 21.3683 37.18 22.2323 37.18C23.0963 37.18 23.8363 37.37 24.4523 37.75C25.0723 38.126 25.5463 38.652 25.8743 39.328C26.2063 40.004 26.3723 40.788 26.3723 41.68C26.3723 42.572 26.2063 43.356 25.8743 44.032C25.5463 44.708 25.0723 45.236 24.4523 45.616C23.8363 45.992 23.0963 46.18 22.2323 46.18ZM22.2323 44.818C22.8123 44.822 23.2943 44.694 23.6783 44.434C24.0663 44.174 24.3563 43.808 24.5483 43.336C24.7443 42.864 24.8423 42.312 24.8423 41.68C24.8423 41.048 24.7443 40.5 24.5483 40.036C24.3563 39.568 24.0663 39.204 23.6783 38.944C23.2943 38.684 22.8123 38.55 22.2323 38.542C21.6523 38.538 21.1703 38.666 20.7863 38.926C20.4023 39.186 20.1123 39.552 19.9163 40.024C19.7243 40.496 19.6283 41.048 19.6283 41.68C19.6283 42.312 19.7243 42.862 19.9163 43.33C20.1083 43.794 20.3963 44.156 20.7803 44.416C21.1683 44.676 21.6523 44.81 22.2323 44.818ZM27.5666 46V37.36H31.1366C31.2206 37.36 31.3286 37.364 31.4606 37.372C31.5926 37.376 31.7146 37.388 31.8266 37.408C32.3266 37.484 32.7386 37.65 33.0626 37.906C33.3906 38.162 33.6326 38.486 33.7886 38.878C33.9486 39.266 34.0286 39.698 34.0286 40.174C34.0286 40.878 33.8506 41.484 33.4946 41.992C33.1386 42.496 32.5926 42.808 31.8566 42.928L31.2386 42.982H29.0126V46H27.5666ZM32.5286 46L30.8246 42.484L32.2946 42.16L34.1666 46H32.5286ZM29.0126 41.632H31.0766C31.1566 41.632 31.2466 41.628 31.3466 41.62C31.4466 41.612 31.5386 41.596 31.6226 41.572C31.8626 41.512 32.0506 41.406 32.1866 41.254C32.3266 41.102 32.4246 40.93 32.4806 40.738C32.5406 40.546 32.5706 40.358 32.5706 40.174C32.5706 39.99 32.5406 39.802 32.4806 39.61C32.4246 39.414 32.3266 39.24 32.1866 39.088C32.0506 38.936 31.8626 38.83 31.6226 38.77C31.5386 38.746 31.4466 38.732 31.3466 38.728C31.2466 38.72 31.1566 38.716 31.0766 38.716H29.0126V41.632ZM37.5644 46V38.716H34.7684V37.36H41.8064V38.716H39.0104V46H37.5644Z" fill="white"/>
<rect x="586.5" y="28.5" width="51" height="25" rx="12.5" fill="#F9FAFB"/>
<path d="M596.914 46V37.36H600.484C600.568 37.36 600.676 37.364 600.808 37.372C600.94 37.376 601.062 37.388 601.174 37.408C601.674 37.484 602.086 37.65 602.41 37.906C602.738 38.162 602.98 38.486 603.136 38.878C603.296 39.266 603.376 39.698 603.376 40.174C603.376 40.646 603.296 41.078 603.136 41.47C602.976 41.858 602.732 42.18 602.404 42.436C602.08 42.692 601.67 42.858 601.174 42.934C601.062 42.95 600.938 42.962 600.802 42.97C600.67 42.978 600.564 42.982 600.484 42.982H598.36V46H596.914ZM598.36 41.632H600.424C600.504 41.632 600.594 41.628 600.694 41.62C600.794 41.612 600.886 41.596 600.97 41.572C601.21 41.512 601.398 41.406 601.534 41.254C601.674 41.102 601.772 40.93 601.828 40.738C601.888 40.546 601.918 40.358 601.918 40.174C601.918 39.99 601.888 39.802 601.828 39.61C601.772 39.414 601.674 39.24 601.534 39.088C601.398 38.936 601.21 38.83 600.97 38.77C600.886 38.746 600.794 38.732 600.694 38.728C600.594 38.72 600.504 38.716 600.424 38.716H598.36V41.632ZM608.232 46.18C607.368 46.18 606.628 45.992 606.012 45.616C605.396 45.236 604.922 44.708 604.59 44.032C604.262 43.356 604.098 42.572 604.098 41.68C604.098 40.788 604.262 40.004 604.59 39.328C604.922 38.652 605.396 38.126 606.012 37.75C606.628 37.37 607.368 37.18 608.232 37.18C609.096 37.18 609.836 37.37 610.452 37.75C611.072 38.126 611.546 38.652 611.874 39.328C612.206 40.004 612.372 40.788 612.372 41.68C612.372 42.572 612.206 43.356 611.874 44.032C611.546 44.708 611.072 45.236 610.452 45.616C609.836 45.992 609.096 46.18 608.232 46.18ZM608.232 44.818C608.812 44.822 609.294 44.694 609.678 44.434C610.066 44.174 610.356 43.808 610.548 43.336C610.744 42.864 610.842 42.312 610.842 41.68C610.842 41.048 610.744 40.5 610.548 40.036C610.356 39.568 610.066 39.204 609.678 38.944C609.294 38.684 608.812 38.55 608.232 38.542C607.652 38.538 607.17 38.666 606.786 38.926C606.402 39.186 606.112 39.552 605.916 40.024C605.724 40.496 605.628 41.048 605.628 41.68C605.628 42.312 605.724 42.862 605.916 43.33C606.108 43.794 606.396 44.156 606.78 44.416C607.168 44.676 607.652 44.81 608.232 44.818ZM613.567 46V37.36H617.137C617.221 37.36 617.329 37.364 617.461 37.372C617.593 37.376 617.715 37.388 617.827 37.408C618.327 37.484 618.739 37.65 619.063 37.906C619.391 38.162 619.633 38.486 619.789 38.878C619.949 39.266 620.029 39.698 620.029 40.174C620.029 40.878 619.851 41.484 619.495 41.992C619.139 42.496 618.593 42.808 617.857 42.928L617.239 42.982H615.013V46H613.567ZM618.529 46L616.825 42.484L618.295 42.16L620.167 46H618.529ZM615.013 41.632H617.077C617.157 41.632 617.247 41.628 617.347 41.62C617.447 41.612 617.539 41.596 617.623 41.572C617.863 41.512 618.051 41.406 618.187 41.254C618.327 41.102 618.425 40.93 618.481 40.738C618.541 40.546 618.571 40.358 618.571 40.174C618.571 39.99 618.541 39.802 618.481 39.61C618.425 39.414 618.327 39.24 618.187 39.088C618.051 38.936 617.863 38.83 617.623 38.77C617.539 38.746 617.447 38.732 617.347 38.728C617.247 38.72 617.157 38.716 617.077 38.716H615.013V41.632ZM623.564 46V38.716H620.768V37.36H627.806V38.716H625.01V46H623.564Z" fill="#667085"/>
<rect x="586.5" y="28.5" width="51" height="25" rx="12.5" stroke="#E4E7EC"/>
<g filter="url(#filter0_d_2503_58876)">
<g filter="url(#filter1_d_2503_58876)">
<rect x="755" y="33" width="16" height="16" rx="8" fill="white"/>
<rect x="755.5" y="33.5" width="15" height="15" rx="7.5" stroke="#DC6803"/>
</g>
</g>
<g filter="url(#filter2_d_2503_58876)">
<g filter="url(#filter3_d_2503_58876)">
<rect x="169" y="33" width="16" height="16" rx="8" fill="#DC6803"/>
<path d="M181 38L175.5 43.5L173 41" stroke="#F5FDFF" stroke-width="1.6666" stroke-linecap="round" stroke-linejoin="round"/>
</g>
</g>
<defs>
<filter id="filter0_d_2503_58876" x="755" y="33" width="16" height="16" filterUnits="userSpaceOnUse" color-interpolation-filters="sRGB">
<feFlood flood-opacity="0" result="BackgroundImageFix"/>
<feColorMatrix in="SourceAlpha" type="matrix" values="0 0 0 0 0 0 0 0 0 0 0 0 0 0 0 0 0 0 127 0" result="hardAlpha"/>
<feOffset/>
<feComposite in2="hardAlpha" operator="out"/>
<feColorMatrix type="matrix" values="0 0 0 0 0 0 0 0 0 0 0 0 0 0 0 0 0 0 0.25 0"/>
<feBlend mode="normal" in2="BackgroundImageFix" result="effect1_dropShadow_2503_58876"/>
<feBlend mode="normal" in="SourceGraphic" in2="effect1_dropShadow_2503_58876" result="shape"/>
</filter>
<filter id="filter1_d_2503_58876" x="751" y="29" width="24" height="24" filterUnits="userSpaceOnUse" color-interpolation-filters="sRGB">
<feFlood flood-opacity="0" result="BackgroundImageFix"/>
<feColorMatrix in="SourceAlpha" type="matrix" values="0 0 0 0 0 0 0 0 0 0 0 0 0 0 0 0 0 0 127 0" result="hardAlpha"/>
<feMorphology radius="4" operator="dilate" in="SourceAlpha" result="effect1_dropShadow_2503_58876"/>
<feOffset/>
<feComposite in2="hardAlpha" operator="out"/>
<feColorMatrix type="matrix" values="0 0 0 0 0.992157 0 0 0 0 0.690196 0 0 0 0 0.133333 0 0 0 0.24 0"/>
<feBlend mode="normal" in2="BackgroundImageFix" result="effect1_dropShadow_2503_58876"/>
<feBlend mode="normal" in="SourceGraphic" in2="effect1_dropShadow_2503_58876" result="shape"/>
</filter>
<filter id="filter2_d_2503_58876" x="169" y="33" width="16" height="16" filterUnits="userSpaceOnUse" color-interpolation-filters="sRGB">
<feFlood flood-opacity="0" result="BackgroundImageFix"/>
<feColorMatrix in="SourceAlpha" type="matrix" values="0 0 0 0 0 0 0 0 0 0 0 0 0 0 0 0 0 0 127 0" result="hardAlpha"/>
<feOffset/>
<feComposite in2="hardAlpha" operator="out"/>
<feColorMatrix type="matrix" values="0 0 0 0 0 0 0 0 0 0 0 0 0 0 0 0 0 0 0.25 0"/>
<feBlend mode="normal" in2="BackgroundImageFix" result="effect1_dropShadow_2503_58876"/>
<feBlend mode="normal" in="SourceGraphic" in2="effect1_dropShadow_2503_58876" result="shape"/>
</filter>
<filter id="filter3_d_2503_58876" x="165" y="29" width="24" height="24" filterUnits="userSpaceOnUse" color-interpolation-filters="sRGB">
<feFlood flood-opacity="0" result="BackgroundImageFix"/>
<feColorMatrix in="SourceAlpha" type="matrix" values="0 0 0 0 0 0 0 0 0 0 0 0 0 0 0 0 0 0 127 0" result="hardAlpha"/>
<feMorphology radius="4" operator="dilate" in="SourceAlpha" result="effect1_dropShadow_2503_58876"/>
<feOffset/>
<feComposite in2="hardAlpha" operator="out"/>
<feColorMatrix type="matrix" values="0 0 0 0 0.992157 0 0 0 0 0.690196 0 0 0 0 0.133333 0 0 0 0.24 0"/>
<feBlend mode="normal" in2="BackgroundImageFix" result="effect1_dropShadow_2503_58876"/>
<feBlend mode="normal" in="SourceGraphic" in2="effect1_dropShadow_2503_58876" result="shape"/>
</filter>
</defs>
</svg>
