<svg width="1224" height="42" viewBox="0 0 1224 42" fill="none" xmlns="http://www.w3.org/2000/svg">
<rect opacity="0.16" y="4" width="1224" height="18" rx="9" fill="#E4E7EC"/>
<rect x="314.5" y="4.5" width="595" height="17" rx="8.5" fill="#6CE9A6" fill-opacity="0.24" stroke="#12B76A"/>
<rect x="0.5" y="0.5" width="51" height="25" rx="12.5" fill="#F9FAFB"/>
<path d="M10.9142 18V9.36H14.4842C14.5682 9.36 14.6762 9.364 14.8082 9.372C14.9402 9.376 15.0622 9.388 15.1742 9.408C15.6742 9.484 16.0862 9.65 16.4102 9.906C16.7382 10.162 16.9802 10.486 17.1362 10.878C17.2962 11.266 17.3762 11.698 17.3762 12.174C17.3762 12.646 17.2962 13.078 17.1362 13.47C16.9762 13.858 16.7322 14.18 16.4042 14.436C16.0802 14.692 15.6702 14.858 15.1742 14.934C15.0622 14.95 14.9382 14.962 14.8022 14.97C14.6702 14.978 14.5642 14.982 14.4842 14.982H12.3602V18H10.9142ZM12.3602 13.632H14.4242C14.5042 13.632 14.5942 13.628 14.6942 13.62C14.7942 13.612 14.8862 13.596 14.9702 13.572C15.2102 13.512 15.3982 13.406 15.5342 13.254C15.6742 13.102 15.7722 12.93 15.8282 12.738C15.8882 12.546 15.9182 12.358 15.9182 12.174C15.9182 11.99 15.8882 11.802 15.8282 11.61C15.7722 11.414 15.6742 11.24 15.5342 11.088C15.3982 10.936 15.2102 10.83 14.9702 10.77C14.8862 10.746 14.7942 10.732 14.6942 10.728C14.5942 10.72 14.5042 10.716 14.4242 10.716H12.3602V13.632ZM22.2323 18.18C21.3683 18.18 20.6283 17.992 20.0123 17.616C19.3963 17.236 18.9223 16.708 18.5903 16.032C18.2623 15.356 18.0983 14.572 18.0983 13.68C18.0983 12.788 18.2623 12.004 18.5903 11.328C18.9223 10.652 19.3963 10.126 20.0123 9.75C20.6283 9.37 21.3683 9.18 22.2323 9.18C23.0963 9.18 23.8363 9.37 24.4523 9.75C25.0723 10.126 25.5463 10.652 25.8743 11.328C26.2063 12.004 26.3723 12.788 26.3723 13.68C26.3723 14.572 26.2063 15.356 25.8743 16.032C25.5463 16.708 25.0723 17.236 24.4523 17.616C23.8363 17.992 23.0963 18.18 22.2323 18.18ZM22.2323 16.818C22.8123 16.822 23.2943 16.694 23.6783 16.434C24.0663 16.174 24.3563 15.808 24.5483 15.336C24.7443 14.864 24.8423 14.312 24.8423 13.68C24.8423 13.048 24.7443 12.5 24.5483 12.036C24.3563 11.568 24.0663 11.204 23.6783 10.944C23.2943 10.684 22.8123 10.55 22.2323 10.542C21.6523 10.538 21.1703 10.666 20.7863 10.926C20.4023 11.186 20.1123 11.552 19.9163 12.024C19.7243 12.496 19.6283 13.048 19.6283 13.68C19.6283 14.312 19.7243 14.862 19.9163 15.33C20.1083 15.794 20.3963 16.156 20.7803 16.416C21.1683 16.676 21.6523 16.81 22.2323 16.818ZM27.5666 18V9.36H31.1366C31.2206 9.36 31.3286 9.364 31.4606 9.372C31.5926 9.376 31.7146 9.388 31.8266 9.408C32.3266 9.484 32.7386 9.65 33.0626 9.906C33.3906 10.162 33.6326 10.486 33.7886 10.878C33.9486 11.266 34.0286 11.698 34.0286 12.174C34.0286 12.878 33.8506 13.484 33.4946 13.992C33.1386 14.496 32.5926 14.808 31.8566 14.928L31.2386 14.982H29.0126V18H27.5666ZM32.5286 18L30.8246 14.484L32.2946 14.16L34.1666 18H32.5286ZM29.0126 13.632H31.0766C31.1566 13.632 31.2466 13.628 31.3466 13.62C31.4466 13.612 31.5386 13.596 31.6226 13.572C31.8626 13.512 32.0506 13.406 32.1866 13.254C32.3266 13.102 32.4246 12.93 32.4806 12.738C32.5406 12.546 32.5706 12.358 32.5706 12.174C32.5706 11.99 32.5406 11.802 32.4806 11.61C32.4246 11.414 32.3266 11.24 32.1866 11.088C32.0506 10.936 31.8626 10.83 31.6226 10.77C31.5386 10.746 31.4466 10.732 31.3466 10.728C31.2466 10.72 31.1566 10.716 31.0766 10.716H29.0126V13.632ZM37.5644 18V10.716H34.7684V9.36H41.8064V10.716H39.0104V18H37.5644Z" fill="#98A2B3"/>
<rect x="0.5" y="0.5" width="51" height="25" rx="12.5" stroke="#E4E7EC"/>
<rect x="1172.5" y="0.5" width="51" height="25" rx="12.5" fill="#F9FAFB"/>
<path d="M1182.91 18V9.36H1186.48C1186.57 9.36 1186.68 9.364 1186.81 9.372C1186.94 9.376 1187.06 9.388 1187.17 9.408C1187.67 9.484 1188.09 9.65 1188.41 9.906C1188.74 10.162 1188.98 10.486 1189.14 10.878C1189.3 11.266 1189.38 11.698 1189.38 12.174C1189.38 12.646 1189.3 13.078 1189.14 13.47C1188.98 13.858 1188.73 14.18 1188.4 14.436C1188.08 14.692 1187.67 14.858 1187.17 14.934C1187.06 14.95 1186.94 14.962 1186.8 14.97C1186.67 14.978 1186.56 14.982 1186.48 14.982H1184.36V18H1182.91ZM1184.36 13.632H1186.42C1186.5 13.632 1186.59 13.628 1186.69 13.62C1186.79 13.612 1186.89 13.596 1186.97 13.572C1187.21 13.512 1187.4 13.406 1187.53 13.254C1187.67 13.102 1187.77 12.93 1187.83 12.738C1187.89 12.546 1187.92 12.358 1187.92 12.174C1187.92 11.99 1187.89 11.802 1187.83 11.61C1187.77 11.414 1187.67 11.24 1187.53 11.088C1187.4 10.936 1187.21 10.83 1186.97 10.77C1186.89 10.746 1186.79 10.732 1186.69 10.728C1186.59 10.72 1186.5 10.716 1186.42 10.716H1184.36V13.632ZM1194.23 18.18C1193.37 18.18 1192.63 17.992 1192.01 17.616C1191.4 17.236 1190.92 16.708 1190.59 16.032C1190.26 15.356 1190.1 14.572 1190.1 13.68C1190.1 12.788 1190.26 12.004 1190.59 11.328C1190.92 10.652 1191.4 10.126 1192.01 9.75C1192.63 9.37 1193.37 9.18 1194.23 9.18C1195.1 9.18 1195.84 9.37 1196.45 9.75C1197.07 10.126 1197.55 10.652 1197.87 11.328C1198.21 12.004 1198.37 12.788 1198.37 13.68C1198.37 14.572 1198.21 15.356 1197.87 16.032C1197.55 16.708 1197.07 17.236 1196.45 17.616C1195.84 17.992 1195.1 18.18 1194.23 18.18ZM1194.23 16.818C1194.81 16.822 1195.29 16.694 1195.68 16.434C1196.07 16.174 1196.36 15.808 1196.55 15.336C1196.74 14.864 1196.84 14.312 1196.84 13.68C1196.84 13.048 1196.74 12.5 1196.55 12.036C1196.36 11.568 1196.07 11.204 1195.68 10.944C1195.29 10.684 1194.81 10.55 1194.23 10.542C1193.65 10.538 1193.17 10.666 1192.79 10.926C1192.4 11.186 1192.11 11.552 1191.92 12.024C1191.72 12.496 1191.63 13.048 1191.63 13.68C1191.63 14.312 1191.72 14.862 1191.92 15.33C1192.11 15.794 1192.4 16.156 1192.78 16.416C1193.17 16.676 1193.65 16.81 1194.23 16.818ZM1199.57 18V9.36H1203.14C1203.22 9.36 1203.33 9.364 1203.46 9.372C1203.59 9.376 1203.71 9.388 1203.83 9.408C1204.33 9.484 1204.74 9.65 1205.06 9.906C1205.39 10.162 1205.63 10.486 1205.79 10.878C1205.95 11.266 1206.03 11.698 1206.03 12.174C1206.03 12.878 1205.85 13.484 1205.49 13.992C1205.14 14.496 1204.59 14.808 1203.86 14.928L1203.24 14.982H1201.01V18H1199.57ZM1204.53 18L1202.82 14.484L1204.29 14.16L1206.17 18H1204.53ZM1201.01 13.632H1203.08C1203.16 13.632 1203.25 13.628 1203.35 13.62C1203.45 13.612 1203.54 13.596 1203.62 13.572C1203.86 13.512 1204.05 13.406 1204.19 13.254C1204.33 13.102 1204.42 12.93 1204.48 12.738C1204.54 12.546 1204.57 12.358 1204.57 12.174C1204.57 11.99 1204.54 11.802 1204.48 11.61C1204.42 11.414 1204.33 11.24 1204.19 11.088C1204.05 10.936 1203.86 10.83 1203.62 10.77C1203.54 10.746 1203.45 10.732 1203.35 10.728C1203.25 10.72 1203.16 10.716 1203.08 10.716H1201.01V13.632ZM1209.56 18V10.716H1206.77V9.36H1213.81V10.716H1211.01V18H1209.56Z" fill="#98A2B3"/>
<rect x="1172.5" y="0.5" width="51" height="25" rx="12.5" stroke="#E4E7EC"/>
<path opacity="0.24" d="M64 13L582.5 13" stroke="#027A48" stroke-dasharray="3 6"/>
<path d="M597.361 18.18C596.881 18.18 596.479 18.092 596.155 17.916C595.831 17.736 595.585 17.5 595.417 17.208C595.253 16.912 595.171 16.588 595.171 16.236C595.171 15.908 595.229 15.62 595.345 15.372C595.461 15.124 595.633 14.914 595.861 14.742C596.089 14.566 596.369 14.424 596.701 14.316C596.989 14.232 597.315 14.158 597.679 14.094C598.043 14.03 598.425 13.97 598.825 13.914C599.229 13.858 599.629 13.802 600.025 13.746L599.569 13.998C599.577 13.49 599.469 13.114 599.245 12.87C599.025 12.622 598.645 12.498 598.105 12.498C597.765 12.498 597.453 12.578 597.169 12.738C596.885 12.894 596.687 13.154 596.575 13.518L595.405 13.158C595.565 12.602 595.869 12.16 596.317 11.832C596.769 11.504 597.369 11.34 598.117 11.34C598.697 11.34 599.201 11.44 599.629 11.64C600.061 11.836 600.377 12.148 600.577 12.576C600.681 12.788 600.745 13.012 600.769 13.248C600.793 13.484 600.805 13.738 600.805 14.01V18H599.695V16.518L599.911 16.71C599.643 17.206 599.301 17.576 598.885 17.82C598.473 18.06 597.965 18.18 597.361 18.18ZM597.583 17.154C597.939 17.154 598.245 17.092 598.501 16.968C598.757 16.84 598.963 16.678 599.119 16.482C599.275 16.286 599.377 16.082 599.425 15.87C599.493 15.678 599.531 15.462 599.539 15.222C599.551 14.982 599.557 14.79 599.557 14.646L599.965 14.796C599.569 14.856 599.209 14.91 598.885 14.958C598.561 15.006 598.267 15.054 598.003 15.102C597.743 15.146 597.511 15.2 597.307 15.264C597.135 15.324 596.981 15.396 596.845 15.48C596.713 15.564 596.607 15.666 596.527 15.786C596.451 15.906 596.413 16.052 596.413 16.224C596.413 16.392 596.455 16.548 596.539 16.692C596.623 16.832 596.751 16.944 596.923 17.028C597.095 17.112 597.315 17.154 597.583 17.154ZM606.071 18C605.663 18.08 605.263 18.114 604.871 18.102C604.479 18.09 604.129 18.014 603.821 17.874C603.513 17.734 603.281 17.514 603.125 17.214C602.985 16.946 602.909 16.674 602.897 16.398C602.889 16.118 602.885 15.802 602.885 15.45V9.72H604.145V15.39C604.145 15.65 604.147 15.876 604.151 16.068C604.159 16.26 604.201 16.422 604.277 16.554C604.421 16.802 604.649 16.944 604.961 16.98C605.277 17.012 605.647 16.998 606.071 16.938V18ZM601.643 12.528V11.52H606.071V12.528H601.643ZM612.318 18.174C611.53 18.174 610.888 18 610.392 17.652C609.896 17.304 609.592 16.814 609.48 16.182L610.764 15.984C610.844 16.32 611.028 16.586 611.316 16.782C611.608 16.974 611.97 17.07 612.402 17.07C612.794 17.07 613.1 16.99 613.32 16.83C613.544 16.67 613.656 16.45 613.656 16.17C613.656 16.006 613.616 15.874 613.536 15.774C613.46 15.67 613.298 15.572 613.05 15.48C612.802 15.388 612.424 15.274 611.916 15.138C611.36 14.994 610.918 14.84 610.59 14.676C610.266 14.508 610.034 14.314 609.894 14.094C609.758 13.87 609.69 13.6 609.69 13.284C609.69 12.892 609.794 12.55 610.002 12.258C610.21 11.966 610.502 11.74 610.878 11.58C611.258 11.42 611.702 11.34 612.21 11.34C612.706 11.34 613.148 11.418 613.536 11.574C613.924 11.73 614.238 11.952 614.478 12.24C614.718 12.524 614.862 12.858 614.91 13.242L613.626 13.476C613.582 13.164 613.436 12.918 613.188 12.738C612.94 12.558 612.618 12.46 612.222 12.444C611.842 12.428 611.534 12.492 611.298 12.636C611.062 12.776 610.944 12.97 610.944 13.218C610.944 13.362 610.988 13.484 611.076 13.584C611.168 13.684 611.344 13.78 611.604 13.872C611.864 13.964 612.248 14.074 612.756 14.202C613.3 14.342 613.732 14.498 614.052 14.67C614.372 14.838 614.6 15.04 614.736 15.276C614.876 15.508 614.946 15.79 614.946 16.122C614.946 16.762 614.712 17.264 614.244 17.628C613.78 17.992 613.138 18.174 612.318 18.174ZM619.148 18.18C618.504 18.18 617.938 18.04 617.45 17.76C616.966 17.476 616.588 17.082 616.316 16.578C616.048 16.07 615.914 15.482 615.914 14.814C615.914 14.106 616.046 13.492 616.31 12.972C616.578 12.452 616.95 12.05 617.426 11.766C617.902 11.482 618.456 11.34 619.088 11.34C619.748 11.34 620.31 11.494 620.774 11.802C621.238 12.106 621.584 12.54 621.812 13.104C622.044 13.668 622.136 14.338 622.088 15.114H620.834V14.658C620.826 13.906 620.682 13.35 620.402 12.99C620.126 12.63 619.704 12.45 619.136 12.45C618.508 12.45 618.036 12.648 617.72 13.044C617.404 13.44 617.246 14.012 617.246 14.76C617.246 15.472 617.404 16.024 617.72 16.416C618.036 16.804 618.492 16.998 619.088 16.998C619.48 16.998 619.818 16.91 620.102 16.734C620.39 16.554 620.614 16.298 620.774 15.966L622.004 16.356C621.752 16.936 621.37 17.386 620.858 17.706C620.346 18.022 619.776 18.18 619.148 18.18ZM616.838 15.114V14.136H621.464V15.114H616.838ZM625.147 18.18C624.667 18.18 624.265 18.092 623.941 17.916C623.617 17.736 623.371 17.5 623.203 17.208C623.039 16.912 622.957 16.588 622.957 16.236C622.957 15.908 623.015 15.62 623.131 15.372C623.247 15.124 623.419 14.914 623.647 14.742C623.875 14.566 624.155 14.424 624.487 14.316C624.775 14.232 625.101 14.158 625.465 14.094C625.829 14.03 626.211 13.97 626.611 13.914C627.015 13.858 627.415 13.802 627.811 13.746L627.355 13.998C627.363 13.49 627.255 13.114 627.031 12.87C626.811 12.622 626.431 12.498 625.891 12.498C625.551 12.498 625.239 12.578 624.955 12.738C624.671 12.894 624.473 13.154 624.361 13.518L623.191 13.158C623.351 12.602 623.655 12.16 624.103 11.832C624.555 11.504 625.155 11.34 625.903 11.34C626.483 11.34 626.987 11.44 627.415 11.64C627.847 11.836 628.163 12.148 628.363 12.576C628.467 12.788 628.531 13.012 628.555 13.248C628.579 13.484 628.591 13.738 628.591 14.01V18H627.481V16.518L627.697 16.71C627.429 17.206 627.087 17.576 626.671 17.82C626.259 18.06 625.751 18.18 625.147 18.18ZM625.369 17.154C625.725 17.154 626.031 17.092 626.287 16.968C626.543 16.84 626.749 16.678 626.905 16.482C627.061 16.286 627.163 16.082 627.211 15.87C627.279 15.678 627.317 15.462 627.325 15.222C627.337 14.982 627.343 14.79 627.343 14.646L627.751 14.796C627.355 14.856 626.995 14.91 626.671 14.958C626.347 15.006 626.053 15.054 625.789 15.102C625.529 15.146 625.297 15.2 625.093 15.264C624.921 15.324 624.767 15.396 624.631 15.48C624.499 15.564 624.393 15.666 624.313 15.786C624.237 15.906 624.199 16.052 624.199 16.224C624.199 16.392 624.241 16.548 624.325 16.692C624.409 16.832 624.537 16.944 624.709 17.028C624.881 17.112 625.101 17.154 625.369 17.154Z" fill="#027A48"/>
<path opacity="0.24" d="M641.5 13L1160 13" stroke="#027A48" stroke-dasharray="3 6"/>
<circle cx="323" cy="13" r="4" fill="#F5FDFF" stroke="#039855" stroke-width="2"/>
<path d="M309.133 38V29.36H312.703C312.787 29.36 312.895 29.364 313.027 29.372C313.159 29.376 313.281 29.388 313.393 29.408C313.893 29.484 314.305 29.65 314.629 29.906C314.957 30.162 315.199 30.486 315.355 30.878C315.515 31.266 315.595 31.698 315.595 32.174C315.595 32.878 315.417 33.484 315.061 33.992C314.705 34.496 314.159 34.808 313.423 34.928L312.805 34.982H310.579V38H309.133ZM314.095 38L312.391 34.484L313.861 34.16L315.733 38H314.095ZM310.579 33.632H312.643C312.723 33.632 312.813 33.628 312.913 33.62C313.013 33.612 313.105 33.596 313.189 33.572C313.429 33.512 313.617 33.406 313.753 33.254C313.893 33.102 313.991 32.93 314.047 32.738C314.107 32.546 314.137 32.358 314.137 32.174C314.137 31.99 314.107 31.802 314.047 31.61C313.991 31.414 313.893 31.24 313.753 31.088C313.617 30.936 313.429 30.83 313.189 30.77C313.105 30.746 313.013 30.732 312.913 30.728C312.813 30.72 312.723 30.716 312.643 30.716H310.579V33.632ZM319.239 29.36H320.691L318.387 38H316.935L319.239 29.36ZM325.726 38.18C325.038 38.18 324.432 38.04 323.908 37.76C323.388 37.48 322.98 37.086 322.684 36.578C322.392 36.07 322.246 35.474 322.246 34.79V29.372L323.71 29.36V34.754C323.71 35.078 323.764 35.368 323.872 35.624C323.984 35.88 324.134 36.098 324.322 36.278C324.51 36.454 324.726 36.588 324.97 36.68C325.214 36.772 325.466 36.818 325.726 36.818C325.994 36.818 326.248 36.772 326.488 36.68C326.732 36.584 326.948 36.448 327.136 36.272C327.324 36.092 327.472 35.874 327.58 35.618C327.688 35.362 327.742 35.074 327.742 34.754V29.36H329.206V34.79C329.206 35.474 329.058 36.07 328.762 36.578C328.47 37.086 328.062 37.48 327.538 37.76C327.018 38.04 326.414 38.18 325.726 38.18ZM330.883 38V29.36H334.453C334.537 29.36 334.645 29.364 334.777 29.372C334.909 29.376 335.031 29.388 335.143 29.408C335.643 29.484 336.055 29.65 336.379 29.906C336.707 30.162 336.949 30.486 337.105 30.878C337.265 31.266 337.345 31.698 337.345 32.174C337.345 32.646 337.265 33.078 337.105 33.47C336.945 33.858 336.701 34.18 336.373 34.436C336.049 34.692 335.639 34.858 335.143 34.934C335.031 34.95 334.907 34.962 334.771 34.97C334.639 34.978 334.533 34.982 334.453 34.982H332.329V38H330.883ZM332.329 33.632H334.393C334.473 33.632 334.563 33.628 334.663 33.62C334.763 33.612 334.855 33.596 334.939 33.572C335.179 33.512 335.367 33.406 335.503 33.254C335.643 33.102 335.741 32.93 335.797 32.738C335.857 32.546 335.887 32.358 335.887 32.174C335.887 31.99 335.857 31.802 335.797 31.61C335.741 31.414 335.643 31.24 335.503 31.088C335.367 30.936 335.179 30.83 334.939 30.77C334.855 30.746 334.763 30.732 334.663 30.728C334.563 30.72 334.473 30.716 334.393 30.716H332.329V33.632Z" fill="#039855"/>
<circle cx="901" cy="13" r="4" fill="#F5FDFF" stroke="#039855" stroke-width="2"/>
<path d="M891.227 38.18C890.595 38.18 890.025 38.07 889.517 37.85C889.013 37.63 888.597 37.316 888.269 36.908C887.945 36.496 887.739 36.008 887.651 35.444L889.151 35.216C889.279 35.728 889.541 36.124 889.937 36.404C890.337 36.684 890.797 36.824 891.317 36.824C891.625 36.824 891.915 36.776 892.187 36.68C892.459 36.584 892.679 36.444 892.847 36.26C893.019 36.076 893.105 35.85 893.105 35.582C893.105 35.462 893.085 35.352 893.045 35.252C893.005 35.148 892.945 35.056 892.865 34.976C892.789 34.896 892.689 34.824 892.565 34.76C892.445 34.692 892.305 34.634 892.145 34.586L889.913 33.926C889.721 33.87 889.513 33.796 889.289 33.704C889.069 33.608 888.859 33.478 888.659 33.314C888.463 33.146 888.301 32.934 888.173 32.678C888.049 32.418 887.987 32.098 887.987 31.718C887.987 31.162 888.127 30.696 888.407 30.32C888.691 29.94 889.071 29.656 889.547 29.468C890.027 29.28 890.559 29.188 891.143 29.192C891.735 29.196 892.263 29.298 892.727 29.498C893.191 29.694 893.579 29.98 893.891 30.356C894.203 30.732 894.423 31.186 894.551 31.718L892.997 31.988C892.933 31.684 892.809 31.426 892.625 31.214C892.445 30.998 892.223 30.834 891.959 30.722C891.699 30.61 891.421 30.55 891.125 30.542C890.837 30.538 890.569 30.582 890.321 30.674C890.077 30.762 889.879 30.89 889.727 31.058C889.579 31.226 889.505 31.422 889.505 31.646C889.505 31.858 889.569 32.032 889.697 32.168C889.825 32.3 889.983 32.406 890.171 32.486C890.363 32.562 890.557 32.626 890.753 32.678L892.301 33.11C892.513 33.166 892.751 33.242 893.015 33.338C893.279 33.434 893.533 33.568 893.777 33.74C894.021 33.912 894.221 34.138 894.377 34.418C894.537 34.698 894.617 35.054 894.617 35.486C894.617 35.934 894.523 36.328 894.335 36.668C894.151 37.004 893.901 37.284 893.585 37.508C893.269 37.732 892.907 37.9 892.499 38.012C892.095 38.124 891.671 38.18 891.227 38.18ZM898.1 29.36H899.552L897.248 38H895.796L898.1 29.36ZM901.108 38V29.36H904.534C905.118 29.36 905.596 29.478 905.968 29.714C906.344 29.946 906.622 30.244 906.802 30.608C906.986 30.972 907.078 31.348 907.078 31.736C907.078 32.212 906.964 32.616 906.736 32.948C906.512 33.28 906.206 33.504 905.818 33.62V33.32C906.362 33.444 906.774 33.702 907.054 34.094C907.338 34.486 907.48 34.932 907.48 35.432C907.48 35.944 907.382 36.392 907.186 36.776C906.99 37.16 906.698 37.46 906.31 37.676C905.926 37.892 905.45 38 904.882 38H901.108ZM902.572 36.638H904.702C904.954 36.638 905.18 36.588 905.38 36.488C905.58 36.384 905.736 36.24 905.848 36.056C905.964 35.868 906.022 35.646 906.022 35.39C906.022 35.158 905.972 34.95 905.872 34.766C905.772 34.582 905.626 34.436 905.434 34.328C905.242 34.216 905.012 34.16 904.744 34.16H902.572V36.638ZM902.572 32.81H904.516C904.724 32.81 904.91 32.77 905.074 32.69C905.238 32.61 905.368 32.492 905.464 32.336C905.56 32.18 905.608 31.988 905.608 31.76C905.608 31.46 905.512 31.21 905.32 31.01C905.128 30.81 904.86 30.71 904.516 30.71H902.572V32.81ZM910.415 38V34.46L907.475 29.36H909.161L911.147 32.804L913.127 29.36H914.813L911.879 34.46V38H910.415Z" fill="#039855"/>
</svg>
