<svg width="75" height="28" viewBox="0 0 75 28" fill="none" xmlns="http://www.w3.org/2000/svg">
<rect width="75" height="28" rx="14" fill="#F2F4F7"/>
<path fill-rule="evenodd" clip-rule="evenodd" d="M17.638 16.7235L17.8615 16.2765C17.9465 16.107 18.1195 16 18.309 16H20.5C20.776 16 21 16.224 21 16.5V17.5C21 18.0525 20.5525 18.5 20 18.5H12C11.4475 18.5 11 18.0525 11 17.5V16.5C11 16.224 11.224 16 11.5 16H13.691C13.8805 16 14.0535 16.107 14.138 16.2765L14.3615 16.7235C14.4465 16.893 14.6195 17 14.809 17H17.191C17.3805 17 17.5535 16.893 17.638 16.7235Z" stroke="#344054" stroke-linecap="round" stroke-linejoin="round"/>
<path d="M20.5 16V10.5C20.5 9.9475 20.0525 9.5 19.5 9.5H12.5C11.9475 9.5 11.5 9.9475 11.5 10.5V16" stroke="#344054" stroke-linecap="round" stroke-linejoin="round"/>
<path d="M31.4027 19.21C30.6887 19.21 30.0447 19.0887 29.4707 18.846C28.9014 18.6033 28.43 18.258 28.0567 17.81C27.688 17.3573 27.4477 16.823 27.3357 16.207L28.6237 16.004C28.787 16.6387 29.1254 17.1357 29.6387 17.495C30.1567 17.8497 30.7657 18.027 31.4657 18.027C31.9184 18.027 32.3267 17.957 32.6907 17.817C33.0594 17.6723 33.351 17.467 33.5657 17.201C33.7804 16.935 33.8877 16.62 33.8877 16.256C33.8877 16.032 33.848 15.8407 33.7687 15.682C33.694 15.5187 33.589 15.381 33.4537 15.269C33.323 15.1523 33.1737 15.0543 33.0057 14.975C32.8377 14.8957 32.6627 14.8303 32.4807 14.779L29.9117 14.016C29.6317 13.932 29.361 13.827 29.0997 13.701C28.8384 13.5703 28.605 13.4093 28.3997 13.218C28.1944 13.022 28.031 12.7887 27.9097 12.518C27.7884 12.2427 27.7277 11.9183 27.7277 11.545C27.7277 10.9477 27.8817 10.439 28.1897 10.019C28.5024 9.59433 28.9247 9.27 29.4567 9.046C29.9887 8.822 30.5884 8.71233 31.2557 8.717C31.9324 8.72167 32.5367 8.843 33.0687 9.081C33.6054 9.31433 34.0487 9.65033 34.3987 10.089C34.7534 10.5277 34.9914 11.0527 35.1127 11.664L33.7897 11.895C33.7197 11.4843 33.5634 11.132 33.3207 10.838C33.0827 10.5393 32.784 10.3107 32.4247 10.152C32.0654 9.98867 31.671 9.90467 31.2417 9.9C30.831 9.89533 30.46 9.96067 30.1287 10.096C29.7974 10.2313 29.5337 10.4203 29.3377 10.663C29.1417 10.901 29.0437 11.1763 29.0437 11.489C29.0437 11.797 29.1324 12.0467 29.3097 12.238C29.487 12.4247 29.704 12.574 29.9607 12.686C30.222 12.7933 30.4764 12.882 30.7237 12.952L32.6417 13.505C32.861 13.5657 33.113 13.6497 33.3977 13.757C33.687 13.8643 33.967 14.016 34.2377 14.212C34.5084 14.4033 34.7324 14.66 34.9097 14.982C35.087 15.2993 35.1757 15.7007 35.1757 16.186C35.1757 16.6713 35.0777 17.103 34.8817 17.481C34.6904 17.859 34.422 18.1763 34.0767 18.433C33.7314 18.685 33.33 18.8763 32.8727 19.007C32.4154 19.1423 31.9254 19.21 31.4027 19.21ZM38.7931 19.21C38.2284 19.21 37.7547 19.1073 37.3721 18.902C36.9941 18.692 36.7071 18.4167 36.5111 18.076C36.3197 17.7353 36.2241 17.362 36.2241 16.956C36.2241 16.5593 36.2987 16.2163 36.4481 15.927C36.6021 15.633 36.8167 15.3903 37.0921 15.199C37.3674 15.003 37.6964 14.849 38.0791 14.737C38.4384 14.639 38.8397 14.555 39.2831 14.485C39.7311 14.4103 40.1837 14.3427 40.6411 14.282C41.0984 14.2213 41.5254 14.163 41.9221 14.107L41.4741 14.366C41.4881 13.694 41.3527 13.197 41.0681 12.875C40.7881 12.553 40.3027 12.392 39.6121 12.392C39.1547 12.392 38.7534 12.497 38.4081 12.707C38.0674 12.9123 37.8271 13.2483 37.6871 13.715L36.5041 13.358C36.6861 12.6953 37.0384 12.175 37.5611 11.797C38.0837 11.419 38.7721 11.23 39.6261 11.23C40.3121 11.23 40.9001 11.3537 41.3901 11.601C41.8847 11.8437 42.2394 12.2123 42.4541 12.707C42.5614 12.9403 42.6291 13.1947 42.6571 13.47C42.6851 13.7407 42.6991 14.0253 42.6991 14.324V19H41.5931V17.187L41.8521 17.355C41.5674 17.9663 41.1684 18.4283 40.6551 18.741C40.1464 19.0537 39.5257 19.21 38.7931 19.21ZM38.9821 18.167C39.4301 18.167 39.8174 18.0877 40.1441 17.929C40.4754 17.7657 40.7414 17.5533 40.9421 17.292C41.1427 17.026 41.2734 16.7367 41.3341 16.424C41.4041 16.1907 41.4414 15.9317 41.4461 15.647C41.4554 15.3577 41.4601 15.136 41.4601 14.982L41.8941 15.171C41.4881 15.227 41.0891 15.2807 40.6971 15.332C40.3051 15.3833 39.9341 15.4393 39.5841 15.5C39.2341 15.556 38.9191 15.6237 38.6391 15.703C38.4337 15.7683 38.2401 15.8523 38.0581 15.955C37.8807 16.0577 37.7361 16.1907 37.6241 16.354C37.5167 16.5127 37.4631 16.711 37.4631 16.949C37.4631 17.1543 37.5144 17.3503 37.6171 17.537C37.7244 17.7237 37.8877 17.8753 38.1071 17.992C38.3311 18.1087 38.6227 18.167 38.9821 18.167ZM46.2896 19L43.5456 11.44H44.8056L46.9266 17.411L49.0406 11.44H50.3076L47.5636 19H46.2896ZM54.5763 19.21C53.8343 19.21 53.1856 19.0467 52.6303 18.72C52.0796 18.3887 51.6503 17.929 51.3423 17.341C51.0343 16.7483 50.8803 16.0577 50.8803 15.269C50.8803 14.443 51.032 13.729 51.3353 13.127C51.6386 12.5203 52.061 12.0537 52.6023 11.727C53.1483 11.3957 53.7876 11.23 54.5203 11.23C55.281 11.23 55.9273 11.405 56.4593 11.755C56.996 12.105 57.3973 12.6043 57.6633 13.253C57.934 13.9017 58.0506 14.674 58.0133 15.57H56.7533V15.122C56.7393 14.1933 56.5503 13.5003 56.1863 13.043C55.8223 12.581 55.281 12.35 54.5623 12.35C53.7923 12.35 53.2066 12.5973 52.8053 13.092C52.404 13.5867 52.2033 14.296 52.2033 15.22C52.2033 16.1113 52.404 16.802 52.8053 17.292C53.2066 17.782 53.7783 18.027 54.5203 18.027C55.0196 18.027 55.4536 17.9127 55.8223 17.684C56.191 17.4553 56.4803 17.1263 56.6903 16.697L57.8873 17.11C57.5933 17.7773 57.15 18.2953 56.5573 18.664C55.9693 19.028 55.309 19.21 54.5763 19.21ZM51.7833 15.57V14.569H57.3693V15.57H51.7833ZM62.5398 19.21C61.8351 19.21 61.2308 19.035 60.7268 18.685C60.2228 18.3303 59.8331 17.852 59.5578 17.25C59.2871 16.648 59.1518 15.969 59.1518 15.213C59.1518 14.457 59.2871 13.778 59.5578 13.176C59.8331 12.574 60.2228 12.1003 60.7268 11.755C61.2308 11.405 61.8328 11.23 62.5328 11.23C63.2468 11.23 63.8465 11.4027 64.3318 11.748C64.8171 12.0933 65.1835 12.567 65.4308 13.169C65.6828 13.771 65.8088 14.4523 65.8088 15.213C65.8088 15.9643 65.6828 16.6433 65.4308 17.25C65.1835 17.852 64.8171 18.3303 64.3318 18.685C63.8465 19.035 63.2491 19.21 62.5398 19.21ZM62.6938 18.069C63.2025 18.069 63.6201 17.9477 63.9468 17.705C64.2735 17.4577 64.5138 17.1193 64.6678 16.69C64.8265 16.256 64.9058 15.7637 64.9058 15.213C64.9058 14.653 64.8265 14.1607 64.6678 13.736C64.5138 13.3067 64.2758 12.973 63.9538 12.735C63.6318 12.4923 63.2235 12.371 62.7288 12.371C62.2155 12.371 61.7908 12.497 61.4548 12.749C61.1235 13.001 60.8761 13.3417 60.7128 13.771C60.5541 14.2003 60.4748 14.681 60.4748 15.213C60.4748 15.7497 60.5565 16.235 60.7198 16.669C60.8831 17.0983 61.1281 17.439 61.4548 17.691C61.7861 17.943 62.1991 18.069 62.6938 18.069ZM64.9058 19V13.435H64.7658V8.92H66.0188V19H64.9058Z" fill="#344054"/>
</svg>
