<svg width="66" height="28" viewBox="0 0 66 28" fill="none" xmlns="http://www.w3.org/2000/svg">
<rect width="66" height="28" rx="14" fill="#ECFDF3"/>
<path d="M20 11L14.5 16.5L12 14" stroke="#027A48" stroke-width="1.5" stroke-linecap="round" stroke-linejoin="round"/>
<path d="M31.4535 19.21C30.7395 19.21 30.0955 19.0887 29.5215 18.846C28.9522 18.6033 28.4808 18.258 28.1075 17.81C27.7388 17.3573 27.4985 16.823 27.3865 16.207L28.6745 16.004C28.8378 16.6387 29.1762 17.1357 29.6895 17.495C30.2075 17.8497 30.8165 18.027 31.5165 18.027C31.9692 18.027 32.3775 17.957 32.7415 17.817C33.1102 17.6723 33.4018 17.467 33.6165 17.201C33.8312 16.935 33.9385 16.62 33.9385 16.256C33.9385 16.032 33.8988 15.8407 33.8195 15.682C33.7448 15.5187 33.6398 15.381 33.5045 15.269C33.3738 15.1523 33.2245 15.0543 33.0565 14.975C32.8885 14.8957 32.7135 14.8303 32.5315 14.779L29.9625 14.016C29.6825 13.932 29.4118 13.827 29.1505 13.701C28.8892 13.5703 28.6558 13.4093 28.4505 13.218C28.2452 13.022 28.0818 12.7887 27.9605 12.518C27.8392 12.2427 27.7785 11.9183 27.7785 11.545C27.7785 10.9477 27.9325 10.439 28.2405 10.019C28.5532 9.59433 28.9755 9.27 29.5075 9.046C30.0395 8.822 30.6392 8.71233 31.3065 8.717C31.9832 8.72167 32.5875 8.843 33.1195 9.081C33.6562 9.31433 34.0995 9.65033 34.4495 10.089C34.8042 10.5277 35.0422 11.0527 35.1635 11.664L33.8405 11.895C33.7705 11.4843 33.6142 11.132 33.3715 10.838C33.1335 10.5393 32.8348 10.3107 32.4755 10.152C32.1162 9.98867 31.7218 9.90467 31.2925 9.9C30.8818 9.89533 30.5108 9.96067 30.1795 10.096C29.8482 10.2313 29.5845 10.4203 29.3885 10.663C29.1925 10.901 29.0945 11.1763 29.0945 11.489C29.0945 11.797 29.1832 12.0467 29.3605 12.238C29.5378 12.4247 29.7548 12.574 30.0115 12.686C30.2728 12.7933 30.5272 12.882 30.7745 12.952L32.6925 13.505C32.9118 13.5657 33.1638 13.6497 33.4485 13.757C33.7378 13.8643 34.0178 14.016 34.2885 14.212C34.5592 14.4033 34.7832 14.66 34.9605 14.982C35.1378 15.2993 35.2265 15.7007 35.2265 16.186C35.2265 16.6713 35.1285 17.103 34.9325 17.481C34.7412 17.859 34.4728 18.1763 34.1275 18.433C33.7822 18.685 33.3808 18.8763 32.9235 19.007C32.4662 19.1423 31.9762 19.21 31.4535 19.21ZM39.9708 19.21C39.2288 19.21 38.5802 19.0467 38.0248 18.72C37.4742 18.3887 37.0448 17.929 36.7368 17.341C36.4288 16.7483 36.2748 16.0577 36.2748 15.269C36.2748 14.443 36.4265 13.729 36.7298 13.127C37.0332 12.5203 37.4555 12.0537 37.9968 11.727C38.5428 11.3957 39.1822 11.23 39.9148 11.23C40.6755 11.23 41.3218 11.405 41.8538 11.755C42.3905 12.105 42.7918 12.6043 43.0578 13.253C43.3285 13.9017 43.4452 14.674 43.4078 15.57H42.1478V15.122C42.1338 14.1933 41.9448 13.5003 41.5808 13.043C41.2168 12.581 40.6755 12.35 39.9568 12.35C39.1868 12.35 38.6012 12.5973 38.1998 13.092C37.7985 13.5867 37.5978 14.296 37.5978 15.22C37.5978 16.1113 37.7985 16.802 38.1998 17.292C38.6012 17.782 39.1728 18.027 39.9148 18.027C40.4142 18.027 40.8482 17.9127 41.2168 17.684C41.5855 17.4553 41.8748 17.1263 42.0848 16.697L43.2818 17.11C42.9878 17.7773 42.5445 18.2953 41.9518 18.664C41.3638 19.028 40.7035 19.21 39.9708 19.21ZM37.1778 15.57V14.569H42.7638V15.57H37.1778ZM50.1443 19V15.213C50.1443 14.8537 50.1116 14.5083 50.0463 14.177C49.9856 13.8457 49.8759 13.5493 49.7173 13.288C49.5633 13.022 49.3533 12.812 49.0873 12.658C48.8259 12.504 48.4946 12.427 48.0933 12.427C47.7806 12.427 47.4959 12.4807 47.2393 12.588C46.9873 12.6907 46.7703 12.8493 46.5883 13.064C46.4063 13.2787 46.2639 13.5493 46.1613 13.876C46.0633 14.198 46.0143 14.5783 46.0143 15.017L45.1953 14.765C45.1953 14.0323 45.3259 13.4047 45.5873 12.882C45.8533 12.3547 46.2243 11.951 46.7003 11.671C47.1809 11.3863 47.7456 11.244 48.3943 11.244C48.8843 11.244 49.3019 11.321 49.6473 11.475C49.9926 11.629 50.2796 11.8343 50.5083 12.091C50.7369 12.343 50.9166 12.6277 51.0473 12.945C51.1779 13.2577 51.2689 13.5773 51.3203 13.904C51.3763 14.226 51.4043 14.5317 51.4043 14.821V19H50.1443ZM44.7543 19V11.44H45.8743V13.463H46.0143V19H44.7543ZM57.4451 19C56.9971 19.0887 56.5538 19.1237 56.1151 19.105C55.6811 19.091 55.2938 19.0047 54.9531 18.846C54.6125 18.6827 54.3535 18.4307 54.1761 18.09C54.0268 17.7913 53.9451 17.4903 53.9311 17.187C53.9218 16.879 53.9171 16.5313 53.9171 16.144V9.34H55.1631V16.088C55.1631 16.396 55.1655 16.6597 55.1701 16.879C55.1795 17.0983 55.2285 17.2873 55.3171 17.446C55.4851 17.7447 55.7511 17.9197 56.1151 17.971C56.4838 18.0223 56.9271 18.0083 57.4451 17.929V19ZM52.3841 12.469V11.44H57.4451V12.469H52.3841Z" fill="#027A48"/>
</svg>
