<svg width="75" height="22" viewBox="0 0 75 22" fill="none" xmlns="http://www.w3.org/2000/svg">
<g style="mix-blend-mode:multiply">
<rect width="75" height="22" rx="11" fill="#FFFAEB"/>
<circle cx="10" cy="11" r="3" fill="#F79009"/>
<path d="M20.9533 16V7.36H24.4453C24.5293 7.36 24.6333 7.364 24.7573 7.372C24.8813 7.376 24.9993 7.388 25.1113 7.408C25.5913 7.484 25.9913 7.648 26.3113 7.9C26.6353 8.152 26.8773 8.47 27.0373 8.854C27.1973 9.238 27.2773 9.662 27.2773 10.126C27.2773 10.594 27.1973 11.02 27.0373 11.404C26.8773 11.788 26.6353 12.106 26.3113 12.358C25.9913 12.61 25.5913 12.774 25.1113 12.85C24.9993 12.866 24.8793 12.878 24.7513 12.886C24.6273 12.894 24.5253 12.898 24.4453 12.898H22.2073V16H20.9533ZM22.2073 11.71H24.3973C24.4773 11.71 24.5653 11.706 24.6613 11.698C24.7613 11.69 24.8553 11.676 24.9433 11.656C25.1993 11.596 25.4053 11.486 25.5613 11.326C25.7173 11.162 25.8293 10.974 25.8973 10.762C25.9653 10.55 25.9993 10.338 25.9993 10.126C25.9993 9.914 25.9653 9.704 25.8973 9.496C25.8293 9.284 25.7173 9.098 25.5613 8.938C25.4053 8.774 25.1993 8.662 24.9433 8.602C24.8553 8.578 24.7613 8.562 24.6613 8.554C24.5653 8.546 24.4773 8.542 24.3973 8.542H22.2073V11.71ZM31.2687 16.18C30.6247 16.18 30.0587 16.04 29.5707 15.76C29.0867 15.476 28.7087 15.082 28.4367 14.578C28.1687 14.07 28.0347 13.482 28.0347 12.814C28.0347 12.106 28.1667 11.492 28.4307 10.972C28.6987 10.452 29.0707 10.05 29.5467 9.766C30.0227 9.482 30.5767 9.34 31.2087 9.34C31.8687 9.34 32.4307 9.494 32.8947 9.802C33.3587 10.106 33.7047 10.54 33.9327 11.104C34.1647 11.668 34.2567 12.338 34.2087 13.114H32.9547V12.658C32.9467 11.906 32.8027 11.35 32.5227 10.99C32.2467 10.63 31.8247 10.45 31.2567 10.45C30.6287 10.45 30.1567 10.648 29.8407 11.044C29.5247 11.44 29.3667 12.012 29.3667 12.76C29.3667 13.472 29.5247 14.024 29.8407 14.416C30.1567 14.804 30.6127 14.998 31.2087 14.998C31.6007 14.998 31.9387 14.91 32.2227 14.734C32.5107 14.554 32.7347 14.298 32.8947 13.966L34.1247 14.356C33.8727 14.936 33.4907 15.386 32.9787 15.706C32.4667 16.022 31.8967 16.18 31.2687 16.18ZM28.9587 13.114V12.136H33.5847V13.114H28.9587ZM39.9271 16V12.814C39.9271 12.562 39.9051 12.304 39.8611 12.04C39.8211 11.772 39.7411 11.524 39.6211 11.296C39.5051 11.068 39.3391 10.884 39.1231 10.744C38.9111 10.604 38.6331 10.534 38.2891 10.534C38.0651 10.534 37.8531 10.572 37.6531 10.648C37.4531 10.72 37.2771 10.838 37.1251 11.002C36.9771 11.166 36.8591 11.382 36.7711 11.65C36.6871 11.918 36.6451 12.244 36.6451 12.628L35.8651 12.334C35.8651 11.746 35.9751 11.228 36.1951 10.78C36.4151 10.328 36.7311 9.976 37.1431 9.724C37.5551 9.472 38.0531 9.346 38.6371 9.346C39.0851 9.346 39.4611 9.418 39.7651 9.562C40.0691 9.706 40.3151 9.896 40.5031 10.132C40.6951 10.364 40.8411 10.618 40.9411 10.894C41.0411 11.17 41.1091 11.44 41.1451 11.704C41.1811 11.968 41.1991 12.2 41.1991 12.4V16H39.9271ZM35.3731 16V9.52H36.4951V11.392H36.6451V16H35.3731ZM45.2538 16.18C44.6498 16.18 44.1278 16.03 43.6878 15.73C43.2518 15.43 42.9138 15.022 42.6738 14.506C42.4378 13.986 42.3198 13.402 42.3198 12.754C42.3198 12.102 42.4398 11.52 42.6798 11.008C42.9198 10.492 43.2598 10.086 43.6998 9.79C44.1438 9.49 44.6698 9.34 45.2778 9.34C45.8898 9.34 46.4038 9.49 46.8198 9.79C47.2398 10.086 47.5558 10.492 47.7678 11.008C47.9838 11.524 48.0918 12.106 48.0918 12.754C48.0918 13.402 47.9838 13.984 47.7678 14.5C47.5518 15.016 47.2338 15.426 46.8138 15.73C46.3938 16.03 45.8738 16.18 45.2538 16.18ZM45.4278 15.046C45.8398 15.046 46.1758 14.948 46.4358 14.752C46.6958 14.556 46.8858 14.286 47.0058 13.942C47.1258 13.598 47.1858 13.202 47.1858 12.754C47.1858 12.306 47.1238 11.91 46.9998 11.566C46.8798 11.222 46.6918 10.954 46.4358 10.762C46.1838 10.57 45.8618 10.474 45.4698 10.474C45.0538 10.474 44.7118 10.576 44.4438 10.78C44.1758 10.984 43.9758 11.258 43.8438 11.602C43.7158 11.946 43.6518 12.33 43.6518 12.754C43.6518 13.182 43.7158 13.57 43.8438 13.918C43.9758 14.262 44.1718 14.536 44.4318 14.74C44.6958 14.944 45.0278 15.046 45.4278 15.046ZM47.1858 16V11.338H47.0418V7.36H48.3018V16H47.1858ZM50.1006 8.458V7.24H51.3546V8.458H50.1006ZM50.1006 16V9.52H51.3546V16H50.1006ZM57.7044 16V12.814C57.7044 12.562 57.6824 12.304 57.6384 12.04C57.5984 11.772 57.5184 11.524 57.3984 11.296C57.2824 11.068 57.1164 10.884 56.9004 10.744C56.6884 10.604 56.4104 10.534 56.0664 10.534C55.8424 10.534 55.6304 10.572 55.4304 10.648C55.2304 10.72 55.0544 10.838 54.9024 11.002C54.7544 11.166 54.6364 11.382 54.5484 11.65C54.4644 11.918 54.4224 12.244 54.4224 12.628L53.6424 12.334C53.6424 11.746 53.7524 11.228 53.9724 10.78C54.1924 10.328 54.5084 9.976 54.9204 9.724C55.3324 9.472 55.8304 9.346 56.4144 9.346C56.8624 9.346 57.2384 9.418 57.5424 9.562C57.8464 9.706 58.0924 9.896 58.2804 10.132C58.4724 10.364 58.6184 10.618 58.7184 10.894C58.8184 11.17 58.8864 11.44 58.9224 11.704C58.9584 11.968 58.9764 12.2 58.9764 12.4V16H57.7044ZM53.1504 16V9.52H54.2724V11.392H54.4224V16H53.1504ZM63.2092 19.06C62.8612 19.06 62.5232 19.006 62.1952 18.898C61.8712 18.79 61.5752 18.63 61.3072 18.418C61.0392 18.21 60.8172 17.952 60.6412 17.644L61.7992 17.056C61.9392 17.332 62.1392 17.534 62.3992 17.662C62.6592 17.79 62.9332 17.854 63.2212 17.854C63.5772 17.854 63.8812 17.79 64.1332 17.662C64.3852 17.538 64.5752 17.35 64.7032 17.098C64.8352 16.846 64.8992 16.534 64.8952 16.162V14.35H65.0452V9.52H66.1552V16.174C66.1552 16.346 66.1492 16.51 66.1372 16.666C66.1252 16.822 66.1032 16.978 66.0712 17.134C65.9792 17.57 65.8032 17.93 65.5432 18.214C65.2872 18.498 64.9592 18.71 64.5592 18.85C64.1632 18.99 63.7132 19.06 63.2092 19.06ZM63.1132 16.18C62.5092 16.18 61.9872 16.03 61.5472 15.73C61.1112 15.43 60.7732 15.022 60.5332 14.506C60.2972 13.986 60.1792 13.402 60.1792 12.754C60.1792 12.102 60.2992 11.52 60.5392 11.008C60.7792 10.492 61.1192 10.086 61.5592 9.79C62.0032 9.49 62.5292 9.34 63.1372 9.34C63.7492 9.34 64.2632 9.49 64.6792 9.79C65.0992 10.086 65.4152 10.492 65.6272 11.008C65.8432 11.524 65.9512 12.106 65.9512 12.754C65.9512 13.402 65.8432 13.984 65.6272 14.5C65.4112 15.016 65.0932 15.426 64.6732 15.73C64.2532 16.03 63.7332 16.18 63.1132 16.18ZM63.2872 15.046C63.6992 15.046 64.0352 14.948 64.2952 14.752C64.5552 14.556 64.7452 14.286 64.8652 13.942C64.9852 13.598 65.0452 13.202 65.0452 12.754C65.0452 12.306 64.9832 11.91 64.8592 11.566C64.7392 11.222 64.5512 10.954 64.2952 10.762C64.0432 10.57 63.7212 10.474 63.3292 10.474C62.9132 10.474 62.5712 10.576 62.3032 10.78C62.0352 10.984 61.8352 11.258 61.7032 11.602C61.5752 11.946 61.5112 12.33 61.5112 12.754C61.5112 13.182 61.5752 13.57 61.7032 13.918C61.8352 14.262 62.0312 14.536 62.2912 14.74C62.5552 14.944 62.8872 15.046 63.2872 15.046Z" fill="#B54708"/>
</g>
</svg>
