<svg width="83" height="22" viewBox="0 0 83 22" fill="none" xmlns="http://www.w3.org/2000/svg">
<g style="mix-blend-mode:multiply">
<rect width="83" height="22" rx="11" fill="#ECFDF3"/>
<circle cx="10" cy="11" r="3" fill="#12B76A"/>
<path d="M24.3348 16.18C23.6588 16.18 23.0608 16.042 22.5408 15.766C22.0248 15.486 21.6208 15.096 21.3288 14.596C21.0368 14.092 20.8908 13.5 20.8908 12.82V7.366L22.1628 7.36V12.754C22.1628 13.122 22.2248 13.446 22.3488 13.726C22.4728 14.006 22.6388 14.24 22.8468 14.428C23.0548 14.616 23.2868 14.758 23.5428 14.854C23.8028 14.95 24.0668 14.998 24.3348 14.998C24.6068 14.998 24.8708 14.95 25.1268 14.854C25.3868 14.754 25.6208 14.61 25.8288 14.422C26.0368 14.234 26.2008 14 26.3208 13.72C26.4448 13.44 26.5068 13.118 26.5068 12.754V7.36H27.7788V12.82C27.7788 13.496 27.6328 14.086 27.3408 14.59C27.0488 15.094 26.6428 15.486 26.1228 15.766C25.6068 16.042 25.0108 16.18 24.3348 16.18ZM32.4992 16.18C31.8792 16.18 31.3592 16.03 30.9392 15.73C30.5192 15.426 30.2012 15.016 29.9852 14.5C29.7692 13.984 29.6612 13.402 29.6612 12.754C29.6612 12.106 29.7672 11.524 29.9792 11.008C30.1952 10.492 30.5112 10.086 30.9272 9.79C31.3472 9.49 31.8632 9.34 32.4752 9.34C33.0832 9.34 33.6072 9.49 34.0472 9.79C34.4912 10.086 34.8332 10.492 35.0732 11.008C35.3132 11.52 35.4332 12.102 35.4332 12.754C35.4332 13.402 35.3132 13.986 35.0732 14.506C34.8372 15.022 34.4992 15.43 34.0592 15.73C33.6232 16.03 33.1032 16.18 32.4992 16.18ZM29.4512 18.88V9.52H30.5672V14.182H30.7112V18.88H29.4512ZM32.3252 15.046C32.7252 15.046 33.0552 14.944 33.3152 14.74C33.5792 14.536 33.7752 14.262 33.9032 13.918C34.0352 13.57 34.1012 13.182 34.1012 12.754C34.1012 12.33 34.0352 11.946 33.9032 11.602C33.7752 11.258 33.5772 10.984 33.3092 10.78C33.0412 10.576 32.6992 10.474 32.2832 10.474C31.8912 10.474 31.5672 10.57 31.3112 10.762C31.0592 10.954 30.8712 11.222 30.7472 11.566C30.6272 11.91 30.5672 12.306 30.5672 12.754C30.5672 13.202 30.6272 13.598 30.7472 13.942C30.8672 14.286 31.0572 14.556 31.3172 14.752C31.5772 14.948 31.9132 15.046 32.3252 15.046ZM36.878 16V7.18H38.132V16H36.878ZM42.7478 16.18C42.0998 16.18 41.5378 16.034 41.0618 15.742C40.5858 15.45 40.2178 15.048 39.9578 14.536C39.7018 14.02 39.5738 13.426 39.5738 12.754C39.5738 12.078 39.7058 11.484 39.9698 10.972C40.2338 10.456 40.6038 10.056 41.0798 9.772C41.5558 9.484 42.1118 9.34 42.7478 9.34C43.3958 9.34 43.9578 9.486 44.4338 9.778C44.9098 10.07 45.2778 10.472 45.5378 10.984C45.7978 11.496 45.9278 12.086 45.9278 12.754C45.9278 13.43 45.7958 14.026 45.5318 14.542C45.2718 15.054 44.9038 15.456 44.4278 15.748C43.9518 16.036 43.3918 16.18 42.7478 16.18ZM42.7478 14.998C43.3678 14.998 43.8298 14.79 44.1338 14.374C44.4418 13.954 44.5958 13.414 44.5958 12.754C44.5958 12.078 44.4398 11.538 44.1278 11.134C43.8198 10.726 43.3598 10.522 42.7478 10.522C42.3278 10.522 41.9818 10.618 41.7098 10.81C41.4378 10.998 41.2358 11.26 41.1038 11.596C40.9718 11.928 40.9058 12.314 40.9058 12.754C40.9058 13.434 41.0618 13.978 41.3738 14.386C41.6858 14.794 42.1438 14.998 42.7478 14.998ZM49.0763 16.18C48.5963 16.18 48.1943 16.092 47.8703 15.916C47.5463 15.736 47.3003 15.5 47.1323 15.208C46.9683 14.912 46.8863 14.588 46.8863 14.236C46.8863 13.908 46.9443 13.62 47.0603 13.372C47.1763 13.124 47.3483 12.914 47.5763 12.742C47.8043 12.566 48.0843 12.424 48.4163 12.316C48.7043 12.232 49.0303 12.158 49.3943 12.094C49.7583 12.03 50.1403 11.97 50.5403 11.914C50.9443 11.858 51.3443 11.802 51.7403 11.746L51.2843 11.998C51.2923 11.49 51.1843 11.114 50.9603 10.87C50.7403 10.622 50.3603 10.498 49.8203 10.498C49.4803 10.498 49.1683 10.578 48.8843 10.738C48.6003 10.894 48.4023 11.154 48.2903 11.518L47.1203 11.158C47.2803 10.602 47.5843 10.16 48.0323 9.832C48.4843 9.504 49.0843 9.34 49.8323 9.34C50.4123 9.34 50.9163 9.44 51.3443 9.64C51.7763 9.836 52.0923 10.148 52.2923 10.576C52.3963 10.788 52.4603 11.012 52.4843 11.248C52.5083 11.484 52.5203 11.738 52.5203 12.01V16H51.4103V14.518L51.6263 14.71C51.3583 15.206 51.0163 15.576 50.6003 15.82C50.1883 16.06 49.6803 16.18 49.0763 16.18ZM49.2983 15.154C49.6543 15.154 49.9603 15.092 50.2163 14.968C50.4723 14.84 50.6783 14.678 50.8343 14.482C50.9903 14.286 51.0923 14.082 51.1403 13.87C51.2083 13.678 51.2463 13.462 51.2543 13.222C51.2663 12.982 51.2723 12.79 51.2723 12.646L51.6803 12.796C51.2843 12.856 50.9243 12.91 50.6003 12.958C50.2763 13.006 49.9823 13.054 49.7183 13.102C49.4583 13.146 49.2263 13.2 49.0223 13.264C48.8503 13.324 48.6963 13.396 48.5603 13.48C48.4283 13.564 48.3223 13.666 48.2423 13.786C48.1663 13.906 48.1283 14.052 48.1283 14.224C48.1283 14.392 48.1703 14.548 48.2543 14.692C48.3383 14.832 48.4663 14.944 48.6383 15.028C48.8103 15.112 49.0303 15.154 49.2983 15.154ZM56.6523 16.18C56.0483 16.18 55.5263 16.03 55.0863 15.73C54.6503 15.43 54.3123 15.022 54.0723 14.506C53.8363 13.986 53.7183 13.402 53.7183 12.754C53.7183 12.102 53.8383 11.52 54.0783 11.008C54.3183 10.492 54.6583 10.086 55.0983 9.79C55.5423 9.49 56.0683 9.34 56.6763 9.34C57.2883 9.34 57.8023 9.49 58.2183 9.79C58.6383 10.086 58.9543 10.492 59.1663 11.008C59.3823 11.524 59.4903 12.106 59.4903 12.754C59.4903 13.402 59.3823 13.984 59.1663 14.5C58.9503 15.016 58.6323 15.426 58.2123 15.73C57.7923 16.03 57.2723 16.18 56.6523 16.18ZM56.8263 15.046C57.2383 15.046 57.5743 14.948 57.8343 14.752C58.0943 14.556 58.2843 14.286 58.4043 13.942C58.5243 13.598 58.5843 13.202 58.5843 12.754C58.5843 12.306 58.5223 11.91 58.3983 11.566C58.2783 11.222 58.0903 10.954 57.8343 10.762C57.5823 10.57 57.2603 10.474 56.8683 10.474C56.4523 10.474 56.1103 10.576 55.8423 10.78C55.5743 10.984 55.3743 11.258 55.2423 11.602C55.1143 11.946 55.0503 12.33 55.0503 12.754C55.0503 13.182 55.1143 13.57 55.2423 13.918C55.3743 14.262 55.5703 14.536 55.8303 14.74C56.0943 14.944 56.4263 15.046 56.8263 15.046ZM58.5843 16V11.338H58.4403V7.36H59.7003V16H58.5843ZM64.2531 16.18C63.6091 16.18 63.0431 16.04 62.5551 15.76C62.0711 15.476 61.6931 15.082 61.4211 14.578C61.1531 14.07 61.0191 13.482 61.0191 12.814C61.0191 12.106 61.1511 11.492 61.4151 10.972C61.6831 10.452 62.0551 10.05 62.5311 9.766C63.0071 9.482 63.5611 9.34 64.1931 9.34C64.8531 9.34 65.4151 9.494 65.8791 9.802C66.3431 10.106 66.6891 10.54 66.9171 11.104C67.1491 11.668 67.2411 12.338 67.1931 13.114H65.9391V12.658C65.9311 11.906 65.7871 11.35 65.5071 10.99C65.2311 10.63 64.8091 10.45 64.2411 10.45C63.6131 10.45 63.1411 10.648 62.8251 11.044C62.5091 11.44 62.3511 12.012 62.3511 12.76C62.3511 13.472 62.5091 14.024 62.8251 14.416C63.1411 14.804 63.5971 14.998 64.1931 14.998C64.5851 14.998 64.9231 14.91 65.2071 14.734C65.4951 14.554 65.7191 14.298 65.8791 13.966L67.1091 14.356C66.8571 14.936 66.4751 15.386 65.9631 15.706C65.4511 16.022 64.8811 16.18 64.2531 16.18ZM61.9431 13.114V12.136H66.5691V13.114H61.9431ZM71.1132 16.18C70.5092 16.18 69.9872 16.03 69.5472 15.73C69.1112 15.43 68.7732 15.022 68.5332 14.506C68.2972 13.986 68.1792 13.402 68.1792 12.754C68.1792 12.102 68.2992 11.52 68.5392 11.008C68.7792 10.492 69.1192 10.086 69.5592 9.79C70.0032 9.49 70.5292 9.34 71.1372 9.34C71.7492 9.34 72.2632 9.49 72.6792 9.79C73.0992 10.086 73.4152 10.492 73.6272 11.008C73.8432 11.524 73.9512 12.106 73.9512 12.754C73.9512 13.402 73.8432 13.984 73.6272 14.5C73.4112 15.016 73.0932 15.426 72.6732 15.73C72.2532 16.03 71.7332 16.18 71.1132 16.18ZM71.2872 15.046C71.6992 15.046 72.0352 14.948 72.2952 14.752C72.5552 14.556 72.7452 14.286 72.8652 13.942C72.9852 13.598 73.0452 13.202 73.0452 12.754C73.0452 12.306 72.9832 11.91 72.8592 11.566C72.7392 11.222 72.5512 10.954 72.2952 10.762C72.0432 10.57 71.7212 10.474 71.3292 10.474C70.9132 10.474 70.5712 10.576 70.3032 10.78C70.0352 10.984 69.8352 11.258 69.7032 11.602C69.5752 11.946 69.5112 12.33 69.5112 12.754C69.5112 13.182 69.5752 13.57 69.7032 13.918C69.8352 14.262 70.0312 14.536 70.2912 14.74C70.5552 14.944 70.8872 15.046 71.2872 15.046ZM73.0452 16V11.338H72.9012V7.36H74.1612V16H73.0452Z" fill="#027A48"/>
</g>
</svg>
