<svg width="57" height="22" viewBox="0 0 57 22" fill="none" xmlns="http://www.w3.org/2000/svg">
<g style="mix-blend-mode:multiply">
<rect width="57" height="22" rx="11" fill="#FEF3F2"/>
<circle cx="10" cy="11" r="3" fill="#F04438"/>
<path d="M21.7619 16V7.36H27.2819V8.542H23.0159V10.966H26.5619V12.148H23.0159V14.818H27.2819V16H21.7619ZM28.7228 16V9.52H29.8388V11.092L29.6828 10.888C29.7628 10.68 29.8668 10.49 29.9948 10.318C30.1228 10.142 30.2708 9.998 30.4388 9.886C30.6028 9.766 30.7848 9.674 30.9848 9.61C31.1888 9.542 31.3968 9.502 31.6088 9.49C31.8208 9.474 32.0248 9.484 32.2208 9.52V10.696C32.0088 10.64 31.7728 10.624 31.5128 10.648C31.2568 10.672 31.0208 10.754 30.8048 10.894C30.6008 11.026 30.4388 11.186 30.3188 11.374C30.2028 11.562 30.1188 11.772 30.0668 12.004C30.0148 12.232 29.9888 12.474 29.9888 12.73V16H28.7228ZM33.3634 16V9.52H34.4794V11.092L34.3234 10.888C34.4034 10.68 34.5074 10.49 34.6354 10.318C34.7634 10.142 34.9114 9.998 35.0794 9.886C35.2434 9.766 35.4254 9.674 35.6254 9.61C35.8294 9.542 36.0374 9.502 36.2494 9.49C36.4614 9.474 36.6654 9.484 36.8614 9.52V10.696C36.6494 10.64 36.4134 10.624 36.1534 10.648C35.8974 10.672 35.6614 10.754 35.4454 10.894C35.2414 11.026 35.0794 11.186 34.9594 11.374C34.8434 11.562 34.7594 11.772 34.7074 12.004C34.6554 12.232 34.6294 12.474 34.6294 12.73V16H33.3634ZM40.7009 16.18C40.0529 16.18 39.4909 16.034 39.0149 15.742C38.5389 15.45 38.1709 15.048 37.9109 14.536C37.6549 14.02 37.5269 13.426 37.5269 12.754C37.5269 12.078 37.6589 11.484 37.9229 10.972C38.1869 10.456 38.5569 10.056 39.0329 9.772C39.5089 9.484 40.0649 9.34 40.7009 9.34C41.3489 9.34 41.9109 9.486 42.3869 9.778C42.8629 10.07 43.2309 10.472 43.4909 10.984C43.7509 11.496 43.8809 12.086 43.8809 12.754C43.8809 13.43 43.7489 14.026 43.4849 14.542C43.2249 15.054 42.8569 15.456 42.3809 15.748C41.9049 16.036 41.3449 16.18 40.7009 16.18ZM40.7009 14.998C41.3209 14.998 41.7829 14.79 42.0869 14.374C42.3949 13.954 42.5489 13.414 42.5489 12.754C42.5489 12.078 42.3929 11.538 42.0809 11.134C41.7729 10.726 41.3129 10.522 40.7009 10.522C40.2809 10.522 39.9349 10.618 39.6629 10.81C39.3909 10.998 39.1889 11.26 39.0569 11.596C38.9249 11.928 38.8589 12.314 38.8589 12.754C38.8589 13.434 39.0149 13.978 39.3269 14.386C39.6389 14.794 40.0969 14.998 40.7009 14.998ZM45.1994 16V9.52H46.3154V11.092L46.1594 10.888C46.2394 10.68 46.3434 10.49 46.4714 10.318C46.5994 10.142 46.7474 9.998 46.9154 9.886C47.0794 9.766 47.2614 9.674 47.4614 9.61C47.6654 9.542 47.8734 9.502 48.0854 9.49C48.2974 9.474 48.5014 9.484 48.6974 9.52V10.696C48.4854 10.64 48.2494 10.624 47.9894 10.648C47.7334 10.672 47.4974 10.754 47.2814 10.894C47.0774 11.026 46.9154 11.186 46.7954 11.374C46.6794 11.562 46.5954 11.772 46.5434 12.004C46.4914 12.232 46.4654 12.474 46.4654 12.73V16H45.1994Z" fill="#B42318"/>
</g>
</svg>
