<svg width="301" height="300" viewBox="0 0 301 300" fill="none" xmlns="http://www.w3.org/2000/svg">
<g clip-path="url(#clip0_5234_125879)">
<path d="M265.761 154.518C265.761 185.949 252.923 214.281 232.338 234.644C212.196 254.787 184.306 266.96 153.54 266.96C122.994 266.96 95.1047 254.565 74.7411 234.644C54.1561 214.281 41.3181 185.949 41.3181 154.518C41.3181 92.3201 91.5632 42.075 153.54 42.075C215.516 42.075 265.761 92.5414 265.761 154.518Z" fill="#EAEEF9"/>
<path d="M256.022 80.8099C261.034 80.8099 265.097 76.7468 265.097 71.7348C265.097 66.7227 261.034 62.6597 256.022 62.6597C251.01 62.6597 246.947 66.7227 246.947 71.7348C246.947 76.7468 251.01 80.8099 256.022 80.8099Z" fill="#EAEEF9"/>
<path d="M269.302 45.395C272.725 45.395 275.5 42.6202 275.5 39.1974C275.5 35.7745 272.725 32.9998 269.302 32.9998C265.88 32.9998 263.105 35.7745 263.105 39.1974C263.105 42.6202 265.88 45.395 269.302 45.395Z" fill="#EAEEF9"/>
<path d="M44.8595 80.5884C48.2824 80.5884 51.0571 77.8136 51.0571 74.3908C51.0571 70.9679 48.2824 68.1931 44.8595 68.1931C41.4366 68.1931 38.6619 70.9679 38.6619 74.3908C38.6619 77.8136 41.4366 80.5884 44.8595 80.5884Z" fill="#EAEEF9"/>
<path d="M38.0099 241.02C44.3666 241.02 49.5198 235.867 49.5198 229.51C49.5198 223.153 44.3666 218 38.0099 218C31.6532 218 26.5 223.153 26.5 229.51C26.5 235.867 31.6532 241.02 38.0099 241.02Z" fill="#EAEEF9"/>
<g filter="url(#filter0_d_5234_125879)">
<path d="M253.85 90.0686V212.704C253.85 217.808 249.764 221.852 244.755 221.852H60.0327C55.0241 221.852 50.8723 217.742 50.8723 212.704V90.0686C50.8723 85.0306 54.9582 80.9207 60.0327 80.9207H244.755C249.764 80.9207 253.85 85.0306 253.85 90.0686Z" fill="url(#paint0_linear_5234_125879)"/>
</g>
<path d="M115.071 166.935L145.448 118.859C148.754 114.348 155.676 114.348 158.983 118.859L189.359 166.935C192.562 171.245 189.359 177.36 183.883 177.36H120.651C115.071 177.26 111.868 171.245 115.071 166.935Z" fill="url(#paint1_linear_5234_125879)"/>
<path d="M152.216 131.167C149.321 131.167 147.07 133.711 147.284 136.698L148.892 154.621C149 156.391 150.501 157.829 152.216 157.829C153.931 157.829 155.432 156.391 155.539 154.621L157.147 136.698C157.362 133.601 155.11 131.167 152.216 131.167Z" fill="white"/>
<path d="M152.217 161.148C150.072 161.148 148.357 162.918 148.357 165.131C148.357 167.344 150.072 169.114 152.217 169.114C154.361 169.114 156.076 167.344 156.076 165.131C156.076 162.918 154.361 161.148 152.217 161.148Z" fill="white"/>
<path d="M253.85 90.0686V103.79H50.8723V90.0686C50.8723 85.0306 54.9582 80.9207 60.0327 80.9207H244.755C249.764 80.9207 253.85 85.0306 253.85 90.0686Z" fill="#D5DDEA"/>
<path d="M63.6571 95.7693C65.5497 95.7693 67.084 94.226 67.084 92.3223C67.084 90.4185 65.5497 88.8752 63.6571 88.8752C61.7645 88.8752 60.2302 90.4185 60.2302 92.3223C60.2302 94.226 61.7645 95.7693 63.6571 95.7693Z" fill="#989FB0"/>
<path d="M74.8602 95.7693C76.7529 95.7693 78.2871 94.226 78.2871 92.3223C78.2871 90.4185 76.7529 88.8752 74.8602 88.8752C72.9676 88.8752 71.4333 90.4185 71.4333 92.3223C71.4333 94.226 72.9676 95.7693 74.8602 95.7693Z" fill="#989FB0"/>
<path d="M85.9979 95.7693C87.8906 95.7693 89.4248 94.226 89.4248 92.3223C89.4248 90.4185 87.8906 88.8752 85.9979 88.8752C84.1053 88.8752 82.571 90.4185 82.571 92.3223C82.571 94.226 84.1053 95.7693 85.9979 95.7693Z" fill="#989FB0"/>
<path d="M93.2471 187.315H211.475" stroke="#D5DDEA" stroke-width="4.42688" stroke-miterlimit="10" stroke-linecap="round" stroke-linejoin="round"/>
<path d="M111.897 199.976H192.824" stroke="#D5DDEA" stroke-width="4.42688" stroke-miterlimit="10" stroke-linecap="round" stroke-linejoin="round"/>
<path d="M244.875 248.931L200.724 204.815L210.845 194.694L254.962 238.845L244.875 248.931Z" fill="#858B9B"/>
<path d="M260.223 264.454L226.368 230.599C223.541 227.772 223.541 223.165 226.368 220.338C229.195 217.511 233.802 217.511 236.629 220.338L270.484 254.193C273.311 257.02 273.311 261.627 270.484 264.454C267.657 267.281 263.05 267.281 260.223 264.454Z" fill="#858B9B"/>
<path d="M257.814 266.619L214.257 223.061C213.245 222.049 213.245 220.408 214.257 219.361L225.39 208.228C226.403 207.215 228.043 207.215 229.09 208.228L272.648 251.785C273.66 252.797 273.66 254.438 272.648 255.485L261.514 266.619C260.467 267.631 258.826 267.631 257.814 266.619Z" fill="url(#paint2_linear_5234_125879)"/>
<path d="M150.744 62.6597C104.534 62.6597 67.084 100.109 67.084 146.32C67.084 192.495 104.534 229.98 150.709 229.98C196.919 229.98 234.369 192.53 234.369 146.32C234.369 100.109 196.919 62.6597 150.744 62.6597ZM150.744 214.483C113.643 214.483 83.5926 183.944 83.5926 146.285C83.5926 108.626 113.643 78.1212 150.744 78.1212C187.845 78.1212 217.895 108.66 217.895 146.32C217.895 183.979 187.81 214.483 150.744 214.483Z" fill="url(#paint3_linear_5234_125879)"/>
</g>
<defs>
<filter id="filter0_d_5234_125879" x="2.17662" y="56.5728" width="300.369" height="238.322" filterUnits="userSpaceOnUse" color-interpolation-filters="sRGB">
<feFlood flood-opacity="0" result="BackgroundImageFix"/>
<feColorMatrix in="SourceAlpha" type="matrix" values="0 0 0 0 0 0 0 0 0 0 0 0 0 0 0 0 0 0 127 0" result="hardAlpha"/>
<feOffset dy="24.3478"/>
<feGaussianBlur stdDeviation="24.3478"/>
<feColorMatrix type="matrix" values="0 0 0 0 0.397708 0 0 0 0 0.47749 0 0 0 0 0.575 0 0 0 0.27 0"/>
<feBlend mode="normal" in2="BackgroundImageFix" result="effect1_dropShadow_5234_125879"/>
<feBlend mode="normal" in="SourceGraphic" in2="effect1_dropShadow_5234_125879" result="shape"/>
</filter>
<linearGradient id="paint0_linear_5234_125879" x1="152.295" y1="77.6608" x2="152.295" y2="223.371" gradientUnits="userSpaceOnUse">
<stop stop-color="#FDFEFF"/>
<stop offset="0.9964" stop-color="#ECF0F5"/>
</linearGradient>
<linearGradient id="paint1_linear_5234_125879" x1="113.763" y1="148.045" x2="190.648" y2="148.045" gradientUnits="userSpaceOnUse">
<stop stop-color="#B0BACC"/>
<stop offset="1" stop-color="#969EAE"/>
</linearGradient>
<linearGradient id="paint2_linear_5234_125879" x1="213.47" y1="237.43" x2="273.418" y2="237.43" gradientUnits="userSpaceOnUse">
<stop stop-color="#B0BACC"/>
<stop offset="1" stop-color="#969EAE"/>
</linearGradient>
<linearGradient id="paint3_linear_5234_125879" x1="67.0074" y1="146.338" x2="234.4" y2="146.338" gradientUnits="userSpaceOnUse">
<stop stop-color="#B0BACC"/>
<stop offset="1" stop-color="#969EAE"/>
</linearGradient>
<clipPath id="clip0_5234_125879">
<rect width="300" height="300" fill="white" transform="translate(0.5)"/>
</clipPath>
</defs>
</svg>
