<svg width="20" height="20" viewBox="0 0 20 20" fill="none" xmlns="http://www.w3.org/2000/svg">
<path d="M12.5 12.5L10 10" stroke="white" stroke-width="1.5" stroke-linecap="round" stroke-linejoin="round"/>
<path d="M10 10L7.5 12.5" stroke="white" stroke-width="1.5" stroke-linecap="round" stroke-linejoin="round"/>
<path d="M10.0002 16.6667V10" stroke="white" stroke-width="1.5" stroke-linecap="round" stroke-linejoin="round"/>
<path d="M6.6665 15.8334H4.99984C3.15889 15.8334 1.6665 14.341 1.6665 12.5C1.6665 10.6591 3.15889 9.16671 4.99984 9.16671L4.9915 9.10807C4.78409 7.6562 5.21693 6.18576 6.17786 5.0778C7.13878 3.96983 8.53322 3.33338 9.99984 3.33337C11.4665 3.33338 12.8609 3.96983 13.8218 5.0778C14.7827 6.18576 15.2156 7.6562 15.0082 9.10807L14.9998 9.16671C16.8408 9.16671 18.3332 10.6591 18.3332 12.5C18.3332 14.341 16.8408 15.8334 14.9998 15.8334H13.3332" stroke="white" stroke-width="1.5" stroke-linecap="round" stroke-linejoin="round"/>
</svg>
