<svg width="20" height="20" viewBox="0 0 20 20" fill="none" xmlns="http://www.w3.org/2000/svg">
<path d="M12.5 12.5L10 10" stroke="#007694" stroke-width="1.5" stroke-linecap="round" stroke-linejoin="round"/>
<path d="M10 10L7.5 12.5" stroke="#007694" stroke-width="1.5" stroke-linecap="round" stroke-linejoin="round"/>
<path d="M9.99967 16.6667V10" stroke="#007694" stroke-width="1.5" stroke-linecap="round" stroke-linejoin="round"/>
<path d="M6.66699 15.8333H5.00033C3.15938 15.8333 1.66699 14.3409 1.66699 12.4999C1.66699 10.659 3.15938 9.16659 5.00033 9.16659L4.99199 9.10795C4.78458 7.65607 5.21742 6.18564 6.17834 5.07768C7.13927 3.96971 8.53371 3.33326 10.0003 3.33325C11.4669 3.33326 12.8614 3.96971 13.8223 5.07768C14.7832 6.18564 15.2161 7.65607 15.0087 9.10795L15.0003 9.16659C16.8413 9.16659 18.3337 10.659 18.3337 12.4999C18.3337 14.3409 16.8413 15.8333 15.0003 15.8333H13.3337" stroke="#007694" stroke-width="1.5" stroke-linecap="round" stroke-linejoin="round"/>
</svg>
