<svg width="40" height="40" viewBox="0 0 40 40" fill="none" xmlns="http://www.w3.org/2000/svg">
<circle cx="20" cy="20" r="20" fill="#FEF3F2"/>
<path fill-rule="evenodd" clip-rule="evenodd" d="M20 12.5V12.5C24.1425 12.5 27.5 15.8575 27.5 20V20C27.5 24.1425 24.1425 27.5 20 27.5V27.5C15.8575 27.5 12.5 24.1425 12.5 20V20C12.5 15.8575 15.8575 12.5 20 12.5Z" stroke="#F04438" stroke-width="1.5" stroke-linecap="round" stroke-linejoin="round"/>
<path d="M19.9997 20.4167V16.25" stroke="#F04438" stroke-width="1.5" stroke-linecap="round" stroke-linejoin="round"/>
<path d="M19.9988 23.3333C19.8838 23.3333 19.7905 23.4267 19.7913 23.5417C19.7913 23.6567 19.8847 23.75 19.9997 23.75C20.1147 23.75 20.208 23.6567 20.208 23.5417C20.208 23.4267 20.1147 23.3333 19.9988 23.3333" stroke="#F04438" stroke-width="1.5" stroke-linecap="round" stroke-linejoin="round"/>
</svg>
