<svg width="40" height="40" viewBox="0 0 40 40" fill="none" xmlns="http://www.w3.org/2000/svg">
<circle opacity="0.5" cx="20" cy="20" r="20" fill="#CCF5FF"/>
<path d="M23.3332 12.5002H21.8252" stroke="#007694" stroke-width="1.5" stroke-linecap="round" stroke-linejoin="round"/>
<path d="M18.175 12.5002H16.667" stroke="#007694" stroke-width="1.5" stroke-linecap="round" stroke-linejoin="round"/>
<path d="M15.0001 20.9976V17.0475C14.9918 16.2992 15.4896 15.6395 16.2115 15.4422C18.7028 14.8526 21.2974 14.8526 23.7887 15.4422C24.5106 15.6395 25.0084 16.2992 25.0001 17.0475V20.9977" stroke="#007694" stroke-width="1.5" stroke-linecap="round" stroke-linejoin="round"/>
<path d="M15.5 28.1252V28.1252C16.4807 28.4029 17.5193 28.4029 18.5 28.1252V28.1252C19.4807 27.8474 20.5193 27.8474 21.5 28.1252V28.1252C22.4807 28.4029 23.5193 28.4029 24.5 28.1252V28.1252" stroke="#007694" stroke-width="1.5" stroke-linecap="round" stroke-linejoin="round"/>
<path d="M26.6663 21.6738L20.9397 19.35C20.3369 19.1053 19.6624 19.1053 19.0596 19.35L13.333 21.6738" stroke="#007694" stroke-width="1.5" stroke-linecap="round" stroke-linejoin="round"/>
<path d="M13.333 21.6738L14.2193 25.2115" stroke="#007694" stroke-width="1.5" stroke-linecap="round" stroke-linejoin="round"/>
<path d="M25.7803 25.2105L26.6664 21.6738" stroke="#007694" stroke-width="1.5" stroke-linecap="round" stroke-linejoin="round"/>
<path d="M12.5 25.4167V25.4167C13.4807 25.1389 14.5193 25.1389 15.5 25.4167V25.4167C16.4807 25.6944 17.5193 25.6944 18.5 25.4167V25.4167C19.4807 25.1389 20.5193 25.1389 21.5 25.4167V25.4167C22.4807 25.6944 23.5193 25.6944 24.5 25.4167V25.4167C25.4807 25.1389 26.5193 25.1389 27.5 25.4167V25.4167" stroke="#007694" stroke-width="1.5" stroke-linecap="round" stroke-linejoin="round"/>
<path d="M21.7752 12.2977C21.6825 11.9267 21.3492 11.6665 20.9668 11.6665H19.034C18.6516 11.6665 18.3183 11.9267 18.2256 12.2977" stroke="#007694" stroke-width="1.5" stroke-linecap="round" stroke-linejoin="round"/>
<path d="M22.4958 15.1812L21.775 12.2979" stroke="#007694" stroke-width="1.5" stroke-linecap="round" stroke-linejoin="round"/>
<path d="M18.2255 12.2979L17.5043 15.1829" stroke="#007694" stroke-width="1.5" stroke-linecap="round" stroke-linejoin="round"/>
</svg>
