<svg width="40" height="40" viewBox="0 0 40 40" fill="none" xmlns="http://www.w3.org/2000/svg">
<circle opacity="0.5" cx="20" cy="20" r="20" fill="#FEF0C7"/>
<path fill-rule="evenodd" clip-rule="evenodd" d="M24.5857 24.4676C25.4586 24.4676 26.1669 23.7614 26.1697 22.8886V22.8886V22.8886C26.1691 22.4444 25.9919 22.0188 25.677 21.7056L24.6274 20.6551V17.5347C24.6272 16.3081 24.1394 15.132 23.2716 14.2652C22.4038 13.3985 21.227 12.9123 20.0005 12.9136V12.9136C17.4491 12.915 15.3815 14.9834 15.381 17.5347V20.6526L14.3314 21.7031C14.0163 22.0162 13.8388 22.4418 13.8379 22.8861V22.8861V22.8861C13.8406 23.7589 14.549 24.4651 15.4219 24.4651L24.5857 24.4676Z" stroke="#FDB022" stroke-width="1.5" stroke-linecap="round" stroke-linejoin="round"/>
<path d="M18.7676 27.0863H21.2328" stroke="#FDB022" stroke-width="1.5" stroke-linecap="round" stroke-linejoin="round"/>
</svg>
