<svg width="20" height="20" viewBox="0 0 20 20" fill="none" xmlns="http://www.w3.org/2000/svg">
<path fill-rule="evenodd" clip-rule="evenodd" d="M14.222 17.5001H5.77866C4.88866 17.5001 4.16699 16.7785 4.16699 15.8885V4.11264C4.16699 3.22264 4.88866 2.50098 5.77866 2.50098H14.2212C15.112 2.50098 15.8337 3.22264 15.8337 4.11264V15.8876C15.8337 16.7785 15.112 17.5001 14.222 17.5001V17.5001Z" stroke="#007694" stroke-width="1.5" stroke-linecap="round" stroke-linejoin="round"/>
<path d="M15.8337 6.66667H4.16699" stroke="#007694" stroke-width="1.5" stroke-linecap="round" stroke-linejoin="round"/>
<path d="M6.66862 12.457C6.69195 12.457 6.71029 12.4754 6.71029 12.4987C6.71029 12.522 6.69195 12.5404 6.66862 12.5404C6.64529 12.5404 6.62695 12.522 6.62695 12.4987C6.62695 12.4762 6.64529 12.457 6.66862 12.457" stroke="#007694" stroke-width="1.5" stroke-linecap="round" stroke-linejoin="round"/>
<path d="M10.0007 12.459C10.024 12.459 10.0423 12.4773 10.0423 12.5007C10.0423 12.524 10.024 12.5423 10.0007 12.5423C9.97733 12.5423 9.959 12.524 9.959 12.5007C9.95816 12.4773 9.97733 12.459 10.0007 12.459" stroke="#007694" stroke-width="1.5" stroke-linecap="round" stroke-linejoin="round"/>
<path d="M13.3346 12.457C13.358 12.457 13.3763 12.4754 13.3763 12.4987C13.3763 12.522 13.358 12.5404 13.3346 12.5404C13.3113 12.5404 13.293 12.522 13.293 12.4987C13.293 12.4762 13.3113 12.457 13.3346 12.457" stroke="#007694" stroke-width="1.5" stroke-linecap="round" stroke-linejoin="round"/>
<path d="M6.66862 9.95703C6.69195 9.95703 6.71029 9.97536 6.71029 9.9987C6.71029 10.022 6.69195 10.0404 6.66862 10.0404C6.64529 10.0404 6.62695 10.022 6.62695 9.9987C6.62695 9.9762 6.64529 9.95703 6.66862 9.95703" stroke="#007694" stroke-width="1.5" stroke-linecap="round" stroke-linejoin="round"/>
<path d="M10.0007 9.95898C10.024 9.95898 10.0423 9.97732 10.0423 10.0007C10.0423 10.024 10.024 10.0423 10.0007 10.0423C9.97733 10.0423 9.959 10.024 9.959 10.0007C9.95816 9.97732 9.97733 9.95898 10.0007 9.95898" stroke="#007694" stroke-width="1.5" stroke-linecap="round" stroke-linejoin="round"/>
<path d="M13.3346 9.95703C13.358 9.95703 13.3763 9.97536 13.3763 9.9987C13.3763 10.022 13.358 10.0404 13.3346 10.0404C13.3113 10.0404 13.293 10.022 13.293 9.9987C13.293 9.9762 13.3113 9.95703 13.3346 9.95703" stroke="#007694" stroke-width="1.5" stroke-linecap="round" stroke-linejoin="round"/>
<path d="M6.66862 14.957C6.69195 14.957 6.71029 14.9754 6.71029 14.9987C6.71029 15.022 6.69195 15.0404 6.66862 15.0404C6.64529 15.0404 6.62695 15.022 6.62695 14.9987C6.62695 14.9762 6.64529 14.957 6.66862 14.957" stroke="#007694" stroke-width="1.5" stroke-linecap="round" stroke-linejoin="round"/>
<path d="M10.0007 14.959C10.024 14.959 10.0423 14.9773 10.0423 15.0007C10.0423 15.024 10.024 15.0423 10.0007 15.0423C9.97733 15.0423 9.959 15.024 9.959 15.0007C9.95816 14.9773 9.97733 14.959 10.0007 14.959" stroke="#007694" stroke-width="1.5" stroke-linecap="round" stroke-linejoin="round"/>
<path d="M13.3346 14.957C13.358 14.957 13.3763 14.9754 13.3763 14.9987C13.3763 15.022 13.358 15.0404 13.3346 15.0404C13.3113 15.0404 13.293 15.022 13.293 14.9987C13.293 14.9762 13.3113 14.957 13.3346 14.957" stroke="#007694" stroke-width="1.5" stroke-linecap="round" stroke-linejoin="round"/>
</svg>
