<svg width="24" height="24" viewBox="0 0 24 24" fill="none" xmlns="http://www.w3.org/2000/svg">
<rect width="24" height="24" rx="12" fill="#7BBD58"/>
<path d="M9.05484 17V8.36H12.4808C13.0648 8.36 13.5428 8.478 13.9148 8.714C14.2908 8.946 14.5688 9.244 14.7488 9.608C14.9328 9.972 15.0248 10.348 15.0248 10.736C15.0248 11.212 14.9108 11.616 14.6828 11.948C14.4588 12.28 14.1528 12.504 13.7648 12.62V12.32C14.3088 12.444 14.7208 12.702 15.0008 13.094C15.2848 13.486 15.4268 13.932 15.4268 14.432C15.4268 14.944 15.3288 15.392 15.1328 15.776C14.9368 16.16 14.6448 16.46 14.2568 16.676C13.8728 16.892 13.3968 17 12.8288 17H9.05484ZM10.5188 15.638H12.6488C12.9008 15.638 13.1268 15.588 13.3268 15.488C13.5268 15.384 13.6828 15.24 13.7948 15.056C13.9108 14.868 13.9688 14.646 13.9688 14.39C13.9688 14.158 13.9188 13.95 13.8188 13.766C13.7188 13.582 13.5728 13.436 13.3808 13.328C13.1888 13.216 12.9588 13.16 12.6908 13.16H10.5188V15.638ZM10.5188 11.81H12.4628C12.6708 11.81 12.8568 11.77 13.0208 11.69C13.1848 11.61 13.3148 11.492 13.4108 11.336C13.5068 11.18 13.5548 10.988 13.5548 10.76C13.5548 10.46 13.4588 10.21 13.2668 10.01C13.0748 9.81 12.8068 9.71 12.4628 9.71H10.5188V11.81Z" fill="white"/>
</svg>
