<svg width="24" height="24" viewBox="0 0 24 24" fill="none" xmlns="http://www.w3.org/2000/svg">
<rect width="24" height="24" rx="12" fill="#FFD400"/>
<path d="M12.0643 17.18C11.2003 17.18 10.4603 16.992 9.84431 16.616C9.22831 16.236 8.75431 15.708 8.42231 15.032C8.09431 14.356 7.93031 13.572 7.93031 12.68C7.93031 11.788 8.09431 11.004 8.42231 10.328C8.75431 9.652 9.22831 9.126 9.84431 8.75C10.4603 8.37 11.2003 8.18 12.0643 8.18C13.0603 8.18 13.8903 8.43 14.5543 8.93C15.2183 9.426 15.6843 10.096 15.9523 10.94L14.4943 11.342C14.3263 10.778 14.0403 10.338 13.6363 10.022C13.2323 9.702 12.7083 9.542 12.0643 9.542C11.4843 9.542 11.0003 9.672 10.6123 9.932C10.2283 10.192 9.93831 10.558 9.74231 11.03C9.55031 11.498 9.45231 12.048 9.44831 12.68C9.44831 13.312 9.54431 13.864 9.73631 14.336C9.93231 14.804 10.2243 15.168 10.6123 15.428C11.0003 15.688 11.4843 15.818 12.0643 15.818C12.7083 15.818 13.2323 15.658 13.6363 15.338C14.0403 15.018 14.3263 14.578 14.4943 14.018L15.9523 14.42C15.6843 15.264 15.2183 15.936 14.5543 16.436C13.8903 16.932 13.0603 17.18 12.0643 17.18Z" fill="white"/>
</svg>
