<svg width="24" height="24" viewBox="0 0 24 24" fill="none" xmlns="http://www.w3.org/2000/svg">
<rect width="24" height="24" rx="12" fill="#FDA80C"/>
<path d="M8.63883 17V8.36H11.3928C11.4648 8.36 11.6068 8.362 11.8188 8.366C12.0348 8.37 12.2428 8.384 12.4428 8.408C13.1268 8.496 13.7048 8.74 14.1768 9.14C14.6528 9.536 15.0128 10.042 15.2568 10.658C15.5008 11.274 15.6228 11.948 15.6228 12.68C15.6228 13.412 15.5008 14.086 15.2568 14.702C15.0128 15.318 14.6528 15.826 14.1768 16.226C13.7048 16.622 13.1268 16.864 12.4428 16.952C12.2468 16.976 12.0408 16.99 11.8248 16.994C11.6088 16.998 11.4648 17 11.3928 17H8.63883ZM10.1088 15.638H11.3928C11.5128 15.638 11.6648 15.634 11.8488 15.626C12.0368 15.618 12.2028 15.6 12.3468 15.572C12.7548 15.496 13.0868 15.314 13.3428 15.026C13.5988 14.738 13.7868 14.388 13.9068 13.976C14.0308 13.564 14.0928 13.132 14.0928 12.68C14.0928 12.212 14.0308 11.772 13.9068 11.36C13.7828 10.948 13.5908 10.602 13.3308 10.322C13.0748 10.042 12.7468 9.864 12.3468 9.788C12.2028 9.756 12.0368 9.738 11.8488 9.734C11.6648 9.726 11.5128 9.722 11.3928 9.722H10.1088V15.638Z" fill="white"/>
</svg>
