<svg width="16" height="22" viewBox="0 0 16 22" fill="none" xmlns="http://www.w3.org/2000/svg">
<path d="M3.33301 6.0244C3.33301 5.62812 3.52092 5.25531 3.83947 5.01958L7.25614 2.49135C7.69793 2.16444 8.30142 2.16444 8.74321 2.49135L12.1599 5.01959C12.4784 5.25531 12.6663 5.62812 12.6663 6.0244V18.2259C12.6663 19.2522 11.4978 19.8412 10.6728 19.2307L8.74321 17.8029C8.30142 17.476 7.69793 17.476 7.25614 17.8029L5.32654 19.2307C4.50151 19.8412 3.33301 19.2522 3.33301 18.2259V6.0244Z" fill="#ED7B84"/>
<path d="M5.33301 4.58592C5.33301 4.19503 5.51587 3.82664 5.82722 3.59029L7.24388 2.51489C7.69067 2.17573 8.30868 2.17573 8.75546 2.51489L10.1721 3.59029C10.4835 3.82664 10.6663 4.19503 10.6663 4.58592V10.5095C10.6663 11.5074 9.52431 12.0742 8.72949 11.4709C8.29806 11.1434 7.70129 11.1434 7.26986 11.4709C6.47504 12.0742 5.33301 11.5074 5.33301 10.5095V4.58592Z" fill="url(#paint0_linear_4602_98204)"/>
<path fill-rule="evenodd" clip-rule="evenodd" d="M8 17.5576V2.24609C8.26132 2.24609 8.52264 2.32782 8.74353 2.49128L12.1602 5.01951C12.4788 5.25523 12.6667 5.62804 12.6667 6.02432V18.2258C12.6667 19.2522 11.4982 19.8411 10.6731 19.2306L8.74353 17.8028C8.52264 17.6393 8.26132 17.5576 8 17.5576Z" fill="white" fill-opacity="0.12"/>
<defs>
<linearGradient id="paint0_linear_4602_98204" x1="5.33301" y1="11.647" x2="5.33301" y2="2.26469" gradientUnits="userSpaceOnUse">
<stop stop-color="white" stop-opacity="0"/>
<stop offset="1" stop-color="white" stop-opacity="0.65"/>
</linearGradient>
</defs>
</svg>
