<svg width="17" height="22" viewBox="0 0 17 22" fill="none" xmlns="http://www.w3.org/2000/svg">
<path d="M3.83301 6.0244C3.83301 5.62812 4.02092 5.25531 4.33947 5.01958L7.75614 2.49135C8.19793 2.16444 8.80142 2.16444 9.24321 2.49135L12.6599 5.01959C12.9784 5.25531 13.1663 5.62812 13.1663 6.0244V18.2259C13.1663 19.2522 11.9978 19.8412 11.1728 19.2307L9.24321 17.8029C8.80142 17.476 8.19793 17.476 7.75614 17.8029L5.82654 19.2307C5.00151 19.8412 3.83301 19.2522 3.83301 18.2259V6.0244Z" fill="#1570EF"/>
<path d="M5.83301 4.58592C5.83301 4.19503 6.01587 3.82664 6.32722 3.59029L7.74388 2.51489C8.19067 2.17573 8.80868 2.17573 9.25546 2.51489L10.6721 3.59029C10.9835 3.82664 11.1663 4.19503 11.1663 4.58592V10.5095C11.1663 11.5074 10.0243 12.0742 9.22949 11.4709V11.4709C8.79806 11.1434 8.20129 11.1434 7.76986 11.4709V11.4709C6.97504 12.0742 5.83301 11.5074 5.83301 10.5095V4.58592Z" fill="url(#paint0_linear_4602_98198)"/>
<path fill-rule="evenodd" clip-rule="evenodd" d="M8.5 17.5576V2.24609C8.76132 2.24609 9.02264 2.32782 9.24353 2.49128L12.6602 5.01951C12.9788 5.25523 13.1667 5.62804 13.1667 6.02432V18.2258C13.1667 19.2522 11.9982 19.8411 11.1731 19.2306L9.24353 17.8028C9.02264 17.6393 8.76132 17.5576 8.5 17.5576Z" fill="white" fill-opacity="0.12"/>
<defs>
<linearGradient id="paint0_linear_4602_98198" x1="5.83301" y1="11.647" x2="5.83301" y2="2.26469" gradientUnits="userSpaceOnUse">
<stop stop-color="white" stop-opacity="0"/>
<stop offset="1" stop-color="white" stop-opacity="0.65"/>
</linearGradient>
</defs>
</svg>
