<svg width="20" height="20" viewBox="0 0 20 20" fill="none" xmlns="http://www.w3.org/2000/svg">
<path d="M16.38 2.82024C17.4735 3.91371 17.4735 5.68656 16.38 6.78003C15.2865 7.87349 13.5137 7.87349 12.4202 6.78003C11.3267 5.68656 11.3267 3.91371 12.4202 2.82024C12.9453 2.29513 13.6575 2.00012 14.4001 2.00012C15.1427 2.00012 15.8549 2.29513 16.38 2.82024V2.82024V2.82024" stroke="#475467" stroke-width="1.2" stroke-linecap="round" stroke-linejoin="round"/>
<path d="M16.3999 6.80005L17.5999 8.00005" stroke="#475467" stroke-width="1.2" stroke-linecap="round" stroke-linejoin="round"/>
<path d="M17.5997 11.2001V12.8001C17.5997 15.0093 15.8088 16.8001 13.5997 16.8001H7.19971C4.99057 16.8001 3.19971 15.0093 3.19971 12.8001V6.40015C3.19971 4.19101 4.99057 2.40015 7.19971 2.40015H9.59971" stroke="#475467" stroke-width="1.2" stroke-linecap="round" stroke-linejoin="round"/>
<path d="M13.5997 11.6001H7.19971" stroke="#475467" stroke-width="1.2" stroke-linecap="round" stroke-linejoin="round"/>
<path d="M9.59971 8.40012H7.19971" stroke="#475467" stroke-width="1.2" stroke-linecap="round" stroke-linejoin="round"/>
</svg>
