<svg width="26" height="26" viewBox="0 0 26 26" fill="none" xmlns="http://www.w3.org/2000/svg">
<path d="M13.9447 15.304C14.9411 14.3076 14.9411 12.6929 13.9447 11.6965C12.9482 10.7001 11.3336 10.7001 10.3372 11.6965C9.34074 12.6929 9.34074 14.3076 10.3372 15.304C11.3326 16.3004 12.9482 16.3004 13.9447 15.304" stroke="#007694" stroke-width="1.5" stroke-linecap="round" stroke-linejoin="round"/>
<path d="M18.5182 13.5004C18.5182 13.7815 18.4932 14.0616 18.4591 14.3337L19.9598 15.5072C20.2919 15.7683 20.3829 16.2335 20.1719 16.5997L18.8373 18.9076C18.6262 19.2728 18.179 19.4268 17.7869 19.2708L16.4463 18.7325C16.1802 18.6255 15.8831 18.6705 15.643 18.8286C15.4359 18.9656 15.2218 19.0917 14.9997 19.2027C14.7436 19.3308 14.5565 19.5649 14.5155 19.848L14.3114 21.2766C14.2514 21.6938 13.8932 22.0039 13.4711 22.0039H10.81C10.3888 22.0039 10.0306 21.6938 9.97061 21.2766L9.76453 19.846C9.72351 19.5639 9.53743 19.3308 9.28333 19.2017C9.06023 19.0887 8.84514 18.9606 8.63706 18.8236C8.39796 18.6665 8.10184 18.6245 7.83672 18.7305L6.49417 19.2698C6.102 19.4268 5.65382 19.2728 5.44373 18.9066L4.10917 16.5987C3.89708 16.2325 3.98812 15.7663 4.32126 15.5062L5.82189 14.3327C5.78787 14.0606 5.76186 13.7805 5.76186 13.4994C5.76186 13.2193 5.78687 12.9381 5.82189 12.666L4.32126 11.4925C3.98912 11.2314 3.89808 10.7662 4.10917 10.4001L5.44373 8.09212C5.65482 7.72696 6.102 7.5729 6.49417 7.72896L7.83773 8.26819C8.10384 8.37623 8.39996 8.33422 8.63806 8.17615C8.84514 8.03809 9.06124 7.91204 9.28433 7.79799C9.53943 7.66894 9.72451 7.43684 9.76553 7.15372L9.97061 5.72413C10.0296 5.30696 10.3878 4.99683 10.809 4.99683H12.1405" stroke="#007694" stroke-width="1.5" stroke-linecap="round" stroke-linejoin="round"/>
<path d="M16.0012 3.49609V8.99839" stroke="#007694" stroke-width="1.5" stroke-linecap="round" stroke-linejoin="round"/>
<path d="M19.0022 3.49609V8.99839" stroke="#007694" stroke-width="1.5" stroke-linecap="round" stroke-linejoin="round"/>
<path d="M22.0041 3.49609V8.99839" stroke="#007694" stroke-width="1.5" stroke-linecap="round" stroke-linejoin="round"/>
</svg>
