<svg width="24" height="24" viewBox="0 0 24 24" fill="none" xmlns="http://www.w3.org/2000/svg">
<path d="M18.001 5.25001C18.1389 5.25056 18.2504 5.36273 18.25 5.50067C18.2496 5.63861 18.1376 5.75019 17.9997 5.75C17.8617 5.74982 17.75 5.63795 17.75 5.50001C17.7496 5.43342 17.776 5.36947 17.8232 5.32248C17.8704 5.27549 17.9344 5.24939 18.001 5.25001" stroke="#007694" stroke-width="1.5" stroke-linecap="round" stroke-linejoin="round"/>
<path fill-rule="evenodd" clip-rule="evenodd" d="M21.5 5.5V5.5C21.5 3.567 19.933 2 18 2V2C16.067 2 14.5 3.567 14.5 5.5V5.5C14.5 7.13851 16.288 8.88881 17.308 9.75435C17.7108 10.0819 18.2882 10.0819 18.691 9.75435C19.712 8.88881 21.5 7.13851 21.5 5.5Z" stroke="#007694" stroke-width="1.5" stroke-linecap="round" stroke-linejoin="round"/>
<path d="M5.15723 6.15747L17.8429 18.8432" stroke="#007694" stroke-width="1.5" stroke-linecap="round" stroke-linejoin="round"/>
<path d="M21 12C21 16.9706 16.9706 21 12 21C7.02944 21 3 16.9706 3 12C3 7.02944 7.02944 3 12 3" stroke="#007694" stroke-width="1.5" stroke-linecap="round" stroke-linejoin="round"/>
<path d="M5.15723 17.8428L11 12" stroke="#007694" stroke-width="1.5" stroke-linecap="round" stroke-linejoin="round"/>
</svg>
