<svg width="26" height="26" viewBox="0 0 26 26" fill="none" xmlns="http://www.w3.org/2000/svg">
<path d="M3.99609 19.6278C5.09655 19.1276 6.49714 19.1276 7.59759 19.6278C8.69805 20.1281 10.0986 20.1281 11.1991 19.6278C12.2996 19.1276 13.7001 19.1276 14.8006 19.6278C15.9011 20.1281 17.3016 20.1281 18.4021 19.6278C19.5026 19.1276 20.9031 19.1276 22.0036 19.6278" stroke="#007694" stroke-width="1.5" stroke-linecap="round" stroke-linejoin="round"/>
<path d="M7.59766 22.6291C8.69811 23.1293 10.0987 23.1293 11.1992 22.6291C12.2996 22.1289 13.7002 22.1289 14.8007 22.6291C15.9011 23.1293 17.3017 23.1293 18.4022 22.6291" stroke="#007694" stroke-width="1.5" stroke-linecap="round" stroke-linejoin="round"/>
<path fill-rule="evenodd" clip-rule="evenodd" d="M15.001 13.0002V4.73772C15.001 3.87736 16.1174 3.53922 16.5946 4.25552L21.5227 11.6486C21.9089 12.2258 21.4947 13.0002 20.7994 13.0002H15.001Z" stroke="#007694" stroke-width="1.5" stroke-linecap="round" stroke-linejoin="round"/>
<path d="M11.9991 16.0014V3.95034C11.9991 3.00795 10.7766 2.63779 10.2534 3.42212L4.85611 11.5185C4.43393 12.1518 4.88712 13.0001 5.64844 13.0001H11.9991" stroke="#007694" stroke-width="1.5" stroke-linecap="round" stroke-linejoin="round"/>
<path d="M20.9028 19.3028L22.0033 16.0015H4.74609L6.39078 19.2918" stroke="#007694" stroke-width="1.5" stroke-linecap="round" stroke-linejoin="round"/>
</svg>
