<svg width="20" height="20" viewBox="0 0 20 20" fill="none" xmlns="http://www.w3.org/2000/svg">
<path d="M17.5 10C17.5 5.85786 14.1421 2.5 10 2.5C5.85786 2.5 2.5 5.85786 2.5 10C2.5 14.1421 5.85786 17.5 10 17.5" stroke="#007694" stroke-width="1.5" stroke-linecap="round" stroke-linejoin="round"/>
<path d="M16.6668 13.3333H15.8335" stroke="#007694" stroke-width="1.5" stroke-linecap="round" stroke-linejoin="round"/>
<path d="M16.6668 15.8333H13.3335" stroke="#007694" stroke-width="1.5" stroke-linecap="round" stroke-linejoin="round"/>
<path d="M11.4587 11.3172V12.7073C11.4587 13.0229 11.2803 13.3115 10.998 13.4527L9.74798 14.0777C9.48966 14.2068 9.18288 14.193 8.93721 14.0412C8.69153 13.8893 8.54199 13.6211 8.54199 13.3323V11.3177" stroke="#007694" stroke-width="1.5" stroke-linecap="round" stroke-linejoin="round"/>
<path d="M6.6665 8.33333V8.20833C6.6665 7.81713 6.98364 7.5 7.37484 7.5H12.6248C13.016 7.5 13.3332 7.81713 13.3332 8.20833V8.33333" stroke="#007694" stroke-width="1.5" stroke-linecap="round" stroke-linejoin="round"/>
<path d="M8.54196 11.3176C7.3973 10.7637 6.66915 9.60501 6.6665 8.33333" stroke="#007694" stroke-width="1.5" stroke-linecap="round" stroke-linejoin="round"/>
<path d="M13.3335 8.33333C13.3309 9.60464 12.6032 10.763 11.459 11.3172" stroke="#007694" stroke-width="1.5" stroke-linecap="round" stroke-linejoin="round"/>
</svg>
