<svg width="24" height="24" viewBox="0 0 24 24" fill="none" xmlns="http://www.w3.org/2000/svg">
<path d="M16 3H14.1904" stroke="#007694" stroke-width="1.5" stroke-linecap="round" stroke-linejoin="round"/>
<path d="M9.80957 3H8" stroke="#007694" stroke-width="1.5" stroke-linecap="round" stroke-linejoin="round"/>
<path d="M6.00012 13.1972V8.45701C5.99021 7.55899 6.58756 6.7674 7.45385 6.53059C10.4434 5.82314 13.5568 5.82314 16.5464 6.53059C17.4127 6.7674 18.01 7.55899 18.0001 8.45701V13.1972" stroke="#007694" stroke-width="1.5" stroke-linecap="round" stroke-linejoin="round"/>
<path d="M6.6001 21.75V21.75C7.77695 22.0833 9.02325 22.0833 10.2001 21.75V21.75C11.3769 21.4167 12.6232 21.4167 13.8001 21.75V21.75C14.9769 22.0833 16.2232 22.0833 17.4001 21.75V21.75" stroke="#007694" stroke-width="1.5" stroke-linecap="round" stroke-linejoin="round"/>
<path d="M20 14.0087L13.128 11.2202C12.4046 10.9266 11.5953 10.9266 10.8719 11.2202L4 14.0087" stroke="#007694" stroke-width="1.5" stroke-linecap="round" stroke-linejoin="round"/>
<path d="M4 14.0087L5.0636 18.2539" stroke="#007694" stroke-width="1.5" stroke-linecap="round" stroke-linejoin="round"/>
<path d="M18.9365 18.2528L19.9999 14.0087" stroke="#007694" stroke-width="1.5" stroke-linecap="round" stroke-linejoin="round"/>
<path d="M3 18.5V18.5C4.17685 18.1667 5.42315 18.1667 6.6 18.5V18.5C7.77685 18.8333 9.02315 18.8333 10.2 18.5V18.5C11.3769 18.1667 12.6231 18.1667 13.8 18.5V18.5C14.9769 18.8333 16.2231 18.8333 17.4 18.5V18.5C18.5769 18.1667 19.8231 18.1667 21 18.5V18.5" stroke="#007694" stroke-width="1.5" stroke-linecap="round" stroke-linejoin="round"/>
<path d="M14.1297 2.75745C14.0184 2.31229 13.6184 1.99999 13.1596 1.99999H10.8403C10.3814 1.99999 9.98141 2.31229 9.87012 2.75745" stroke="#007694" stroke-width="1.5" stroke-linecap="round" stroke-linejoin="round"/>
<path d="M14.995 6.21748L14.13 2.75746" stroke="#007694" stroke-width="1.5" stroke-linecap="round" stroke-linejoin="round"/>
<path d="M9.87027 2.75746L9.00474 6.21957" stroke="#007694" stroke-width="1.5" stroke-linecap="round" stroke-linejoin="round"/>
</svg>
