<svg xmlns="http://www.w3.org/2000/svg" viewBox="0 0 837.43 712.32"><defs><style>.cls-1{fill:#fff;}</style></defs><g id="Layer_2" data-name="Layer 2"><g id="New"><path class="cls-1" d="M837.37,291.18c-.77-1.63-1.5-3.28-2.39-4.84q-12-20.94-24.06-41.84Q796.45,219.32,782,194.12q-11.28-19.63-22.62-39.25c-.48-.84-2.76-4.75-3.41-5.88q-3.78-6.65-7.62-13.24l-38-65.14c-2.9-5-5.86-9.9-9.17-14.61-.46-.66-4.16-5.59-5.56-7.39a122.58,122.58,0,0,0-69.8-44.46c-.46-.11-4.63-.89-6.23-1.22A149,149,0,0,0,592.22.28C578.28,0,564.33.08,550.39,0l-9.3,0L487.74.06c-1.46,0-7.3.06-8.77.05Q456,.05,433,0h-7.8c-8,0-16,.13-24,.75a171.73,171.73,0,0,0-27.07,4.35c-.45.11-3.23.91-4.15,1.21-3.59,1.18-7.2,2.3-10.72,3.67a121.26,121.26,0,0,0-38.93,24.59c-.95.88-6.42,6.47-8.16,8.42a146,146,0,0,0-16.95,23.54q-27.39,46.73-54.75,93.48-28.77,49.33-57.39,98.77a14.45,14.45,0,0,0-1.35,2.62,5.59,5.59,0,0,0-.19,2.41,2.09,2.09,0,0,0,2.75,2c1.09-.37,2.19-.68,3.29-1,9.08-2.83,18.16-5.68,27.25-8.49a421.79,421.79,0,0,0,52-19.53,374,374,0,0,0,52-29c.67-.45,3.88-2.6,4.81-3.24q12.53-8.61,24.29-18.22,12.34-10.06,24.7-20.1c.49-.41,2.72-2.22,3.36-2.71,2.36-1.77,4.68-3.59,7-5.37a293.86,293.86,0,0,1,42.48-27.36c1.29-.68,7.44-3.65,9.23-4.46,15.14-6.87,30.82-12,47.36-14.12.46-.07,6.93-.68,9.7-1a84.84,84.84,0,0,1,10.32-.53c6.74,0,13.46.06,20.18.68a104.75,104.75,0,0,1,18.87,3.41c1.1.31,4.73,1.59,5.5,1.87a129.27,129.27,0,0,1,13.94,6.18A141,141,0,0,1,595,148a169,169,0,0,1,22.45,27.37c1.36,2.05,6.3,10.15,7.4,12.16A259.11,259.11,0,0,1,636.49,212a106.23,106.23,0,0,0,22.16,32.9A135.37,135.37,0,0,0,675,259.06,110.07,110.07,0,0,0,689.18,268c1.86,1,6.93,3.21,7.52,3.46a67.24,67.24,0,0,0,11.66,3.78c5.76,1.31,11.58,2.21,17.43,3,3.41.44,6.83.85,10.24,1.27,4.22.53,8.44,1.1,12.67,1.59,2.6.31,15.25,1.93,19,2.43,6.18.82,12.35,1.7,18.52,2.53,3.41.46,6.84.86,10.25,1.33,6,.82,12,1.71,18,2.5,7.16.94,14.32,1.81,21.48,2.71.16,0,.33,0,.49,0A1.12,1.12,0,0,0,837.37,291.18Z"/><path class="cls-1" d="M829.47,334.89c-7.68-1.69-15.36-3.41-23.06-5.05-13.31-2.83-26.63-5.61-39.94-8.44-11.22-2.38-22.44-4.82-33.66-7.19-1.28-.27-4.77-.93-5.24-1-9.18-1.71-18.32-3.54-27.64-4.48a141.18,141.18,0,0,0-24.06-.36,221,221,0,0,0-23.91,2.8c-6,1.07-18.4,3.91-18.71,4a223,223,0,0,0-47.17,17.76,263,263,0,0,0-40,25.61c-1.68,1.28-7.83,6.13-9.22,7.27q-13.33,10.91-26,22.55Q498,400.17,485.17,412c-4.59,4.21-9.28,8.32-13.87,12.53-1.68,1.54-12.87,11.21-13.89,12-5.52,4.38-10.93,8.89-16.54,13.15A213.62,213.62,0,0,1,382,481.79c-.77.27-3.81,1.37-4.58,1.61-5.63,1.74-11.28,3.39-17,4.68a187.82,187.82,0,0,1-32.53,4.59c-1.31.06-2.62.1-3.92.22a112.35,112.35,0,0,1-18.16,0c-1.95-.15-14.35-.91-18.58-1.37s-8.16-.85-12.21-1.41c-5.69-.78-11.35-1.69-17-2.53-6.81-1-13.58-2.24-20.32-3.65-10.27-2.14-20.41-4.79-30.45-7.87-.93-.28-5.56-1.74-6.93-2.19a360.31,360.31,0,0,1-36.95-14.67,403,403,0,0,1-36.85-19.56c-1-.58-4.86-2.89-5.82-3.49a418.57,418.57,0,0,1-61.94-47A403.88,403.88,0,0,1,4.42,328.87c-1.06-1.46-2.17-2.89-3.3-4.29-.16-.19-.59-.17-.9-.24-.47,1.14-.07,2.27.15,3.38.57,2.9,1.2,5.78,1.82,8.67,1.79,8.34,3.5,16.7,5.63,25a562.87,562.87,0,0,0,26.34,77.83,610.35,610.35,0,0,0,37.66,74.72c5.19,8.76,10.69,17.33,16.06,26a28.26,28.26,0,0,0,5.72,6.72q13.55,11.48,28.11,21.63c.53.37,3.47,2.41,4.43,3,5,3.16,10,6.37,15,9.37a274,274,0,0,0,61.19,26.69c.62.19,3.73,1.13,4.67,1.39a244.54,244.54,0,0,0,28.84,6c5.67.86,11.37,1.51,17.05,2.28,9.09,1.24,18.2,2.37,27.36,2.93,1,.06,1.95.25,2.93.32,5.56.44,18.57,1.06,19.55,1.09,10.82.4,21.6-.34,32.39-.88l.49,0c6.66-.83,13.34-1.43,20-2.58a218.73,218.73,0,0,0,22.51-5c.62-.17,4.68-1.31,6.09-1.72a206.89,206.89,0,0,0,27.14-10.25,228.12,228.12,0,0,0,48-29.79c.89-.72,12.25-10.43,13.57-11.64a484.57,484.57,0,0,0,36.25-37.39c10.35-11.84,20.55-23.81,30.8-35.74C541.2,484.9,554.43,470,556.3,468a386.54,386.54,0,0,1,30-29.78,209,209,0,0,1,44.65-30.27c1.16-.58,5.86-2.77,7.07-3.26,2.42-1,4.8-2.08,7.23-3a180.32,180.32,0,0,1,35.31-10,168.77,168.77,0,0,1,24.34-2.8c1.31,0,2.62-.05,3.92-.17a118.23,118.23,0,0,1,20.09-.05c.64.05,5.19.19,6.82.31,2.29.15,4.6.15,6.88.38,4.57.46,9.12,1.05,13.69,1.55,7.5.81,14.92,2.15,22.33,3.59,2.09.41,4.16.92,6.27,1.22a6.87,6.87,0,0,0,6.57-2.57c.62-.76,1.16-1.59,1.72-2.4l7.53-11,25.84-37.8c.92-1.36,1.86-2.7,2.75-4.08a13.75,13.75,0,0,0,.83-1.78A1.1,1.1,0,0,0,829.47,334.89Z"/><path class="cls-1" d="M758.7,432.39a18.46,18.46,0,0,0-3.81-.94c-3.4-.51-6.81-.92-10.22-1.4a161.67,161.67,0,0,0-18.11-1.56,171,171,0,0,0-30.4,1.68,173.76,173.76,0,0,0-23.45,5.33c-1.09.32-6.62,2.31-8.29,2.94a169.34,169.34,0,0,0-41,23,268.13,268.13,0,0,0-32.15,28.84c-.33.34-4.85,5-6.75,7.06-8.53,9.12-16.67,18.58-24.73,28.11-11.88,14-23.66,28.18-36,41.85a459.45,459.45,0,0,1-40.45,40.32c-.86.74-5,4.36-6.31,5.34-4.57,3.47-9,7.08-13.69,10.42a236.41,236.41,0,0,1-53.09,28.67,233.84,233.84,0,0,1-43.46,12.22c-1,.17-7,1.35-9.13,1.66a304.87,304.87,0,0,1-30.89,2.86,370.28,370.28,0,0,1-45.79-1c-3.6-.29-7.2-.61-10.78-1.07-6.19-.78-12.36-1.69-18.54-2.53-6.83-.93-13.6-2.23-20.37-3.54-10.63-2.07-21.18-4.51-31.73-7-1.27-.29-2.58-.47-3.88-.66a1.79,1.79,0,0,0-.92.2c-1.43.64-2,3.21-.91,4.19.86.76,1.73,1.51,2.65,2.19a311.62,311.62,0,0,0,46.35,28.89c22.49,11.24,46,19.2,71.08,22.23,6.52.79,13.06,1.36,19.63,1.53a178.67,178.67,0,0,0,20.17-.72A102.74,102.74,0,0,0,365,710.1a2,2,0,0,0,.49,0,163.75,163.75,0,0,0,16.9-3.15,228.69,228.69,0,0,0,52.47-19.4A345.41,345.41,0,0,0,479.65,660c.65-.47,3.54-2.52,4.3-3.12,4.25-3.34,8.53-6.66,12.69-10.12a232.2,232.2,0,0,0,35.22-36.31c5.85-7.51,11.71-15,17.66-22.42a300.37,300.37,0,0,1,32.16-34.55c.84-.76,9.74-8.17,10.39-8.65,1.58-1.16,3.11-2.41,4.7-3.56a158.93,158.93,0,0,1,31.86-18.36c12.68-5.35,25.8-8.45,39.65-8,1.14,0,4.05.07,4.37.1a88.16,88.16,0,0,1,24.86,5.53,12.14,12.14,0,0,0,2.35.68,5.28,5.28,0,0,0,5.27-1.93c1-1.29,2-2.63,2.88-4l31.08-45.5q10-14.62,19.94-29.26a25,25,0,0,0,2-3.38,2.92,2.92,0,0,0-.46-3.23A5.11,5.11,0,0,0,758.7,432.39Z"/></g></g></svg>